<?xml version="1.0" encoding="UTF-8"?>
<svg id="_Слой_2" data-name="Слой 2" xmlns="http://www.w3.org/2000/svg" viewBox="0 0 135 135">
  <defs>
    <style>
      .cls-1 {
        fill: #0e0f72;
      }

      .cls-1, .cls-2, .cls-3, .cls-4, .cls-5, .cls-6, .cls-7, .cls-8, .cls-9 {
        stroke-width: 0px;
      }

      .cls-2 {
        fill: #074b54;
      }

      .cls-3 {
        fill: #fdfdfc;
      }

      .cls-4 {
        fill: #d3d3e4;
      }

      .cls-5 {
        fill: #072856;
      }

      .cls-6 {
        fill: #179bad;
      }

      .cls-7 {
        fill: #1e4a7c;
      }

      .cls-8 {
        fill: #107a8a;
      }

      .cls-9 {
        fill: #1616ae;
      }
    </style>
  </defs>
  <g id="_Слой_1-2" data-name="Слой 1">
    <g>
      <path class="cls-8" d="M135,12.88v43.6c-.69-.61-1.37-1.22-2.06-1.83-.79-2.04-1.76-3.93-3.93-4.85-5.56-4.44-11.12-8.89-16.68-13.33-1.92-2.27-3.85-4.54-5.77-6.81-1.98-3.98-5.17-6.51-9.37-7.82-.17-.07-.35-.09-.53-.07-4.82-6.15-8.28-13.44-15.11-17.9-.06-.64-.11-1.28-.17-1.92,1.83-.27,4.2.83,5.07-1.95h34.68c6.02,2.79,10.77,6.95,13.87,12.88Z"/>
      <path class="cls-2" d="M86.45,0c-.86,2.79-3.23,1.68-5.06,1.96-4.39,0-8.8-.2-13.18.05-4.15.24-8.44-1.15-12.44.95-.31,0-.62,0-.93,0-12.04,0-24.08-.07-36.12,0-8.33.06-14.46,6.05-14.52,14.25-.09,12.2,0,24.41.02,36.61-.01,8.49-.03,16.98-.04,25.48-1.35,0-1.91,1.17-2.77,1.88-.05-27.06-.11-54.13-.16-81.19h85.22Z"/>
      <path class="cls-2" d="M132.94,54.65c.69.61,1.37,1.22,2.06,1.83v25.76c-1.95,1-2.54,2.9-3.15,4.78-5.48,3.81-11.74,6.77-15.66,12.35-2.95,4.19-5.82,8.57-9.98,11.38-7.73,5.21-12.75,12.57-17.8,20.02-1.95.39-3.39,1.68-4.91,2.83-8.27,0-16.53-.01-24.8-.02-1.04-.9-2.07-1.79-3.11-2.69,7.07-.03,14.14-.12,21.21-.08,4.12.03,7.15-1.86,9.6-4.96,1.22-1.54,2.44-3.08,3.63-4.64,2.82-3.71,5.61-7.43,8.42-11.14,1.99-1.61,4.41-2.69,5.92-4.89,5.34-1.23,6.1-6.57,8.97-10.02.62-.64,1.24-1.28,1.86-1.91,6.04-3.79,12.67-6.9,15.94-13.88,2.25-.87,1.84-2.85,1.85-4.6.02-6.71-.02-13.42-.04-20.13Z"/>
      <path class="cls-3" d="M58.7,133.58c8.27,0,16.53.01,24.8.02,12.53,0,25.05,0,37.58,0,4.64.06,9.28.11,13.92.17-.89,2.04-2.67.93-3.95.93-43.52.07-87.04.06-130.8.06v-56.62C.24,53.41.22,28.68.3,3.95c0-1.28-1.11-3.07.93-3.95.05,27.06.11,54.13.16,81.19,0,13.24,0,26.48,0,39.72v12.69h13.73c14.53,0,29.05-.01,43.58-.02Z"/>
      <path class="cls-6" d="M121.08,133.6c-12.53,0-25.05,0-37.58,0,1.52-1.15,2.96-2.44,4.91-2.83,9.24,0,18.48.04,27.72.02,9.72-.02,15.57-5.38,15.81-15.06.23-9.56-.03-19.14-.08-28.7.61-1.88,1.2-3.78,3.15-4.78v39.63c-.69-.08-1.44,0-1.65.72-1.84,6.2-6.88,8.8-12.27,11.01Z"/>
      <path class="cls-2" d="M135,12.88c-3.11-5.93-7.85-10.09-13.87-12.88h13.87v12.88Z"/>
      <path class="cls-2" d="M121.08,133.6c5.4-2.21,10.43-4.81,12.27-11.01.21-.71.96-.8,1.65-.72v11.89c-4.64-.06-9.28-.11-13.92-.17Z"/>
      <path class="cls-9" d="M104.36,105.19c-1.51,2.19-3.93,3.28-5.92,4.89-2.4-.14-3.09-2.24-4.23-3.76-1.9-2.52-3.96-1.67-6.06-.44-2.01,1.17-3.51,2.59-1.99,5.15,1.26,2.13,2.36,4.89-.9,5.48-2.56.46-6.96,3.77-7.96-2.53-.64-4.02-4.1-2.93-6.76-2.98-2.9-.05-2.95,2.04-2.89,4.1.18,5.45-3.91,3.65-6.65,3.79-3.69.18-3.29-2.13-2.56-4.65.92-3.18-.36-4.73-3.65-5.56-3.12-.78-4.6-.23-5.23,3.01-.69,3.51-3.18,3.9-6.01,2.61-1.18-.54-2.18-1.45-3.59-1.4l-.03-.03c-.55-1.91-1.13-3.82.62-5.46,2.33-2.18,2.75-4.25-.03-6.51-2.57-2.08-4.93-2.66-7.05.39-1.23,1.77-2.95,1.82-4.77,1.81-2.03-1.51-3.41-3.56-4.65-5.71.14-2.13,1.52-3.24,3.34-3.84,3.36-1.1,3.11-3.54,2.05-5.96-1.05-2.41-3.14-3.7-5.6-2.13-4.22,2.7-5.93,1.55-6.04-3.22-.03-1.44-1.45-2.61-1.04-4.5.69-.37,1.49-1.02,2.39-1.25,3.12-.79,5.38-1.86,4.98-5.92-.38-3.96-3.01-3.1-5.34-3.3-3.65-.31-2.64-3.15-2.72-5.27-.08-2.12-.27-4.88,2.97-4.47,5.96.74,7.54-2.3,7.29-7.47-.61-.38-1.12-.85-1.72-1.04-4.49-1.46-5.47-4.11-2.88-8.09.25-.38.19-.96.27-1.45.31-.62.61-1.23.92-1.85,1.8-.12,3.1.9,4.26,2.05,2.92,2.88,5.03,1.51,7.28-1.03,2.51-2.83.96-4.63-1.11-6.56-1.18-1.1-2.22-2.35-3.32-3.53,2.33-1.45,3.84-4.03,6.63-4.85,2.4-.24,3.72,1.32,4.56,3.13,2.04,4.41,4.64,2.01,7.26.84,3.31-1.48,1.87-3.61.93-5.73-.46-1.03-1.27-1.96-.98-3.21q7.19-4.05,10.75,2.89c.67,1.31,1.56,1.95,3.05,2.1,4.06.41,5.77-1.27,5.53-5.38-.22-3.77,2.13-4.74,5.47-4.47,3.33.28,4.7,1.99,4.28,5.25-.16,1.28-.31,2.57-.49,4.13,3.17.89,6.2,5.39,9.1-.09,3.11-5.88,2.96-5.94,8.71-2.06.52.35,1.22.44,1.83.65.18-.02.36,0,.54.07-.35,1.07-.53,2.25-1.09,3.2-3.48,5.95-3.42,6.25,2.9,10.33,3.14-1.04,3.8-5.45,7.55-5.72,1.92,2.27,3.85,4.54,5.77,6.81-.9.94-1.68,2.07-2.74,2.78-2.11,1.4-5.33,2.09-3.41,5.73,1.53,2.9,2.61,5.82,7.32,3.11,3.73-2.14,4.19,2.01,4.97,4.65.75,2.54,1.07,4.7-2.61,4.7-2.41,0-5.06-.05-4.54,3.44.42,2.83-.2,6.74,4.73,6.51,1.6-.08,3.61-.34,3.94,1.93.35,2.43.72,5.09-1.19,7.06-1.65,1.71-3.32.21-4.93-.53-.54-.25-1.23-.15-2.15-.25-.65,1.79-1.27,3.47-1.88,5.16-.65,1.8-.28,3.84,1.51,4.08,6.04.84,5.42,4.32,3.83,8.42-.62.64-1.24,1.28-1.86,1.91-1.29-.18-2.69-.1-3.84-.6-5.99-2.61-6.6-2.41-9.64,3.82,1.52,2.24,4.31,3.66,4.51,6.79ZM68.1,25.76c-22.76-.64-41.11,19.04-41.21,40.75-.11,24.45,19.84,42.06,40.41,42.04,21.97-.02,41.99-16.58,41.9-42.05-.07-21.99-18.26-41.18-41.1-40.74Z"/>
      <path class="cls-1" d="M96.65,21.78c-.61-.21-1.31-.3-1.83-.65-5.74-3.88-5.6-3.82-8.71,2.06-2.9,5.48-5.93.99-9.1.09.18-1.56.32-2.85.49-4.13.42-3.26-.95-4.97-4.28-5.25-3.34-.28-5.69.7-5.47,4.47.24,4.11-1.48,5.8-5.53,5.38-1.48-.15-2.38-.79-3.05-2.1q-3.54-6.95-10.75-2.89c-.29,1.25.53,2.18.98,3.21.94,2.12,2.38,4.25-.93,5.73-2.62,1.17-5.22,3.58-7.26-.84-.84-1.81-2.16-3.37-4.56-3.13,6.31-6.7,10.57-15.19,18.16-20.77.31,0,.62,0,.93,0,0,0-.05.05-.05.05,1.38,1.24,3.08.96,4.7.96,6.74,0,13.48-.02,20.23-.03.3,0,.61-.02.91-.06,6.83,4.45,10.28,11.75,15.11,17.9Z"/>
      <path class="cls-1" d="M115.19,93.26c1.59-4.1,2.21-7.58-3.83-8.42-1.79-.25-2.16-2.28-1.51-4.08.61-1.68,1.22-3.37,1.88-5.16.91.09,1.61,0,2.15.25,1.61.74,3.28,2.24,4.93.53,1.9-1.97,1.54-4.63,1.19-7.06-.33-2.27-2.34-2.01-3.94-1.93-4.93.24-4.31-3.68-4.73-6.51-.52-3.48,2.14-3.44,4.54-3.44,3.68,0,3.37-2.16,2.61-4.7-.78-2.64-1.25-6.79-4.97-4.65-4.71,2.71-5.79-.22-7.32-3.11-1.92-3.63,1.3-4.32,3.41-5.73,1.06-.71,1.83-1.84,2.74-2.78,5.56,4.44,11.12,8.89,16.68,13.33,2.42,5.04,2.02,10.44,2.02,15.8,0,4.59.06,9.19.1,13.78-3.27,6.98-9.9,10.09-15.94,13.88Z"/>
      <path class="cls-1" d="M106.56,29.67c-3.75.27-4.41,4.67-7.55,5.72-6.32-4.08-6.38-4.39-2.9-10.33.56-.95.73-2.13,1.09-3.2,4.2,1.31,7.39,3.84,9.37,7.82Z"/>
      <path class="cls-5" d="M131.13,79.38c-.03-4.59-.09-9.19-.1-13.78,0-5.36.4-10.76-2.02-15.8,2.17.92,3.13,2.82,3.93,4.85.02,6.71.05,13.42.04,20.13,0,1.75.4,3.72-1.85,4.6Z"/>
      <path class="cls-7" d="M81.55,3.88c-.3.04-.61.06-.91.06-1.39-1.2-3.08-.96-4.71-.96-6.74,0-13.48.02-20.22.03,0,0,.05-.05.05-.05,4-2.1,8.29-.71,12.44-.95,4.38-.25,8.79-.05,13.18-.05.05.64.11,1.28.16,1.92Z"/>
      <path class="cls-8" d="M24.04,97.4c1.25,2.15,2.63,4.19,4.66,5.71,2.26,4.96,6.49,7.66,11.23,9.77,0,0,.03.03.03.03,3.75,7.26,9.18,13.07,15.63,18,1.04.9,2.08,1.79,3.11,2.69-14.53,0-29.05.01-43.58.02-6.66-1.97-10.88-6.59-13.73-12.69,0-13.24,0-26.48,0-39.72.86-.72,1.42-1.88,2.77-1.88,4.93,7.89,13.33,11.97,19.87,18.09Z"/>
      <path class="cls-8" d="M54.83,2.96c-7.59,5.58-11.85,14.07-18.16,20.77-2.79.83-4.3,3.41-6.63,4.85-3.16,2.4-6.04,5.02-7.11,9.06-.31.62-.61,1.23-.92,1.85-7.2,3.2-13.07,8.07-17.8,14.34-.02-12.2-.11-24.41-.02-36.61.06-8.2,6.19-14.2,14.52-14.25,12.04-.08,24.08-.01,36.12,0Z"/>
      <path class="cls-1" d="M4.21,53.83c4.73-6.27,10.6-11.13,17.8-14.34-.08.49-.02,1.07-.27,1.45-2.59,3.98-1.61,6.63,2.88,8.09.6.19,1.11.67,1.72,1.04.24,5.18-1.34,8.22-7.29,7.47-3.24-.4-3.05,2.35-2.97,4.47.08,2.12-.93,4.96,2.72,5.27,2.34.2,4.96-.66,5.34,3.3.39,4.07-1.86,5.13-4.98,5.92-.9.23-1.7.88-2.39,1.25-.41,1.88,1,3.05,1.04,4.5.11,4.77,1.82,5.93,6.04,3.22,2.45-1.57,4.54-.29,5.6,2.13,1.06,2.42,1.31,4.86-2.05,5.96-1.83.6-3.21,1.71-3.34,3.84-6.54-6.12-14.95-10.2-19.87-18.09.01-8.49.03-16.98.04-25.48Z"/>
      <path class="cls-8" d="M131.85,87.02c.05,9.57.32,19.14.08,28.7-.24,9.68-6.08,15.04-15.81,15.06-9.24.02-18.48,0-27.72-.02,5.05-7.45,10.07-14.81,17.8-20.02,4.16-2.8,7.03-7.18,9.98-11.38,3.92-5.58,10.18-8.54,15.66-12.35Z"/>
      <path class="cls-1" d="M55.59,130.89c-6.45-4.92-11.87-10.73-15.63-18,1.41-.05,2.41.86,3.59,1.4,2.83,1.29,5.32.91,6.01-2.61.64-3.24,2.11-3.8,5.23-3.01,3.29.82,4.57,2.37,3.65,5.56-.73,2.52-1.12,4.83,2.56,4.65,2.74-.14,6.82,1.67,6.65-3.79-.07-2.06-.02-4.15,2.89-4.1,2.66.05,6.12-1.04,6.76,2.98,1,6.31,5.4,3,7.96,2.53,3.26-.59,2.16-3.35.9-5.48-1.51-2.56-.01-3.98,1.99-5.15,2.1-1.22,4.16-2.08,6.06.44,1.14,1.52,1.84,3.62,4.23,3.76-2.8,3.72-5.6,7.44-8.42,11.14-1.19,1.56-2.41,3.1-3.63,4.64-2.45,3.1-5.48,4.98-9.6,4.96-7.07-.04-14.14.04-21.21.08Z"/>
      <path class="cls-1" d="M104.36,105.19c-.2-3.13-2.99-4.56-4.51-6.79,3.04-6.23,3.65-6.43,9.64-3.82,1.15.5,2.55.41,3.84.6-2.87,3.45-3.63,8.78-8.97,10.02Z"/>
      <path class="cls-2" d="M1.39,120.91c2.85,6.1,7.07,10.72,13.73,12.69-4.43,0-8.87,0-13.73,0v-12.69Z"/>
      <path class="cls-1" d="M68.1,25.76c22.84-.44,41.03,18.74,41.1,40.74.09,25.47-19.93,42.03-41.9,42.05-20.57.02-40.53-17.59-40.41-42.04.1-21.71,18.46-41.39,41.21-40.75ZM67.2,105.07c22.16.68,38.7-17.4,39.11-37.27.44-21.28-16.34-38.89-37.52-39.04-23.16-.16-38.29,17.24-39.04,37.42-.81,21.74,19.78,40.55,37.45,38.88Z"/>
      <path class="cls-1" d="M39.93,112.87c-4.74-2.11-8.97-4.81-11.23-9.77,1.82,0,3.54-.05,4.77-1.81,2.13-3.05,4.49-2.47,7.05-.39,2.78,2.25,2.37,4.32.03,6.51-1.75,1.64-1.18,3.55-.62,5.46Z"/>
      <path class="cls-1" d="M22.93,37.65c1.07-4.04,3.94-6.66,7.11-9.06,1.1,1.18,2.14,2.43,3.32,3.53,2.07,1.93,3.63,3.73,1.11,6.56-2.25,2.53-4.36,3.91-7.28,1.03-1.16-1.15-2.46-2.16-4.26-2.05Z"/>
      <path class="cls-5" d="M55.71,3.01c6.74-.01,13.48-.04,20.22-.03,1.62,0,3.32-.24,4.71.96-6.74.01-13.48.04-20.22.03-1.62,0-3.32.28-4.7-.96Z"/>
      <path class="cls-9" d="M67.2,105.07c-17.67,1.67-38.25-17.14-37.45-38.88.75-20.18,15.88-37.58,39.04-37.42,21.18.15,37.96,17.76,37.52,39.04-.41,19.87-16.96,37.94-39.11,37.27ZM53.41,77.3c6.2-.03,10.48-4.34,10.44-10.52-.04-6.16-4.34-10.33-10.63-10.31-6.37.03-10.39,4.1-10.37,10.49.02,6.27,4.2,10.36,10.56,10.33ZM82.86,77.3c6.15.86,10.72-5.75,10.49-10.02-.41-7.8-5.65-11.14-10.72-10.88-6.12.32-10.71,4.62-10.64,10.59.07,5.96,4.65,10.3,10.87,10.31Z"/>
      <path class="cls-4" d="M53.41,77.3c-6.36.03-10.53-4.06-10.56-10.33-.02-6.39,4-10.47,10.37-10.49,6.28-.03,10.59,4.15,10.63,10.31.04,6.18-4.24,10.49-10.44,10.52ZM60.78,67.1c.1-4.95-2.54-7.7-7.42-7.75-4.72-.04-7.43,2.47-7.62,7.06-.2,4.97,2.37,7.83,7.18,7.98,4.95.15,7.77-2.46,7.87-7.3Z"/>
      <path class="cls-4" d="M82.86,77.3c-6.22,0-10.8-4.35-10.87-10.31-.07-5.97,4.52-10.27,10.64-10.59,5.07-.26,10.31,3.08,10.72,10.88.22,4.27-4.34,10.87-10.49,10.02ZM83.2,59.36c-4.7-.24-8.1,2.6-8.45,7.05-.34,4.28,2.98,7.76,7.61,7.99,4.34.21,7.79-2.72,8.08-6.85.31-4.5-2.75-7.96-7.25-8.19Z"/>
      <path class="cls-3" d="M60.78,67.1c-.1,4.84-2.91,7.45-7.87,7.3-4.81-.15-7.38-3.02-7.18-7.98.19-4.59,2.9-7.11,7.62-7.06,4.89.04,7.52,2.8,7.42,7.75Z"/>
      <path class="cls-3" d="M83.2,59.36c4.5.23,7.56,3.69,7.25,8.19-.29,4.13-3.75,7.06-8.08,6.85-4.64-.23-7.96-3.71-7.61-7.99.36-4.45,3.76-7.29,8.45-7.05Z"/>
    </g>
  </g>
</svg>