<?xml version="1.0" encoding="UTF-8"?>
<svg id="_Слой_2" data-name="Слой 2" xmlns="http://www.w3.org/2000/svg" viewBox="0 0 135 135">
  <defs>
    <style>
      .cls-1 {
        fill: #fefefe;
      }

      .cls-1, .cls-2, .cls-3, .cls-4, .cls-5, .cls-6, .cls-7, .cls-8, .cls-9 {
        stroke-width: 0px;
      }

      .cls-2 {
        fill: #169bad;
      }

      .cls-3 {
        fill: #0d720e;
      }

      .cls-4 {
        fill: #058905;
      }

      .cls-5 {
        fill: #cee1ce;
      }

      .cls-6 {
        fill: #0d6c78;
      }

      .cls-7 {
        fill: #084b52;
      }

      .cls-8 {
        fill: #17b117;
      }

      .cls-9 {
        fill: #0f7a8a;
      }
    </style>
  </defs>
  <g id="_Слой_1-2" data-name="Слой 1">
    <g>
      <path class="cls-9" d="M135,12.13v1.98c-.89.33-.72.66,0,.99v42.61c-2.18-1.55-2.43-4.74-5.04-5.91-5.93-4.65-11.86-9.29-17.79-13.94-1.2-2.91-3.78-4.65-5.82-6.86-1.83-4.66-5.72-6.98-10.03-8.8-.36-.34-.73-.68-1.09-1.02-4.05-5.21-6.75-11.55-12.7-15.17.6-2.71,2.8-1.75,4.4-1.77,8.49-.09,16.99-.1,25.48-.02,3.1.03,6.13.04,8.73-2.01,2.24-.11,3.86,1.38,5.77,2.14,3.86,1.53,4.41,6.25,8.09,7.78Z"/>
      <path class="cls-9" d="M57.71,135H14.11c-3.98-3.3-9.83-4.71-10.96-10.88,1.69-1.43,1-3.38,1.01-5.1.08-12.54.08-25.08.1-37.61,5.29,7.36,13.63,11.31,19.76,17.74,1.7,2.03,3.4,4.06,5.11,6.09,2.38,3.75,4.94,7.28,9.81,7.94.64.65,1.28,1.3,1.92,1.95,3.4,7.61,8.85,13.41,15.83,17.84.34.68.67,1.36,1.01,2.04Z"/>
      <path class="cls-7" d="M57.71,135c-.34-.68-.67-1.36-1.01-2.04,5.93,0,11.87-.21,17.78.06,3.69.17,6.65-.9,9.3-3.34,5.95-5.5,9.68-12.87,15.57-18.4,1.63-1.37,3.25-2.73,4.88-4.1,4.3-1.93,6.81-5.34,8.11-9.76,1.05-.91,1.23-2.59,2.72-3.11,2.37-.34,4.05-2.16,5.88-3.32,4.49-2.83,10.19-6.37,10.61-11.44.75-9.15,2.27-18.72-1.6-27.75,2.61,1.18,2.86,4.37,5.04,5.91v25.76c-1.65.83-2.64,2.15-2.96,3.98-10.05,6.2-16.61,16.09-25.21,23.73-7.08,6.29-13.41,12.87-18.45,20.8-1.92.54-3.54,1.57-4.91,3.02h-25.76Z"/>
      <path class="cls-2" d="M132.04,87.45c.32-1.82,1.31-3.15,2.96-3.98v40.63c-4.09,3.87-7.53,8.52-12.88,10.9h-38.64c1.36-1.45,2.98-2.48,4.91-3.02,9.39.02,18.78.07,28.16.04,9.4-.04,15.41-6.03,15.46-15.41.05-9.72.02-19.44.03-29.15Z"/>
      <path class="cls-1" d="M1.23,135c-2.04-.89-.93-2.67-.93-3.95C.23,87.53.24,44.01.24.24h56.62c24.73,0,49.45-.02,74.18.06,1.28,0,3.07-1.11,3.95.93-4.61.05-9.22.1-13.83.15-12.91.01-25.82.03-38.73.04-27,0-54,0-81.03,0v63.22c-.02,19.49-.03,38.98-.05,58.47-.04,3.96-.08,7.93-.12,11.89Z"/>
      <path class="cls-7" d="M121.17,1.38c4.61-.05,9.22-.1,13.83-.15v10.9c-3.68-1.53-4.24-6.25-8.09-7.78-1.91-.76-3.53-2.25-5.77-2.14,0-.28,0-.56.03-.83Z"/>
      <path class="cls-7" d="M1.23,135c.04-3.96.08-7.93.12-11.89.6.34,1.2.67,1.8,1.01,1.12,6.17,6.98,7.58,10.96,10.88H1.23Z"/>
      <path class="cls-7" d="M122.12,135c5.36-2.38,8.79-7.03,12.88-10.9v10.9h-12.88Z"/>
      <path class="cls-7" d="M135,15.1c-.72-.33-.89-.66,0-.99v.99Z"/>
      <path class="cls-8" d="M104.24,107.17c-1.63,1.37-3.25,2.73-4.88,4.1-4.56.66-4.23-5.04-7.51-5.93-4.19,1.68-8.62,3.05-4.65,8.88.6.88.46,2.43-1.02,2.83-2.61.69-4.98,2.61-7.89,1.76-2.65-9.1-.96-8.35-10.27-5.79-.11.43-.38.92-.32,1.36.72,4.81-1.33,6.34-6.06,5.86-4.85-.49-3.95-3.02-3.1-6.2.81-3.03-1.9-3.24-3.84-4.01-1.81-.72-3.88-1.37-4.35,1.17-1.2,6.46-4.84,6.22-9.48,3.9-.64-.65-1.28-1.3-1.93-1.95.18-.95.12-2.05.59-2.84,3.93-6.69,3.96-6.67-2.93-10.7-3.01,1.15-3.14,6.19-7.47,5.6-1.7-2.03-3.4-4.06-5.11-6.09.54-3.88,5.06-3.91,6.64-6.75q-2.55-6.45-8.4-5.16c-1.67.37-3.15.13-3.56-1.65-.57-2.44-2.2-4.8-1.18-7.44,9.29-1.86,7.56-.81,5.89-9.93-2.12-1.44-4.96.44-7.26-1.64.17-2.55-.78-5.33.8-8.22,2.52.29,5.05.58,7.07.82,6.35-7.37,0-9.4-4.91-11.63.66-2.62,2.29-4.36,1.99-6.63,0,0-.02,0-.02,0,.32-.32.64-.63.97-.95.33-.33.66-.67.99-1,1.55.04,3.05.59,3.99,1.67,3.03,3.47,5.2,1.9,7.53-.83,2.52-2.94.82-4.68-1.49-6.4-1.22-.91-2.11-2.06-2.2-3.67,2.06-1.92,3.88-4.19,6.84-4.84,2.2.1,3.07,1.73,3.76,3.43,1.1,2.75,2.83,2.81,5.03,1.38,1.36-.88,3.08-1.2,4.04-2.59.39-1.51-.57-2.57-1.07-3.75-.59-1.4-1.3-2.94.15-4.05,2-1.53,4.57-1.89,6.97-1.96,1.83-.05,2.1,1.82,2.07,3.35-.06,3.45,1.27,4.78,4.87,3.94,3.19-.74,6.47-.98,4.56-5.67-.32-.78-.42-1.58.17-2.31,9.23-1.84,9.84-1.3,8.56,7.86,2.93.75,6.79,5.11,8.63.67,2.37-5.72,5.39-5.48,9.79-4.01.36.34.73.68,1.09,1.02-.13,1.46.32,3.48-.48,4.29-5.29,5.41-.77,7.48,3.07,9.92,2.91-1.26,3.89-5.12,7.44-5.42,2.04,2.2,4.61,3.95,5.82,6.86-.6,1.76-2.33,2.39-3.69,3.1-3.2,1.67-3.58,3.54-1.91,6.73,1.64,3.14,3.36,3.44,6.27,1.89,5.1-2.72,4.73,2.39,5.85,4.64,1.34,2.7-.09,4.32-3.16,4.5-2.51.15-4.79.92-4.2,4.1.53,2.89.43,6.59,5.27,5.81,1.39-.22,2.92-.28,3.53,1.74,1.65,5.47-.55,8.13-5.96,6.99-.77-.16-1.53-.36-2.05-.48-7.36,7.79.58,9.32,4.91,11.83-.64,2.31-2.27,3.62-1.96,5.59-1.49.53-1.67,2.2-2.72,3.11-3.02-.4-4.72-3.42-7.97-4.05-1.62,2.03-3.84,3.66-4.83,6.08,1.21,3.02,5.71,3.68,4.69,7.72ZM76.55,27.97c-5.63-1.59-11.25-1.58-16.88,0-21.71,4.17-36.36,25.07-32.33,47.47,4.21,23.35,28.28,39.68,52.55,32.02,16.58-5.23,28.91-20.8,29.36-38.11.47-18.33-11.96-37.15-32.71-41.37Z"/>
      <path class="cls-3" d="M95.23,21.18c-4.4-1.47-7.42-1.71-9.79,4.01-1.84,4.44-5.7.08-8.63-.67,1.28-9.16.67-9.7-8.56-7.86-.59.73-.49,1.54-.17,2.31,1.91,4.68-1.37,4.92-4.56,5.67-3.59.84-4.93-.49-4.87-3.94.03-1.53-.25-3.4-2.07-3.35-2.4.07-4.96.43-6.97,1.96-1.45,1.11-.74,2.65-.15,4.05.5,1.18,1.46,2.24,1.07,3.75-.97,1.39-2.69,1.71-4.04,2.59-2.2,1.42-3.93,1.37-5.03-1.38-.68-1.7-1.56-3.32-3.75-3.43,1.92-4.49,5.51-7.85,8.37-11.65,2.02-2.69,3.53-6.45,7.56-7.23,1.48-1.43,3.22-1.85,5.28-1.81,7.15.12,14.31.08,21.46.11.49.86,1.08,1.58,2.15,1.71,5.95,3.61,8.65,9.95,12.7,15.17Z"/>
      <path class="cls-3" d="M115.07,94.3c-.31-1.97,1.32-3.28,1.96-5.59-4.33-2.51-12.27-4.04-4.91-11.83.52.12,1.28.32,2.05.48,5.4,1.14,7.61-1.52,5.96-6.99-.61-2.03-2.14-1.97-3.53-1.74-4.85.78-4.74-2.92-5.27-5.81-.59-3.18,1.7-3.95,4.2-4.1,3.06-.18,4.49-1.8,3.16-4.5-1.12-2.26-.74-7.36-5.85-4.64-2.91,1.55-4.62,1.25-6.27-1.89-1.67-3.19-1.3-5.05,1.91-6.73,1.37-.71,3.09-1.34,3.69-3.1,5.93,4.65,11.86,9.29,17.79,13.94,3.87,9.03,2.34,18.59,1.6,27.75-.41,5.07-6.11,8.61-10.61,11.44-1.83,1.15-3.51,2.98-5.88,3.32Z"/>
      <path class="cls-6" d="M82.53,6.01c-1.07-.13-1.66-.86-2.15-1.71.5-1.09,2.14-1.37,2.05-2.88,12.91-.01,25.82-.03,38.74-.04-.02.28-.03.56-.03.83-2.59,2.05-5.62,2.04-8.73,2.01-8.49-.07-16.99-.07-25.48.02-1.59.02-3.8-.94-4.4,1.77Z"/>
      <path class="cls-3" d="M106.36,31c-3.55.29-4.53,4.15-7.44,5.42-3.84-2.44-8.36-4.51-3.07-9.92.79-.81.35-2.83.48-4.29,4.32,1.82,8.2,4.14,10.03,8.8Z"/>
      <path class="cls-3" d="M40.87,115.11c4.65,2.32,8.28,2.56,9.48-3.9.47-2.54,2.54-1.89,4.35-1.17,1.94.77,4.65.98,3.84,4.01-.85,3.18-1.75,5.71,3.1,6.2,4.73.48,6.77-1.05,6.06-5.86-.07-.44.21-.93.32-1.36,9.31-2.56,7.62-3.31,10.27,5.79,2.91.86,5.28-1.07,7.89-1.76,1.48-.39,1.62-1.95,1.02-2.83-3.97-5.84.47-7.21,4.65-8.88,3.28.89,2.95,6.59,7.51,5.93-5.89,5.54-9.62,12.91-15.57,18.4-2.64,2.44-5.6,3.51-9.3,3.34-5.92-.27-11.85-.06-17.78-.06-6.98-4.44-12.43-10.23-15.83-17.84Z"/>
      <path class="cls-3" d="M21.11,40.9c.3,2.27-1.33,4.01-1.99,6.63,4.9,2.24,11.26,4.26,4.91,11.63-2.03-.23-4.56-.53-7.07-.82-1.58,2.89-.62,5.68-.8,8.22,2.3,2.08,5.14.2,7.26,1.64,1.68,9.12,3.4,8.07-5.89,9.93-1.01,2.64.61,4.99,1.18,7.44.41,1.77,1.89,2.02,3.56,1.65q5.85-1.3,8.4,5.16c-1.58,2.84-6.1,2.87-6.64,6.75-6.12-6.43-14.47-10.38-19.76-17.74,0,0,.03-.11.03-.11.3-8.88-1.12-17.81.79-26.64,3.46-6.77,9.94-10.02,16.01-13.75Z"/>
      <path class="cls-6" d="M3.16,124.12c-.6-.34-1.2-.67-1.8-1.01.02-19.49.03-38.98.05-58.47,1.74,4.09.37,8.39.87,12.56.18,1.56-.99,3.9,2.03,4.09,0,0-.03.11-.03.11-.02,12.54-.02,25.08-.1,37.61-.01,1.73.68,3.68-1.01,5.1Z"/>
      <path class="cls-3" d="M29.13,105.23c4.32.59,4.46-4.45,7.47-5.6,6.9,4.03,6.87,4.01,2.93,10.7-.46.79-.4,1.89-.59,2.84-4.88-.66-7.44-4.18-9.81-7.94Z"/>
      <path class="cls-9" d="M132.04,87.45c0,9.72.02,19.44-.03,29.15-.05,9.38-6.06,15.37-15.46,15.41-9.39.04-18.78-.02-28.16-.04,5.04-7.93,11.36-14.51,18.45-20.8,8.6-7.64,15.16-17.53,25.21-23.73Z"/>
      <path class="cls-3" d="M104.24,107.17c1.03-4.05-3.47-4.7-4.69-7.72.99-2.43,3.21-4.06,4.83-6.08,3.25.64,4.95,3.65,7.97,4.05-1.3,4.42-3.82,7.83-8.11,9.76Z"/>
      <path class="cls-7" d="M4.31,81.29c-3.02-.18-1.85-2.53-2.03-4.09-.49-4.17.87-8.47-.87-12.56,0-20.94,0-41.88,0-63.22,27.03,0,54.03,0,81.03,0,.09,1.51-1.54,1.79-2.05,2.88-7.15-.02-14.31.01-21.46-.11-2.06-.03-3.8.38-5.28,1.81-.21-2.27-1.95-1.83-3.35-1.83-11.03-.01-22.07-.12-33.1.07-6.64.11-12.89,6.47-12.98,13.17-.16,11.36-.06,22.73-.07,34.09,0,1.14-.15,2.34.96,3.15-1.92,8.83-.49,17.76-.79,26.64Z"/>
      <path class="cls-9" d="M5.1,54.65c-1.11-.81-.96-2.01-.96-3.15,0-11.36-.09-22.73.07-34.09.1-6.69,6.34-13.05,12.98-13.17,11.03-.19,22.07-.08,33.1-.07,1.4,0,3.15-.43,3.35,1.83-4.04.78-5.54,4.54-7.56,7.23-2.86,3.8-6.45,7.16-8.37,11.65-2.96.65-4.78,2.92-6.84,4.85-4.29,1.65-6.44,5.11-7.84,9.22-.33.33-.66.67-.99,1-.32.32-.64.63-.97.95,0,0,.02,0,.02,0-6.07,3.73-12.55,6.98-16.01,13.75Z"/>
      <path class="cls-3" d="M76.55,27.97c20.74,4.22,33.18,23.04,32.71,41.37-.45,17.31-12.78,32.88-29.36,38.11-24.27,7.66-48.35-8.67-52.55-32.02-4.04-22.4,10.61-43.3,32.33-47.47,5.63,1.81,11.25.08,16.88,0ZM29.91,67.26c-1.33,20.45,16.81,38.76,37.21,39.25,20.83.51,38.73-17.32,39.26-36.84.6-22.14-16.49-38.95-38.16-39.83-20.56-.84-39.1,17.95-38.31,37.42Z"/>
      <path class="cls-3" d="M23.04,38.96c1.4-4.11,3.55-7.58,7.84-9.22.09,1.61.98,2.75,2.2,3.67,2.31,1.72,4.01,3.45,1.49,6.4-2.33,2.73-4.51,4.3-7.53.83-.94-1.08-2.44-1.63-3.99-1.67Z"/>
      <path class="cls-4" d="M76.55,27.97c-5.63.07-11.25,1.81-16.88,0,5.63-1.57,11.25-1.58,16.88,0Z"/>
      <path class="cls-3" d="M21.09,40.91c.32-.32.64-.63.97-.95-.32.32-.64.63-.97.95Z"/>
      <path class="cls-8" d="M29.91,67.26c-.8-19.46,17.75-38.25,38.31-37.42,21.67.88,38.76,17.7,38.16,39.83-.53,19.52-18.43,37.34-39.26,36.84-20.4-.5-38.54-18.8-37.21-39.25ZM57.67,67.93c-.03,6.62,3.8,10.66,10.21,10.75,6.24.08,10.63-4.2,10.67-10.39.04-6.42-3.98-10.55-10.32-10.6-6.53-.05-10.52,3.82-10.56,10.24Z"/>
      <path class="cls-5" d="M57.67,67.93c.03-6.42,4.02-10.29,10.56-10.24,6.34.05,10.36,4.18,10.32,10.6-.04,6.2-4.43,10.47-10.67,10.39-6.41-.08-10.24-4.12-10.21-10.75ZM68.05,60.59c-4.48.02-8.23,3.42-8.27,7.47-.04,4.02,3.74,7.52,8.16,7.57,5.05.05,7.65-2.47,7.67-7.47.02-5-2.57-7.6-7.56-7.58Z"/>
      <path class="cls-1" d="M68.05,60.59c4.99-.03,7.59,2.57,7.56,7.58-.02,4.99-2.62,7.52-7.67,7.47-4.42-.05-8.2-3.55-8.16-7.57.04-4.06,3.79-7.45,8.27-7.47Z"/>
    </g>
  </g>
</svg>