<?xml version="1.0" encoding="UTF-8"?>
<svg id="_Слой_2" data-name="Слой 2" xmlns="http://www.w3.org/2000/svg" viewBox="0 0 135 135">
  <defs>
    <style>
      .cls-1 {
        fill: #44444b;
      }

      .cls-1, .cls-2, .cls-3, .cls-4, .cls-5, .cls-6, .cls-7, .cls-8, .cls-9 {
        stroke-width: 0px;
      }

      .cls-2 {
        fill: #0a4952;
      }

      .cls-3 {
        fill: #149db0;
      }

      .cls-4 {
        fill: #6e0e0e;
      }

      .cls-5 {
        fill: #e2d1d1;
      }

      .cls-6 {
        fill: #b01818;
      }

      .cls-7 {
        fill: #2b292f;
      }

      .cls-8 {
        fill: #107989;
      }

      .cls-9 {
        fill: #fcfcfc;
      }
    </style>
  </defs>
  <g id="_Слой_1-2" data-name="Слой 1">
    <g>
      <path class="cls-8" d="M135,12.13v45.58c-1.29-.82-1.62-2.65-3.25-3.1-5.63-7.33-14.23-11.27-20.51-17.86-1.32-2.15-2.55-4.36-4.73-5.81-2.02-3.9-5.12-6.5-9.33-7.77-.95-.6-1.89-1.19-2.84-1.79-3.04-6.68-7.4-12.26-13.57-16.33-.08-.29-.17-.57-.28-.84-.55-.32-1.1-.91-1.65-.92-7.06-.11-14.11-.13-21.17-.18-1.44,0-2.58.44-2.96,2-7.78,5.01-11.95,13.31-18.05,19.85-2.43.7-3.67,3-5.7,4.24-3.9,2.2-6.5,5.48-7.95,9.69l.04-.04c-6.52,4.68-13.4,8.95-18.04,15.79-.3-.92-.85-1.83-.85-2.75-.04-11.53-.03-23.06.03-34.59.02-3.3,1.54-6.04,3.73-8.38,3.56-3.79,7.89-5.69,13.2-5.61,9.67.14,19.34.04,29.01.04-7.73-1.1-15.46-.97-23.17-1.15-4.23-.1-8.56.88-12.69-.83,35.95,0,71.91,0,107.86,0,2.88,2.37,6.83,3.25,8.96,6.73.97,1.58,1.55,3.75,3.94,4.03Z"/>
      <path class="cls-8" d="M58.7,135H12.13c-3.94-4.01-8.55-7.45-10.77-12.88.01-12.9.03-25.8.04-38.7,1.39-.12,1.94-1.42,2.94-2.1,5.15,7.36,12.92,11.72,19.72,17.2,1.26,2.18,2.42,4.43,4.68,5.8,2.43,5.46,7.57,7.85,12.24,10.78v-.02c3.05,7.23,8.23,12.63,14.58,17.04,1.05.96,2.1,1.92,3.15,2.88Z"/>
      <path class="cls-2" d="M58.7,135c-1.05-.96-2.1-1.92-3.14-2.88,7.09-.03,14.19-.04,21.28-.1,1.61-.01,3.2.14,4.72-.94,7.31-5.19,11.54-12.96,16.88-19.8,2.66-1.1,5.18-2.39,6.79-4.93,3.72-2.44,6.5-5.67,8.15-9.83l-.04.02c1.23-.16,1.91-.83,1.91-2.11l-.03.03c5.82-2.63,10.73-6.47,14.83-11.31,1.27-1.5,1.97-3.34,1.94-5.43-.12-7.7-.17-15.39-.24-23.09,1.64.45,1.96,2.29,3.25,3.1v24.77c-1.36,1.76-2.63,3.57-3.14,5.79-6.74,4.64-13.99,8.62-18.39,16.04-2.55,4.29-6.27,7.65-10.46,10.37-6.47,4.2-10.31,10.49-13.85,17.05-2.24.49-4.04,1.75-5.69,3.27h-24.77Z"/>
      <path class="cls-3" d="M83.47,135c1.65-1.52,3.45-2.78,5.69-3.27,9.38.1,18.76.27,28.14.27,8.38,0,14.47-5.72,14.64-14.1.2-9.87-.03-19.76-.08-29.63.51-2.22,1.78-4.03,3.14-5.79v41.62c-3.63,3.63-7.27,7.27-10.9,10.9h-40.63Z"/>
      <path class="cls-9" d="M1.4,83.41c-.01,12.9-.03,25.8-.04,38.7-.04,4.29-.09,8.59-.13,12.88-2.04-.89-.93-2.67-.93-3.95C.23,87.53.24,44.01.24.24h56.62c24.73,0,49.45-.02,74.18.06,1.28,0,3.07-1.11,3.95.93-4.3.05-8.6.09-12.9.14-35.95,0-71.91,0-107.86,0-4.22,0-8.44,0-12.84,0v82.05Z"/>
      <path class="cls-2" d="M122.1,1.37c4.3-.05,8.6-.09,12.9-.14v10.9c-2.39-.28-2.97-2.45-3.94-4.03-2.13-3.48-6.08-4.36-8.96-6.73Z"/>
      <path class="cls-2" d="M1.23,135c.04-4.29.09-8.59.13-12.88,2.22,5.44,6.84,8.88,10.77,12.88H1.23Z"/>
      <path class="cls-2" d="M124.1,135c3.63-3.63,7.27-7.27,10.9-10.9v10.9h-10.9Z"/>
      <path class="cls-6" d="M105.23,106.34c-1.61,2.54-4.13,3.83-6.79,4.93-1.38-.24-2.53-.85-3.1-2.17-1.29-2.98-2.84-4.56-6.41-2.62-3.81,2.06-3.7,4.44-1.66,7.57.62.95,1.12,2.05.38,3.47-2.94.71-6.03,1.46-9.34,2.26-1.4-2.46-.16-5.79-2.57-7.74-4.22.06-9.18-1.04-8.24,6.06.17,1.31-1.04,2.06-2.33,2-2.53-.1-5.25.87-7.75-1.18.43-1.56.99-3.09,1.24-4.67.32-2.05-.45-3.64-2.69-3.96-1.93-.28-4.75-2.26-5.51.83-1.49,6.06-5.51,4.62-9.47,3.95,0,0,0,.02,0,.02-.46-2.25-2.99-4.39.17-6.76,2.8-2.1,1.37-4.12-.67-6.01-2.03-1.88-3.97-3-6.19-.39-1.47,1.73-3.23,2.68-5.55,2.37-2.26-1.37-3.43-3.62-4.68-5.8.62-1.62,1.81-2.91,3.29-3.53,2.92-1.23,4.24-2.35,2.29-5.82-1.88-3.34-3.66-4.3-6.91-2.17-.78.51-1.76.74-2.76,1.14-2.23-2.52-3.07-5.54-2.59-8.31.62-3.59,5.42-1.61,7.5-4.79-1.57-1.9,1.09-6.65-4.6-6.53-2.41.05-5.44.48-4.75-3.58.54-3.2.06-7.48,5.67-6.16,1.05.25,2.2.87,3.29.06,2.68-5.94,2.99-7.5,1.23-7.93-8.94-2.14-5.82-6.77-2.74-11.56.08-.12.04-.32.06-.49,0,0-.04.04-.04.04,1.67.24,3.21.88,4.42,2.03,2.32,2.21,4.21,2.59,6.51-.28,2.16-2.69,2.73-4.74-.49-6.87-1.58-1.05-2.48-2.6-2.49-4.57,2.03-1.23,3.27-3.54,5.7-4.24,1.69.07,3.25.29,4.06,2.14,1.01,2.3,2.01,4.8,5.38,3.03,3.01-1.59,5.73-2.87,3.31-7.36-2.1-3.87,2.07-4.63,4.35-5.45,2.46-.89,5.17-.45,4.9,3.3-.26,3.53,1.35,4.52,4.67,4.45,3.61-.08,4.48-1.93,4.34-5.04-.1-2.47-.42-5.48,3.55-4.71,3.1.6,7.5.18,6.27,5.76-.24,1.06-.9,2.17-.01,3.63,2.74.14,6.37,5.26,8.34-.07,2-5.39,4.41-5.51,8.53-3.26.95.6,1.89,1.19,2.84,1.79-.28.93-.41,1.95-.87,2.78q-3.61,6.46,3.02,10.44c2.93-1.08,3.59-5.21,7.18-5.44,2.18,1.45,3.42,3.66,4.73,5.81.5,4.17-3.97,4.36-5.52,6.89,1.48,6.63,1.86,6.9,8.05,5.48,4.12-.95,3.89,2.32,4.67,4.71.87,2.66.7,4.59-2.69,4.82-2.18.14-4.84.18-4.13,3.34.61,2.74-.67,7.32,4.91,6.61,1.46-.19,3.27-.09,3.47,1.87.25,2.41.96,5.1-.6,7.18-1.21,1.6-3.05.39-4.5-.3-2.38-1.14-4.05-.37-4.38,2.06-.3,2.26-3.14,5.85.89,6.66,5.97,1.19,5.42,4.29,3.81,8.38,0,0,.03-.03.03-.03-1.38.04-1.9.84-1.91,2.11,0,0,.04-.02.04-.02-3.46.52-5.62-2.39-8.43-3.35q-6,5.15-.97,10.56c.63.68.84,1.74,1.25,2.62ZM26.98,68.13c-.26,23.02,18.48,41.12,41.01,41.1,22.57-.02,40.88-17.4,41.07-40.74.19-23.56-18.48-41.66-41.71-41.6-20.86.06-41.21,18.71-40.36,41.24Z"/>
      <path class="cls-4" d="M23.04,38.84c-.02.16.02.36-.06.49-3.08,4.79-6.19,9.42,2.74,11.56,1.76.42,1.45,1.99-1.23,7.93-1.09.82-2.24.19-3.29-.06-5.61-1.32-5.13,2.97-5.67,6.16-.69,4.06,2.34,3.63,4.75,3.58,5.68-.12,3.03,4.63,4.6,6.53-2.08,3.18-6.88,1.2-7.5,4.79-.48,2.77.36,5.79,2.59,8.31.99-.4,1.97-.62,2.76-1.14,3.25-2.13,5.03-1.17,6.91,2.17,1.95,3.47.63,4.59-2.29,5.82-1.48.62-2.67,1.91-3.29,3.53-6.8-5.48-14.56-9.84-19.72-17.2.15-8.9-.99-17.82.66-26.68,4.64-6.83,11.52-11.1,18.04-15.79Z"/>
      <path class="cls-4" d="M115.22,94.45c1.61-4.09,2.16-7.18-3.81-8.38-4.03-.8-1.19-4.4-.89-6.66.32-2.42,2-3.2,4.38-2.06,1.45.69,3.29,1.91,4.5.3,1.57-2.07.85-4.77.6-7.18-.2-1.95-2.01-2.05-3.47-1.87-5.58.71-4.29-3.87-4.91-6.61-.71-3.16,1.95-3.2,4.13-3.34,3.38-.22,3.55-2.16,2.69-4.82-.78-2.4-.54-5.66-4.67-4.71-6.18,1.42-6.57,1.15-8.05-5.48,1.54-2.53,6.02-2.72,5.52-6.89,6.28,6.59,14.88,10.53,20.51,17.86.07,7.69.12,15.39.24,23.09.03,2.1-.67,3.93-1.94,5.43-4.1,4.84-9.01,8.68-14.83,11.31Z"/>
      <path class="cls-4" d="M94.33,21.38c-4.12-2.25-6.54-2.13-8.53,3.26-1.97,5.32-5.6.2-8.34.07-.89-1.45-.22-2.57.01-3.63,1.24-5.57-3.16-5.15-6.27-5.76-3.97-.77-3.65,2.24-3.55,4.71.13,3.11-.73,4.96-4.34,5.04-3.32.07-4.93-.92-4.67-4.45.28-3.75-2.44-4.19-4.9-3.3-2.28.82-6.44,1.58-4.35,5.45,2.43,4.48-.3,5.77-3.31,7.36-3.36,1.77-4.37-.73-5.38-3.03-.82-1.85-2.37-2.07-4.06-2.14,6.1-6.54,10.26-14.84,18.05-19.85,0,0,.47.08.47.08h.47c8.38-.05,16.75-.1,25.13-.14,6.18,4.07,10.53,9.65,13.57,16.33Z"/>
      <path class="cls-2" d="M5,54.63c-1.65,8.86-.51,17.79-.66,26.68-1,.67-1.55,1.98-2.94,2.1,0-27.25,0-54.49,0-82.05,4.4,0,8.62,0,12.84,0,4.13,1.7,8.46.73,12.69.83,7.72.18,15.44.05,23.17,1.15-9.67,0-19.34.1-29.01-.04-5.31-.08-9.64,1.82-13.2,5.61-2.19,2.34-3.72,5.08-3.73,8.38-.06,11.53-.07,23.06-.03,34.59,0,.92.55,1.83.85,2.75Z"/>
      <path class="cls-4" d="M30.95,29.19c0,1.97.91,3.52,2.49,4.57,3.22,2.14,2.64,4.18.49,6.87-2.3,2.87-4.19,2.49-6.51.28-1.21-1.15-2.74-1.79-4.42-2.03,1.45-4.21,4.05-7.49,7.95-9.69Z"/>
      <path class="cls-4" d="M106.51,30.94c-3.59.23-4.25,4.37-7.18,5.44q-6.64-3.99-3.02-10.44c.46-.83.59-1.85.87-2.78,4.21,1.27,7.31,3.87,9.33,7.77Z"/>
      <path class="cls-1" d="M55.63,5.18h-.47s-.47-.07-.47-.07c.38-1.56,1.52-2.01,2.96-2,7.06.05,14.11.07,21.17.18.55,0,1.1.6,1.65.92-3.11,0-6.24-.17-9.34.04-5.17.34-10.45-1.12-15.5.94Z"/>
      <path class="cls-7" d="M55.63,5.18c5.06-2.06,10.34-.59,15.5-.94,3.1-.21,6.22-.04,9.34-.04.11.28.2.56.28.84-8.37.04-16.75.09-25.13.13Z"/>
      <path class="cls-4" d="M40.98,115.08c3.97.67,7.98,2.11,9.47-3.95.76-3.09,3.58-1.11,5.51-.83,2.24.32,3.01,1.91,2.69,3.96-.25,1.58-.81,3.11-1.24,4.67,2.5,2.05,5.22,1.08,7.75,1.18,1.29.05,2.5-.69,2.33-2-.94-7.1,4.02-6.01,8.24-6.06,2.41,1.96,1.17,5.28,2.57,7.74,3.31-.8,6.4-1.55,9.34-2.26.74-1.42.24-2.52-.38-3.47-2.04-3.13-2.14-5.51,1.66-7.57,3.57-1.93,5.12-.35,6.41,2.62.58,1.32,1.72,1.94,3.1,2.17-5.34,6.84-9.58,14.61-16.88,19.8-1.52,1.08-3.11.93-4.72.94-7.09.06-14.19.07-21.28.1-6.35-4.41-11.53-9.81-14.58-17.04Z"/>
      <path class="cls-4" d="M28.74,104.32c2.32.3,4.08-.65,5.55-2.37,2.22-2.61,4.16-1.49,6.19.39,2.04,1.89,3.47,3.91.67,6.01-3.15,2.37-.63,4.5-.17,6.76-4.66-2.93-9.8-5.31-12.24-10.78Z"/>
      <path class="cls-8" d="M131.86,88.27c.05,9.88.28,19.76.08,29.63-.17,8.38-6.26,14.09-14.64,14.1-9.38,0-18.76-.17-28.14-.27,3.54-6.56,7.38-12.85,13.85-17.05,4.19-2.72,7.92-6.08,10.46-10.37,4.4-7.42,11.65-11.4,18.39-16.04Z"/>
      <path class="cls-4" d="M105.23,106.34c-.41-.88-.62-1.94-1.25-2.62q-5.01-5.44.97-10.56c2.81.96,4.97,3.87,8.43,3.35-1.64,4.17-4.43,7.39-8.15,9.83Z"/>
      <path class="cls-4" d="M113.34,96.53c.01-1.27.54-2.08,1.91-2.11,0,1.28-.68,1.95-1.91,2.11Z"/>
      <path class="cls-4" d="M26.98,68.13c-.85-22.53,19.5-41.18,40.36-41.24,23.23-.07,41.9,18.03,41.71,41.6-.19,23.34-18.5,40.72-41.07,40.74-22.53.02-41.27-18.08-41.01-41.1ZM68.1,106.33c20.5.88,38.9-17.68,38.21-38.14-.74-21.84-16.11-38.2-38.61-38.28-21.09-.08-37.3,16.82-37.99,38-.64,19.62,16.74,39.32,38.39,38.42Z"/>
      <path class="cls-6" d="M68.1,106.33c-21.65.9-39.03-18.8-38.39-38.42.69-21.18,16.9-38.08,37.99-38,22.51.08,37.88,16.44,38.61,38.28.69,20.46-17.72,39.02-38.21,38.14ZM78.55,53.61c.08-6.18-4.25-10.69-10.35-10.77-6.12-.08-10.68,4.31-10.77,10.38-.09,6.01,4.47,10.79,10.39,10.88,5.98.09,10.65-4.48,10.73-10.49ZM52.21,93.34c5.95-.12,10.61-4.96,10.44-10.83-.17-5.93-4.92-10.38-10.96-10.29-5.84.09-10.7,5.08-10.54,10.81.17,5.84,5.09,10.43,11.05,10.31ZM94.4,82.81c.01-6.36-4.07-10.55-10.3-10.59-6.14-.04-10.54,4.34-10.56,10.51-.02,6.14,4.38,10.59,10.48,10.62,6.22.03,10.36-4.18,10.38-10.54Z"/>
      <path class="cls-5" d="M78.55,53.61c-.08,6.01-4.76,10.58-10.73,10.49-5.91-.09-10.48-4.87-10.39-10.88.09-6.06,4.65-10.46,10.77-10.38,6.1.08,10.43,4.58,10.35,10.77ZM60.03,53.72c.02,3.66,4.47,7.88,8.2,7.79,4.15-.1,7.47-3.83,7.41-8.3-.06-4.26-3.21-7.41-7.45-7.46-4.79-.06-8.19,3.26-8.16,7.97Z"/>
      <path class="cls-5" d="M52.21,93.34c-5.97.12-10.89-4.47-11.05-10.31-.16-5.72,4.7-10.71,10.54-10.81,6.04-.1,10.79,4.36,10.96,10.29.17,5.88-4.5,10.72-10.44,10.83ZM59.73,82.91c.14-3.64-4.04-8.13-7.71-8.29-3.63-.16-8.1,4.23-8.11,7.96-.02,4.46,3.22,7.72,7.83,7.9,4.41.16,7.82-3.06,8-7.57Z"/>
      <path class="cls-5" d="M94.4,82.81c-.01,6.35-4.16,10.56-10.38,10.54-6.1-.03-10.5-4.48-10.48-10.62.02-6.17,4.42-10.55,10.56-10.51,6.24.04,10.32,4.24,10.3,10.59ZM84.28,90.49c4.33-.08,8-3.66,7.92-7.73-.08-4.18-4.28-8.19-8.42-8.04-4.35.16-7.35,3.52-7.33,8.23.02,4.43,3.34,7.62,7.84,7.54Z"/>
      <path class="cls-9" d="M60.03,53.72c-.03-4.71,3.37-8.03,8.16-7.97,4.24.06,7.39,3.2,7.45,7.46.07,4.47-3.26,8.2-7.41,8.3-3.73.09-8.18-4.13-8.2-7.79Z"/>
      <path class="cls-9" d="M59.73,82.91c-.17,4.51-3.58,7.74-8,7.57-4.61-.17-7.85-3.44-7.83-7.9.02-3.74,4.48-8.12,8.11-7.96,3.67.16,7.85,4.65,7.71,8.29Z"/>
      <path class="cls-9" d="M84.28,90.49c-4.5.08-7.82-3.11-7.84-7.54-.02-4.7,2.98-8.07,7.33-8.23,4.15-.15,8.34,3.85,8.42,8.04.08,4.07-3.58,7.65-7.92,7.73Z"/>
    </g>
  </g>
</svg>