<?xml version="1.0" encoding="UTF-8"?>
<svg id="_Слой_2" data-name="Слой 2" xmlns="http://www.w3.org/2000/svg" viewBox="0 0 135 135">
  <defs>
    <style>
      .cls-1 {
        fill: #fcfdfc;
      }

      .cls-1, .cls-2, .cls-3, .cls-4, .cls-5, .cls-6, .cls-7, .cls-8, .cls-9 {
        stroke-width: 0px;
      }

      .cls-2 {
        fill: #46444a;
      }

      .cls-3 {
        fill: #084b53;
      }

      .cls-4 {
        fill: #e3d1d1;
      }

      .cls-5 {
        fill: #2b292e;
      }

      .cls-6 {
        fill: #710f0f;
      }

      .cls-7 {
        fill: #107989;
      }

      .cls-8 {
        fill: #169eb0;
      }

      .cls-9 {
        fill: #ae1717;
      }
    </style>
  </defs>
  <g id="_Слой_1-2" data-name="Слой 1">
    <g>
      <path class="cls-7" d="M135,14.11v43.6c-1.28-1.41-2.57-2.83-3.85-4.24,0,0-.15-.37-.15-.37-.49-.51-.98-1.03-1.48-1.54-6.24-4.75-12.57-9.4-18.3-14.78-.96-2.43-3-4.03-4.62-5.95-2.02-3.91-5.43-6.12-9.35-7.72-.17-.16-.37-.21-.59-.16-1.37-2.01-2.43-4.35-4.17-5.96-4.11-3.81-5.8-9.97-11.69-11.99-.06-.28-.15-.55-.27-.82-1.45-1.52-3.34-1.03-5.07-1.05-6.18-.07-12.37-.06-18.55-.08-1.66-1.02-3.51-.72-5.29-.73-10.36-.05-20.72-.05-31.08-.12-2.1-.02-4.3.43-6.25-.83,35.94,0,71.87,0,107.81,0,5.35,3.19,10,7.08,12.92,12.74Z"/>
      <path class="cls-7" d="M58.7,135H12.13c-3.93-4.03-8.55-7.48-10.77-12.93.01-13.22.02-26.43.04-39.65.84-.77,1.44-1.89,2.79-1.9,4.93,7.86,13.07,12.18,19.87,17.97.77,2.55,3,3.97,4.59,5.88,1.37,3.79,4.81,5.59,7.7,7.89,1.76,1.4,3.77,2.4,5.06,4.45,3.77,5.97,8.15,11.43,14.14,15.39,1.05.96,2.1,1.93,3.15,2.89Z"/>
      <path class="cls-3" d="M58.7,135c-1.05-.96-2.1-1.93-3.15-2.89,6.87-.02,13.75-.23,20.61,0,4.36.14,7.49-1.75,10.08-4.86,4.13-4.94,7.46-10.55,12.24-14.96,2.21-2.02,4.43-4.04,6.64-6.06,4.44-1.83,6.81-5.42,8.28-9.76,1.89-.2,1.54-2.26,2.6-3.14,4.33-1.99,7.56-5.58,11.57-8.02,3.13-1.9,4.39-4.77,4.34-8.27-.11-7.86.6-15.74-.78-23.56,1.28,1.41,2.57,2.83,3.85,4.24v25.76c-1.94,1.01-2.54,2.9-3.17,4.78-6.65,4.67-13.89,8.58-18.29,15.94-1.92,3.21-4.54,6.19-7.73,8.17-7.81,4.84-12.51,12.3-17.41,19.64-1.96.48-3.48,1.69-4.93,3h-24.77Z"/>
      <path class="cls-8" d="M83.47,135c1.46-1.31,2.97-2.52,4.93-3,9.58,0,19.15.06,28.73.01,8.38-.04,14.62-5.76,14.8-14.06.21-9.9-.05-19.81-.11-29.71.63-1.87,1.23-3.77,3.17-4.78v38.64c-2.54,3.07-3.73,7.15-7.3,9.47-1.37.89-3.56,1.07-3.6,3.41h-40.63Z"/>
      <path class="cls-1" d="M1.4,82.43c-.01,13.22-.02,26.43-.04,39.65-.04,4.31-.09,8.62-.13,12.93-2.04-.89-.93-2.67-.93-3.95C.23,87.53.24,44.01.24.24h56.62c24.73,0,49.45-.02,74.18.06,1.28,0,3.07-1.11,3.95.93-4.31.05-8.61.09-12.92.14-35.94,0-71.87,0-107.81,0-4.23,0-8.45,0-12.87,0v81.06Z"/>
      <path class="cls-3" d="M122.08,1.37c4.31-.05,8.61-.09,12.92-.14v12.88c-2.92-5.66-7.57-9.55-12.92-12.74Z"/>
      <path class="cls-3" d="M1.23,135c.04-4.31.09-8.62.13-12.93,2.22,5.45,6.84,8.9,10.77,12.93H1.23Z"/>
      <path class="cls-3" d="M124.1,135c.03-2.35,2.22-2.52,3.6-3.41,3.57-2.32,4.76-6.4,7.3-9.47v12.88h-10.9Z"/>
      <path class="cls-9" d="M116.02,93.32c-1.07.88-.71,2.94-2.6,3.14-1.28-.19-2.66-.12-3.82-.61-6.19-2.62-6.38-2.59-9.72,3.55,1.15,2.73,4.58,3.71,5.25,6.82-2.21,2.02-4.43,4.04-6.64,6.06-1.49-.82-2.57-2.01-3.39-3.49-1.52-2.74-3.57-3.59-6.53-2-2.94,1.57-3.43,3.48-1.81,6.4.95,1.72,1.51,4.63-1.25,4.63-2.57,0-6.65,3.8-8.03-1.97-.49-2.06-.37-4.89-4.08-4.13-3.04.63-6.14.33-5.87,5.18.28,5.07-4.06,2.99-6.59,3.19-3.21.26-3.33-1.77-2.59-4.26.78-2.63.63-4.7-2.72-5.71-3.4-1.03-5.31-.44-6.13,3.21-.36,1.6-1.32,3.48-3.44,2.25-2.33-1.35-5.4-1.72-6.75-4.49,4.52-6.79,4.1-8.31-3.2-11.13-1.87,2.31-3.69,5.08-7.44,4.41-1.59-1.92-3.82-3.33-4.59-5.88.73-1.82,2.2-2.91,3.91-3.57,3.36-1.31,2.83-3.56,1.59-5.98-1.21-2.35-2.56-4.24-5.72-2.49-5.26,2.92-5.35-1.62-6.67-4.66-1.73-3.99,1-4,3.54-4.38,3.31-.51,3.42-2.88,3.39-5.55-.03-3.12-1.94-3.34-4.28-3.3-1.67.02-3.2-.08-3.74-2.3-1.34-5.49.34-7.71,5.89-7.47.95.04,1.96.49,2.85-.4,1.69-3.79,3.97-7.69-2.69-9.23-1.97-.46-2.28-2.15-1.64-3.98.54-1.55,1.04-3.1,1.56-4.66,0-.72.11-1.36.88-1.66,1.68.07,3.13.58,4.35,1.83,2.03,2.09,3.94,3.18,6.42.21,2.27-2.7,3.05-4.95-.14-7.31-1.51-1.12-2.63-2.4-2.59-4.4,1.94-1.35,3.27-3.5,5.64-4.26,2.33-.15,3.61,1.31,4.62,3.1,1.28,2.26,2.59,3.71,5.44,1.78,2.37-1.61,5.18-2.53,2.94-6.29-2.12-3.55.5-4.44,3.21-5.42,2.9-1.04,5.2-1.34,5.78,2.56.41,2.75,1.39,4.72,4.77,4.2,3.14-.48,4.63-2,4.34-5.31-.23-2.62.59-4.87,3.84-4.15,2.74.61,6.88-.01,5.96,5.08-.23,1.26-.31,2.55-.5,4.17,3.26.2,6.33,5.45,9.19-.4,2.77-5.66,2.74-5.71,7.82-2.46.84.54,1.55,1.23,2.63,1.16.23-.05.42,0,.59.16-.37,1.07-.58,2.23-1.14,3.19-3.56,6.04-3.35,6.79,3.11,9.85,2.71-1.41,3.98-4.86,7.38-5.33,1.62,1.92,3.66,3.52,4.62,5.95.25,2.34-1.05,3.67-2.97,4.63-3.1,1.56-2.84,3.45-1.38,6.36,1.56,3.1,3.13,3.25,5.81,1.84,4.29-2.25,4.99,1.1,5.93,3.99.95,2.95.33,4.96-3.16,5.05-2.77.07-4.65,1.11-4.07,4.13.48,2.52.05,6.17,4.37,5.77,5.14-.47,4.63,2.95,4.3,6.11-.42,4.05-2.9,4.21-6.05,2.95-.72-.29-1.56-.24-2.71-.4-.33,3.3-5.18,7.02.76,9.01,4.22,1.41,5.21,3.29,3.96,7.1ZM68.36,27c-22.59-.5-41.66,18.78-41.45,40.79.22,22.87,18.27,41.19,40.83,41.52,23.07.33,41.52-19.63,41.55-40.86.03-21.94-18.64-41.91-40.94-41.45Z"/>
      <path class="cls-6" d="M116.02,93.32c1.25-3.81.26-5.68-3.96-7.1-5.94-1.99-1.09-5.72-.76-9.01,1.15.16,2,.12,2.71.4,3.15,1.26,5.63,1.1,6.05-2.95.33-3.16.84-6.59-4.3-6.11-4.32.4-3.89-3.25-4.37-5.77-.58-3.02,1.3-4.06,4.07-4.13,3.49-.09,4.12-2.1,3.16-5.05-.94-2.89-1.64-6.24-5.93-3.99-2.68,1.41-4.25,1.26-5.81-1.84-1.46-2.91-1.72-4.8,1.38-6.36,1.91-.96,3.22-2.29,2.97-4.63,5.73,5.38,12.06,10.03,18.3,14.78-.08,1.06.68,1.32,1.48,1.54,0,0,.15.37.15.37,1.38,7.81.67,15.7.78,23.56.05,3.5-1.21,6.37-4.34,8.27-4.02,2.44-7.24,6.03-11.57,8.02Z"/>
      <path class="cls-6" d="M96.65,22.95c-1.08.07-1.79-.63-2.63-1.16-5.08-3.25-5.04-3.2-7.82,2.46-2.87,5.85-5.93.6-9.19.4.19-1.62.27-2.91.5-4.17.93-5.1-3.22-4.48-5.96-5.08-3.25-.72-4.07,1.53-3.84,4.15.29,3.31-1.2,4.83-4.34,5.31-3.38.51-4.36-1.45-4.77-4.2-.58-3.9-2.88-3.6-5.78-2.56-2.71.98-5.33,1.86-3.21,5.42,2.24,3.76-.57,4.68-2.94,6.29-2.85,1.92-4.16.47-5.44-1.78-1.02-1.79-2.29-3.25-4.62-3.1,1.25-2.86,4.17-4.21,5.8-7.01,2.96-5.09,6.84-9.79,12.2-12.84,8.73-.03,17.45-.05,26.18-.08,5.9,2.02,7.59,8.18,11.69,11.99,1.74,1.61,2.8,3.95,4.17,5.96Z"/>
      <path class="cls-3" d="M1.4,82.43V1.37c4.42,0,8.64,0,12.87,0,1.95,1.26,4.15.81,6.26.83,10.36.08,20.72.07,31.08.12,1.79,0,3.64-.29,5.29.74-.74.08-1.47.15-2.21.22-11.36.02-22.72-.02-34.08.09-9.94.09-16.42,6.6-16.45,16.39-.04,9.71-.06,19.43,0,29.14.01,1.66-.82,3.77,1.58,4.68-1.35,1.95-1.56,4.13-1.54,6.44.07,6.83,0,13.67,0,20.51-1.35.02-1.95,1.14-2.79,1.9Z"/>
      <path class="cls-6" d="M106.6,30.83c-3.4.47-4.67,3.91-7.38,5.33-6.46-3.06-6.67-3.81-3.11-9.85.56-.96.77-2.12,1.14-3.19,3.92,1.6,7.34,3.81,9.35,7.72Z"/>
      <path class="cls-2" d="M54.69,3.28c.73-.07,1.47-.15,2.21-.22,6.18.02,12.37.01,18.55.08,1.74.02,3.63-.46,5.07,1.05-8.58,0-17.16-.01-25.75-.02-.08-.29-.1-.59-.08-.89Z"/>
      <path class="cls-5" d="M54.77,4.17c8.58,0,17.16.01,25.75.02.12.26.2.54.27.82-8.73.03-17.45.05-26.18.08.04-.31.09-.61.17-.91Z"/>
      <path class="cls-3" d="M130.99,53.1c-.79-.22-1.56-.47-1.48-1.54.49.51.99,1.03,1.48,1.54Z"/>
      <path class="cls-6" d="M28.65,104.38c3.74.66,5.57-2.1,7.44-4.41,7.3,2.82,7.72,4.34,3.2,11.13,1.36,2.78,4.43,3.15,6.75,4.49,2.12,1.22,3.08-.65,3.44-2.25.82-3.65,2.73-4.24,6.13-3.21,3.35,1.01,3.5,3.07,2.72,5.71-.74,2.48-.62,4.52,2.59,4.26,2.53-.2,6.87,1.88,6.59-3.19-.27-4.85,2.83-4.55,5.87-5.18,3.71-.77,3.59,2.06,4.08,4.13,1.38,5.77,5.46,1.97,8.03,1.97,2.76,0,2.2-2.91,1.25-4.63-1.61-2.92-1.13-4.83,1.81-6.4,2.96-1.58,5.02-.73,6.53,2,.82,1.49,1.9,2.67,3.39,3.49-4.78,4.42-8.11,10.02-12.24,14.96-2.59,3.1-5.72,5-10.08,4.86-6.86-.22-13.74-.02-20.61,0-5.99-3.96-10.38-9.42-14.14-15.39-1.29-2.05-3.3-3.05-5.06-4.45-2.89-2.3-6.33-4.1-7.7-7.89Z"/>
      <path class="cls-6" d="M4.19,80.52c.01-6.84.07-13.67,0-20.51-.02-2.31.19-4.49,1.54-6.44,4.32-5.74,9.78-10.06,16.3-13.06-.52,1.55-1.02,3.11-1.56,4.66-.64,1.83-.33,3.53,1.64,3.98,6.66,1.54,4.38,5.45,2.69,9.23-.88.89-1.9.44-2.85.4-5.55-.24-7.22,1.98-5.89,7.47.54,2.22,2.06,2.32,3.74,2.3,2.35-.03,4.25.18,4.28,3.3.02,2.67-.09,5.05-3.39,5.55-2.54.39-5.27.4-3.54,4.38,1.32,3.04,1.42,7.58,6.67,4.66,3.17-1.76,4.52.14,5.72,2.49,1.24,2.42,1.77,4.67-1.59,5.98-1.7.67-3.18,1.75-3.91,3.57-6.8-5.79-14.94-10.11-19.87-17.97Z"/>
      <path class="cls-7" d="M131.83,88.25c.06,9.9.31,19.81.11,29.71-.17,8.29-6.41,14.02-14.8,14.06-9.58.04-19.15,0-28.73-.01,4.9-7.35,9.59-14.8,17.41-19.64,3.19-1.98,5.81-4.96,7.73-8.17,4.4-7.36,11.64-11.27,18.29-15.94Z"/>
      <path class="cls-6" d="M105.13,106.22c-.67-3.1-4.1-4.08-5.25-6.82,3.33-6.14,3.52-6.17,9.72-3.55,1.15.49,2.54.42,3.82.61-1.47,4.35-3.84,7.94-8.28,9.76Z"/>
      <path class="cls-7" d="M22.03,40.52c-6.52,3-11.98,7.32-16.3,13.06-2.4-.92-1.57-3.02-1.59-4.68-.06-9.71-.03-19.43,0-29.14.04-9.79,6.51-16.29,16.45-16.39,11.36-.11,22.72-.07,34.08-.09-.02.3,0,.6.08.9-.07.3-.13.6-.17.91-5.36,3.05-9.23,7.75-12.2,12.84-1.63,2.8-4.56,4.15-5.8,7.01-2.38.77-3.71,2.92-5.64,4.26-3.75,2.33-6.39,5.59-8.05,9.66-.77.3-.89.95-.88,1.66Z"/>
      <path class="cls-6" d="M68.36,27c22.29-.46,40.97,19.51,40.94,41.45-.03,21.23-18.48,41.19-41.55,40.86-22.56-.33-40.61-18.64-40.83-41.52-.21-22.01,18.86-41.29,41.45-40.79ZM67.87,106.32c19.45,1.24,38.58-16.34,38.5-37.92-.08-21.29-16.9-38.09-38.01-38.62-19.15-.48-38.78,16.52-38.75,38.33.03,18.89,17.05,39.2,38.26,38.21Z"/>
      <path class="cls-6" d="M22.92,38.85c1.66-4.07,4.29-7.33,8.05-9.66-.04,2,1.08,3.28,2.59,4.4,3.19,2.36,2.4,4.6.14,7.31-2.49,2.97-4.39,1.88-6.42-.21-1.22-1.26-2.67-1.76-4.35-1.83Z"/>
      <path class="cls-9" d="M67.87,106.32c-21.21.99-38.23-19.32-38.26-38.21-.03-21.82,19.6-38.81,38.75-38.33,21.11.53,37.93,17.33,38.01,38.62.08,21.58-19.05,39.16-38.5,37.92ZM82.96,78.54c6.07-.06,10.55-4.64,10.42-10.66-.13-6.02-4.69-10.27-10.91-10.18-6.06.09-10.67,4.77-10.5,10.67.17,5.95,4.81,10.24,10.99,10.17ZM53.31,78.54c6.26,0,10.54-4.23,10.54-10.4,0-6.22-4.25-10.44-10.51-10.43-6.39,0-10.5,4.08-10.49,10.41,0,6.31,4.14,10.43,10.47,10.42Z"/>
      <path class="cls-4" d="M82.96,78.54c-6.18.07-10.81-4.22-10.99-10.17-.17-5.9,4.44-10.58,10.5-10.67,6.22-.09,10.78,4.16,10.91,10.18.13,6.02-4.35,10.6-10.42,10.66ZM82.08,75.66c4.71.17,8.14-2.69,8.38-6.99.26-4.75-2.58-7.94-7.19-8.08-4.9-.15-8.42,2.9-8.64,7.49-.17,3.67,3.53,7.43,7.44,7.58Z"/>
      <path class="cls-4" d="M53.31,78.54c-6.33,0-10.46-4.11-10.47-10.42,0-6.33,4.1-10.4,10.49-10.41,6.26,0,10.51,4.21,10.51,10.43,0,6.17-4.28,10.4-10.54,10.4ZM53.68,60.57c-5.11-.04-7.83,2.45-7.95,7.26-.13,4.95,2.52,7.76,7.37,7.82,4.56.06,8.18-3.1,8.36-7.31.18-4-3.57-7.74-7.79-7.77Z"/>
      <path class="cls-1" d="M82.08,75.66c-3.91-.14-7.61-3.91-7.44-7.58.21-4.59,3.74-7.65,8.64-7.49,4.61.15,7.45,3.33,7.19,8.08-.24,4.3-3.67,7.16-8.38,6.99Z"/>
      <path class="cls-1" d="M53.68,60.57c4.21.03,7.96,3.77,7.79,7.77-.19,4.21-3.8,7.38-8.36,7.31-4.85-.07-7.5-2.88-7.37-7.82.12-4.82,2.84-7.3,7.95-7.26Z"/>
    </g>
  </g>
</svg>