<?xml version="1.0" encoding="UTF-8"?>
<svg id="_Слой_2" data-name="Слой 2" xmlns="http://www.w3.org/2000/svg" viewBox="0 0 135 135">
  <defs>
    <style>
      .cls-1 {
        fill: #084b51;
      }

      .cls-1, .cls-2, .cls-3, .cls-4, .cls-5, .cls-6, .cls-7 {
        stroke-width: 0px;
      }

      .cls-2 {
        fill: #0f7a89;
      }

      .cls-3 {
        fill: #fdfdfc;
      }

      .cls-4 {
        fill: #0d700e;
      }

      .cls-5 {
        fill: #1899ab;
      }

      .cls-6 {
        fill: #18b118;
      }

      .cls-7 {
        fill: #cedfce;
      }
    </style>
  </defs>
  <g id="_Слой_1-2" data-name="Слой 1">
    <g>
      <path class="cls-2" d="M135,12.13v2.97c-.11.09-.34.21-.32.26.07.25.21.49.32.73v41.62c-2.15-1.58-2.47-4.72-5.07-5.91-5.93-4.65-11.85-9.29-17.78-13.94-1.22-2.87-3.7-4.7-5.7-6.93-1.86-4.03-5.11-6.45-9.21-7.86l-2.05-1.82c-4.13-5.75-7.51-12.14-13.68-16.16-.01-1.23-.03-2.46-.04-3.68,13.23,0,26.46-.01,39.68-.02,4.22,2.08,8.72,3.76,11.09,8.33.58,1.12,1.11,2.45,2.76,2.42Z"/>
      <path class="cls-2" d="M58.7,135H15.11c-6.52-2.22-10.67-6.99-13.74-12.89.01-13.22.02-26.44.03-39.66.99-.43,1.97-.85,2.96-1.28,5.12,7.55,13.56,11.45,19.65,17.92,1.73,2.04,3.46,4.08,5.19,6.12,2.05,4.12,5.45,6.59,9.75,7.95.62.65,1.23,1.29,1.85,1.94,3.8,7.28,8.83,13.46,15.88,17.84.67.69,1.35,1.37,2.02,2.06Z"/>
      <path class="cls-1" d="M58.7,135c-.67-.69-1.35-1.37-2.02-2.06,5.91-.01,11.82-.19,17.72.03,3.48.13,6.48-.68,9.04-2.94,6.2-5.49,10.1-12.95,15.94-18.75,2.46-1.47,5-2.87,6.07-5.8,4.35-1.07,5.84-4.86,7.79-8.21.97-1.25,1.94-2.49,2.92-3.74,1.6-.79,3.38-1.34,4.76-2.42,4.21-3.29,10.32-5.99,10.68-11.56.59-9.2,2.23-18.72-1.66-27.74,2.6,1.19,2.92,4.33,5.07,5.91v25.76c-1.65.82-2.52,2.23-2.99,3.95-2.7,2.13-5.43,4.23-8.1,6.41-2.76,2.26-6.14,3.76-8.05,7.07-2.56,4.43-5.7,8.48-10.01,11.34-7.59,5.04-12.6,12.3-17.53,19.66-1.62,1.03-3.23,2.06-4.85,3.09h-24.77Z"/>
      <path class="cls-5" d="M83.47,135c1.62-1.03,3.23-2.06,4.85-3.09,9.22.04,18.43.13,27.65.1,10.02-.03,15.98-5.98,16.02-15.95.04-9.55.01-19.1.02-28.64.47-1.72,1.33-3.13,2.99-3.95v41.62c-4.67,2.82-7.68,7.79-12.88,9.91h-38.64Z"/>
      <path class="cls-3" d="M1.4,82.45c-.01,13.22-.02,26.44-.03,39.67-.04,4.3-.09,8.59-.13,12.89-2.04-.89-.93-2.67-.93-3.95C.23,87.53.24,44.01.24.24h56.62c24.73,0,49.45-.02,74.18.06,1.28,0,3.07-1.11,3.95.93-4.61.05-9.23.1-13.84.15-13.23,0-26.46.01-39.68.02H1.4v81.05Z"/>
      <path class="cls-1" d="M1.23,135c.04-4.3.09-8.59.13-12.89,3.07,5.9,7.21,10.66,13.74,12.89H1.23Z"/>
      <path class="cls-1" d="M121.16,1.38c4.61-.05,9.23-.1,13.84-.15v10.9c-1.65.02-2.17-1.3-2.76-2.42-2.37-4.56-6.87-6.25-11.09-8.33Z"/>
      <path class="cls-1" d="M122.12,135c5.2-2.12,8.21-7.09,12.88-9.91v9.91h-12.88Z"/>
      <path class="cls-1" d="M135,16.09c-.11-.24-.25-.48-.32-.73-.01-.05.21-.17.32-.26v.99Z"/>
      <path class="cls-6" d="M105.45,105.47c-1.07,2.93-3.61,4.33-6.07,5.8-2.62.26-3.86-1.5-4.87-3.45-1.66-3.23-3.59-2.04-6.07-.9-2.77,1.28-3.5,2.79-2.02,5.34,2.67,4.6-1.14,5.17-3.92,6.33-3.32,1.39-4.84.16-5.18-3.38-.31-3.25-2.02-4.19-5.49-3.49-3.32.66-4.26,1.99-4.27,5.2-.02,5.1-4.14,2.95-6.66,3.15-3.23.26-3.37-1.83-2.53-4.26,1.27-3.68-.89-4.86-3.9-5.95-3.64-1.31-4.38,1.2-5.17,3.49-1.06,3.08-2.39,4.69-5.67,2.38-.73-.52-1.88-.44-2.84-.63-.62-.65-1.23-1.29-1.85-1.94-.26-2.23,1.22-3.62,2.44-5.15,2.92-3.68-.6-5.17-2.49-7.12-2.37-2.45-3.73-.46-4.96,1.37-1.16,1.72-2.47,3.07-4.73,2.95-1.73-2.04-3.46-4.08-5.19-6.12.63-3.78,5.2-3.84,6.69-7.06-1.74-3.38-1.93-8.23-8.39-5.13-4.08,1.96-3.78-2.7-4.67-5.06-.96-2.52-.52-4.16,2.62-4.32,1.75-.09,3.78-.05,4.25-2.47.92-4.74-1.06-7.16-6-7.38-.98-.04-2,.06-2.95-1.29.97-2.26-.28-5.2,1.54-7.96,2.36.24,4.77.49,7.12.74,3.34-6.63,3.36-6.66-2.76-10.18-2.16-1.24-2.66-2.65-1.27-4.84.58-.91.62-2.16.91-3.26l-.04.03c.32-.31.65-.62.97-.93.33-.33.66-.66,1-.99,1.7.13,3.19.84,4.43,1.94,2.76,2.46,4.82,1.6,6.98-.98,2.41-2.88,1.1-4.71-1.26-6.51-1.21-.93-2.08-2.08-2.25-3.65,1.87-2.37,4.21-4.19,6.73-5.8.87.73,1.92,1.33,2.59,2.22,4.05,5.37,4.02,5.39,10.29.84-.41-1.29-.68-2.76-1.32-4.05-1.42-2.87-.48-4.63,2.51-4.81,2.42-.14,6.18-3.23,6.86,2.17.3,2.42.38,4.86,3.78,4.44,3.08-.37,5.94-1.02,5.36-5.3-.35-2.52,1.09-3.38,3.54-3.5,5.77-.29,6.59.24,5.86,6.23-.41,3.36,1.86,3.3,3.74,4.03,1.95.75,4.37,1.38,4.94-1.23,1.35-6.25,5.27-5.01,9.39-3.78.68.61,1.37,1.22,2.05,1.82-.39,1.07-.68,2.19-1.2,3.19q-3.32,6.34,3.16,10c2.65-1.39,3.85-4.9,7.25-5.33,2,2.22,4.48,4.06,5.7,6.93-.83,1.79-2.6,2.57-4.12,3.41-2.88,1.58-2.97,3.43-1.55,6.09,1.33,2.49,2.61,4.14,5.72,2.5,2.57-1.36,5.28-2.03,5.88,2.1.41,2.81,3.11,6.83-3.13,6.86-2.06,0-4.19,1.1-3.44,3.7.67,2.33-.47,6.38,4.05,5.98,5.47-.48,4.71,3.16,4.55,6.44-.23,4.76-3.42,2.64-5.76,2.39-.95-.1-1.9-.67-3.13.32-.29,2.79-4.98,6.56,1.02,8.52,4.29,1.4,4.71,3.78,3.91,7.34-.97,1.25-1.94,2.49-2.92,3.74-1.87-.14-3.46-.96-4.81-2.16-3.53-3.15-5.26-.39-7.41,1.94-2.74,2.97-.12,4.2,1.56,5.81.94.89,1.91,1.75,2.87,2.62ZM26.96,68.37c-.71,21.5,18.75,41.1,40.89,40.93,22.99-.18,41.43-18.58,41.35-41.68-.07-21.55-18.55-40.8-41.31-40.69-21.9.11-41.56,18.7-40.93,41.45Z"/>
      <path class="cls-4" d="M95.2,21.25c-4.12-1.24-8.04-2.47-9.39,3.78-.56,2.61-2.99,1.98-4.94,1.23-1.88-.73-4.15-.67-3.74-4.03.73-5.99-.09-6.52-5.86-6.23-2.45.12-3.89.99-3.54,3.5.59,4.28-2.27,4.92-5.36,5.3-3.4.41-3.47-2.02-3.78-4.44-.68-5.4-4.43-2.31-6.86-2.17-2.99.18-3.93,1.94-2.51,4.81.64,1.29.91,2.76,1.32,4.05-6.27,4.55-6.24,4.52-10.29-.84-.67-.89-1.72-1.49-2.59-2.22,2.83-3.15,4.99-6.85,7.66-10.04,2.41-2.88,4.26-6.7,8.31-7.99,9.2-3.33,18.55-1.72,27.88-.88,6.17,4.03,9.55,10.41,13.68,16.16Z"/>
      <path class="cls-4" d="M116.15,93.52c.8-3.56.38-5.94-3.91-7.34-5.99-1.95-1.31-5.73-1.02-8.52,1.22-1,2.17-.43,3.13-.32,2.34.25,5.53,2.37,5.76-2.39.16-3.28.92-6.93-4.55-6.44-4.53.4-3.38-3.66-4.05-5.98-.75-2.6,1.38-3.69,3.44-3.7,6.25-.03,3.54-4.05,3.13-6.86-.6-4.13-3.31-3.46-5.88-2.1-3.11,1.64-4.39,0-5.72-2.5-1.42-2.66-1.33-4.51,1.55-6.09,1.53-.84,3.29-1.62,4.12-3.41,5.93,4.65,11.85,9.29,17.78,13.94,3.89,9.03,2.25,18.55,1.66,27.74-.36,5.57-6.46,8.27-10.68,11.56-1.38,1.08-3.16,1.63-4.76,2.42Z"/>
      <path class="cls-1" d="M81.52,5.09c-9.33-.84-18.68-2.46-27.88.88-.55-2.33-2.47-1.8-4.01-1.81-10.54-.03-21.09-.06-31.63.05-5.88.06-12.17,3.77-12.9,9.61-1.66,13.3-2,26.75.12,40.12-2,9.03-.66,18.16-.84,27.24-.99.43-1.97.85-2.96,1.28,0-26.88,0-53.76,0-81.05h80.07c.02,1.23.03,2.46.04,3.68Z"/>
      <path class="cls-4" d="M106.45,30.94c-3.4.43-4.61,3.94-7.25,5.33q-6.5-3.67-3.16-10c.52-1,.81-2.12,1.2-3.19,4.1,1.41,7.34,3.83,9.21,7.86Z"/>
      <path class="cls-4" d="M40.8,115.1c.96.2,2.11.12,2.84.63,3.29,2.31,4.61.7,5.67-2.38.79-2.29,1.53-4.81,5.17-3.49,3.01,1.09,5.17,2.27,3.9,5.95-.84,2.43-.7,4.52,2.53,4.26,2.52-.2,6.64,1.95,6.66-3.15,0-3.21.95-4.54,4.27-5.2,3.47-.69,5.18.24,5.49,3.49.33,3.54,1.85,4.77,5.18,3.38,2.78-1.16,6.59-1.73,3.92-6.33-1.48-2.55-.75-4.06,2.02-5.34,2.48-1.15,4.41-2.33,6.07.9,1,1.95,2.24,3.72,4.87,3.45-5.84,5.8-9.74,13.27-15.94,18.76-2.56,2.26-5.55,3.07-9.04,2.94-5.9-.22-11.81-.04-17.72-.03-7.05-4.38-12.09-10.56-15.88-17.84Z"/>
      <path class="cls-4" d="M4.36,81.17c.18-9.08-1.16-18.21.84-27.24,4.25-5.63,10.11-9.3,15.91-13.05-.29,1.1-.33,2.34-.91,3.26-1.39,2.19-.89,3.6,1.27,4.84,6.12,3.52,6.1,3.55,2.76,10.18-2.35-.24-4.76-.49-7.12-.74-1.83,2.76-.57,5.7-1.54,7.96.95,1.35,1.97,1.24,2.95,1.29,4.94.22,6.92,2.64,6,7.38-.47,2.42-2.5,2.37-4.25,2.47-3.13.16-3.57,1.8-2.62,4.32.9,2.37.59,7.02,4.67,5.06,6.46-3.09,6.64,1.75,8.39,5.13-1.49,3.22-6.06,3.28-6.69,7.06-6.1-6.47-14.54-10.38-19.65-17.93Z"/>
      <path class="cls-4" d="M29.2,105.21c2.27.12,3.58-1.23,4.73-2.95,1.23-1.83,2.58-3.83,4.96-1.37,1.89,1.95,5.42,3.44,2.49,7.12-1.22,1.53-2.7,2.93-2.44,5.15-4.3-1.36-7.69-3.83-9.75-7.95Z"/>
      <path class="cls-2" d="M132.01,87.42c0,9.55.03,19.1-.02,28.64-.04,9.96-6,15.92-16.02,15.95-9.22.03-18.43-.06-27.65-.1,4.93-7.36,9.94-14.62,17.53-19.66,4.31-2.86,7.45-6.91,10.01-11.34,1.91-3.31,5.29-4.81,8.05-7.07,2.66-2.18,5.39-4.28,8.1-6.41Z"/>
      <path class="cls-4" d="M105.45,105.47c-.96-.87-1.93-1.73-2.87-2.62-1.69-1.61-4.31-2.83-1.56-5.81,2.15-2.33,3.88-5.09,7.41-1.94,1.34,1.2,2.94,2.03,4.81,2.16-1.95,3.35-3.43,7.14-7.79,8.21Z"/>
      <path class="cls-2" d="M21.11,40.89c-5.8,3.75-11.65,7.42-15.91,13.05-2.12-13.36-1.77-26.82-.12-40.11.73-5.84,7.02-9.55,12.9-9.61,10.54-.11,21.09-.08,31.63-.05,1.54,0,3.46-.53,4.01,1.81-4.05,1.29-5.9,5.11-8.31,7.99-2.67,3.19-4.83,6.89-7.66,10.04-2.52,1.61-4.86,3.43-6.73,5.8-4.32,1.62-6.5,5.08-7.9,9.2-.33.33-.66.66-1,.99-.32.31-.65.62-.97.93,0,0,.04-.03.04-.03Z"/>
      <path class="cls-4" d="M26.96,68.37c-.63-22.75,19.03-41.34,40.93-41.45,22.76-.11,41.24,19.15,41.31,40.69.08,23.1-18.36,41.5-41.35,41.68-22.14.18-41.6-19.43-40.89-40.93ZM29.87,68.31c.04,21.66,16.56,38.06,38.32,38.03,21.52-.03,38.15-16.78,38.12-38.41-.02-20.73-16.88-37.32-37.02-38.16-21.93-.92-40.84,18.53-39.43,38.55Z"/>
      <path class="cls-4" d="M23.04,38.99c1.4-4.12,3.58-7.58,7.9-9.2.17,1.58,1.04,2.73,2.25,3.65,2.35,1.8,3.67,3.63,1.26,6.51-2.16,2.58-4.22,3.44-6.98.98-1.24-1.1-2.73-1.81-4.43-1.94Z"/>
      <path class="cls-4" d="M21.07,40.91c.32-.31.65-.62.97-.93-.32.31-.65.62-.97.93Z"/>
      <path class="cls-6" d="M29.87,68.31c-1.41-20.01,17.5-39.47,39.43-38.55,20.13.85,36.99,17.43,37.02,38.16.03,21.64-16.6,38.39-38.12,38.41-21.76.03-38.29-16.37-38.32-38.03ZM52.07,93.39c5.89-.05,10.6-4.77,10.6-10.63,0-5.73-4.92-10.75-10.61-10.81-5.74-.06-11.07,5.34-10.93,11.08.14,5.73,5.09,10.41,10.94,10.36ZM94.4,83.12c.07-6.32-4.06-10.94-9.98-11.16-5.84-.21-10.72,4.47-10.91,10.45-.19,6.17,4.15,10.83,10.2,10.96,6.3.13,10.61-4.01,10.68-10.25ZM67.84,63.93c6.27.05,10.63-4.15,10.71-10.33.08-6.2-4.19-10.64-10.36-10.75-6.08-.11-10.77,4.4-10.83,10.4-.06,6.06,4.42,10.64,10.48,10.68Z"/>
      <path class="cls-7" d="M52.07,93.39c-5.85.05-10.79-4.64-10.94-10.36-.14-5.74,5.18-11.14,10.93-11.08,5.69.06,10.61,5.08,10.61,10.81,0,5.86-4.71,10.58-10.6,10.63ZM59.75,82.36c-.11-3.67-4.67-7.95-8.25-7.74-3.53.2-7.64,4.52-7.6,7.99.05,4.49,3.78,7.99,8.42,7.91,4.29-.08,7.56-3.66,7.44-8.15Z"/>
      <path class="cls-7" d="M94.4,83.12c-.07,6.25-4.38,10.38-10.68,10.25-6.05-.13-10.39-4.79-10.2-10.96.18-5.98,5.07-10.66,10.91-10.45,5.92.22,10.05,4.84,9.98,11.16ZM83.81,90.5c4.64.1,8.48-3.44,8.41-7.75-.06-3.98-3.92-7.9-7.93-8.05-4.05-.16-7.72,3.48-7.86,7.8-.15,4.51,2.98,7.91,7.38,8Z"/>
      <path class="cls-7" d="M67.84,63.93c-6.06-.05-10.55-4.62-10.48-10.68.06-6,4.75-10.5,10.83-10.4,6.17.11,10.45,4.54,10.36,10.75-.08,6.18-4.44,10.38-10.71,10.33ZM67.97,45.72c-4.41.03-8.2,3.61-8.12,7.67.08,3.74,4.36,8.06,8.05,8.13,4.17.08,7.68-3.55,7.75-8.01.07-4.53-3.17-7.82-7.69-7.79Z"/>
      <path class="cls-3" d="M59.75,82.36c.13,4.49-3.14,8.07-7.44,8.15-4.64.08-8.37-3.42-8.42-7.91-.04-3.47,4.07-7.79,7.6-7.99,3.59-.2,8.15,4.08,8.25,7.74Z"/>
      <path class="cls-3" d="M83.81,90.5c-4.4-.09-7.53-3.49-7.38-8,.15-4.31,3.82-7.96,7.86-7.8,4.01.16,7.87,4.07,7.93,8.05.07,4.31-3.77,7.85-8.41,7.75Z"/>
      <path class="cls-3" d="M67.97,45.72c4.52-.03,7.76,3.25,7.69,7.79-.07,4.45-3.58,8.08-7.75,8.01-3.69-.07-7.98-4.39-8.05-8.13-.08-4.06,3.71-7.64,8.12-7.67Z"/>
    </g>
  </g>
</svg>