<?xml version="1.0" encoding="UTF-8"?>
<svg id="_Слой_2" data-name="Слой 2" xmlns="http://www.w3.org/2000/svg" viewBox="0 0 135 135">
  <defs>
    <style>
      .cls-1 {
        fill: #700e71;
      }

      .cls-1, .cls-2, .cls-3, .cls-4, .cls-5, .cls-6, .cls-7 {
        stroke-width: 0px;
      }

      .cls-2 {
        fill: #107a8b;
      }

      .cls-3 {
        fill: #0a4954;
      }

      .cls-4 {
        fill: #e2d0e2;
      }

      .cls-5 {
        fill: #fdfdfd;
      }

      .cls-6 {
        fill: #1899ab;
      }

      .cls-7 {
        fill: #ad16ad;
      }
    </style>
  </defs>
  <g id="_Слой_1-2" data-name="Слой 1">
    <g>
      <path class="cls-2" d="M135,12.13v45.58c-1.04-1.11-2.08-2.22-3.12-3.33,0,0,.11-.1.11-.1-.24-.95-.91-1.52-1.76-1.91-6.06-4.85-12.13-9.71-18.19-14.56-.09-.33-.19-.66-.28-1l-.02-.42-.39-.18c-1.35-1.44-2.71-2.88-4.06-4.31-.33-.34-.67-.68-1-1.03l.06.03c-3.99-5.82-10.8-8.78-14.78-14.67-3.08-4.56-6.16-9.19-11.08-12.08,0-.92,0-1.84,0-2.76,13.56-.01,27.11-.02,40.67-.04,4.19,2.12,8.71,3.8,11.09,8.35.59,1.12,1.1,2.46,2.75,2.42Z"/>
      <path class="cls-2" d="M57.71,135H12.13c-3.71-4.19-8.85-7.18-10.77-12.88l.04-39.67c.98-.43,1.97-.86,2.95-1.28,5.19,7.5,13.65,11.4,19.71,17.95,1.7,2.03,3.41,4.06,5.11,6.09.48,2.32,2.41,3.4,4.09,4.64,4.32,3.18,8.09,6.76,11.33,11.16,3.32,4.5,6.63,9.32,12.02,11.86.37.72.74,1.43,1.1,2.15Z"/>
      <path class="cls-3" d="M57.71,135c-.37-.72-.74-1.43-1.1-2.15,5.95-.03,11.9-.33,17.83,0,4.59.26,8.09-1.55,10.88-4.68,4.87-5.46,9.43-11.21,14.12-16.83,2.16-1.84,4.52-3.45,6.17-5.83,3.91-1.52,6.3-4.38,7.38-8.4.14-2,1.99-2.51,3.15-3.61,1.74-.85,3.6-1.52,5.19-2.59,6.77-4.6,12.08-9.82,10.77-19.26-.79-5.66-.19-11.51-.21-17.27,1.04,1.11,2.08,2.22,3.12,3.34v25.76c-1.91,1.01-2.58,2.85-3.19,4.74-6.85,4.72-14.1,8.89-18.63,16.39-1.91,3.16-4.51,6.05-7.78,8.11-5.81,3.67-10.01,8.86-13.81,14.47-1.18,1.75-2.79,3.2-4.2,4.79-1.31,1.01-2.61,2.01-3.92,3.02h-25.76Z"/>
      <path class="cls-6" d="M131.81,88.21c.6-1.89,1.28-3.73,3.19-4.74v40.63c-4.14,3.82-7.53,8.52-12.88,10.9h-38.64c1.31-1.01,2.61-2.01,3.92-3.02,9.9.01,19.8.12,29.7.01,8.39-.09,14.7-5.96,14.85-14.09.18-9.89-.06-19.79-.12-29.69Z"/>
      <path class="cls-5" d="M1.4,82.45c-.01,13.22-.02,26.45-.04,39.67-.04,4.29-.09,8.58-.13,12.88-2.04-.89-.93-2.67-.93-3.95C.23,87.53.24,44.01.24.24h56.62c24.73,0,49.45-.02,74.18.06,1.28,0,3.07-1.11,3.95.93-4.61.04-9.23.09-13.84.13-13.56.01-27.11.02-40.67.04-26.34,0-52.69,0-79.09,0v81.05Z"/>
      <path class="cls-3" d="M121.16,1.36c4.61-.04,9.23-.09,13.84-.13v10.9c-1.66.04-2.17-1.3-2.75-2.42-2.38-4.55-6.9-6.23-11.09-8.35Z"/>
      <path class="cls-3" d="M122.12,135c5.35-2.38,8.75-7.08,12.88-10.9v10.9h-12.88Z"/>
      <path class="cls-3" d="M1.23,135c.04-4.29.09-8.58.13-12.88,1.92,5.69,7.06,8.69,10.77,12.88H1.23Z"/>
      <path class="cls-7" d="M116.14,93.5c-1.16,1.1-3.01,1.61-3.15,3.61-2.06.43-3.51-.85-4.85-1.98-2.36-2-4.01-1.97-6.07.65-2.04,2.59-2.31,4.54.31,6.7,1.14.94,2.16,2.02,3.23,3.03-1.65,2.38-4.01,3.99-6.17,5.83-2.2.05-3.79-.94-4.77-2.87-1.13-2.24-2.09-3.87-5.22-2.1-2.76,1.56-4.89,2.67-3.09,6.26.56,1.12,1.27,2.36.61,3.99-1.51.58-3.21,1.15-4.84,1.87-2.76,1.22-4.3.73-4.71-2.59-.29-2.38-.57-5.12-4.39-4.39-3.22.61-6.11.97-5.51,5.57.7,5.4-3.57,4.05-6.36,3.92-3.15-.15-4.46-2.35-3.13-5.16,1.85-3.91-.63-4.94-3.35-6.08-3.39-1.43-4.31.99-5.33,3.34-.56,1.31-.55,3-2.3,3.54-7.44-3.01-8.6-4.49-5.65-8.3,3.22-4.16-.42-5.39-2.48-7.4-2.8-2.74-3.97-.07-5.25,1.73-1.13,1.59-2.49,2.59-4.5,2.54-1.7-2.03-3.41-4.06-5.11-6.09.42-2.18,2-3.3,3.82-4.2,3.19-1.57,2.86-3.62,1.3-6.37-1.47-2.58-2.83-4.02-5.73-2.05-1.27.86-2.97,1.64-3.97.15-1.35-2.02-2.29-4.44-2.18-6.94.09-1.91,1.84-2.05,3.36-2.12,2.32-.12,4.63-.48,3.91-3.57-.62-2.64.64-6.96-4.62-6.33-3,.36-3.9-1.06-4.09-3.98-.29-4.42,1.8-5.47,5.59-4.98,3.28.43,4.13-1.84,4.91-4.35.68-2.17.01-3.93-2.03-4.25-5.64-.89-5.34-4.22-3.86-8.25.87-.94,1.73-1.89,2.6-2.83,1.71.18,2.99,1.05,4.31,2.14,2.71,2.24,4.95,1.4,7.08-1.25,2.1-2.61,1.45-4.45-.96-6.16-1.41-1-2.4-2.23-2.55-4.02,1.75-2.48,4.23-4.11,6.69-5.76.8.8,1.72,1.52,2.39,2.42,4.09,5.53,5.2,5.59,10.42.32-.38-2.68-2.82-4.88-1.92-8.07,2.57-.88,5.44-.65,7.65-2.13,1.74,1.28,2.28,2.85,2.43,4.49.23,2.55,1.01,4.07,4.03,3.35,2.64-.64,6.41.57,5.88-4.39-.53-4.98,3.16-3.95,5.98-3.93,3.57.03,3.54,2.55,2.79,4.86-1.05,3.25.22,4.46,3.21,5.19,2.81.69,5.13,1.25,6.05-2.55.6-2.49,1.67-5.17,4.98-2.9,2.44,1.68,6.83,2.84,3.41,7.31-2.11,2.77-1.26,4.61,1.28,6.58,2.6,2.02,4.4,1.6,6.13-.93.96-1.4,2.32-2.32,4.01-2.7,0,0-.06-.03-.06-.03.33.34.67.68,1,1.03,1.35,1.44,2.71,2.88,4.06,4.31.04.27.18.47.41.6.09.33.19.66.28,1-.93,1.36-1.88,2.73-3.5,3.35-3.2,1.23-3.54,3.1-2.11,6.17,1.48,3.18,3.36,3.53,6.22,2.25,1.13-.51,2.21-1.59,3.66-.86,4.17,6.88,3.96,7.8-2.65,10.33-1.82.7-2.88,1.8-2.26,3.7.69,2.12.26,5.37,4.07,4.98,3.15-.32,4.88.49,4.87,4.22-.01,4.01-.78,6.48-5.5,5.55-3.57-.7-4.27,1.74-5.11,4.48-.93,3.04.77,4,2.98,4.48,4.27.93,3.29,4.21,3.43,7.03ZM82.12,32.12c11.02,5.35,18.82,13.04,22.44,24.5,3.73,11.8,1.31,22.67-4.74,32.93-7.88,13.35-26.14,20.3-43.03,15.37-14.9-4.35-27.42-17.77-26.82-35.29,1.06-31.18,20.27-41.49,49.47-39.51-11.66-7.34-32.68-1.16-43.38,12.03-13.17,16.23-12.1,39.69,2.5,55.02,13.92,14.61,38.04,16.22,54.54,3.64,16.77-12.79,20.88-35.61,9.82-54.59-4.99-8.56-15.7-16.36-20.81-14.1ZM94.4,82.53c-.05-6.12-4.63-10.63-10.63-10.48-6.2.16-10.24,4.39-10.24,10.73,0,6.13,4.28,10.56,10.21,10.57,6.57.02,10.72-4.19,10.66-10.83ZM51.72,93.36c5.99.1,10.84-4.49,10.95-10.37.11-5.88-4.63-10.82-10.48-10.93-5.76-.1-10.87,4.74-11.03,10.47-.17,5.8,4.64,10.73,10.56,10.82ZM78.54,53.68c.08-6.21-4.22-10.73-10.32-10.82-6.28-.1-10.64,4.06-10.75,10.26-.1,6.05,4.54,11.05,10.24,11.02,6.18-.03,10.74-4.44,10.82-10.46Z"/>
      <path class="cls-1" d="M106.34,30.91c-1.69.37-3.04,1.29-4.01,2.7-1.74,2.54-3.53,2.96-6.13.93-2.54-1.97-3.39-3.81-1.28-6.58,3.41-4.47-.97-5.64-3.41-7.31-3.31-2.27-4.38.41-4.98,2.9-.91,3.8-3.23,3.24-6.05,2.55-2.99-.73-4.26-1.94-3.21-5.19.75-2.31.79-4.83-2.79-4.86-2.82-.02-6.51-1.05-5.98,3.93.53,4.96-3.24,3.75-5.88,4.39-3.01.73-3.8-.79-4.03-3.35-.15-1.65-.68-3.21-2.43-4.49-2.21,1.49-5.08,1.25-7.65,2.13-.9,3.19,1.54,5.39,1.92,8.07-5.21,5.27-6.33,5.21-10.42-.32-.67-.9-1.58-1.62-2.38-2.42.66-2.03,2.51-3.5,3.78-4.72,4.4-4.19,6.37-10.59,12.24-13.35,1.63-1.67,3.69-1.7,5.85-1.7,6.99.03,13.98-.04,20.97-.07,4.93,2.89,8.01,7.52,11.08,12.08,3.97,5.89,10.78,8.85,14.78,14.67Z"/>
      <path class="cls-1" d="M116.14,93.5c-.14-2.83.83-6.11-3.43-7.03-2.21-.48-3.91-1.44-2.98-4.48.84-2.75,1.54-5.19,5.11-4.48,4.72.93,5.49-1.54,5.5-5.55,0-3.73-1.72-4.54-4.87-4.22-3.8.39-3.37-2.86-4.07-4.98-.62-1.9.44-3,2.26-3.7,6.61-2.53,6.82-3.45,2.65-10.33-1.45-.72-2.52.36-3.66.86-2.86,1.28-4.74.93-6.22-2.25-1.43-3.08-1.09-4.94,2.11-6.17,1.62-.62,2.57-1.99,3.5-3.35,6.06,4.85,12.12,9.71,18.19,14.56.04,1.15.83,1.59,1.76,1.9,0,0-.11.11-.11.1.02,5.76-.57,11.61.21,17.27,1.31,9.45-3.99,14.67-10.77,19.26-1.59,1.08-3.45,1.74-5.19,2.59Z"/>
      <path class="cls-3" d="M80.48,4.16c-6.99.03-13.98.1-20.97.07-2.15,0-4.22.03-5.85,1.7-.74-2.55-2.89-1.75-4.54-1.76-10.05-.06-20.1-.06-30.14.02-8.83.06-14.76,6.05-14.83,14.94-.07,9.88-.05,19.77-.04,29.65,0,1.78-.32,3.66,1.02,5.19-1.86,9.02-.71,18.13-.77,27.2-.98.43-1.97.86-2.95,1.28V1.4c26.4,0,52.74,0,79.09,0,0,.92,0,1.84,0,2.76Z"/>
      <path class="cls-3" d="M131.99,54.28c-.93-.31-1.73-.76-1.76-1.9.85.39,1.52.95,1.76,1.9Z"/>
      <path class="cls-1" d="M107.29,31.9c-.33-.34-.67-.68-1-1.03.33.34.67.68,1,1.03Z"/>
      <path class="cls-1" d="M111.76,36.81c-.24-.13-.37-.33-.41-.6,0,0,.39.18.39.18l.02.42Z"/>
      <path class="cls-1" d="M29.17,105.2c2.01.06,3.37-.95,4.5-2.54,1.29-1.8,2.45-4.48,5.25-1.73,2.05,2.01,5.7,3.24,2.48,7.4-2.95,3.81-1.8,5.29,5.65,8.3,1.75-.54,1.74-2.24,2.3-3.54,1.01-2.35,1.94-4.77,5.33-3.34,2.72,1.15,5.21,2.17,3.35,6.08-1.33,2.81-.03,5.01,3.13,5.16,2.8.13,7.06,1.49,6.36-3.92-.6-4.6,2.29-4.96,5.51-5.57,3.81-.73,4.1,2.02,4.39,4.39.41,3.32,1.95,3.81,4.71,2.59,1.63-.72,3.33-1.29,4.84-1.87.65-1.62-.05-2.86-.61-3.99-1.79-3.59.33-4.7,3.09-6.26,3.14-1.77,4.09-.14,5.22,2.1.98,1.94,2.58,2.92,4.77,2.87-4.69,5.63-9.25,11.37-14.12,16.83-2.79,3.13-6.3,4.93-10.88,4.68-5.92-.33-11.88-.03-17.83,0-5.4-2.53-8.7-7.36-12.02-11.86-3.24-4.39-7.01-7.98-11.33-11.16-1.68-1.24-3.6-2.32-4.09-4.64Z"/>
      <path class="cls-1" d="M4.35,81.17c.07-9.07-1.09-18.18.78-27.2,4.19-5.21,9.54-8.95,15.35-12.1-1.48,4.04-1.78,7.37,3.86,8.25,2.04.32,2.7,2.08,2.03,4.25-.78,2.51-1.63,4.78-4.91,4.35-3.8-.5-5.88.55-5.59,4.98.19,2.93,1.09,4.34,4.09,3.98,5.26-.63,4,3.68,4.62,6.33.72,3.09-1.59,3.46-3.91,3.57-1.51.08-3.27.21-3.36,2.12-.11,2.5.82,4.92,2.18,6.94,1,1.49,2.7.71,3.97-.15,2.9-1.97,4.26-.53,5.73,2.05,1.57,2.75,1.9,4.8-1.3,6.37-1.83.9-3.41,2.02-3.82,4.2-6.06-6.54-14.52-10.45-19.71-17.95Z"/>
      <path class="cls-2" d="M131.81,88.21c.06,9.9.31,19.8.12,29.69-.15,8.13-6.46,14-14.85,14.09-9.9.11-19.8,0-29.7-.01,1.41-1.59,3.02-3.05,4.2-4.79,3.8-5.61,8-10.8,13.81-14.47,3.27-2.07,5.87-4.95,7.78-8.11,4.53-7.5,11.78-11.67,18.63-16.39Z"/>
      <path class="cls-1" d="M105.61,105.51c-1.07-1.01-2.09-2.09-3.23-3.03-2.62-2.16-2.34-4.1-.31-6.7,2.05-2.62,3.7-2.65,6.07-.65,1.34,1.13,2.79,2.41,4.85,1.98-1.07,4.02-3.46,6.88-7.38,8.4Z"/>
      <path class="cls-2" d="M20.48,41.87c-5.81,3.15-11.16,6.89-15.35,12.1-1.34-1.53-1.02-3.41-1.02-5.19,0-9.88-.03-19.77.04-29.65.06-8.89,6-14.87,14.83-14.94,10.05-.07,20.1-.07,30.14-.02,1.65,0,3.8-.8,4.54,1.76-5.87,2.76-7.84,9.16-12.24,13.35-1.27,1.21-3.11,2.69-3.78,4.72-2.46,1.65-4.94,3.28-6.69,5.76-3.83,2.08-7.32,4.44-7.88,9.28-.87.94-1.73,1.89-2.6,2.83Z"/>
      <path class="cls-1" d="M82.12,32.12c5.1-2.27,15.82,5.54,20.81,14.1,11.06,18.98,6.95,41.8-9.82,54.59-16.5,12.58-40.62,10.97-54.54-3.64-14.6-15.33-15.67-38.79-2.5-55.02,10.7-13.19,31.72-19.36,43.38-12.03-29.2-1.98-48.41,8.33-49.47,39.51-.6,17.52,11.92,30.94,26.82,35.29,16.88,4.93,35.15-2.02,43.03-15.37,6.05-10.25,8.47-21.12,4.74-32.93-3.62-11.46-11.42-19.14-22.44-24.5Z"/>
      <path class="cls-4" d="M94.4,82.53c.06,6.64-4.09,10.85-10.66,10.83-5.93-.02-10.2-4.45-10.21-10.57,0-6.34,4.03-10.57,10.24-10.73,6-.15,10.58,4.36,10.63,10.48ZM83.77,90.46c3.82.09,8.44-4.04,8.43-7.52-.01-3.73-4.28-8.11-7.98-8.18-4.15-.09-7.67,3.57-7.72,8.03-.05,4.31,3.05,7.58,7.28,7.68Z"/>
      <path class="cls-4" d="M51.72,93.36c-5.92-.1-10.73-5.02-10.56-10.82.17-5.73,5.27-10.58,11.03-10.47,5.85.11,10.59,5.05,10.48,10.93-.11,5.88-4.96,10.46-10.95,10.37ZM59.71,83.19c.09-3.81-3.9-8.35-7.44-8.46-3.85-.12-8.22,3.91-8.34,7.7-.14,4.61,3.29,8,8.14,8.03,4.31.03,7.54-3.05,7.64-7.27Z"/>
      <path class="cls-4" d="M78.54,53.68c-.08,6.01-4.65,10.43-10.82,10.46-5.7.03-10.34-4.96-10.24-11.02.11-6.2,4.46-10.36,10.75-10.26,6.09.09,10.4,4.61,10.32,10.82ZM75.6,53.44c.04-4.28-3.01-7.53-7.19-7.66-4.24-.14-8.3,3.32-8.49,7.24-.19,3.75,4.29,8.44,8.08,8.46,4.12.02,7.57-3.63,7.61-8.04Z"/>
      <path class="cls-1" d="M23.08,39.04c.56-4.85,4.05-7.21,7.88-9.28.15,1.78,1.14,3.02,2.55,4.02,2.42,1.71,3.06,3.54.96,6.16-2.13,2.65-4.37,3.48-7.08,1.25-1.32-1.09-2.61-1.96-4.31-2.14Z"/>
      <path class="cls-5" d="M83.77,90.46c-4.23-.1-7.33-3.36-7.28-7.68.05-4.45,3.58-8.11,7.72-8.03,3.7.08,7.97,4.45,7.98,8.18,0,3.49-4.61,7.61-8.43,7.52Z"/>
      <path class="cls-5" d="M59.71,83.19c-.1,4.22-3.33,7.29-7.64,7.27-4.85-.03-8.28-3.42-8.14-8.03.12-3.79,4.49-7.82,8.34-7.7,3.54.11,7.52,4.65,7.44,8.46Z"/>
      <path class="cls-5" d="M75.6,53.44c-.04,4.41-3.49,8.06-7.61,8.04-3.79-.02-8.27-4.71-8.08-8.46.2-3.92,4.25-7.38,8.49-7.24,4.18.13,7.23,3.39,7.19,7.66Z"/>
    </g>
  </g>
</svg>