<?xml version="1.0" encoding="UTF-8"?>
<svg id="_Слой_2" data-name="Слой 2" xmlns="http://www.w3.org/2000/svg" viewBox="0 0 135 135">
  <defs>
    <style>
      .cls-1 {
        fill: #0b515e;
      }

      .cls-1, .cls-2, .cls-3, .cls-4, .cls-5, .cls-6, .cls-7 {
        stroke-width: 0px;
      }

      .cls-2 {
        fill: #fdfdfc;
      }

      .cls-3 {
        fill: #1616b1;
      }

      .cls-4 {
        fill: #179bad;
      }

      .cls-5 {
        fill: #1e497b;
      }

      .cls-6 {
        fill: #107a8a;
      }

      .cls-7 {
        fill: #0e0f71;
      }
    </style>
  </defs>
  <g id="_Слой_1-2" data-name="Слой 1">
    <g>
      <path class="cls-6" d="M135,10.9v43.6c-.99-.39-1.98-.77-2.96-1.16-.65-1.83-2.26-2.81-3.64-3.94-5.34-4.37-10.75-8.65-16.13-12.97-1.72-2.4-3.41-4.82-5.72-6.72-2.13-4.33-5.68-6.88-10.21-8.24-.35-.52-.7-1.04-1.05-1.55-4.58-5.35-7.36-12.25-13.76-16.04.9-.88,2.04-.95,3.21-.99,12.81-.41,25.65.75,38.46-.64.85-.09,1.77.82,2.7.96,4.66.67,5.15,6.22,9.1,7.69Z"/>
      <path class="cls-1" d="M135,10.9c-3.95-1.47-4.44-7.01-9.1-7.69-.93-.13-1.85-1.05-2.7-.96-12.8,1.38-25.64.23-38.46.64-1.17.04-2.31.11-3.21.99-.37-.24-.75-.48-1.12-.72-8.55-2.1-17.11-1.72-25.68-.14-11.85-.01-23.69-.13-35.53-.01-9.22.1-14.99,6.06-15.01,15.3-.03,11.84.02,23.69.04,35.54.42,9.09-1.12,18.25.98,27.28-1.56,1.64-1.02,3.7-1.09,5.61-.38,10.13.71,20.28-.94,30.39-1.15,7.08,1.95,12.02,8.47,14.91.88.39,1.64,1.04,2.46,1.57H1.23V0h133.77v10.9Z"/>
      <path class="cls-1" d="M132.04,53.34c.99.39,1.98.77,2.96,1.16v27.74c-1.6.87-2.22,2.47-2.95,3.98-6.69,5.91-15.08,9.96-19.64,18.22-2.19,3.97-5.84,6.65-9.51,9.11-6.36,4.27-10.29,10.4-13.68,17.01-1.89,1.02-3.78,2.03-5.66,3.05-8.3,0-16.59,0-24.89-.01-1.04-.89-2.08-1.77-3.12-2.66,7.07-.04,14.15-.1,21.22-.1,2.02,0,3.83-.24,5.53-1.56,6.78-5.27,11.08-12.58,16.14-19.26,2.32-1.18,4.96-1.95,5.97-4.77,5.25-1.33,7.05-5.7,8.84-10.07l-.03.02c5.19-2.81,9.59-6.74,14.21-10.33,3.45-2.67,4.79-6.37,4.65-10.84-.23-6.88-.06-13.78-.05-20.67Z"/>
      <path class="cls-4" d="M132.05,86.22c.73-1.51,1.35-3.11,2.95-3.98v40.63c-4.26,3.62-7.33,8.68-12.89,10.75-12.85,0-25.7,0-38.55-.01,1.89-1.02,3.78-2.03,5.67-3.04,8.91.08,17.82.21,26.73.22,10.26.01,15.99-5.65,16.05-15.84.06-9.57.03-19.15.05-28.72Z"/>
      <path class="cls-2" d="M83.56,133.6c12.85,0,25.7,0,38.56.01,4.3.05,8.59.1,12.89.15-.89,2.04-2.67.93-3.95.93-43.52.07-87.04.06-130.8.06v-56.62C.24,53.41.22,28.68.3,3.95c0-1.28-1.11-3.07.93-3.95v133.61c4.45,0,8.66,0,12.87,0,14.86,0,29.71-.01,44.57-.02,8.3,0,16.59,0,24.89.01Z"/>
      <path class="cls-1" d="M135,133.77c-4.29-.05-8.59-.1-12.89-.15,5.56-2.07,8.62-7.13,12.89-10.75v10.9Z"/>
      <path class="cls-3" d="M104.42,105.23c-1.01,2.82-3.65,3.59-5.97,4.77-1.21-.13-2.31-.58-2.83-1.72-1.34-2.91-3.07-4.49-6.56-3.01-3.8,1.61-3.32,4.26-2.28,7.27.54,1.56,1.26,3.38-1.02,4.12-2.41.79-4.93,1.25-7.54,1.89-.53-1.68-1.2-3.05-1.38-4.48-.45-3.68-3.09-3.1-5.55-3.17-2.83-.08-3.9,1.34-3.64,3.96.39,3.92-2.06,4.07-5,4.13-3.44.07-4.25-1.63-3.99-4.63.23-2.58.11-4.82-3.37-5.49-3.06-.58-5.13-.24-6.01,3.03-.88,3.27-2.94,3.67-5.63,2.15-1.18-.67-2.34-1.19-3.71-1.18-.36-.28-.73-.57-1.09-.85-.02-1.75.71-3.14,1.84-4.45,1.74-2.02,2.92-4.1.13-6.32-2.63-2.09-5.02-3.02-7.54.26-.86,1.12-2.33,1.76-3.53,2.63-2.2-1.73-4.15-3.68-5.52-6.16.94-1.94,2.02-3.78,4.1-4.7,2.22-.98,3.06-2.32,1.61-4.61-1.36-2.14-2-5.24-5.71-3.71-1.48.61-2.97,1.18-4.34,1.73-2.08-1.7-1.89-4.04-2.5-6.03-.79-2.59.25-4.09,3.04-4.37,2.41-.24,4.65-.6,4.11-4.06-.47-2.99-.98-5.45-4.99-5.01-3.55.39-4.58-1.82-4.2-4.99.41-3.42,1.85-5.51,5.77-4.77,3.46.65,4.53-1.85,5.46-4.43,1.1-3.06-1.26-3.64-3.24-4.37-3.19-1.18-3.95-3.15-2.28-6.12.72-1.29,1.3-2.66,1.94-3.99l-.06.03c1.7,0,3.3.45,4.64,1.46,2.31,1.75,4.25,2.21,6.21-.6,1.71-2.45,2.51-4.51-.25-6.8-1.37-1.13-2.36-2.72-3.52-4.1,2.23-1.62,4.45-3.23,6.68-4.85,1.73.04,3.17.44,4.05,2.21,1.35,2.7,2.7,4.48,6.45,2.49,3.34-1.77,3.82-3.28,2.26-6.48-2.26-4.66,2.51-4.55,4.62-5.66,2.37-1.25,4.54-.35,4.58,2.97.05,4.54,3.1,4.62,6.5,4.52,3.88-.11,3.54-2.8,3.34-5.22-.33-3.82,1.4-5.07,4.95-4.6,3.59.48,5.47,1.99,4.06,5.94-.36,1-.95,2.15-.23,3.3q6.52,3.72,9.52-2.48c.88-1.82,1.87-2.96,4.19-1.53,1.14.71,2.84.53,4.29.75.35.52.7,1.04,1.05,1.56-.16,1.29-.02,2.7-.52,3.83-2.89,6.51-2.91,6.59,3.84,9.68,2.62-1.34,3.71-4.67,6.89-5.27,2.3,1.9,4,4.32,5.72,6.72-.83,1.47-1.93,2.64-3.47,3.39-2.77,1.37-3.84,3.08-2.01,6.21,1.56,2.67,2.61,4.12,6,2.11,3.05-1.82,4.84.26,5.42,3.42.46,2.49,2.09,5.53-2.42,5.79-2.92.17-4.97,1.02-4.39,4.36.49,2.8.5,6.23,5.02,5.66,2.73-.35,3.72,1.05,3.8,3.76.17,5.64-.19,6.08-5.9,5.33-1.89-.25-3.77-.43-4.05,2.2-.23,2.15-1.98,5.46,1,6.04,7.21,1.42,5.85,4.48,2.5,8.58-.38.46-.36,1.24-.52,1.88,0,0,.03-.02.03-.02-3.48.73-5.47-2.38-8.16-3.39q-5.87,4.87-1.68,10.75c.54.76.68,1.8,1.01,2.71ZM104.86,80.46c-6.58,10.85-13.67,19.24-25.28,22.79-11.63,3.56-22.43,2.27-32.49-4.27-14.47-9.42-21.15-27.71-15.69-43.24,6.8-19.33,21.15-27.43,38.54-26.94,9.68.27,18.5,3.83,25.2,10.93,9.81,10.38,12.95,23.11,10.37,38.13,6.18-6.28,3.69-26.85-6.3-37.92-12.82-14.19-34.03-19.89-52.56-8.15-18.71,11.85-24.67,30.52-17,50.16,7.93,20.32,26.09,29.6,49.12,24.82,13.84-2.87,27.39-18.23,26.09-26.3ZM68.09,56.6c-6.19-.03-10.2,3.87-10.27,9.97-.08,6.51,3.82,10.6,10.14,10.62,6.09.02,10.33-4.03,10.46-10,.14-6.28-4.04-10.57-10.32-10.6Z"/>
      <path class="cls-7" d="M95.3,19.92c-1.45-.22-3.14-.04-4.29-.75-2.32-1.44-3.31-.29-4.19,1.53q-3.01,6.19-9.52,2.48c-.72-1.15-.13-2.3.23-3.3,1.41-3.95-.47-5.46-4.06-5.94-3.55-.47-5.27.79-4.95,4.6.21,2.42.54,5.11-3.34,5.22-3.4.09-6.45.02-6.5-4.52-.04-3.32-2.2-4.22-4.58-2.97-2.11,1.11-6.89,1-4.62,5.66,1.55,3.2,1.07,4.7-2.26,6.48-3.75,1.99-5.11.21-6.45-2.49-.88-1.77-2.33-2.16-4.05-2.21,4.08-4.05,7.05-8.96,10.55-13.46,2-2.58,4.35-4.94,7.39-6.42,8.55-1.72,17.18-.56,25.77-.66.37.24.75.48,1.12.72,6.41,3.78,9.18,10.69,13.76,16.03Z"/>
      <path class="cls-7" d="M113.23,95.18c.17-.63.15-1.42.52-1.88,3.36-4.1,4.71-7.16-2.5-8.58-2.98-.59-1.22-3.9-1-6.04.28-2.63,2.16-2.44,4.05-2.2,5.71.74,6.07.3,5.9-5.33-.08-2.71-1.07-4.11-3.8-3.76-4.51.57-4.53-2.86-5.02-5.66-.58-3.34,1.46-4.19,4.39-4.36,4.51-.26,2.88-3.3,2.42-5.79-.58-3.16-2.38-5.24-5.42-3.42-3.39,2.02-4.44.57-6-2.11-1.83-3.13-.76-4.85,2.01-6.21,1.54-.76,2.64-1.93,3.47-3.39,5.38,4.31,10.79,8.6,16.13,12.97,1.38,1.13,2.99,2.1,3.64,3.94,0,6.89-.17,13.79.05,20.67.15,4.47-1.2,8.17-4.65,10.84-4.62,3.59-9.02,7.52-14.21,10.33Z"/>
      <path class="cls-7" d="M106.55,29.72c-3.18.6-4.27,3.93-6.89,5.27-6.74-3.09-6.73-3.17-3.84-9.68.5-1.13.36-2.55.52-3.83,4.52,1.36,8.08,3.91,10.21,8.24Z"/>
      <path class="cls-6" d="M38.88,112.04c.36.28.73.57,1.09.85,4.35,6.74,8.52,13.63,15.58,18.04,1.04.89,2.08,1.77,3.12,2.66-14.86,0-29.71.01-44.57.02-.82-.53-1.58-1.18-2.46-1.57-6.52-2.89-9.62-7.83-8.47-14.91,1.65-10.11.55-20.27.94-30.39.07-1.92-.47-3.98,1.09-5.61,5.18,6.95,13.31,10.57,19.06,16.88,1.36,2.48,3.31,4.43,5.51,6.16,1.78,4.07,4.95,6.54,9.09,7.88Z"/>
      <path class="cls-6" d="M54.65,3.83c-3.04,1.48-5.39,3.84-7.39,6.42-3.49,4.5-6.47,9.41-10.55,13.46-2.23,1.62-4.45,3.23-6.68,4.85-3.18,2.77-6.78,5.24-7.08,10.04,0,0,.06-.03.06-.03-7.41,3.68-13.67,8.77-18.78,15.27-.02-11.85-.08-23.69-.04-35.54.03-9.24,5.79-15.2,15.01-15.3,11.84-.12,23.69,0,35.54,0-.03.27-.06.54-.09.81Z"/>
      <path class="cls-7" d="M4.23,53.84c5.11-6.5,11.37-11.59,18.78-15.27-.64,1.33-1.22,2.7-1.94,3.99-1.67,2.98-.91,4.95,2.28,6.12,1.98.73,4.34,1.3,3.24,4.37-.93,2.58-2,5.08-5.46,4.43-3.92-.74-5.36,1.35-5.77,4.77-.38,3.17.65,5.38,4.2,4.99,4.02-.44,4.52,2.03,4.99,5.01.55,3.45-1.69,3.82-4.11,4.06-2.78.27-3.83,1.78-3.04,4.37.61,1.99.41,4.33,2.5,6.03,1.37-.54,2.86-1.12,4.34-1.73,3.72-1.53,4.36,1.57,5.71,3.71,1.45,2.29.61,3.63-1.61,4.61-2.08.92-3.16,2.76-4.1,4.7-5.75-6.3-13.88-9.92-19.06-16.88-2.1-9.03-.56-18.19-.98-27.28Z"/>
      <path class="cls-5" d="M54.65,3.83c.03-.27.06-.54.09-.81,8.57-1.58,17.13-1.96,25.68.14-8.59.1-17.22-1.06-25.77.67Z"/>
      <path class="cls-6" d="M132.05,86.22c-.01,9.57.01,19.15-.05,28.72-.06,10.2-5.79,15.86-16.05,15.84-8.91-.01-17.82-.14-26.73-.22,3.39-6.61,7.32-12.74,13.67-17.01,3.67-2.47,7.32-5.15,9.51-9.11,4.56-8.26,12.94-12.31,19.64-18.22Z"/>
      <path class="cls-7" d="M55.55,130.93c-7.06-4.4-11.23-11.29-15.58-18.04,1.37-.01,2.53.52,3.71,1.18,2.68,1.52,4.74,1.12,5.63-2.15.88-3.28,2.95-3.62,6.01-3.03,3.48.66,3.6,2.91,3.37,5.49-.27,3,.55,4.69,3.99,4.63,2.94-.06,5.39-.21,5-4.13-.26-2.63.8-4.04,3.64-3.96,2.46.07,5.1-.51,5.55,3.17.18,1.43.84,2.8,1.38,4.48,2.61-.64,5.13-1.11,7.54-1.89,2.28-.74,1.55-2.57,1.02-4.12-1.04-3.01-1.53-5.66,2.28-7.27,3.48-1.48,5.22.1,6.56,3.01.52,1.14,1.62,1.58,2.83,1.72-5.06,6.68-9.36,14-16.14,19.26-1.7,1.32-3.52,1.56-5.53,1.56-7.07,0-14.15.06-21.22.1Z"/>
      <path class="cls-7" d="M104.42,105.23c-.33-.91-.47-1.95-1.01-2.71q-4.16-5.9,1.68-10.75c2.69,1.01,4.68,4.12,8.16,3.39-1.79,4.37-3.59,8.74-8.84,10.07Z"/>
      <path class="cls-7" d="M104.86,80.46c1.31,8.07-12.24,23.43-26.09,26.3-23.02,4.78-41.18-4.5-49.12-24.82-7.67-19.64-1.71-38.31,17-50.16,18.53-11.74,39.75-6.04,52.56,8.15,9.99,11.06,12.47,31.64,6.3,37.92,2.58-15.02-.56-27.74-10.37-38.13-6.71-7.1-15.52-10.66-25.2-10.93-17.39-.49-31.74,7.61-38.54,26.94-5.46,15.53,1.22,33.82,15.69,43.24,10.06,6.54,20.85,7.83,32.49,4.27,11.6-3.55,18.7-11.94,25.28-22.79Z"/>
      <path class="cls-2" d="M68.09,56.6c6.29.03,10.47,4.31,10.32,10.6-.13,5.97-4.37,10.02-10.46,10-6.32-.02-10.22-4.11-10.14-10.62.08-6.11,4.09-10,10.27-9.97Z"/>
      <path class="cls-7" d="M22.95,38.6c.3-4.8,3.9-7.27,7.08-10.04,1.16,1.38,2.16,2.97,3.52,4.1,2.76,2.29,1.96,4.35.25,6.8-1.96,2.81-3.91,2.35-6.21.6-1.34-1.01-2.94-1.46-4.64-1.46Z"/>
      <path class="cls-7" d="M38.88,112.04c-4.14-1.34-7.31-3.82-9.09-7.88,1.19-.86,2.67-1.51,3.52-2.63,2.51-3.27,4.9-2.35,7.54-.26,2.8,2.22,1.62,4.29-.13,6.32-1.13,1.31-1.86,2.7-1.84,4.45Z"/>
    </g>
  </g>
</svg>