<?xml version="1.0" encoding="UTF-8"?>
<svg id="_Слой_2" data-name="Слой 2" xmlns="http://www.w3.org/2000/svg" viewBox="0 0 135 135">
  <defs>
    <style>
      .cls-1 {
        fill: #0f7a89;
      }

      .cls-1, .cls-2, .cls-3, .cls-4, .cls-5, .cls-6, .cls-7 {
        stroke-width: 0px;
      }

      .cls-2 {
        fill: #169bad;
      }

      .cls-3 {
        fill: #cde0cd;
      }

      .cls-4 {
        fill: #0d720e;
      }

      .cls-5 {
        fill: #17ad17;
      }

      .cls-6 {
        fill: #084b4c;
      }

      .cls-7 {
        fill: #fcfcfc;
      }
    </style>
  </defs>
  <g id="_Слой_1-2" data-name="Слой 1">
    <g>
      <path class="cls-1" d="M135,15.1v42.61c-2.15-1.58-2.23-4.97-5.16-5.86-5.9-4.66-11.8-9.31-17.7-13.97-.93-2.56-3.05-4.15-4.87-5.97-1.95-4.51-5.59-7.12-9.99-8.87-.96-1.34-3.14-1.05-3.8-2.8-2.52-6.81-7.22-11.86-12.98-16.04l-.04-2.79c.69,0,1.37,0,2.06,0,.28,0,.56,0,.85,0,12.6-.01,25.2-.02,37.8-.03,4.68,2.03,9.11,4.36,11.55,9.21.45.9,1.13,1.6,2.28,1.55v1.98c-.13.08-.37.21-.36.25.09.26.23.5.36.74Z"/>
      <path class="cls-1" d="M57.71,135H15.11c-6.57-2.62-11.32-7.05-13.72-13.82,0-13.57,0-27.14.01-40.7.93.02,1.85.03,2.78.05,1.88,1.61,2.25,4.28,4.43,5.78,5.51,3.79,10.62,8.08,15.4,12.77,2.05,1.95,3.16,4.76,5.71,6.26,2,3.87,4.97,6.6,9.24,7.78.61.67,1.21,1.34,1.82,2.01,3.44,7.61,8.96,13.36,15.92,17.82.34.69.68,1.37,1.02,2.06Z"/>
      <path class="cls-6" d="M57.71,135c-.34-.69-.68-1.37-1.02-2.06,5.28-.01,10.59-.35,15.84.04,6.45.47,11.24-2.14,14.83-7.09,3.58-4.94,7.61-9.45,11.76-13.89,2.23-2.07,4.93-3.69,6.33-6.56,4.39-1.06,5.92-4.76,7.63-8.29.35-.6.7-1.2,1.06-1.81,1.33-.02,1.93-.75,1.99-2.02h-.01c2.1.43,3.53-1.07,4.76-2.17,3.85-3.45,10.28-5.53,10.64-11.04.6-9.38,2.36-19.08-1.67-28.27,2.93.89,3.01,4.28,5.16,5.86v25.76l-2.98,3.96c-6.93,5.9-15.27,10.27-19.96,18.61-1.72,3.05-4.32,5.41-7.29,7.23-7.41,4.55-11.68,11.81-16.39,18.7-1.86.64-3.58,1.51-4.9,3.03h-25.76Z"/>
      <path class="cls-2" d="M132.02,87.43l2.98-3.96v39.64c-3.38,4.55-7.17,8.68-11.89,11.89h-39.63c1.32-1.52,3.04-2.38,4.9-3.03,9.38.02,18.76.1,28.14.03,9.45-.07,15.39-6,15.47-15.44.08-9.71.03-19.42.03-29.13Z"/>
      <path class="cls-7" d="M1.4,80.48c0,13.57,0,27.14-.01,40.7-.05,4.61-.1,9.21-.16,13.82-2.04-.89-.93-2.67-.93-3.95C.23,87.53.24,44.01.24.24h56.62c24.73,0,49.45-.02,74.18.06,1.28,0,3.07-1.11,3.95.93-4.61.05-9.22.09-13.83.14-12.6.01-25.2.02-37.8.03-.28-.12-.56-.12-.85,0-.69,0-1.37,0-2.06,0H1.4v79.08Z"/>
      <path class="cls-6" d="M1.23,135c.05-4.61.1-9.21.16-13.82,2.39,6.77,7.14,11.2,13.72,13.82H1.23Z"/>
      <path class="cls-6" d="M121.17,1.37c4.61-.05,9.22-.09,13.83-.14v10.9c-1.15.06-1.83-.65-2.28-1.55-2.44-4.85-6.87-7.18-11.55-9.21Z"/>
      <path class="cls-6" d="M123.11,135c4.72-3.21,8.51-7.34,11.89-11.89v11.89h-11.89Z"/>
      <path class="cls-6" d="M135,15.1c-.13-.25-.27-.49-.36-.74-.01-.04.23-.16.36-.25v.99Z"/>
      <path class="cls-5" d="M105.45,105.44c-1.41,2.86-4.11,4.48-6.33,6.56-2.62-.1-3.53-2.24-4.51-4.06-1.65-3.07-3.45-2.39-6.03-1.08-2.57,1.3-3.73,2.54-2.23,5.26,1.77,3.2,1.14,5.24-2.68,6.07-3.09.67-6.33,2.28-6.29-3.26.01-2.08-1.14-4.15-3.72-3.4-2.32.68-6.34-.5-5.97,4.04.49,5.93-3.69,4.82-6.89,4.5-4.52-.46-2.55-3.53-1.93-5.94.2-.78.58-1.56,0-2.34-6.35-2.95-6.38-2.96-9.98,3.09-1.12,1.88-2.43,2.66-4.41,1.31-1.13-.78-2.36-1.12-3.72-1.07-.61-.67-1.21-1.34-1.82-2.01.55-1.34.79-2.96,1.72-3.96,3.52-3.8.95-6.03-1.82-8.33-3.31-2.75-4.05.66-5.47,2.31-1,1.16-2.1,2.02-3.66,2.21-2.54-1.5-3.66-4.3-5.71-6.25.63-3.76,5.19-3.83,6.67-7.03-1.71-3.45-2.16-8.63-8.33-5-1.7,1.01-3.05-.07-3.88-1.86-2.37-5.12-1.5-6.85,4.04-7.84.59-.11,1.12-.55,1.49-.75,0-2.23.01-4.19,0-6.16-.01-1.49-.62-2.41-2.23-2.74-2.02-.4-5.13,1.16-5.57-2.38-.29-2.33-.81-4.89.93-7.33,2.36.41,4.73.82,7.04,1.22q3.34-6.72-2.69-10.25c-1.83-1.06-2.82-2.33-1.49-4.38.74-1.14,1.2-2.34,1.14-3.71,0,0-.04.01-.04.01.33-.31.66-.61.99-.92.19-.36.38-.72.57-1.08,1.87.08,3.5.83,4.86,2.03,2.74,2.43,4.73,1.53,6.94-.96,2.36-2.67,1-4.33-.96-6.11-1.21-1.1-2.38-2.24-2.53-4.02,1.91-2.37,4.09-4.42,6.82-5.84.86.74,1.9,1.36,2.56,2.25,3.96,5.36,4.12,5.4,10.14.72-.28-1.03-.58-2.12-.86-3.22-.59-2.29-2.28-5.11,1.87-5.62,2.95-.36,7.28-3.02,7.29,3.39,0,2.42,1.36,3.79,3.82,3.18,2.18-.54,5.51-.13,5.07-3.91-.61-5.31,2.85-4.78,6.25-4.78,4.64,0,4,3.19,3.36,5.83-.97,4,2.16,3.7,4.22,4.58,2.57,1.1,4.3.06,4.79-2.48.87-4.46,3.57-4.89,7.22-3.74.66,1.75,2.84,1.45,3.8,2.8-.78,1.78-1.22,3.68-2.61,5.2-2.18,2.4-1.35,4.24,1.11,6.03,2.14,1.55,3.94,3.19,5.96,0,1.29-2.02,3.25-2.57,5.52-2.37,1.82,1.83,3.94,3.42,4.88,5.97-.77,1.55-2.07,2.52-3.57,3.29-2.15,1.1-4.29,2.15-2.33,5.2,1.58,2.46,2.47,5.6,6.6,3.23,4.12-2.37,4.47,1.31,5.43,3.85,1.04,2.73,1.15,4.91-2.61,5.23-2.79.24-4.92,1.23-4.25,4.61.53,2.71.7,5.66,4.89,5.31,5.47-.45,3.77,3.8,3.76,6.56-.02,3.81-2.73,3.01-4.94,2.29-2.83-.92-4.22-.04-5.03,2.79-.74,2.57-1.53,5.09,1.86,6.01,3.92,1.05,4.68,3.6,4.17,7.07,0,0,.01,0,.01,0-1.21.13-1.8.88-1.99,2.02-.35.6-.7,1.2-1.06,1.81-1.94,0-3.47-1.01-4.84-2.19-3.82-3.3-5.39.21-7.41,2.37-2.62,2.81.24,3.95,1.72,5.46.91.94,1.94,1.77,2.91,2.64ZM68.4,109.24c22.19.22,40.83-19.04,40.83-40.56,0-22.96-18.27-41.61-40.78-41.7-24.37-.1-42.23,19.5-42.11,41.64.12,21.27,18.21,41.08,42.06,40.62Z"/>
      <path class="cls-4" d="M116.12,93.34c.51-3.48-.25-6.02-4.17-7.07-3.39-.91-2.6-3.43-1.86-6.01.81-2.83,2.21-3.71,5.03-2.79,2.21.72,4.93,1.52,4.94-2.29.01-2.77,1.71-7.01-3.76-6.56-4.2.35-4.36-2.6-4.89-5.31-.67-3.38,1.46-4.37,4.25-4.61,3.77-.33,3.65-2.5,2.61-5.23-.97-2.54-1.31-6.22-5.43-3.85-4.13,2.38-5.02-.77-6.6-3.23-1.96-3.05.18-4.1,2.33-5.2,1.5-.77,2.8-1.74,3.57-3.29,5.9,4.66,11.8,9.31,17.69,13.97,4.03,9.2,2.28,18.89,1.67,28.27-.35,5.5-6.79,7.59-10.64,11.04-1.23,1.1-2.66,2.61-4.76,2.18Z"/>
      <path class="cls-4" d="M93.49,20.24c-3.65-1.16-6.35-.72-7.22,3.74-.5,2.54-2.23,3.58-4.79,2.48-2.06-.88-5.19-.58-4.22-4.58.64-2.64,1.28-5.84-3.36-5.83-3.4,0-6.86-.53-6.25,4.78.43,3.78-2.9,3.37-5.07,3.91-2.46.61-3.82-.76-3.82-3.18,0-6.41-4.34-3.75-7.29-3.39-4.15.5-2.46,3.33-1.87,5.62.29,1.1.59,2.19.86,3.22-6.02,4.68-6.18,4.65-10.14-.72-.66-.89-1.7-1.51-2.56-2.25.97-2.63,3.34-4.27,4.9-6.48,3.02-4.29,6.14-8.84,10.97-11.55,1.69-1.47,3.67-1.8,5.88-1.78,7,.08,14.01,0,21.01-.02,5.76,4.19,10.46,9.24,12.98,16.04Z"/>
      <path class="cls-6" d="M80.51,4.2c-7,.02-14.01.1-21.01.02-2.21-.02-4.18.3-5.88,1.78-.34-2.12-2.02-1.86-3.46-1.86-11.05,0-22.11-.11-33.16.12-5.88.12-12.36,5.58-12.59,11.43-.48,12.18-.15,24.4-.1,36.6,0,.57.58,1.15.89,1.72-2.12,8.77-.37,17.7-1.03,26.53-.93-.02-1.85-.03-2.78-.05V1.4h79.06c.01.93.03,1.86.04,2.79Z"/>
      <path class="cls-4" d="M107.27,31.91c-2.26-.2-4.23.35-5.52,2.37-2.03,3.18-3.82,1.55-5.96,0-2.46-1.79-3.29-3.64-1.11-6.03,1.39-1.52,1.83-3.42,2.61-5.2,4.4,1.75,8.04,4.36,9.98,8.87Z"/>
      <path class="cls-6" d="M82.53,1.41c.28-.12.56-.12.85,0-.28,0-.56,0-.85,0Z"/>
      <path class="cls-4" d="M40.77,115.12c1.36-.05,2.58.29,3.72,1.07,1.98,1.35,3.29.57,4.41-1.31,3.61-6.05,3.63-6.04,9.98-3.09.59.78.21,1.56,0,2.34-.62,2.41-2.59,5.48,1.93,5.94,3.2.32,7.38,1.43,6.89-4.5-.38-4.53,3.65-3.36,5.97-4.04,2.57-.75,3.73,1.32,3.72,3.4-.04,5.54,3.2,3.94,6.29,3.26,3.82-.83,4.45-2.87,2.68-6.07-1.51-2.72-.34-3.96,2.23-5.26,2.59-1.31,4.38-2,6.03,1.08.98,1.82,1.89,3.96,4.51,4.06-4.14,4.44-8.18,8.95-11.76,13.89-3.59,4.95-8.37,7.56-14.83,7.09-5.25-.39-10.56-.05-15.84-.04-6.96-4.46-12.49-10.21-15.92-17.82Z"/>
      <path class="cls-4" d="M4.18,80.53c.66-8.83-1.09-17.76,1.03-26.53,4.28-5.61,10.08-9.37,15.9-13.1.06,1.37-.4,2.56-1.14,3.71-1.33,2.05-.35,3.31,1.49,4.38q6.05,3.51,2.69,10.25c-2.3-.4-4.68-.81-7.04-1.22-1.74,2.44-1.22,4.99-.93,7.33.44,3.54,3.56,1.97,5.57,2.38,1.61.32,2.22,1.24,2.23,2.74.02,1.96,0,3.93,0,6.16-.37.19-.9.64-1.49.75-5.54.99-6.42,2.72-4.04,7.84.83,1.79,2.18,2.86,3.88,1.86,6.17-3.64,6.61,1.54,8.33,5-1.47,3.2-6.03,3.27-6.67,7.03-4.78-4.69-9.89-8.98-15.4-12.77-2.18-1.5-2.55-4.17-4.43-5.78Z"/>
      <path class="cls-4" d="M29.71,105.33c1.55-.18,2.66-1.05,3.66-2.21,1.42-1.64,2.17-5.05,5.47-2.31,2.77,2.3,5.34,4.54,1.82,8.33-.92.99-1.16,2.62-1.72,3.96-4.27-1.18-7.24-3.9-9.24-7.78Z"/>
      <path class="cls-1" d="M132.02,87.43c0,9.71.05,19.42-.03,29.13-.08,9.44-6.02,15.38-15.47,15.44-9.38.07-18.76-.01-28.14-.03,4.71-6.9,8.98-14.15,16.39-18.7,2.97-1.82,5.58-4.18,7.29-7.23,4.69-8.34,13.03-12.71,19.96-18.61Z"/>
      <path class="cls-4" d="M105.45,105.44c-.97-.88-2-1.71-2.91-2.64-1.48-1.51-4.34-2.65-1.72-5.46,2.02-2.16,3.59-5.67,7.41-2.37,1.37,1.18,2.9,2.18,4.84,2.19-1.71,3.53-3.24,7.22-7.63,8.29Z"/>
      <path class="cls-4" d="M114.14,95.35c.19-1.14.78-1.89,1.99-2.02-.06,1.27-.66,2-1.99,2.02Z"/>
      <path class="cls-1" d="M21.12,40.9c-5.82,3.73-11.63,7.49-15.9,13.1-.31-.57-.89-1.14-.89-1.72-.05-12.2-.38-24.42.1-36.6.23-5.84,6.7-11.3,12.59-11.43,11.05-.23,22.11-.12,33.16-.12,1.44,0,3.11-.26,3.46,1.86-4.83,2.72-7.95,7.27-10.97,11.55-1.56,2.21-3.93,3.85-4.9,6.48-2.73,1.42-4.91,3.47-6.82,5.84-4.56,1.37-6.2,5.43-8.3,9.05-.19.36-.38.72-.57,1.08-.33.31-.66.61-.99.92h.04Z"/>
      <path class="cls-4" d="M68.4,109.24c-23.85.46-41.94-19.35-42.06-40.62-.12-22.14,17.74-41.74,42.11-41.64,22.51.09,40.78,18.74,40.78,41.7,0,21.52-18.63,40.78-40.83,40.56ZM29.89,68.08c-1,20.56,17.43,38.7,38.11,38.34,21.6-.38,38.33-16.74,38.33-38.26,0-21.33-16.94-37.78-38.28-38.4-19.41-.57-39.3,17.34-38.16,38.32Z"/>
      <path class="cls-4" d="M22.64,38.91c2.1-3.63,3.74-7.68,8.3-9.05.16,1.77,1.32,2.92,2.53,4.02,1.96,1.78,3.32,3.44.96,6.11-2.2,2.49-4.19,3.39-6.94.96-1.36-1.2-2.99-1.95-4.86-2.03Z"/>
      <path class="cls-4" d="M21.08,40.91c.33-.31.66-.61.99-.92-.33.31-.66.61-.99.92Z"/>
      <path class="cls-5" d="M29.89,68.08c-1.14-20.98,18.75-38.89,38.16-38.32,21.34.63,38.28,17.07,38.28,38.4,0,21.52-16.73,37.88-38.33,38.26-20.68.36-39.11-17.78-38.11-38.34ZM82.84,57.69c-6.1-.03-10.82,4.4-10.93,10.27-.11,5.84,4.6,10.52,10.66,10.6,6.21.08,10.78-4.27,10.83-10.32.05-6.06-4.41-10.51-10.56-10.54ZM53.39,57.68c-6.42-.02-10.53,4-10.57,10.33-.04,6.39,4.06,10.52,10.45,10.54,6.37.02,10.58-4.12,10.58-10.4,0-6.25-4.2-10.45-10.46-10.47Z"/>
      <path class="cls-3" d="M82.84,57.69c6.15.03,10.6,4.48,10.56,10.54-.05,6.05-4.61,10.4-10.83,10.32-6.06-.08-10.78-4.76-10.66-10.6.12-5.86,4.84-10.3,10.93-10.27ZM90.49,68.04c-.04-4.41-3.29-7.49-7.92-7.5-4.38,0-8.12,3.83-7.97,8.17.13,3.81,3.76,6.92,8.13,6.98,4.5.06,7.79-3.18,7.75-7.64Z"/>
      <path class="cls-3" d="M53.39,57.68c6.26.02,10.46,4.21,10.46,10.47,0,6.28-4.21,10.42-10.58,10.4-6.39-.02-10.49-4.15-10.45-10.54.03-6.32,4.15-10.35,10.57-10.33ZM53.62,60.54c-5.12-.02-7.83,2.51-7.91,7.37-.09,4.94,2.63,7.74,7.52,7.77,4.92.02,7.66-2.74,7.6-7.68-.05-4.86-2.55-7.44-7.21-7.46Z"/>
      <path class="cls-7" d="M90.49,68.04c.04,4.46-3.25,7.7-7.75,7.64-4.37-.06-8-3.17-8.13-6.98-.15-4.34,3.59-8.17,7.97-8.17,4.63,0,7.88,3.09,7.92,7.5Z"/>
      <path class="cls-7" d="M53.62,60.54c4.67.02,7.16,2.6,7.21,7.46.05,4.94-2.68,7.71-7.6,7.68-4.89-.02-7.61-2.83-7.52-7.77.09-4.87,2.8-7.39,7.91-7.37Z"/>
    </g>
  </g>
</svg>