<?xml version="1.0" encoding="UTF-8"?>
<svg id="_Слой_2" data-name="Слой 2" xmlns="http://www.w3.org/2000/svg" viewBox="0 0 135 135">
  <defs>
    <style>
      .cls-1 {
        fill: #fefefe;
      }

      .cls-1, .cls-2, .cls-3, .cls-4, .cls-5, .cls-6, .cls-7 {
        stroke-width: 0px;
      }

      .cls-2 {
        fill: #710e72;
      }

      .cls-3 {
        fill: #189aab;
      }

      .cls-4 {
        fill: #0a4854;
      }

      .cls-5 {
        fill: #ae16af;
      }

      .cls-6 {
        fill: #e0d4e0;
      }

      .cls-7 {
        fill: #0f7a8a;
      }
    </style>
  </defs>
  <g id="_Слой_1-2" data-name="Слой 1">
    <g>
      <path class="cls-7" d="M135,12.13v1.98c-.73.33-.6.66,0,.99v42.61c-1.04-1.1-2.09-2.2-3.13-3.29,0,0,.12-.14.12-.14-.24-.97-.92-1.52-1.79-1.91-6.22-5.5-13.69-9.56-18.95-16.18-1.31-1.42-2.62-2.84-3.93-4.26-.34-.35-.69-.69-1.03-1.04,0,0,.06.03.06.03-2.8-3.27-5.09-7.2-10.04-7.64-.18-.21-.41-.33-.68-.36-2.69-8.16-8.89-13.47-15.15-18.75,0-.92,0-1.84,0-2.75,13.56-.01,27.12-.02,40.69-.03,4.11,1.67,8,3.64,10.58,7.49.87,1.29,1.16,3.19,3.25,3.28Z"/>
      <path class="cls-7" d="M57.71,135H15.11c-6.19-2.59-11.35-6.27-13.74-12.91.01-12.88.03-25.77.04-38.65,1.44-.16,1.96-1.54,2.99-2.25,5.11,7.54,13.78,11.18,19.64,17.89,1.67,2.06,3.34,4.12,5.02,6.19,2.4,3.76,5.55,6.59,9.9,7.91.58.41,1.17.83,1.75,1.24.38,1.4.03,3.08,1.25,4.16,5.11,4.53,8.35,10.98,14.68,14.25.36.72.73,1.45,1.09,2.17Z"/>
      <path class="cls-4" d="M57.71,135c-.36-.72-.73-1.45-1.09-2.17,4.95-.02,9.9-.27,14.83-.01,7.4.38,13.21-2.17,17.02-8.59,3.59-6.06,8.27-10.89,14.16-14.84,4.33-2.9,8.22-6.59,9.84-11.93.54-.73,1.07-1.45,1.61-2.18.96.11,1.69-.08,1.61-1.28.1-.22.21-.43.35-.62,11.22-4.76,15.92-11.59,15.9-23.16,0-5.27-.05-10.53-.07-15.8,1.04,1.1,2.09,2.2,3.13,3.3v25.76c-1.67.81-2.29,2.41-2.97,3.96-2.44,1.93-4.9,3.85-7.32,5.8-2.79,2.25-6.44,3.67-8.27,6.85-3.1,5.39-7.1,10-12.11,13.41-7.05,4.79-11.22,11.81-16,18.42-1.24,1.09-3.33,1.11-3.86,3.08h-26.75Z"/>
      <path class="cls-1" d="M1.4,83.44c-.01,12.88-.03,25.77-.04,38.65-.04,4.3-.09,8.6-.13,12.91-2.04-.89-.93-2.67-.93-3.95C.23,87.53.24,44.01.24.24h56.62c24.73,0,49.45-.02,74.18.06,1.28,0,3.07-1.11,3.95.93-4.61.04-9.22.09-13.83.13-13.56.01-27.12.02-40.69.03-26.34,0-52.69,0-79.09,0v82.04Z"/>
      <path class="cls-3" d="M84.47,135c.54-1.97,2.62-1.99,3.86-3.08,9.39.04,18.79.11,28.18.09,9.35-.01,15.41-6.01,15.48-15.41.08-9.72.03-19.45.04-29.17.68-1.55,1.3-3.15,2.97-3.96v40.63c-4.33,4.01-7.77,9.14-13.87,10.9h-36.66Z"/>
      <path class="cls-4" d="M1.23,135c.04-4.3.09-8.6.13-12.91,2.39,6.63,7.56,10.31,13.74,12.91H1.23Z"/>
      <path class="cls-4" d="M121.13,135c6.1-1.76,9.54-6.89,13.87-10.9v10.9h-13.87Z"/>
      <path class="cls-4" d="M121.17,1.37c4.61-.04,9.22-.09,13.83-.13v10.9c-2.09-.09-2.38-1.98-3.25-3.28-2.58-3.85-6.47-5.81-10.58-7.49Z"/>
      <path class="cls-4" d="M135,15.1c-.6-.33-.73-.66,0-.99v.99Z"/>
      <path class="cls-5" d="M114.07,95.28c-.54.73-1.07,1.45-1.61,2.18-1.02-.51-2.11-.9-3.03-1.55-2.04-1.43-3.65-4.17-6.58-1.02-2.69,2.89-3.61,5.42.06,8.15,1.77,1.32,1.55,2.8-.08,4.06-1.79,1.38-3.2,3.34-5.63,3.9-3.08-1.02-2.86-7.86-8.98-4.14-5.45,3.32.07,6.42-1.32,9.68-.6,1.03-2.18.63-3.28,1.27-3.78,2.2-6.1,1.78-6.46-3.2-.21-2.93-2.17-3.58-4.96-3.13-3.32.54-4.6,1.95-4.65,5.53-.07,5.35-4.49,2.94-7.12,3.02-3.05.1-3.46-2.15-2.33-4.44,1.79-3.63-.63-4.6-3.17-5.74-2.85-1.29-4.37.01-5.28,2.54-1.38,3.81-3.55,4.97-7.07,2.31-.44-.33-1.25-.19-1.88-.27-.58-.41-1.17-.83-1.75-1.24.04-1.55.71-2.87,1.64-4.03,1.67-2.1,3.74-3.95.37-6.49-2.87-2.16-5.29-3.31-7.65.54-.92,1.5-2.54,2-4.26,2.08-1.67-2.06-3.34-4.12-5.02-6.19.49-2.14,2.05-3.26,3.87-4.18,2.74-1.38,3.12-3.12,1.53-5.92-1.52-2.68-2.71-4.35-5.99-2.37-3.26,1.96-4.81.18-5.46-3.01-.54-2.66-2.21-5.77,2.66-6.01,2.3-.11,4.66-.46,3.94-3.54-.62-2.61.73-6.99-4.56-6.36-3.45.41-4.37-1.45-4.04-4.43.19-1.72-.52-3.65,1.05-5.02,1.71-.55,2.86.83,4.27,1.01,3.27.42,4.01-2.05,4.93-4.41.88-2.26.44-4.3-1.89-4.69-5.62-.94-5.33-4.24-3.88-8.28.37-1.41,1.57-2.03,2.63-2.79,1.09.34,2.28.51,3.26,1.05,5.82,3.24,6.87,2.89,9.98-3.58-1.74-2.29-5-3.41-5.34-6.8,1.55-2.68,4.23-4.08,6.64-5.77,1.8.79,2.7,2.5,3.49,4.05,1.91,3.74,4.31,2.44,6.96,1.11,3.14-1.57,2.84-3.5,1.03-5.91-1.14-1.52-1.97-3.25.19-4.67,4.39-2.91,8.81-.91,9.51,4.25.08.6.45,1.17.89,2.25,2.79-2.32,8.9,2.06,8.74-5.04-.12-5.02,3.21-3.98,6.04-3.97,3.6.01,3.62,2.59,2.78,4.85-1.53,4.13,1.39,4.94,4.01,5.8,2.99.98,4.87-.45,5.15-3.52.33-3.55,2.39-3.5,4.86-2.53,1.51.59,2.9,1.49,4.34,2.25.27.03.5.15.68.36.1,1.66-.08,3.21-1.25,4.56-2.41,2.79-1.4,4.79,1.28,6.84,2.67,2.03,4.35,1.32,6-1.14.94-1.39,2.37-2.19,4-2.62,0,0-.06-.03-.06-.03.34.35.69.69,1.03,1.04,1.31,1.42,2.62,2.84,3.92,4.26.06,1.92-.37,3.56-2.26,4.54-2.73,1.41-4.4,2.88-2.65,6.55,1.69,3.53,3.87,3.5,6.72,2.32,2.94-1.22,4.72-.71,5.19,2.77.38,2.84,2.13,6.05-2.98,6.39-2.24.15-4.42.94-3.77,3.95.52,2.46.42,5.6,4.46,5.06,3.19-.43,4.31.98,4.37,4.21.08,4.07-.82,6.47-5.51,5.53-4.47-.9-5.2,3.05-6.18,5.61-1.03,2.69,2.25,2.98,3.83,3.38,4.06,1.03,3.82,3.87,3.58,6.89-.14.19-.26.4-.35.62-.54.43-1.08.85-1.62,1.28ZM67.98,109.25c22.77.37,41.23-18.47,41.15-40.46-.08-23.92-17.24-40.18-36.2-40.71-28.27-.79-45.59,14.98-46.05,39.69-.41,22.22,18.26,41.89,41.1,41.47Z"/>
      <path class="cls-2" d="M95.63,22.9c-1.44-.76-2.83-1.66-4.34-2.25-2.47-.97-4.53-1.02-4.86,2.53-.28,3.07-2.16,4.5-5.15,3.52-2.62-.86-5.53-1.67-4.01-5.8.83-2.26.82-4.83-2.78-4.85-2.83-.01-6.16-1.05-6.04,3.97.17,7.1-5.94,2.72-8.74,5.04-.44-1.09-.81-1.65-.89-2.25-.7-5.16-5.12-7.17-9.51-4.25-2.15,1.43-1.33,3.16-.19,4.67,1.81,2.41,2.11,4.34-1.03,5.91-2.65,1.33-5.05,2.63-6.96-1.11-.8-1.56-1.69-3.26-3.49-4.05,2.97-2.82,5.04-6.35,7.56-9.52,2.5-3.15,4.5-6.87,8.5-8.56,1.64-1.65,3.71-1.68,5.86-1.67,6.98.02,13.96-.05,20.94-.09,6.26,5.27,12.46,10.59,15.15,18.75Z"/>
      <path class="cls-2" d="M116.04,93.37c.23-3.02.48-5.86-3.58-6.89-1.58-.4-4.86-.69-3.83-3.38.98-2.56,1.7-6.51,6.18-5.61,4.7.94,5.6-1.46,5.51-5.53-.07-3.23-1.18-4.64-4.37-4.21-4.04.54-3.94-2.6-4.46-5.06-.64-3.01,1.54-3.8,3.77-3.95,5.11-.34,3.36-3.55,2.98-6.39-.47-3.48-2.25-3.99-5.19-2.77-2.85,1.18-5.03,1.21-6.72-2.32-1.75-3.66-.08-5.14,2.65-6.55,1.89-.98,2.32-2.62,2.26-4.54,5.27,6.63,12.73,10.68,18.95,16.19.02,1.18.85,1.59,1.79,1.91,0,0-.12.15-.12.14.02,5.26.06,10.53.07,15.79.02,11.57-4.68,18.41-15.9,23.16Z"/>
      <path class="cls-4" d="M80.48,4.15c-6.98.04-13.96.11-20.94.09-2.15,0-4.22.02-5.86,1.67-.76-2.54-2.91-1.74-4.57-1.75-10.07-.05-20.13-.05-30.2.03-8.82.07-14.71,6.08-14.77,15.04-.07,10.23-.05,20.46-.04,30.69,0,1.62-.31,3.33.87,4.75-1.61,8.81-.6,17.67-.59,26.52-1.03.71-1.55,2.08-2.99,2.25V1.4c26.4,0,52.74,0,79.09,0,0,.92,0,1.84,0,2.75Z"/>
      <path class="cls-2" d="M106.34,30.9c-1.63.43-3.06,1.22-4,2.62-1.66,2.46-3.33,3.17-6,1.14-2.69-2.04-3.69-4.05-1.28-6.84,1.17-1.35,1.35-2.9,1.25-4.56,4.95.44,7.24,4.38,10.04,7.64Z"/>
      <path class="cls-4" d="M131.98,54.27c-.94-.31-1.77-.72-1.79-1.91.86.38,1.55.94,1.79,1.91Z"/>
      <path class="cls-2" d="M107.32,31.92c-.34-.35-.69-.69-1.03-1.04.34.35.69.69,1.03,1.04Z"/>
      <path class="cls-2" d="M40.69,114.42c.64.08,1.44-.06,1.88.27,3.52,2.66,5.69,1.5,7.07-2.31.92-2.53,2.43-3.83,5.28-2.54,2.54,1.15,4.96,2.12,3.17,5.74-1.13,2.29-.72,4.54,2.33,4.44,2.63-.09,7.04,2.32,7.12-3.02.05-3.58,1.33-4.99,4.65-5.53,2.79-.45,4.74.19,4.96,3.13.36,4.99,2.68,5.4,6.46,3.2,1.1-.64,2.69-.24,3.28-1.27,1.38-3.26-4.14-6.36,1.32-9.68,6.12-3.72,5.9,3.12,8.98,4.14,2.43-.56,3.84-2.52,5.63-3.9,1.63-1.26,1.85-2.74.08-4.06-3.67-2.73-2.75-5.25-.06-8.15,2.93-3.15,4.54-.41,6.58,1.02.92.64,2.01,1.04,3.03,1.55-1.61,5.35-5.51,9.03-9.84,11.93-5.89,3.95-10.57,8.78-14.16,14.84-3.8,6.42-9.61,8.97-17.02,8.59-4.93-.26-9.89,0-14.83.01-6.33-3.26-9.57-9.72-14.68-14.25-1.23-1.09-.87-2.76-1.25-4.16Z"/>
      <path class="cls-2" d="M4.39,81.19c0-8.84-1.01-17.71.59-26.52,3.87-5.83,9.14-9.96,15.47-12.81-1.44,4.03-1.73,7.34,3.88,8.28,2.33.39,2.77,2.43,1.89,4.69-.92,2.36-1.65,4.83-4.93,4.41-1.41-.18-2.56-1.57-4.27-1.01-1.57,1.37-.86,3.31-1.05,5.02-.33,2.98.6,4.84,4.04,4.43,5.28-.63,3.94,3.75,4.56,6.36.73,3.08-1.63,3.43-3.94,3.54-4.88.23-3.2,3.35-2.66,6.01.65,3.2,2.2,4.97,5.46,3.01,3.28-1.97,4.47-.31,5.99,2.37,1.59,2.8,1.21,4.54-1.53,5.92-1.82.92-3.38,2.05-3.87,4.18-5.86-6.71-14.53-10.35-19.64-17.89Z"/>
      <path class="cls-2" d="M29.04,105.27c1.72-.07,3.34-.57,4.26-2.08,2.36-3.84,4.78-2.7,7.65-.54,3.37,2.54,1.3,4.39-.37,6.49-.93,1.16-1.6,2.49-1.64,4.03-4.35-1.32-7.5-4.15-9.9-7.91Z"/>
      <path class="cls-7" d="M132.03,87.44c0,9.72.04,19.45-.04,29.17-.08,9.39-6.13,15.39-15.48,15.41-9.39.01-18.78-.06-28.18-.09,4.78-6.61,8.95-13.63,16-18.42,5.01-3.41,9.02-8.02,12.11-13.41,1.83-3.18,5.47-4.6,8.27-6.85,2.42-1.95,4.88-3.87,7.32-5.8Z"/>
      <path class="cls-2" d="M114.07,95.28c.54-.43,1.08-.85,1.62-1.28.07,1.2-.65,1.39-1.62,1.28Z"/>
      <path class="cls-7" d="M20.45,41.87c-6.33,2.85-11.61,6.98-15.47,12.81-1.18-1.42-.87-3.12-.87-4.75,0-10.23-.02-20.46.04-30.69.06-8.97,5.94-14.97,14.77-15.04,10.07-.08,20.13-.08,30.2-.03,1.66,0,3.8-.79,4.57,1.75-3.99,1.69-6,5.41-8.49,8.56-2.52,3.17-4.59,6.7-7.56,9.52-2.42,1.69-5.09,3.08-6.65,5.77-4.03,1.93-6.69,5.01-7.9,9.33-1.06.76-2.26,1.38-2.63,2.79Z"/>
      <path class="cls-2" d="M67.98,109.25c-22.84.42-41.51-19.25-41.1-41.47.46-24.71,17.78-40.49,46.05-39.69,18.96.53,36.12,16.79,36.2,40.71.08,21.98-18.38,40.83-41.15,40.46ZM29.78,68.51c-1.03,23.54,20.1,38.11,38.81,37.93,20.57-.2,37.83-17.55,37.77-37.93-.07-22.98-19.38-40.35-41.37-38.7-17.24,1.29-35.94,16.84-35.21,38.7Z"/>
      <path class="cls-2" d="M23.08,39.08c1.21-4.32,3.87-7.4,7.9-9.33.34,3.39,3.6,4.51,5.34,6.8-3.11,6.47-4.16,6.81-9.98,3.58-.98-.54-2.17-.71-3.26-1.05Z"/>
      <path class="cls-5" d="M29.78,68.51c-.73-21.86,17.97-37.41,35.21-38.7,21.99-1.65,41.3,15.72,41.37,38.7.06,20.38-17.2,37.73-37.77,37.93-18.72.18-39.84-14.39-38.81-37.93ZM57.69,67.83c-.04,6.57,3.82,10.72,9.95,10.71,6.52-.01,10.75-3.93,10.88-10.09.14-6.32-3.98-10.66-10.22-10.75-6.47-.1-10.57,3.82-10.61,10.13Z"/>
      <path class="cls-6" d="M57.69,67.83c.04-6.31,4.13-10.23,10.61-10.13,6.24.09,10.36,4.43,10.22,10.75-.13,6.15-4.37,10.08-10.88,10.09-6.13.01-9.99-4.14-9.95-10.71ZM75.6,68.16c.02-4.91-2.71-7.6-7.65-7.54-4.39.05-7.87,3.21-7.9,7.17-.04,4.41,3.27,7.72,7.81,7.82,4.97.1,7.71-2.54,7.73-7.45Z"/>
      <path class="cls-1" d="M75.6,68.16c-.02,4.91-2.76,7.55-7.73,7.45-4.54-.09-7.85-3.4-7.81-7.82.03-3.96,3.51-7.12,7.9-7.17,4.94-.06,7.66,2.63,7.65,7.54Z"/>
    </g>
  </g>
</svg>