<?xml version="1.0" encoding="UTF-8"?>
<svg id="_Слой_2" data-name="Слой 2" xmlns="http://www.w3.org/2000/svg" viewBox="0 0 135 135">
  <defs>
    <style>
      .cls-1 {
        fill: #169bad;
      }

      .cls-1, .cls-2, .cls-3, .cls-4, .cls-5, .cls-6, .cls-7, .cls-8, .cls-9 {
        stroke-width: 0px;
      }

      .cls-2 {
        fill: #d1d1e4;
      }

      .cls-3 {
        fill: #0e0e73;
      }

      .cls-4 {
        fill: #012355;
      }

      .cls-5 {
        fill: #1e497b;
      }

      .cls-6 {
        fill: #fdfdfd;
      }

      .cls-7 {
        fill: #1718b1;
      }

      .cls-8 {
        fill: #107a8a;
      }

      .cls-9 {
        fill: #094c55;
      }
    </style>
  </defs>
  <g id="_Слой_1-2" data-name="Слой 1">
    <g>
      <path class="cls-8" d="M135,10.9v45.58c-1-1.04-2.01-2.09-3.01-3.13-6.23-6.7-14.16-11.44-20.74-17.74l.04.04c-3.69-6.02-7.42-11.98-14.92-13.91l.04.07c-.36-.38-.73-.75-1.09-1.13-.04-.24-.11-.47-.21-.69-3.98-5.61-7.48-11.62-12.99-15.98,1.64-1.55,3.71-1.09,5.65-1.16,9.87-.37,19.77.68,29.62-.93,6.43-1.05,11.7,1,15.01,7.01.55.99,1.2,2.03,2.6,1.98Z"/>
      <path class="cls-9" d="M135,10.9c-1.4.05-2.05-.99-2.6-1.98-3.31-6.01-8.58-8.06-15.01-7.01-9.85,1.61-19.75.56-29.62.93-1.94.07-4.01-.38-5.65,1.16-.53-.03-1.06-.05-1.59-.08-.02-.25-.04-.51-.06-.76-8.56-2.18-17.13-1.71-25.71-.19-11.87-.01-23.74-.13-35.6,0-9.28.1-14.97,6-15,15.33-.04,11.87.03,23.73.05,35.6,0,8.72,0,17.43,0,26.15-.05,10.15-.08,20.3-.18,30.45-.02,2.39.43,5.07-2.6,6.26-.07-38.92-.13-77.85-.2-116.77h133.77v10.9Z"/>
      <path class="cls-9" d="M131.99,53.35l3.01,3.13v24.77c-1.19,1.54-2.47,3.01-2.96,4.96-6.68,5.93-15.17,9.84-19.65,18.21-2.14,3.99-5.8,6.73-9.53,9.1-6.53,4.16-10.14,10.52-13.66,17.02-2.24.34-3.95,1.68-5.63,3.06-8.28,0-16.57-.01-24.85-.02-1.05-.89-2.09-1.79-3.14-2.68,6.24-.04,12.52-.47,18.72,0,6.68.51,11.02-2.75,14.26-7.74,2.35-3.62,5.13-6.78,8.13-9.79,1.01-1.01,1.65-1.97,1.74-3.34,1.66-.91,3.62-1.34,4.8-3.01,2.48-.76,4.28-2.51,5.71-4.49,4.66-6.44,10.15-11.9,16.88-16.27,4.31-2.8,6.61-7.02,6.3-12.63-.37-6.74-.1-13.52-.11-20.29Z"/>
      <path class="cls-1" d="M83.56,133.6c1.68-1.38,3.39-2.72,5.63-3.06,9.03.08,18.06.22,27.09.23,9.91.01,15.64-5.63,15.72-15.49.08-9.69.03-19.38.04-29.07.49-1.95,1.78-3.43,2.96-4.96v38.64c-.6.33-1.03.66,0,.99v1.98c-4.19,3.7-7.33,8.66-12.86,10.75-12.86,0-25.72,0-38.58-.01Z"/>
      <path class="cls-6" d="M83.56,133.6c12.86,0,25.72,0,38.58.01,4.29.05,8.58.1,12.86.15-.89,2.04-2.67.93-3.95.93-43.52.07-87.04.06-130.8.06v-56.62C.24,53.41.22,28.68.3,3.95c0-1.28-1.11-3.07.93-3.95.07,38.92.13,77.85.2,116.77,0,.76,0,1.51,0,2.27-.18,4.86-.52,9.73.1,14.57h13.61c14.53,0,29.06-.01,43.58-.02,8.28,0,16.57.01,24.85.02Z"/>
      <path class="cls-9" d="M135,133.77c-4.29-.05-8.58-.1-12.86-.15,5.53-2.09,8.67-7.05,12.86-10.75v10.9Z"/>
      <path class="cls-9" d="M135,120.89c-1.03-.33-.6-.66,0-.99v.99Z"/>
      <path class="cls-7" d="M103.22,107.02c-1.18,1.68-3.14,2.1-4.8,3.01-2.42-.17-3-2.27-4.08-3.87-1.36-2-3.2-2.26-5.12-.97-1.81,1.21-4.87,2.26-3.33,5.11,2.98,5.5.44,6.88-4.49,7.12-.72.04-1.42.61-2.01.88-1.41-1.03-1.7-2.32-1.86-3.63-.5-3.91-3.29-3.77-6.24-3.79-3.3-.03-3.8,1.85-3.63,4.47.16,2.45-.93,3.43-3.45,3.66-4.3.38-6.18-1.06-5.51-5.54.47-3.11-1.29-4.17-4.24-4.72-2.77-.51-4.6-.19-5.22,2.67-.87,4-2.82,4.3-5.95,2.2-.87-.58-2.19-.51-3.3-.74-.37-.27-.75-.55-1.12-.82-.09-2.37,1.39-3.92,2.86-5.49,1.55-1.66,1.32-3.58-.33-4.71-1.81-1.24-3.49-4.14-6.32-1.88-1.88,1.5-3.52,3.3-5.27,4.96-1.72-2.67-4.62-4.43-5.77-7.54.98-2.02,2.73-3.28,4.63-4.23,2.4-1.19,2.49-2.66,1.17-4.76-1.28-2.07-1.92-4.68-5.41-3.56-1.55.5-2.56,2.16-4.36,1.92-4.16-5.93-3.87-8.81,1.21-10.61,2.41-.85,4.17-1.75,3.54-4.83-.58-2.86-1.89-4.32-5.02-4.07-3.83.3-4.62-1.69-4.2-5.28.45-3.94,2.33-5,5.88-4.49,3.58.51,4.38-2.27,5.22-4.76.93-2.79-1.34-3.33-3.17-3.97-3.49-1.24-4.11-3.34-2.33-6.49.61-1.07,1.69-2.13.98-3.61.25-.32.5-.64.75-.97,1.69.18,3.17.88,4.44,1.96,2.03,1.74,3.91,3.14,6.14.14,1.83-2.46,3.09-4.64.05-7.15-1.36-1.13-2.36-2.7-3.53-4.07,2.37-1.42,3.87-4.02,6.66-4.86,1.86-.09,2.97.86,3.98,2.37,1.42,2.11,2.54,4.53,6.19,2.5,3.29-1.83,4.05-3.34,2.56-6.95-2.1-5.11,3.4-4.2,5.54-5.41,2.5-1.4,3.9.7,3.69,3.34-.34,4.25,2.31,4.42,5.39,4.16,3.23-.27,5.03-1.91,4.22-5.19-.82-3.33.31-4.57,3.58-4.67,3.21-.1,5.66.55,5.65,4.38,0,1.61-.3,3.21-.42,4.45,7.47,7.4,8.98-.32,11.54-4.66,2.37,1.27,4.31,2.13,6.51,1.95.1.22.17.45.21.69.36.38.73.75,1.09,1.13,0,0-.04-.07-.04-.07-.17,1.11-.08,2.35-.55,3.31-3.12,6.34-3.11,6.44,3.85,10.42,3.34-6.3,7.03-4.74,10.69-.09.16.21.61.19.92.27,0,0-.04-.04-.04-.04-.23,1.7-.73,3.3-2.51,3.95-3.71,1.35-3.51,3.79-2.04,6.7,1.56,3.1,3.4,3.93,6.65,1.81,1.79-1.17,4.64-1.07,4.66,2.15.01,2.42,3.36,6.12-1.89,7.13-2.23.43-5.09-.08-4.52,3.55.44,2.81.4,5.71,4.99,5.68,5.36-.04,3.34,4.65,3.47,7.56.15,3.64-2.42,3.3-4.82,2.58-3.04-.91-4.59.03-5.24,3.24-.59,2.88-.52,4.94,2.99,5.33,1.87.21,3.12,1.02,2.89,3.18-.6,5.74-4.32,7.55-8.93,4.33-.66-.46-1.21-1.16-2.21-.82-3.74,2.96-7.7,5.83-1.47,10.41,1.64,1.2.19,3.07-.06,4.63ZM55.11,104.39c-14.2-7.61-24.15-18.2-25.35-34.85-1.09-15.16,6.75-30.15,21.73-37.19,20.76-9.76,44.05-.55,52.37,20.94,4.02,10.37,3.81,21.02-1.65,31.01-9.96,18.23-26.33,22.92-46.88,20.07,7.24,5.96,28.38,4.21,40.39-7.08,13.59-12.77,17.34-34.59,7.99-51.01-9.89-17.38-31.45-25.45-50.24-18.03-17.69,6.98-29.16,23.27-26.31,44.8,1.96,14.8,14.02,30,27.93,31.35ZM52.06,70.92c-5.53-.03-10.94,4.83-10.89,9.79.07,6.52,5.21,12.58,10.53,12.39,5.4-.19,10.9-5.95,10.96-11.46.06-5.88-4.68-10.68-10.6-10.72ZM68.2,62.8c6-.07,10.42-4.68,10.35-10.81-.07-6.13-4.55-10.47-10.74-10.38-6.08.09-10.46,4.62-10.38,10.76.08,5.98,4.74,10.5,10.76,10.43ZM94.39,81.34c-.04-6.2-4.36-10.49-10.49-10.42-6.01.07-10.4,4.63-10.36,10.74.04,5.35,5.61,11.66,10.1,11.43,5.92-.3,10.8-5.63,10.76-11.75Z"/>
      <path class="cls-3" d="M103.22,107.02c.25-1.56,1.69-3.43.06-4.63-6.23-4.57-2.28-7.44,1.47-10.41,1-.34,1.55.36,2.21.82,4.61,3.22,8.33,1.41,8.93-4.33.22-2.16-1.02-2.97-2.89-3.18-3.52-.39-3.58-2.45-2.99-5.33.65-3.21,2.2-4.15,5.24-3.24,2.4.72,4.97,1.06,4.82-2.58-.12-2.91,1.89-7.6-3.47-7.56-4.59.03-4.55-2.88-4.99-5.68-.57-3.63,2.29-3.13,4.52-3.55,5.25-1.01,1.9-4.71,1.89-7.13-.01-3.22-2.87-3.32-4.66-2.15-3.25,2.12-5.09,1.29-6.65-1.81-1.46-2.9-1.66-5.35,2.04-6.7,1.78-.65,2.27-2.25,2.51-3.95,6.58,6.3,14.5,11.04,20.74,17.74,0,6.76-.26,13.54.11,20.28.31,5.61-1.99,9.83-6.3,12.63-6.73,4.37-12.21,9.83-16.88,16.27-1.43,1.98-3.23,3.73-5.71,4.49Z"/>
      <path class="cls-3" d="M95.11,19.99c-2.21.18-4.14-.69-6.51-1.95-2.55,4.34-4.06,12.06-11.54,4.66.13-1.24.42-2.85.42-4.45,0-3.83-2.44-4.48-5.65-4.38-3.27.1-4.4,1.34-3.58,4.67.81,3.28-.99,4.92-4.22,5.19-3.08.26-5.73.09-5.39-4.16.21-2.64-1.19-4.74-3.69-3.34-2.14,1.2-7.64.29-5.54,5.41,1.48,3.61.72,5.13-2.56,6.95-3.64,2.02-4.77-.39-6.19-2.5-1.01-1.51-2.12-2.46-3.98-2.37,3.68-3.96,6.73-8.4,9.95-12.73,2.15-2.89,4.73-5.48,8.03-7.18.29.06.59.11.89.13,8.33,0,16.66,0,24.98,0,.53.03,1.06.05,1.59.08,5.51,4.36,9.01,10.37,12.99,15.98Z"/>
      <path class="cls-3" d="M111.29,35.65c-.31-.09-.76-.07-.92-.27-3.66-4.65-7.35-6.2-10.69.09-6.97-3.98-6.97-4.08-3.85-10.42.47-.96.38-2.2.55-3.31,7.5,1.93,11.23,7.9,14.92,13.91Z"/>
      <path class="cls-3" d="M96.41,21.81c-.36-.38-.72-.75-1.09-1.13.36.38.73.75,1.09,1.13Z"/>
      <path class="cls-8" d="M24.03,97.42c1.15,3.1,4.05,4.87,5.77,7.53,2.43,3.12,5,6.06,9.05,7.11.37.27.75.55,1.12.83,4.18,6.88,8.54,13.62,15.59,18.02,1.05.89,2.09,1.79,3.14,2.68-14.53,0-29.06.01-43.58.02-6.41-2.57-12.01-5.86-12.54-13.8-.02-.28-.76-.51-1.16-.77,0-.76,0-1.51,0-2.27,3.02-1.19,2.57-3.87,2.6-6.26.1-10.15.12-20.3.18-30.45,5.23,7.36,13.35,11.42,19.83,17.35Z"/>
      <path class="cls-8" d="M54.66,3.8c-3.3,1.7-5.88,4.29-8.03,7.18-3.21,4.33-6.27,8.77-9.95,12.73-2.79.84-4.29,3.44-6.66,4.86-3.13,2.44-6.08,5.02-7.09,9.11-.25.32-.5.64-.76.97-6.65,4.31-13.18,8.76-17.97,15.25-.02-11.87-.09-23.73-.05-35.6.03-9.33,5.72-15.23,15-15.33,11.87-.13,23.73-.01,35.6,0-.04.27-.07.55-.1.82Z"/>
      <path class="cls-3" d="M4.2,53.91c4.79-6.49,11.32-10.95,17.97-15.25.7,1.48-.38,2.54-.98,3.61-1.78,3.15-1.16,5.25,2.33,6.49,1.83.65,4.1,1.19,3.17,3.97-.84,2.49-1.64,5.27-5.22,4.76-3.55-.51-5.43.55-5.88,4.49-.41,3.59.38,5.59,4.2,5.28,3.13-.25,4.43,1.22,5.02,4.07.63,3.08-1.14,3.98-3.54,4.83-5.08,1.8-5.37,4.68-1.21,10.61,1.8.24,2.81-1.42,4.36-1.92,3.49-1.12,4.13,1.5,5.41,3.56,1.31,2.11,1.22,3.57-1.17,4.76-1.9.95-3.65,2.21-4.63,4.23-6.48-5.93-14.6-9.99-19.83-17.35,0-8.72,0-17.43,0-26.15Z"/>
      <path class="cls-5" d="M54.66,3.8c.03-.28.06-.55.1-.82,8.58-1.52,17.16-1.99,25.71.19-8.31.16-16.67-1.28-24.92.77-.3-.02-.6-.06-.89-.13Z"/>
      <path class="cls-4" d="M55.55,3.93c8.25-2.04,16.61-.61,24.92-.77.02.26.04.51.06.76-8.33,0-16.66,0-24.98,0Z"/>
      <path class="cls-8" d="M132.04,86.21c0,9.69.03,19.38-.04,29.07-.08,9.86-5.8,15.51-15.72,15.49-9.03-.01-18.06-.15-27.09-.23,3.52-6.5,7.13-12.86,13.66-17.02,3.73-2.37,7.39-5.11,9.53-9.1,4.48-8.37,12.98-12.29,19.65-18.21Z"/>
      <path class="cls-3" d="M55.57,130.9c-7.05-4.4-11.4-11.14-15.59-18.02,1.11.23,2.43.15,3.3.73,3.13,2.09,5.08,1.8,5.95-2.2.62-2.85,2.45-3.18,5.22-2.67,2.96.54,4.71,1.61,4.24,4.72-.67,4.48,1.21,5.92,5.51,5.54,2.52-.22,3.61-1.21,3.45-3.66-.17-2.62.33-4.5,3.63-4.47,2.95.03,5.73-.11,6.24,3.79.17,1.31.45,2.6,1.86,3.63.59-.27,1.29-.84,2.01-.88,4.94-.24,7.47-1.62,4.49-7.12-1.54-2.84,1.52-3.89,3.33-5.11,1.92-1.29,3.77-1.04,5.12.97,1.08,1.6,1.65,3.69,4.08,3.87-.08,1.38-.73,2.33-1.73,3.34-3,3.01-5.78,6.17-8.13,9.79-3.24,4.99-7.59,8.25-14.26,7.74-6.2-.48-12.48-.04-18.72,0Z"/>
      <path class="cls-9" d="M1.42,119.04c.4.26,1.14.49,1.16.77.53,7.94,6.14,11.23,12.54,13.8-4.42,0-8.85,0-13.61,0-.62-4.83-.28-9.7-.1-14.57Z"/>
      <path class="cls-3" d="M55.11,104.39c-13.91-1.35-25.98-16.56-27.93-31.35-2.85-21.53,8.62-37.82,26.31-44.8,18.79-7.42,40.35.65,50.24,18.03,9.35,16.42,5.6,38.24-7.99,51.01-12.02,11.29-33.15,13.04-40.39,7.08,20.55,2.85,36.92-1.84,46.88-20.07,5.45-9.98,5.66-20.63,1.65-31.01-8.33-21.49-31.62-30.71-52.37-20.94-14.98,7.05-22.82,22.03-21.73,37.19,1.2,16.65,11.15,27.25,25.35,34.85Z"/>
      <path class="cls-2" d="M52.06,70.92c5.91.04,10.65,4.84,10.6,10.72-.06,5.51-5.56,11.27-10.96,11.46-5.32.19-10.46-5.87-10.53-12.39-.05-4.96,5.36-9.83,10.89-9.79ZM59.74,81.8c.04-3.83-4.04-8.3-7.59-8.32-3.9-.03-8.22,4.08-8.24,7.82-.01,4.43,3.73,7.99,8.34,7.95,4.26-.04,7.45-3.21,7.49-7.45Z"/>
      <path class="cls-2" d="M68.2,62.8c-6.02.07-10.68-4.45-10.76-10.43-.08-6.14,4.29-10.67,10.38-10.76,6.18-.09,10.67,4.25,10.74,10.38.07,6.13-4.35,10.74-10.35,10.81ZM75.64,52.04c-.03-4.48-3.34-7.64-7.88-7.52-4.5.12-7.71,3.4-7.72,7.9,0,3.68,4.36,7.9,8.13,7.85,4.13-.05,7.5-3.76,7.47-8.24Z"/>
      <path class="cls-2" d="M94.39,81.34c.04,6.12-4.84,11.45-10.76,11.75-4.49.23-10.06-6.08-10.1-11.43-.05-6.11,4.35-10.67,10.36-10.74,6.13-.07,10.45,4.22,10.49,10.42ZM83.97,89.25c4.45.04,8.24-3.41,8.25-7.51,0-3.86-4.19-8.33-7.83-8.34-4.2,0-7.78,3.56-7.93,7.89-.15,4.56,3.02,7.91,7.51,7.96Z"/>
      <path class="cls-3" d="M38.86,112.06c-4.05-1.05-6.62-3.99-9.05-7.11,1.75-1.67,3.39-3.46,5.27-4.96,2.83-2.27,4.51.64,6.32,1.88,1.65,1.13,1.88,3.05.33,4.71-1.48,1.57-2.95,3.11-2.86,5.49Z"/>
      <path class="cls-3" d="M22.93,37.69c1.02-4.09,3.97-6.67,7.09-9.11,1.16,1.37,2.16,2.94,3.53,4.07,3.05,2.51,1.78,4.69-.05,7.15-2.23,2.99-4.11,1.59-6.14-.14-1.27-1.09-2.75-1.79-4.44-1.96Z"/>
      <path class="cls-6" d="M59.74,81.8c-.04,4.24-3.23,7.41-7.49,7.45-4.61.04-8.35-3.53-8.34-7.95.01-3.74,4.34-7.85,8.24-7.82,3.55.03,7.63,4.5,7.59,8.32Z"/>
      <path class="cls-6" d="M75.64,52.04c.03,4.48-3.34,8.19-7.47,8.24-3.77.05-8.14-4.18-8.13-7.85.01-4.5,3.22-7.79,7.72-7.9,4.55-.12,7.86,3.04,7.88,7.52Z"/>
      <path class="cls-6" d="M83.97,89.25c-4.49-.04-7.66-3.4-7.51-7.96.14-4.33,3.72-7.9,7.93-7.89,3.64,0,7.84,4.47,7.83,8.34,0,4.11-3.8,7.56-8.25,7.51Z"/>
    </g>
  </g>
</svg>