<?xml version="1.0" encoding="UTF-8"?>
<svg id="_Слой_2" data-name="Слой 2" xmlns="http://www.w3.org/2000/svg" viewBox="0 0 135 135">
  <defs>
    <style>
      .cls-1 {
        fill: #ad16ae;
      }

      .cls-1, .cls-2, .cls-3, .cls-4, .cls-5, .cls-6, .cls-7 {
        stroke-width: 0px;
      }

      .cls-2 {
        fill: #0f7a89;
      }

      .cls-3 {
        fill: #179aac;
      }

      .cls-4 {
        fill: #e2d3e2;
      }

      .cls-5 {
        fill: #720e72;
      }

      .cls-6 {
        fill: #074c55;
      }

      .cls-7 {
        fill: #fcfcfc;
      }
    </style>
  </defs>
  <g id="_Слой_1-2" data-name="Слой 1">
    <g>
      <path class="cls-2" d="M135,12.13v1.98c-.12.09-.37.21-.35.25.09.26.23.5.35.74v42.61c-2.13-1.67-2.28-5.12-5.35-5.94-6.07-4.67-12.15-9.34-18.22-14.02-.8-2.35-1.89-4.5-4.12-5.85-2.59-4.98-6.69-8.14-11.93-9.93l.06.04c-3.91-6.86-8.46-13.2-14.97-17.89.01-.91.02-1.82.04-2.73,13.54-.01,27.09-.03,40.63-.04,4.14,1.64,8.02,3.63,10.6,7.49.86,1.29,1.14,3.21,3.26,3.27Z"/>
      <path class="cls-2" d="M58.7,135H15.11c-6.68-2.52-11.46-6.92-13.72-13.83,0-13.23,0-26.45.01-39.68.96-.08,1.91-.17,2.87-.25,1.48,2.33,3.49,4.15,5.41,6.11,4.19,4.27,10.09,6.31,13.92,10.98,1.86,2.47,3.34,5.27,6.06,7,1.99,3.97,5.24,6.41,9.38,7.78.59.65,1.18,1.29,1.77,1.94,3.37,6.04,7.92,11.14,12.8,15.96,1.14,2.05,3.78,2.17,5.09,3.99Z"/>
      <path class="cls-6" d="M58.7,135c-1.32-1.81-3.96-1.94-5.09-3.99,8.08.07,16.16.06,24.24.24,3.24.07,5.82-1.23,7.79-3.48,4.72-5.39,9.22-10.97,13.82-16.48,1.86-1.41,3.72-2.83,5.59-4.24,2.84-3.15,6.35-5.77,8.11-9.82.63-.98,1.27-1.95,1.9-2.93l1.12-.95-.02.02c4.49-1.04,7.29-4.7,10.92-7.08,2.07-1.36,4.14-3.33,4.25-5.83.41-9.61,2.51-19.35-1.68-28.7,3.07.82,3.23,4.27,5.36,5.94v25.76c-1.78.74-2.16,2.51-2.96,3.98-6.47,5.67-14.65,9.45-18.97,17.5-1.57,2.92-4.02,5.19-6.81,7.01-7.76,5.06-12.99,12.38-17.9,19.99-1.63,1.02-3.26,2.03-4.89,3.05h-24.77Z"/>
      <path class="cls-7" d="M1.4,81.49c0,13.23,0,26.45-.01,39.68-.05,4.61-.1,9.22-.15,13.83-2.04-.89-.93-2.67-.93-3.95C.23,87.53.24,44.01.24.24h56.62c24.73,0,49.45-.02,74.18.06,1.28,0,3.07-1.11,3.95.93-4.62.04-9.24.09-13.87.13-13.54.01-27.09.03-40.63.04-26.35,0-52.7,0-79.1,0v80.08Z"/>
      <path class="cls-3" d="M132.04,87.45c.8-1.47,1.18-3.24,2.96-3.98v39.64c-3.99,4.7-7.53,9.93-13.87,11.89h-37.65c1.63-1.02,3.26-2.03,4.89-3.05,9.05.02,18.09.09,27.13.06,10.7-.03,16.39-5.68,16.49-16.44.09-9.37.04-18.75.05-28.12Z"/>
      <path class="cls-6" d="M121.13,135c6.34-1.96,9.88-7.19,13.87-11.89v11.89h-13.87Z"/>
      <path class="cls-6" d="M1.23,135c.05-4.61.1-9.22.15-13.83,2.25,6.91,7.03,11.31,13.72,13.83H1.23Z"/>
      <path class="cls-6" d="M121.13,1.37c4.62-.04,9.24-.09,13.87-.13v10.9c-2.12-.06-2.4-1.99-3.26-3.27-2.59-3.86-6.47-5.85-10.6-7.49Z"/>
      <path class="cls-6" d="M135,15.1c-.12-.25-.27-.48-.35-.74-.01-.04.23-.16.35-.25v.99Z"/>
      <path class="cls-1" d="M105.04,107.05c-1.86,1.41-3.72,2.83-5.59,4.24-2.19.07-4.06-.76-4.77-2.81-.96-2.81-2.16-3.82-5.05-2.16-2.47,1.42-5.45,2.19-3.26,6.08.85,1.5,2.13,3.58-.29,4.64-2.44,1.07-4.95,2.69-7.81,1.71-1.62-2.63.62-7.36-4.8-7.45-6.44-.1-5.91,4.59-6,8.67q-9.05.78-8.58-8.21c-6.35-3.08-6.38-3.1-9.97,3.05-1.28,2.19-2.71,2.54-4.86,1.13-.89-.59-2.16-.61-3.26-.89-.59-.65-1.18-1.29-1.77-1.94.28-1.09.34-2.3.86-3.25,3.34-6.14,3.37-6.13-3.1-10.04-2.88,1.14-3.59,5.2-7.14,5.51-2.72-1.73-4.2-4.53-6.06-7,1.4-1.12,2.68-2.44,4.21-3.32,2.64-1.52,3.25-3.17,1.65-5.97-1.47-2.56-2.61-4.54-5.95-2.46-2.78,1.73-4.81.74-5.37-2.45-.45-2.55-2.93-6.13,2.46-6.55,4.33-.34,3.39-3.53,3.52-6.23.17-3.24-1.68-3.92-4.37-3.65-3.19.32-4.04-1.46-3.78-4.21.17-1.74-.46-3.64,1.14-5.39.64.09,1.43.12,2.18.32,2.59.66,5.38,2.54,6.59-1.94.97-3.57,1.42-6.35-3.56-7-2.53-.33-3.44-2.21-2.13-4.81.58-1.14.73-2.48,1.08-3.73l.89-.95c3.83-1.17,5.99,2.63,9.13,3.25q5.03-5.27.78-10.75c-.56-.74-.74-1.77-1.09-2.67,1.72-2.53,4.1-4.29,6.76-5.72.87.74,1.91,1.35,2.57,2.24,4.07,5.52,4.4,5.58,9.95.92.66-3.1-2.78-5.31-1.66-8.67,2.82-.63,5.76-.74,8.24-1.98,1.34,1.14,1.65,2.4,1.78,3.74.23,2.34.19,4.97,3.78,4.25,2.59-.52,5.97-.11,5.37-4.55-.61-4.48,2.59-3.92,5.43-4.07,3.51-.18,4.86,1.28,4.31,4.7-.49,3.04.47,4.72,3.79,5.7,3.57,1.05,4.34-.81,5.23-3.29,1.06-2.93,2.92-3.92,5.69-2.08,1.01.67,2.02,1.09,3.22,1.02,0,0-.06-.04-.06-.04.66,2.07,1.13,4.07-.56,5.96-2.01,2.26-1.95,4.24.72,6.13,2.36,1.67,4.44,3.02,6.57-.17,1.26-1.89,3.16-2.14,5.2-2,2.23,1.35,3.32,3.5,4.12,5.85-.23,1.61-1.2,2.87-2.57,3.43-2.96,1.19-4.24,2.57-2.52,5.94,1.59,3.12,3.26,4.28,6.55,2.47,2.77-1.52,4.52-.78,5.45,2.51,1.05,3.74,1.32,6.42-3.76,6.79-3.8.27-3.56,3.2-3.04,5.95.47,2.48,1.28,4.6,4.54,3.41,2.63-.96,4.4-.27,4.1,2.77-.25,2.55,1.6,7.02-3.45,6.42-6.14-.72-6.87,3.24-8.11,7.31q8.07,3.58,7.55,8.61s.02-.02.02-.02c-.37.32-.75.63-1.12.95-.63.98-1.27,1.95-1.9,2.93-2.63.31-4.08-1.8-5.98-2.96-4.11-2.51-4.94,1.94-6.89,3.5-1.91,1.53-.36,3.2,1.24,4.31,1.78,1.23,3.47,2.52,3.52,4.97ZM49.36,33.9c-2.5-2.61-4.28-.15-5.75,1.03-14.82,11.9-21.08,28.47-14.26,47.44,7.29,20.25,26.97,30.17,46.13,26.35,24.87-4.96,39.43-29.16,31.67-53.74-6.13-19.44-29.69-32.65-49.03-26.86-1.7.51-3.47.95-3.53,3.81,10.72-3.28,21-3.09,30.79,2.09,9.77,5.17,16.55,12.84,19.53,23.71,5.27,19.23-5.75,39.38-22.37,45.9-16.55,6.5-37.08.65-46.04-13.7-12.58-20.17-8.87-36.55,12.84-56.01ZM93.37,68.24c.07-5.93-4.46-10.45-10.58-10.54-6.02-.09-10.8,4.47-10.84,10.34-.03,4.46,4.8,10.88,8.29,11.01,7.62.3,13.05-4.17,13.14-10.81ZM52.91,57.7c-6.11.03-10.17,4.35-10.05,10.71.12,6.42,3.72,10.12,9.88,10.13,6.73,0,11.05-4.02,11.09-10.34.04-6.41-4.25-10.54-10.91-10.5Z"/>
      <path class="cls-5" d="M116.15,93.38q.52-5.04-7.55-8.61c1.24-4.07,1.97-8.03,8.11-7.31,5.05.59,3.2-3.87,3.45-6.42.3-3.04-1.47-3.73-4.1-2.77-3.27,1.19-4.08-.93-4.54-3.41-.52-2.75-.76-5.68,3.04-5.95,5.09-.37,4.82-3.05,3.76-6.79-.93-3.28-2.67-4.03-5.45-2.51-3.28,1.8-4.95.65-6.55-2.47-1.72-3.38-.44-4.75,2.52-5.94,1.37-.55,2.34-1.81,2.57-3.43,6.08,4.67,12.15,9.35,18.22,14.02,4.18,9.34,2.08,19.09,1.67,28.7-.11,2.5-2.18,4.48-4.25,5.83-3.63,2.38-6.43,6.04-10.92,7.08Z"/>
      <path class="cls-5" d="M95.43,22.02c-1.2.06-2.21-.35-3.22-1.02-2.77-1.85-4.64-.85-5.69,2.08-.89,2.48-1.66,4.34-5.23,3.29-3.32-.98-4.28-2.66-3.79-5.7.55-3.42-.8-4.88-4.31-4.7-2.85.14-6.04-.41-5.43,4.07.6,4.44-2.79,4.03-5.37,4.55-3.59.72-3.55-1.91-3.78-4.25-.13-1.33-.44-2.6-1.78-3.74-2.48,1.23-5.42,1.35-8.24,1.98-1.12,3.36,2.32,5.57,1.66,8.67-5.55,4.65-5.88,4.6-9.95-.92-.66-.89-1.7-1.5-2.57-2.24,2.88-3.69,5.57-7.56,8.7-11.02,2.26-2.5,3.74-5.89,7.24-7.15,1.64-1.65,3.7-1.69,5.86-1.68,6.98.02,13.96-.06,20.94-.1,6.51,4.69,11.05,11.03,14.97,17.89Z"/>
      <path class="cls-6" d="M80.47,4.13c-6.98.04-13.96.12-20.94.1-2.15,0-4.21.03-5.86,1.68-.78-2.52-2.91-1.72-4.56-1.73-10.04-.05-20.08-.06-30.12.02-8.84.07-14.77,6.04-14.82,14.91-.06,9.87-.05,19.75-.04,29.62,0,1.79-.3,3.65.96,5.22-1.86,9.05-.45,18.2-.82,27.29-.96.08-1.91.17-2.87.25,0-26.56,0-53.12,0-80.08,26.4,0,52.75,0,79.1,0-.01.91-.02,1.82-.04,2.73Z"/>
      <path class="cls-5" d="M107.3,31.91c-2.04-.14-3.95.12-5.2,2-2.13,3.19-4.21,1.84-6.57.17-2.67-1.9-2.73-3.88-.72-6.13,1.69-1.9,1.22-3.9.56-5.96,5.24,1.79,9.34,4.95,11.93,9.93Z"/>
      <path class="cls-5" d="M4.27,81.24c.37-9.09-1.04-18.24.82-27.29,4.45-5.52,10.23-9.38,16.18-13.03-.35,1.25-.5,2.6-1.08,3.73-1.31,2.59-.41,4.47,2.13,4.81,4.98.65,4.52,3.44,3.56,7-1.21,4.48-4,2.61-6.59,1.94-.75-.19-1.55-.23-2.18-.32-1.6,1.75-.97,3.65-1.14,5.39-.26,2.75.59,4.53,3.78,4.21,2.69-.27,4.54.41,4.37,3.65-.14,2.7.81,5.9-3.52,6.23-5.39.42-2.9,4-2.46,6.55.56,3.18,2.59,4.18,5.37,2.45,3.34-2.08,4.48-.1,5.95,2.46,1.6,2.8,1,4.45-1.65,5.97-1.53.88-2.82,2.2-4.21,3.32-3.83-4.67-9.73-6.71-13.92-10.98-1.92-1.96-3.93-3.78-5.41-6.11Z"/>
      <path class="cls-5" d="M40.8,115.05c1.1.28,2.36.3,3.26.89,2.14,1.41,3.58,1.06,4.86-1.13,3.59-6.15,3.63-6.13,9.97-3.05q-.47,8.99,8.58,8.21c.09-4.08-.44-8.76,6-8.67,5.42.08,3.18,4.82,4.8,7.45,2.86.99,5.38-.64,7.81-1.71,2.43-1.06,1.14-3.14.29-4.64-2.19-3.89.79-4.66,3.26-6.08,2.89-1.67,4.09-.65,5.05,2.16.71,2.06,2.58,2.88,4.77,2.81-4.59,5.51-9.09,11.09-13.81,16.48-1.97,2.25-4.55,3.55-7.79,3.48-8.08-.18-16.16-.17-24.24-.24-4.89-4.82-9.44-9.92-12.81-15.96Z"/>
      <path class="cls-5" d="M29.66,105.33c3.55-.31,4.26-4.37,7.14-5.51,6.47,3.91,6.44,3.9,3.1,10.04-.52.96-.59,2.16-.86,3.25-4.14-1.37-7.39-3.81-9.38-7.78Z"/>
      <path class="cls-2" d="M132.04,87.45c-.01,9.37.04,18.75-.05,28.12-.1,10.76-5.8,16.41-16.49,16.44-9.04.02-18.09-.04-27.13-.06,4.91-7.61,10.14-14.93,17.89-19.99,2.79-1.82,5.24-4.09,6.81-7.01,4.33-8.05,12.5-11.83,18.97-17.5Z"/>
      <path class="cls-5" d="M105.04,107.05c-.05-2.45-1.74-3.74-3.52-4.97-1.6-1.11-3.15-2.78-1.24-4.31,1.95-1.56,2.78-6,6.89-3.5,1.9,1.16,3.35,3.27,5.98,2.96-1.76,4.05-5.26,6.66-8.11,9.82Z"/>
      <path class="cls-5" d="M115.05,94.31c.37-.32.75-.63,1.12-.95-.37.32-.75.63-1.12.95Z"/>
      <path class="cls-2" d="M21.26,40.92c-5.95,3.65-11.73,7.52-16.18,13.03-1.25-1.57-.96-3.43-.96-5.22,0-9.87-.03-19.75.04-29.62.06-8.87,5.98-14.84,14.82-14.91,10.04-.08,20.08-.07,30.12-.02,1.66,0,3.79-.79,4.56,1.73-3.51,1.26-4.98,4.65-7.24,7.15-3.13,3.46-5.82,7.33-8.7,11.02-2.65,1.44-5.03,3.19-6.76,5.72-4.73,1.84-6.82,5.97-8.81,10.17l-.89.95Z"/>
      <path class="cls-5" d="M49.36,33.9c-21.72,19.47-25.42,35.84-12.84,56.01,8.96,14.36,29.48,20.2,46.04,13.7,16.62-6.52,27.64-26.67,22.37-45.9-2.98-10.87-9.76-18.54-19.53-23.71-9.79-5.18-20.07-5.37-30.79-2.09.06-2.85,1.83-3.3,3.53-3.81,19.34-5.79,42.89,7.42,49.03,26.86,7.75,24.58-6.8,48.78-31.67,53.74-19.16,3.82-38.84-6.1-46.13-26.35-6.83-18.97-.56-35.54,14.26-47.44,1.46-1.18,3.25-3.64,5.75-1.03Z"/>
      <path class="cls-4" d="M93.37,68.24c-.08,6.64-5.51,11.11-13.14,10.81-3.49-.14-8.32-6.56-8.29-11.01.04-5.87,4.82-10.44,10.84-10.34,6.13.1,10.66,4.61,10.58,10.54ZM90.43,68.26c.07-4.46-3.1-7.59-7.73-7.65-4.54-.06-8.04,3.23-7.98,7.49.06,4.15,3.74,7.53,8.17,7.51,4.26-.01,7.46-3.14,7.53-7.35Z"/>
      <path class="cls-4" d="M52.91,57.7c6.66-.04,10.95,4.09,10.91,10.5-.04,6.32-4.35,10.35-11.09,10.34-6.15,0-9.76-3.71-9.88-10.13-.11-6.36,3.94-10.68,10.05-10.71ZM60.75,68.36c.1-4.81-2.37-7.53-7-7.73-5.01-.22-7.88,2.39-7.98,7.25-.11,4.99,2.56,7.74,7.5,7.74,4.76,0,7.39-2.55,7.49-7.26Z"/>
      <path class="cls-5" d="M22.16,39.97c2-4.2,4.09-8.33,8.81-10.17.35.9.52,1.94,1.09,2.67q4.23,5.5-.78,10.75c-3.14-.63-5.3-4.42-9.13-3.25Z"/>
      <path class="cls-7" d="M90.43,68.26c-.07,4.21-3.27,7.34-7.53,7.35-4.44.01-8.11-3.36-8.17-7.51-.07-4.25,3.44-7.54,7.98-7.49,4.63.06,7.79,3.19,7.73,7.65Z"/>
      <path class="cls-7" d="M60.75,68.36c-.1,4.71-2.73,7.26-7.49,7.26-4.94,0-7.6-2.75-7.5-7.74.1-4.86,2.97-7.47,7.98-7.25,4.63.2,7.11,2.93,7,7.73Z"/>
    </g>
  </g>
</svg>