<?xml version="1.0" encoding="UTF-8"?>
<svg id="_Слой_2" data-name="Слой 2" xmlns="http://www.w3.org/2000/svg" viewBox="0 0 135 135">
  <defs>
    <style>
      .cls-1 {
        fill: #fefefe;
      }

      .cls-1, .cls-2, .cls-3, .cls-4, .cls-5, .cls-6, .cls-7, .cls-8, .cls-9 {
        stroke-width: 0px;
      }

      .cls-2 {
        fill: #0f7a89;
      }

      .cls-3 {
        fill: #094a53;
      }

      .cls-4 {
        fill: #1a99aa;
      }

      .cls-5 {
        fill: #3b454c;
      }

      .cls-6 {
        fill: #e2cfce;
      }

      .cls-7 {
        fill: #ae1617;
      }

      .cls-8 {
        fill: #700e0e;
      }

      .cls-9 {
        fill: #2a2930;
      }
    </style>
  </defs>
  <g id="_Слой_1-2" data-name="Слой 1">
    <g>
      <path class="cls-3" d="M83.47,135H1.23c.06-3.96.11-7.92.17-11.88,4.1,8.16,11.05,11.03,19.79,10.94,10.32-.1,20.65.06,30.97.03,1.47,0,3.13.6,4.56-.63-.84-.9-1.5-1.62-2.16-2.34,6.09-.03,12.21-.47,18.25.02,7.01.57,11.37-2.77,15.04-8.07,2.76-4,4.79-8.56,8.63-11.76,2.53-2.06,6.04-2.85,7.76-5.98,4.91-1.65,6.54-6.15,8.81-10.1.38-.56.75-1.13,1.13-1.69,5.76-2.74,10.73-6.53,14.85-11.38,1.27-1.49,2-3.34,1.97-5.44-.12-7.7-.17-15.41-.25-23.11,1.32.04,1.51,2.2,3.28,1.68,0-10.69-.27-21.37.08-32.03.31-9.49-2.39-17.1-11.06-21.89,3.98-.05,7.96-.1,11.93-.15v80.26c-2.28.37-1.89,2.24-2.11,3.76-1.23.12-1.8.9-2.03,2.02-6.71,4.42-13.69,8.47-18.09,15.64-2.7,4.4-6.42,7.96-10.76,10.78-6.46,4.21-10.36,10.44-13.81,17.06-1.94.58-4.03.95-4.78,3.28,0,.32,0,.64.04.96Z"/>
      <path class="cls-1" d="M1.4,123.12c-.06,3.96-.11,7.92-.17,11.88-2.04-.89-.93-2.67-.93-3.95C.23,87.53.24,44.01.24.24h56.62c24.73,0,49.45-.02,74.18.06,1.28,0,3.07-1.11,3.95.93-3.98.05-7.96.1-11.93.15-11.25,0-22.49.02-33.74.03-29.29,0-58.58,0-87.92,0v83.93c0,12.59,0,25.19,0,37.78Z"/>
      <path class="cls-3" d="M135,121.13v13.87h-14.86c.36-.64.71-1.28,1.07-1.92,6.17-1.77,10.18-5.68,11.82-11.94.66,0,1.31-.01,1.97-.02Z"/>
      <path class="cls-2" d="M135,121.13c-.66,0-1.31.01-1.97.02,2.02-11.19.56-22.47.8-33.7.02-.72-.61-1.46-.94-2.19.22-1.52-.18-3.39,2.11-3.76v39.64Z"/>
      <path class="cls-2" d="M121.21,133.08c-.36.64-.71,1.28-1.07,1.92h-36.66c-.03-.32-.04-.64-.04-.96,2.46-.03,4.92,0,7.38-.09,10.13-.4,20.31,1.06,30.39-.87Z"/>
      <path class="cls-7" d="M104.24,105.33c-1.72,3.12-5.23,3.91-7.76,5.98-1.16-1.59-2.37-3.16-3.47-4.79-1.21-1.8-2.72-2.47-4.58-1.16-1.74,1.22-4.98,1.93-3.35,5,2.73,5.17,0,6.69-4.33,8.05-2.83.89-4.12.52-4.19-2.52-.09-3.5-1.79-4.79-5.34-4.84-3.9-.05-4.73,1.68-4.64,5.11.11,4.05-3.17,2.89-5.43,2.99-2.03.09-4.63-.16-4.02-2.9.64-2.82.1-5.47-.12-9,12.76,2.42,24.4.42,34.7-7.27,10.5-7.83,15.96-18.61,16.31-31.36.48-17.55-8.84-35.05-32.19-42.01-13.64-4.07-35.59,3.61-43.26,18.14-15.04,28.5-4.9,49.14,22.89,62.96-1.9,2.12-5.43-.74-6.15,2.56-1.32,5.96-5.03,5.5-9.34,3.69-.35-.3-.7-.6-1.05-.9-.66-1.95-.88-3.71.89-5.38,2.44-2.3,1.95-4.41-.56-6.59-2.33-2.03-4.26-2.29-6.27.16-1.38,1.68-3.14,2.29-5.25,2.09-2.57-1.64-3.78-4.48-5.85-6.57,1.73-.95,3.47-1.86,5.17-2.85,1.42-.82,3.31-1.67,2.5-3.67-.78-1.92-1.57-4.53-3.73-4.93-2.28-.43-4.78.35-7.11.59-3.3-7.19-3.34-7.28,2.94-10.01,2.02-.88,2.21-1.99,1.76-3.86-.53-2.22-.39-4.87-3.85-4.48-5.48.62-4.55-3.22-4.55-6.46,0-4.32,3.03-3.39,5.6-3.25.95.05,1.9.73,3.07-.21.81-2.17,2.21-4.42,1.91-7.07q-7.59-3.59-4.04-10.81c.28-.57.31-1.27.46-1.9l-.04.04c1.84.24,3.43,1.06,4.76,2.31,2.25,2.12,4.01,2,6.09-.49,2.04-2.45,2.59-4.39-.13-6.58-1.55-1.25-2.82-2.74-2.82-4.91,2.14-1.12,3.22-3.68,5.77-4.25,1.99-.07,3.35.73,4.47,2.47,1.12,1.75,1.9,4.58,5.18,2.58,2.78-1.7,5.36-2.77,3.12-7.08-2.29-4.41,2.18-4.55,4.72-5.47,2.71-.99,4.54-.24,4.51,3.09-.02,2.31.42,4.77,3.39,4.2,2.67-.51,6.95.45,6.47-4.67-.42-4.46,2.61-4.03,5.5-4.06,3.82-.04,3.64,2.43,3.41,5.06-.1,1.1-.89,2.19-.16,3.32,6.58,3.3,6.55,3.29,9.57-2.62.99-1.93,2.33-3.38,4.64-1.58.99.77,2.09.89,3.27.85,1.51-.11,1.43,1.63,2.44,2.11-.29.93-.43,1.94-.9,2.77q-3.62,6.43,3.04,10.49c2.84-1.18,3.58-5.21,7.13-5.49,2.62,1.66,3.74,4.64,5.89,6.71-.94,1.36-1.9,2.74-3.53,3.33-3.18,1.15-3.86,3.14-2.34,6.12,1.46,2.87,3.09,4.39,6.51,2.41,3.03-1.76,4.58.1,5.13,3.02.48,2.56,2.37,5.75-2.52,6.17-2.52.21-4.77,1.01-4.22,4.14.48,2.73.28,6.32,4.87,5.76,2.6-.31,3.88.72,3.96,3.58.17,5.42-.52,6.2-5.95,5.54-1.86-.22-3.86-.47-4,2.21-.11,2.04-2.45,5.22.98,5.86,6.15,1.16,5.85,4.39,3.91,8.74-.38.56-.75,1.13-1.13,1.69-2.15.24-4.15.15-6-1.34-3.39-2.73-5.16-.05-7.14,2.25-2.39,2.78-.36,4.01,1.61,5.33,1.41.94,2.52,2.07,2.71,3.86Z"/>
      <path class="cls-2" d="M96.22,22.17c-1.01-.48-.93-2.22-2.44-2.11-3.98-5.71-7.16-12.07-13.3-15.98,2.15-3.53,6.22-.73,8.85-2.67,11.25,0,22.49-.02,33.74-.03,8.66,4.79,11.37,12.4,11.05,21.89-.35,10.66-.08,21.34-.08,32.03-1.77.52-1.96-1.64-3.28-1.68-1.51-2.38-3.69-4.04-5.83-5.85-4.46-3.78-9.78-6.51-13.55-11.12-2.15-2.08-3.27-5.05-5.89-6.71-1.88-4.03-5.26-6.29-9.28-7.78Z"/>
      <path class="cls-2" d="M21.9,96.77c2.07,2.08,3.28,4.93,5.85,6.57,2.32,4.86,6.44,7.65,11.18,9.72.35.3.7.6,1.05.9,2.51,7.73,8.5,12.49,14.58,17.18.66.72,1.33,1.44,2.16,2.34-1.43,1.22-3.09.62-4.56.63-10.32.03-20.65-.13-30.97-.03-8.74.09-15.69-2.79-19.79-10.94,0-12.6,0-25.19,0-37.78,1.13-1.19.36-3.68,2.75-3.99,1.48,1.26,2.72,2.85,3.86,4.31,3.8,4.85,10.29,6.16,13.88,11.12Z"/>
      <path class="cls-8" d="M54.57,131.13c-6.09-4.68-12.08-9.45-14.58-17.18,4.31,1.81,8.03,2.27,9.34-3.7.73-3.3,4.26-.44,6.15-2.56-27.79-13.82-37.94-34.45-22.89-62.96,7.67-14.53,29.61-22.2,43.26-18.14,23.35,6.96,32.67,24.46,32.19,42.01-.35,12.76-5.81,23.54-16.31,31.36-10.31,7.69-21.94,9.69-34.7,7.27.22,3.53.75,6.18.12,9-.62,2.74,1.98,3,4.02,2.9,2.25-.1,5.54,1.06,5.43-2.99-.1-3.43.74-5.16,4.64-5.11,3.55.05,5.25,1.34,5.34,4.84.08,3.04,1.36,3.41,4.19,2.52,4.33-1.37,7.06-2.88,4.33-8.05-1.62-3.07,1.62-3.78,3.35-5,1.86-1.31,3.37-.64,4.58,1.16,1.1,1.63,2.31,3.2,3.47,4.79-3.84,3.21-5.87,7.76-8.63,11.76-3.66,5.3-8.03,8.64-15.04,8.07-6.04-.49-12.16-.05-18.25-.02ZM66.96,105.33c20.58,1.09,38.87-18.06,38.46-37.92-.45-21.73-16.83-38.52-38.5-38.52-21.39,0-37.57,16.8-38.18,38.38-.54,19.28,16.73,38.92,38.22,38.06Z"/>
      <path class="cls-2" d="M88.21,130.76c3.45-6.62,7.35-12.85,13.81-17.06,4.34-2.82,8.06-6.39,10.76-10.78,4.4-7.18,11.38-11.22,18.09-15.64.05,9.86.26,19.73.08,29.59-.15,7.98-5.78,13.87-13.65,14.06-9.69.24-19.39-.09-29.08-.17Z"/>
      <path class="cls-8" d="M111.39,36.66c3.77,4.61,9.09,7.34,13.55,11.12,2.14,1.81,4.31,3.47,5.83,5.85.07,7.7.12,15.4.24,23.11.03,2.1-.7,3.95-1.97,5.44-4.12,4.84-9.09,8.64-14.85,11.38,1.94-4.35,2.23-7.59-3.91-8.74-3.43-.65-1.09-3.82-.98-5.86.15-2.68,2.14-2.44,4-2.21,5.43.65,6.12-.12,5.95-5.54-.09-2.87-1.37-3.89-3.96-3.58-4.59.55-4.4-3.03-4.87-5.76-.54-3.12,1.7-3.92,4.22-4.14,4.89-.42,3-3.61,2.52-6.17-.55-2.92-2.09-4.78-5.13-3.02-3.42,1.99-5.05.46-6.51-2.41-1.52-2.98-.84-4.97,2.34-6.12,1.63-.59,2.59-1.97,3.53-3.33Z"/>
      <path class="cls-4" d="M88.21,130.76c9.7.08,19.4.4,29.08.17,7.87-.19,13.5-6.08,13.65-14.06.18-9.86-.03-19.73-.08-29.59.22-1.13.8-1.9,2.02-2.02.33.73.95,1.47.94,2.19-.24,11.23,1.22,22.51-.8,33.7-1.64,6.26-5.66,10.17-11.82,11.94-10.08,1.92-20.26.47-30.39.87-2.46.1-4.92.06-7.38.09.75-2.33,2.83-2.7,4.78-3.28Z"/>
      <path class="cls-8" d="M104.24,105.33c-.19-1.79-1.3-2.92-2.71-3.86-1.98-1.32-4.01-2.55-1.61-5.33,1.98-2.3,3.75-4.98,7.14-2.25,1.85,1.49,3.85,1.58,6,1.34-2.27,3.94-3.91,8.45-8.81,10.1Z"/>
      <path class="cls-3" d="M4.16,81.34c-2.39.32-1.63,2.81-2.75,4,0-27.85,0-55.7,0-83.93,29.35,0,58.63,0,87.92,0-2.63,1.94-6.69-.86-8.85,2.67-.31.1-.62.12-.94.05-.04-.25-.08-.5-.13-.76-8.56-2.05-17.13-1.72-25.7-.12-12.21-.03-24.42-.17-36.63-.03-7.91.09-13.85,6.32-13.91,14.39-.08,12.05-.01,24.09,0,36.14-2.02,7.82-.5,15.76-.85,23.64-.04.84.44,1.53,1.21,1.96.21.66.42,1.33.63,1.99Z"/>
      <path class="cls-2" d="M3.16,53.75c0-12.05-.08-24.09,0-36.14.06-8.06,6-14.3,13.91-14.39,12.21-.14,24.42,0,36.63.03l.2-.1c-.09.32-.18.64-.27.96-7.98,4.81-11.61,13.55-17.94,19.85-2.55.57-3.62,3.14-5.77,4.25-3.71,2.35-6.57,5.39-7.92,9.67,0,0,.04-.04.04-.04-6.08,5.16-13.51,8.77-17.99,15.75-.3.04-.6.08-.9.14Z"/>
      <path class="cls-8" d="M4.06,53.61c4.48-6.98,11.92-10.59,17.99-15.75-.15.64-.18,1.33-.46,1.9q-3.54,7.22,4.04,10.81c.3,2.65-1.1,4.9-1.91,7.07-1.17.94-2.12.26-3.07.21-2.57-.14-5.6-1.08-5.6,3.25,0,3.23-.93,7.08,4.55,6.46,3.46-.39,3.32,2.26,3.85,4.48.44,1.86.26,2.98-1.76,3.86-6.28,2.73-6.24,2.82-2.94,10.01,2.33-.24,4.83-1.02,7.11-.59,2.16.4,2.95,3.02,3.73,4.93.81,1.99-1.08,2.85-2.5,3.67-1.7.98-3.45,1.9-5.17,2.85-3.6-4.95-10.09-6.27-13.88-11.12-1.14-1.46-2.38-3.04-3.86-4.31-.21-.66-.42-1.33-.64-1.99-.03-8.58-.87-17.18.53-25.74Z"/>
      <path class="cls-8" d="M35.7,23.98c6.33-6.3,9.96-15.04,17.94-19.85,8.64,0,17.27,0,25.91.01.32.07.63.05.94-.05,6.13,3.91,9.32,10.27,13.3,15.98-1.17.05-2.28-.08-3.26-.85-2.31-1.8-3.65-.35-4.64,1.58-3.02,5.91-2.99,5.92-9.57,2.62-.72-1.12.06-2.21.16-3.32.23-2.63.42-5.1-3.41-5.06-2.89.03-5.92-.4-5.5,4.06.48,5.11-3.8,4.15-6.47,4.67-2.97.57-3.41-1.89-3.39-4.2.03-3.32-1.8-4.07-4.51-3.09-2.54.92-7.01,1.07-4.72,5.47,2.24,4.31-.34,5.38-3.12,7.08-3.28,2-4.06-.82-5.18-2.58-1.12-1.74-2.48-2.54-4.47-2.47Z"/>
      <path class="cls-8" d="M38.93,113.05c-4.74-2.07-8.86-4.86-11.18-9.72,2.11.2,3.87-.41,5.25-2.09,2.01-2.46,3.94-2.2,6.27-.16,2.51,2.19,3,4.29.56,6.59-1.77,1.67-1.55,3.43-.89,5.38Z"/>
      <path class="cls-8" d="M96.22,22.17c4.02,1.49,7.39,3.74,9.28,7.78-3.56.28-4.3,4.31-7.13,5.49q-6.67-4.07-3.04-10.49c.47-.83.6-1.84.9-2.77Z"/>
      <path class="cls-8" d="M22.01,37.9c1.35-4.28,4.21-7.32,7.92-9.67,0,2.18,1.26,3.66,2.81,4.91,2.71,2.19,2.17,4.12.13,6.58-2.08,2.5-3.84,2.61-6.09.49-1.33-1.26-2.92-2.07-4.76-2.31Z"/>
      <path class="cls-7" d="M66.96,105.33c-21.49.86-38.76-18.78-38.22-38.06.61-21.58,16.78-38.37,38.18-38.38,21.67,0,38.05,16.79,38.5,38.52.41,19.86-17.89,39-38.46,37.92ZM66.96,77.55c6.33.02,10.56-4.11,10.59-10.34.03-6.37-4.04-10.48-10.43-10.5-6.5-.03-10.4,3.85-10.42,10.35-.02,6.52,3.85,10.47,10.26,10.49Z"/>
      <path class="cls-5" d="M4.06,53.61c-1.41,8.55-.56,17.16-.53,25.74-.77-.43-1.25-1.12-1.21-1.96.35-7.88-1.17-15.82.85-23.64.3-.05.6-.1.9-.14Z"/>
      <path class="cls-5" d="M53.71,3.26c8.57-1.61,17.14-1.93,25.7.12-8.5-.07-17-.14-25.5-.21l-.2.1Z"/>
      <path class="cls-9" d="M53.91,3.17c8.5.07,17,.14,25.5.21.05.25.09.5.13.76-8.64,0-17.27,0-25.91-.01.09-.32.18-.64.27-.96Z"/>
      <path class="cls-6" d="M66.96,77.55c-6.41-.02-10.28-3.98-10.26-10.49.02-6.5,3.92-10.38,10.42-10.35,6.38.03,10.45,4.13,10.43,10.5-.03,6.23-4.25,10.36-10.59,10.34ZM74.65,67.34c.09-4.94-2.56-7.71-7.42-7.77-4.8-.05-8.28,3.02-8.2,7.25.09,4.56,3.21,7.71,7.76,7.84,4.94.14,7.77-2.5,7.85-7.32Z"/>
      <path class="cls-1" d="M74.65,67.34c-.09,4.82-2.91,7.46-7.85,7.32-4.55-.13-7.67-3.28-7.76-7.84-.08-4.23,3.4-7.31,8.2-7.25,4.86.06,7.5,2.83,7.42,7.77Z"/>
    </g>
  </g>
</svg>