<?xml version="1.0" encoding="utf-8"?>
<!-- Generator: Adobe Illustrator 28.1.0, SVG Export Plug-In . SVG Version: 6.00 Build 0)  -->
<svg version="1.1" id="_Слой_2" xmlns="http://www.w3.org/2000/svg" xmlns:xlink="http://www.w3.org/1999/xlink" x="0px"
	 y="0px" viewBox="0 0 135 135" style="enable-background:new 0 0 135 135;" xml:space="preserve">
<style type="text/css">
	.st0{fill:#094A53;}
	.st1{fill:#FEFEFE;}
	.st2{fill:#179BAD;}
	.st3{fill:#AE1617;}
	.st4{fill:#700E0E;}
	.st5{fill:#3B454C;}
	.st6{fill:#2A2930;}
	.st7{fill:#E2CFCE;}
</style>
<g id="_Слой_1-2">
	<g>
		<path class="st0" d="M83.5,135H1.2c0.1-4,0.1-7.9,0.2-11.9c4.1,8.2,11.1,11,19.8,10.9c10.3-0.1,20.6,0.1,31,0
			c1.5,0,3.1,0.6,4.6-0.6c-0.8-0.9-1.5-1.6-2.2-2.3c6.1,0,12.2-0.5,18.2,0c7,0.6,11.4-2.8,15-8.1c2.8-4,4.8-8.6,8.6-11.8
			c2.5-2.1,6-2.8,7.8-6c4.9-1.7,6.5-6.2,8.8-10.1c0.4-0.6,0.8-1.1,1.1-1.7c5.8-2.7,10.7-6.5,14.9-11.4c1.3-1.5,2-3.3,2-5.4
			c-0.1-7.7-0.2-15.4-0.2-23.1c1.3,0,1.5,2.2,3.3,1.7c0-10.7-0.3-21.4,0.1-32c0.3-9.5-2.4-17.1-11.1-21.9c4,0,8-0.1,11.9-0.1v80.3
			c-2.3,0.4-1.9,2.2-2.1,3.8c-1.2,0.1-1.8,0.9-2,2c-6.7,4.4-13.7,8.5-18.1,15.6c-2.7,4.4-6.4,8-10.8,10.8
			c-6.5,4.2-10.4,10.4-13.8,17.1c-1.9,0.6-4,0.9-4.8,3.3C83.4,134.3,83.4,134.7,83.5,135L83.5,135z"/>
		<path class="st1" d="M1.4,123.1c-0.1,4-0.1,7.9-0.2,11.9c-2-0.9-0.9-2.7-0.9-3.9C0.2,87.5,0.2,44,0.2,0.2h56.6
			c24.7,0,49.4,0,74.2,0.1c1.3,0,3.1-1.1,3.9,0.9c-4,0-8,0.1-11.9,0.1c-11.2,0-22.5,0-33.7,0c-29.3,0-58.6,0-87.9,0v83.9
			C1.4,97.9,1.4,110.5,1.4,123.1z"/>
		<path class="st0" d="M135,121.1V135h-14.9c0.4-0.6,0.7-1.3,1.1-1.9c6.2-1.8,10.2-5.7,11.8-11.9C133.7,121.1,134.3,121.1,135,121.1
			L135,121.1z"/>
		<path class="st2" d="M135,121.1c-0.7,0-1.3,0-2,0c2-11.2,0.6-22.5,0.8-33.7c0-0.7-0.6-1.5-0.9-2.2c0.2-1.5-0.2-3.4,2.1-3.8V121.1
			L135,121.1z"/>
		<path class="st2" d="M121.2,133.1c-0.4,0.6-0.7,1.3-1.1,1.9H83.5c0-0.3,0-0.6,0-1c2.5,0,4.9,0,7.4-0.1
			C100.9,133.6,111.1,135,121.2,133.1z"/>
		<path class="st3" d="M104.2,105.3c-1.7,3.1-5.2,3.9-7.8,6c-1.2-1.6-2.4-3.2-3.5-4.8c-1.2-1.8-2.7-2.5-4.6-1.2
			c-1.7,1.2-5,1.9-3.3,5c2.7,5.2,0,6.7-4.3,8.1c-2.8,0.9-4.1,0.5-4.2-2.5c-0.1-3.5-1.8-4.8-5.3-4.8c-3.9-0.1-4.7,1.7-4.6,5.1
			c0.1,4.1-3.2,2.9-5.4,3c-2,0.1-4.6-0.2-4-2.9c0.6-2.8,0.1-5.5-0.1-9c12.8,2.4,24.4,0.4,34.7-7.3c10.5-7.8,16-18.6,16.3-31.4
			c0.5-17.5-8.8-35-32.2-42c-13.6-4.1-35.6,3.6-43.3,18.1c-15,28.5-4.9,49.1,22.9,63c-1.9,2.1-5.4-0.7-6.2,2.6c-1.3,6-5,5.5-9.3,3.7
			c-0.3-0.3-0.7-0.6-1-0.9c-0.7-1.9-0.9-3.7,0.9-5.4c2.4-2.3,2-4.4-0.6-6.6c-2.3-2-4.3-2.3-6.3,0.2c-1.4,1.7-3.1,2.3-5.2,2.1
			c-2.6-1.6-3.8-4.5-5.9-6.6c1.7-0.9,3.5-1.9,5.2-2.8c1.4-0.8,3.3-1.7,2.5-3.7c-0.8-1.9-1.6-4.5-3.7-4.9c-2.3-0.4-4.8,0.3-7.1,0.6
			c-3.3-7.2-3.3-7.3,2.9-10c2-0.9,2.2-2,1.8-3.9c-0.5-2.2-0.4-4.9-3.9-4.5c-5.5,0.6-4.6-3.2-4.6-6.5c0-4.3,3-3.4,5.6-3.2
			c1,0,1.9,0.7,3.1-0.2c0.8-2.2,2.2-4.4,1.9-7.1c-5.1-2.4-6.4-6-4-10.8c0.3-0.6,0.3-1.3,0.5-1.9l0,0c1.8,0.2,3.4,1.1,4.8,2.3
			c2.2,2.1,4,2,6.1-0.5c2-2.5,2.6-4.4-0.1-6.6c-1.5-1.2-2.8-2.7-2.8-4.9c2.1-1.1,3.2-3.7,5.8-4.2c2-0.1,3.3,0.7,4.5,2.5
			c1.1,1.8,1.9,4.6,5.2,2.6c2.8-1.7,5.4-2.8,3.1-7.1c-2.3-4.4,2.2-4.6,4.7-5.5c2.7-1,4.5-0.2,4.5,3.1c0,2.3,0.4,4.8,3.4,4.2
			c2.7-0.5,6.9,0.5,6.5-4.7c-0.4-4.5,2.6-4,5.5-4.1c3.8,0,3.6,2.4,3.4,5.1c-0.1,1.1-0.9,2.2-0.2,3.3c6.6,3.3,6.6,3.3,9.6-2.6
			c1-1.9,2.3-3.4,4.6-1.6c1,0.8,2.1,0.9,3.3,0.9c1.5-0.1,1.4,1.6,2.4,2.1c-0.3,0.9-0.4,1.9-0.9,2.8c-2.4,4.3-1.4,7.8,3,10.5
			c2.8-1.2,3.6-5.2,7.1-5.5c2.6,1.7,3.7,4.6,5.9,6.7c-0.9,1.4-1.9,2.7-3.5,3.3c-3.2,1.2-3.9,3.1-2.3,6.1c1.5,2.9,3.1,4.4,6.5,2.4
			c3-1.8,4.6,0.1,5.1,3c0.5,2.6,2.4,5.8-2.5,6.2c-2.5,0.2-4.8,1-4.2,4.1c0.5,2.7,0.3,6.3,4.9,5.8c2.6-0.3,3.9,0.7,4,3.6
			c0.2,5.4-0.5,6.2-5.9,5.5c-1.9-0.2-3.9-0.5-4,2.2c-0.1,2-2.4,5.2,1,5.9c6.2,1.2,5.8,4.4,3.9,8.7c-0.4,0.6-0.8,1.1-1.1,1.7
			c-2.2,0.2-4.2,0.2-6-1.3c-3.4-2.7-5.2-0.1-7.1,2.2c-2.4,2.8-0.4,4,1.6,5.3C102.9,102.4,104,103.5,104.2,105.3L104.2,105.3z"/>
		<path class="st2" d="M96.2,22.2c-1-0.5-0.9-2.2-2.4-2.1c-4-5.7-7.2-12.1-13.3-16c2.2-3.5,6.2-0.7,8.8-2.7c11.2,0,22.5,0,33.7,0
			c8.7,4.8,11.4,12.4,11.1,21.9c-0.4,10.7-0.1,21.3-0.1,32c-1.8,0.5-2-1.6-3.3-1.7c-1.5-2.4-3.7-4-5.8-5.8
			c-4.5-3.8-9.8-6.5-13.6-11.1c-2.2-2.1-3.3-5-5.9-6.7C103.6,25.9,100.2,23.6,96.2,22.2L96.2,22.2z"/>
		<path class="st2" d="M21.9,96.8c2.1,2.1,3.3,4.9,5.9,6.6c2.3,4.9,6.4,7.7,11.2,9.7c0.3,0.3,0.7,0.6,1,0.9
			c2.5,7.7,8.5,12.5,14.6,17.2c0.7,0.7,1.3,1.4,2.2,2.3c-1.4,1.2-3.1,0.6-4.6,0.6c-10.3,0-20.6-0.1-31,0
			c-8.7,0.1-15.7-2.8-19.8-10.9c0-12.6,0-25.2,0-37.8c1.1-1.2,0.4-3.7,2.8-4c1.5,1.3,2.7,2.8,3.9,4.3C11.8,90.5,18.3,91.8,21.9,96.8
			L21.9,96.8z"/>
		<path class="st4" d="M54.6,131.1c-6.1-4.7-12.1-9.4-14.6-17.2c4.3,1.8,8,2.3,9.3-3.7c0.7-3.3,4.3-0.4,6.2-2.6
			c-27.8-13.8-37.9-34.5-22.9-63c7.7-14.5,29.6-22.2,43.3-18.1c23.3,7,32.7,24.5,32.2,42c-0.3,12.8-5.8,23.5-16.3,31.4
			c-10.3,7.7-21.9,9.7-34.7,7.3c0.2,3.5,0.8,6.2,0.1,9c-0.6,2.7,2,3,4,2.9c2.2-0.1,5.5,1.1,5.4-3c-0.1-3.4,0.7-5.2,4.6-5.1
			c3.6,0.1,5.2,1.3,5.3,4.8c0.1,3,1.4,3.4,4.2,2.5c4.3-1.4,7.1-2.9,4.3-8.1c-1.6-3.1,1.6-3.8,3.3-5c1.9-1.3,3.4-0.6,4.6,1.2
			c1.1,1.6,2.3,3.2,3.5,4.8c-3.8,3.2-5.9,7.8-8.6,11.8c-3.7,5.3-8,8.6-15,8.1C66.8,130.6,60.7,131.1,54.6,131.1L54.6,131.1z
			 M67,105.3c20.6,1.1,38.9-18.1,38.5-37.9C105,45.7,88.6,28.9,66.9,28.9c-21.4,0-37.6,16.8-38.2,38.4
			C28.2,86.6,45.5,106.2,67,105.3z"/>
		<path class="st2" d="M88.2,130.8c3.4-6.6,7.3-12.8,13.8-17.1c4.3-2.8,8.1-6.4,10.8-10.8c4.4-7.2,11.4-11.2,18.1-15.6
			c0.1,9.9,0.3,19.7,0.1,29.6c-0.1,8-5.8,13.9-13.7,14.1C107.6,131.2,97.9,130.8,88.2,130.8L88.2,130.8z"/>
		<path class="st4" d="M111.4,36.7c3.8,4.6,9.1,7.3,13.6,11.1c2.1,1.8,4.3,3.5,5.8,5.8c0.1,7.7,0.1,15.4,0.2,23.1
			c0,2.1-0.7,3.9-2,5.4c-4.1,4.8-9.1,8.6-14.8,11.4c1.9-4.3,2.2-7.6-3.9-8.7c-3.4-0.7-1.1-3.8-1-5.9c0.2-2.7,2.1-2.4,4-2.2
			c5.4,0.7,6.1-0.1,5.9-5.5c-0.1-2.9-1.4-3.9-4-3.6c-4.6,0.6-4.4-3-4.9-5.8c-0.5-3.1,1.7-3.9,4.2-4.1c4.9-0.4,3-3.6,2.5-6.2
			c-0.6-2.9-2.1-4.8-5.1-3c-3.4,2-5.1,0.5-6.5-2.4c-1.5-3-0.8-5,2.3-6.1C109.5,39.4,110.4,38,111.4,36.7L111.4,36.7z"/>
		<path class="st2" d="M88.2,130.8c9.7,0.1,19.4,0.4,29.1,0.2c7.9-0.2,13.5-6.1,13.7-14.1c0.2-9.9,0-19.7-0.1-29.6
			c0.2-1.1,0.8-1.9,2-2c0.3,0.7,0.9,1.5,0.9,2.2c-0.2,11.2,1.2,22.5-0.8,33.7c-1.6,6.3-5.7,10.2-11.8,11.9
			c-10.1,1.9-20.3,0.5-30.4,0.9c-2.5,0.1-4.9,0.1-7.4,0.1C84.2,131.7,86.3,131.4,88.2,130.8L88.2,130.8z"/>
		<path class="st4" d="M104.2,105.3c-0.2-1.8-1.3-2.9-2.7-3.9c-2-1.3-4-2.6-1.6-5.3c2-2.3,3.8-5,7.1-2.2c1.8,1.5,3.8,1.6,6,1.3
			C110.8,99.2,109.1,103.7,104.2,105.3L104.2,105.3z"/>
		<path class="st0" d="M4.2,81.3c-2.4,0.3-1.6,2.8-2.8,4c0-27.8,0-55.7,0-83.9c29.4,0,58.6,0,87.9,0c-2.6,1.9-6.7-0.9-8.8,2.7
			c-0.3,0.1-0.6,0.1-0.9,0.1c0-0.2-0.1-0.5-0.1-0.8c-8.6-2-17.1-1.7-25.7-0.1c-12.2,0-24.4-0.2-36.6,0C9.2,3.3,3.2,9.5,3.2,17.6
			c-0.1,12,0,24.1,0,36.1c-2,7.8-0.5,15.8-0.8,23.6c0,0.8,0.4,1.5,1.2,2C3.7,80,4,80.7,4.2,81.3z"/>
		<path class="st2" d="M3.2,53.8c0-12-0.1-24.1,0-36.1c0.1-8.1,6-14.3,13.9-14.4c12.2-0.1,24.4,0,36.6,0l0.2-0.1
			c-0.1,0.3-0.2,0.6-0.3,1C45.7,8.9,42,17.7,35.7,24c-2.5,0.6-3.6,3.1-5.8,4.2c-3.7,2.4-6.6,5.4-7.9,9.7l0,0
			C16,43,8.5,46.6,4.1,53.6C3.8,53.6,3.5,53.7,3.2,53.8L3.2,53.8z"/>
		<path class="st4" d="M4.1,53.6C8.5,46.6,16,43,22,37.9c-0.1,0.6-0.2,1.3-0.5,1.9c-2.4,4.8-1,8.4,4,10.8c0.3,2.7-1.1,4.9-1.9,7.1
			c-1.2,0.9-2.1,0.3-3.1,0.2c-2.6-0.1-5.6-1.1-5.6,3.2c0,3.2-0.9,7.1,4.6,6.5c3.5-0.4,3.3,2.3,3.9,4.5c0.4,1.9,0.3,3-1.8,3.9
			c-6.3,2.7-6.2,2.8-2.9,10c2.3-0.2,4.8-1,7.1-0.6c2.2,0.4,3,3,3.7,4.9c0.8,2-1.1,2.8-2.5,3.7c-1.7,1-3.5,1.9-5.2,2.8
			C18.3,91.8,11.8,90.5,8,85.7c-1.1-1.5-2.4-3-3.9-4.3c-0.2-0.7-0.4-1.3-0.6-2C3.5,70.8,2.7,62.2,4.1,53.6L4.1,53.6z"/>
		<path class="st4" d="M35.7,24c6.3-6.3,10-15,17.9-19.9c8.6,0,17.3,0,25.9,0c0.3,0.1,0.6,0.1,0.9-0.1c6.1,3.9,9.3,10.3,13.3,16
			c-1.2,0-2.3-0.1-3.3-0.9c-2.3-1.8-3.7-0.4-4.6,1.6c-3,5.9-3,5.9-9.6,2.6c-0.7-1.1,0.1-2.2,0.2-3.3c0.2-2.6,0.4-5.1-3.4-5.1
			c-2.9,0-5.9-0.4-5.5,4.1c0.5,5.1-3.8,4.1-6.5,4.7c-3,0.6-3.4-1.9-3.4-4.2c0-3.3-1.8-4.1-4.5-3.1c-2.5,0.9-7,1.1-4.7,5.5
			c2.2,4.3-0.3,5.4-3.1,7.1c-3.3,2-4.1-0.8-5.2-2.6C39.1,24.7,37.7,23.9,35.7,24L35.7,24z"/>
		<path class="st4" d="M38.9,113.1c-4.7-2.1-8.9-4.9-11.2-9.7c2.1,0.2,3.9-0.4,5.2-2.1c2-2.5,3.9-2.2,6.3-0.2c2.5,2.2,3,4.3,0.6,6.6
			C38.1,109.3,38.3,111.1,38.9,113.1L38.9,113.1z"/>
		<path class="st4" d="M96.2,22.2c4,1.5,7.4,3.7,9.3,7.8c-3.6,0.3-4.3,4.3-7.1,5.5c-4.4-2.7-5.5-6.2-3-10.5
			C95.8,24.1,95.9,23.1,96.2,22.2L96.2,22.2z"/>
		<path class="st4" d="M22,37.9c1.4-4.3,4.2-7.3,7.9-9.7c0,2.2,1.3,3.7,2.8,4.9c2.7,2.2,2.2,4.1,0.1,6.6c-2.1,2.5-3.8,2.6-6.1,0.5
			C25.5,39,23.9,38.1,22,37.9L22,37.9z"/>
		<path class="st3" d="M67,105.3c-21.5,0.9-38.8-18.8-38.2-38.1c0.6-21.6,16.8-38.4,38.2-38.4c21.7,0,38.1,16.8,38.5,38.5
			C105.8,87.3,87.5,106.4,67,105.3z M67,77.6c6.3,0,10.6-4.1,10.6-10.3c0-6.4-4-10.5-10.4-10.5c-6.5,0-10.4,3.8-10.4,10.3
			C56.7,73.6,60.6,77.5,67,77.6z"/>
		<path class="st5" d="M4.1,53.6c-1.4,8.5-0.6,17.2-0.5,25.7c-0.8-0.4-1.2-1.1-1.2-2c0.3-7.9-1.2-15.8,0.9-23.6
			C3.5,53.7,3.8,53.7,4.1,53.6L4.1,53.6z"/>
		<path class="st5" d="M53.7,3.3c8.6-1.6,17.1-1.9,25.7,0.1c-8.5-0.1-17-0.1-25.5-0.2L53.7,3.3L53.7,3.3z"/>
		<path class="st6" d="M53.9,3.2c8.5,0.1,17,0.1,25.5,0.2c0.1,0.2,0.1,0.5,0.1,0.8c-8.6,0-17.3,0-25.9,0C53.7,3.8,53.8,3.5,53.9,3.2
			L53.9,3.2z"/>
		<path class="st7" d="M67,77.6c-6.4,0-10.3-4-10.3-10.5c0-6.5,3.9-10.4,10.4-10.3c6.4,0,10.4,4.1,10.4,10.5
			C77.5,73.4,73.3,77.6,67,77.6z M74.7,67.3c0.1-4.9-2.6-7.7-7.4-7.8c-4.8,0-8.3,3-8.2,7.2c0.1,4.6,3.2,7.7,7.8,7.8
			C71.7,74.8,74.6,72.2,74.7,67.3L74.7,67.3z"/>
		<path class="st1" d="M74.7,67.3c-0.1,4.8-2.9,7.5-7.8,7.3c-4.5-0.1-7.7-3.3-7.8-7.8c-0.1-4.2,3.4-7.3,8.2-7.2
			C72.1,59.6,74.7,62.4,74.7,67.3L74.7,67.3z"/>
	</g>
</g>
</svg>
