<?xml version="1.0" encoding="utf-8"?>
<!-- Generator: Adobe Illustrator 28.1.0, SVG Export Plug-In . SVG Version: 6.00 Build 0)  -->
<svg version="1.1" id="_Слой_2" xmlns="http://www.w3.org/2000/svg" xmlns:xlink="http://www.w3.org/1999/xlink" x="0px"
	 y="0px" viewBox="0 0 135 135" style="enable-background:new 0 0 135 135;" xml:space="preserve">
<style type="text/css">
	.st0{fill:#179BAD;}
	.st1{fill:#074B54;}
	.st2{fill:#FDFDFC;}
	.st3{fill:#1616AE;}
	.st4{fill:#0E0F72;}
	.st5{fill:#072856;}
	.st6{fill:#1E4A7C;}
	.st7{fill:#D3D3E4;}
</style>
<g id="_Слой_1-2">
	<g>
		<path class="st0" d="M135,12.9v43.6c-0.7-0.6-1.4-1.2-2.1-1.8c-0.8-2-1.8-3.9-3.9-4.8c-5.6-4.4-11.1-8.9-16.7-13.3
			c-1.9-2.3-3.8-4.5-5.8-6.8c-2-4-5.2-6.5-9.4-7.8c-0.2-0.1-0.3-0.1-0.5-0.1c-4.8-6.1-8.3-13.4-15.1-17.9c-0.1-0.6-0.1-1.3-0.2-1.9
			c1.8-0.3,4.2,0.8,5.1-2h34.7C127.2,2.8,131.9,7,135,12.9L135,12.9z"/>
		<path class="st1" d="M86.4,0c-0.9,2.8-3.2,1.7-5.1,2C77,2,72.6,1.8,68.2,2c-4.2,0.2-8.4-1.1-12.4,1c-0.3,0-0.6,0-0.9,0
			c-12,0-24.1-0.1-36.1,0C10.4,3,4.3,9,4.2,17.2c-0.1,12.2,0,24.4,0,36.6c0,8.5,0,17,0,25.5c-1.3,0-1.9,1.2-2.8,1.9
			C1.4,54.1,1.3,27,1.3,0L86.4,0L86.4,0z"/>
		<path class="st1" d="M132.9,54.7c0.7,0.6,1.4,1.2,2.1,1.8v25.8c-1.9,1-2.5,2.9-3.1,4.8c-5.5,3.8-11.7,6.8-15.7,12.3
			c-2.9,4.2-5.8,8.6-10,11.4c-7.7,5.2-12.8,12.6-17.8,20c-1.9,0.4-3.4,1.7-4.9,2.8c-8.3,0-16.5,0-24.8,0c-1-0.9-2.1-1.8-3.1-2.7
			c7.1,0,14.1-0.1,21.2-0.1c4.1,0,7.2-1.9,9.6-5c1.2-1.5,2.4-3.1,3.6-4.6c2.8-3.7,5.6-7.4,8.4-11.1c2-1.6,4.4-2.7,5.9-4.9
			c5.3-1.2,6.1-6.6,9-10c0.6-0.6,1.2-1.3,1.9-1.9c6-3.8,12.7-6.9,15.9-13.9c2.2-0.9,1.8-2.8,1.9-4.6C133,68.1,133,61.4,132.9,54.7
			L132.9,54.7z"/>
		<path class="st2" d="M58.7,133.6c8.3,0,16.5,0,24.8,0c12.5,0,25.1,0,37.6,0c4.6,0.1,9.3,0.1,13.9,0.2c-0.9,2-2.7,0.9-3.9,0.9
			c-43.5,0.1-87,0.1-130.8,0.1V78.1c0-24.7,0-49.5,0.1-74.2c0-1.3-1.1-3.1,0.9-4c0,27.1,0.1,54.1,0.2,81.2c0,13.2,0,26.5,0,39.7
			v12.7h13.7C29.6,133.6,44.2,133.6,58.7,133.6z"/>
		<path class="st0" d="M121.1,133.6c-12.5,0-25.1,0-37.6,0c1.5-1.1,3-2.4,4.9-2.8c9.2,0,18.5,0,27.7,0c9.7,0,15.6-5.4,15.8-15.1
			c0.2-9.6,0-19.1-0.1-28.7c0.6-1.9,1.2-3.8,3.1-4.8v39.6c-0.7-0.1-1.4,0-1.6,0.7C131.5,128.8,126.5,131.4,121.1,133.6L121.1,133.6z
			"/>
		<path class="st1" d="M135,12.9C131.9,7,127.2,2.8,121.1,0H135V12.9z"/>
		<path class="st1" d="M121.1,133.6c5.4-2.2,10.4-4.8,12.3-11c0.2-0.7,1-0.8,1.6-0.7v11.9C130.4,133.7,125.7,133.7,121.1,133.6
			L121.1,133.6z"/>
		<path class="st3" d="M104.4,105.2c-1.5,2.2-3.9,3.3-5.9,4.9c-2.4-0.1-3.1-2.2-4.2-3.8c-1.9-2.5-4-1.7-6.1-0.4
			c-2,1.2-3.5,2.6-2,5.2c1.3,2.1,2.4,4.9-0.9,5.5c-2.6,0.5-7,3.8-8-2.5c-0.6-4-4.1-2.9-6.8-3c-2.9-0.1-2.9,2-2.9,4.1
			c0.2,5.4-3.9,3.7-6.7,3.8c-3.7,0.2-3.3-2.1-2.6-4.7c0.9-3.2-0.4-4.7-3.7-5.6c-3.1-0.8-4.6-0.2-5.2,3c-0.7,3.5-3.2,3.9-6,2.6
			c-1.2-0.5-2.2-1.4-3.6-1.4l0,0c-0.5-1.9-1.1-3.8,0.6-5.5c2.3-2.2,2.8-4.2,0-6.5c-2.6-2.1-4.9-2.7-7,0.4c-1.2,1.8-3,1.8-4.8,1.8
			c-2-1.5-3.4-3.6-4.6-5.7c0.1-2.1,1.5-3.2,3.3-3.8c3.4-1.1,3.1-3.5,2-6c-1-2.4-3.1-3.7-5.6-2.1c-4.2,2.7-5.9,1.6-6-3.2
			c0-1.4-1.5-2.6-1-4.5c0.7-0.4,1.5-1,2.4-1.2c3.1-0.8,5.4-1.9,5-5.9c-0.4-4-3-3.1-5.3-3.3c-3.6-0.3-2.6-3.2-2.7-5.3s-0.3-4.9,3-4.5
			c6,0.7,7.5-2.3,7.3-7.5c-0.6-0.4-1.1-0.8-1.7-1c-4.5-1.5-5.5-4.1-2.9-8.1c0.2-0.4,0.2-1,0.3-1.5c0.3-0.6,0.6-1.2,0.9-1.8
			c1.8-0.1,3.1,0.9,4.3,2c2.9,2.9,5,1.5,7.3-1c2.5-2.8,1-4.6-1.1-6.6c-1.2-1.1-2.2-2.4-3.3-3.5c2.3-1.5,3.8-4,6.6-4.9
			c2.4-0.2,3.7,1.3,4.6,3.1c2,4.4,4.6,2,7.3,0.8c3.3-1.5,1.9-3.6,0.9-5.7c-0.5-1-1.3-2-1-3.2c4.8-2.7,8.4-1.7,10.8,2.9
			c0.7,1.3,1.6,2,3,2.1c4.1,0.4,5.8-1.3,5.5-5.4c-0.2-3.8,2.1-4.7,5.5-4.5c3.3,0.3,4.7,2,4.3,5.2c-0.2,1.3-0.3,2.6-0.5,4.1
			c3.2,0.9,6.2,5.4,9.1-0.1c3.1-5.9,3-5.9,8.7-2.1c0.5,0.4,1.2,0.4,1.8,0.6c0.2,0,0.4,0,0.5,0.1c-0.3,1.1-0.5,2.2-1.1,3.2
			c-3.5,6-3.4,6.2,2.9,10.3c3.1-1,3.8-5.5,7.6-5.7c1.9,2.3,3.8,4.5,5.8,6.8c-0.9,0.9-1.7,2.1-2.7,2.8c-2.1,1.4-5.3,2.1-3.4,5.7
			c1.5,2.9,2.6,5.8,7.3,3.1c3.7-2.1,4.2,2,5,4.7c0.8,2.5,1.1,4.7-2.6,4.7c-2.4,0-5.1,0-4.5,3.4c0.4,2.8-0.2,6.7,4.7,6.5
			c1.6-0.1,3.6-0.3,3.9,1.9c0.3,2.4,0.7,5.1-1.2,7.1c-1.7,1.7-3.3,0.2-4.9-0.5c-0.5-0.2-1.2-0.2-2.2-0.2c-0.7,1.8-1.3,3.5-1.9,5.2
			c-0.7,1.8-0.3,3.8,1.5,4.1c6,0.8,5.4,4.3,3.8,8.4c-0.6,0.6-1.2,1.3-1.9,1.9c-1.3-0.2-2.7-0.1-3.8-0.6c-6-2.6-6.6-2.4-9.6,3.8
			C101.4,100.6,104.2,102,104.4,105.2L104.4,105.2z M68.1,25.8c-22.8-0.6-41.1,19-41.2,40.8c-0.1,24.5,19.8,42.1,40.4,42
			c22,0,42-16.6,41.9-42.1C109.1,44.5,90.9,25.3,68.1,25.8z"/>
		<path class="st4" d="M96.7,21.8c-0.6-0.2-1.3-0.3-1.8-0.6c-5.7-3.9-5.6-3.8-8.7,2.1c-2.9,5.5-5.9,1-9.1,0.1
			c0.2-1.6,0.3-2.9,0.5-4.1c0.4-3.3-0.9-5-4.3-5.2c-3.3-0.3-5.7,0.7-5.5,4.5c0.2,4.1-1.5,5.8-5.5,5.4c-1.5-0.1-2.4-0.8-3-2.1
			c-2.4-4.6-5.9-5.6-10.8-2.9c-0.3,1.2,0.5,2.2,1,3.2c0.9,2.1,2.4,4.2-0.9,5.7c-2.6,1.2-5.2,3.6-7.3-0.8c-0.8-1.8-2.2-3.4-4.6-3.1
			C43,17,47.2,8.5,54.8,3c0.3,0,0.6,0,0.9,0l0,0c1.4,1.2,3.1,1,4.7,1c6.7,0,13.5,0,20.2,0c0.3,0,0.6,0,0.9-0.1
			C88.4,8.3,91.8,15.6,96.7,21.8L96.7,21.8z"/>
		<path class="st4" d="M115.2,93.3c1.6-4.1,2.2-7.6-3.8-8.4c-1.8-0.2-2.2-2.3-1.5-4.1c0.6-1.7,1.2-3.4,1.9-5.2
			c0.9,0.1,1.6,0,2.2,0.2c1.6,0.7,3.3,2.2,4.9,0.5c1.9-2,1.5-4.6,1.2-7.1c-0.3-2.3-2.3-2-3.9-1.9c-4.9,0.2-4.3-3.7-4.7-6.5
			c-0.5-3.5,2.1-3.4,4.5-3.4c3.7,0,3.4-2.2,2.6-4.7c-0.8-2.6-1.2-6.8-5-4.7c-4.7,2.7-5.8-0.2-7.3-3.1c-1.9-3.6,1.3-4.3,3.4-5.7
			c1.1-0.7,1.8-1.8,2.7-2.8c5.6,4.4,11.1,8.9,16.7,13.3c2.4,5,2,10.4,2,15.8c0,4.6,0.1,9.2,0.1,13.8
			C127.9,86.4,121.2,89.5,115.2,93.3L115.2,93.3z"/>
		<path class="st4" d="M106.6,29.7c-3.8,0.3-4.4,4.7-7.6,5.7c-6.3-4.1-6.4-4.4-2.9-10.3c0.6-1,0.7-2.1,1.1-3.2
			C101.4,23.2,104.6,25.7,106.6,29.7L106.6,29.7z"/>
		<path class="st5" d="M131.1,79.4c0-4.6-0.1-9.2-0.1-13.8c0-5.4,0.4-10.8-2-15.8c2.2,0.9,3.1,2.8,3.9,4.8c0,6.7,0.1,13.4,0,20.1
			C133,76.5,133.4,78.5,131.1,79.4L131.1,79.4z"/>
		<path class="st6" d="M81.6,3.9c-0.3,0-0.6,0.1-0.9,0.1c-1.4-1.2-3.1-1-4.7-1c-6.7,0-13.5,0-20.2,0l0,0c4-2.1,8.3-0.7,12.4-1
			c4.4-0.2,8.8,0,13.2,0C81.4,2.6,81.5,3.2,81.6,3.9L81.6,3.9z"/>
		<path class="st0" d="M24,97.4c1.2,2.2,2.6,4.2,4.7,5.7c2.3,5,6.5,7.7,11.2,9.8l0,0c3.8,7.3,9.2,13.1,15.6,18
			c1,0.9,2.1,1.8,3.1,2.7c-14.5,0-29,0-43.6,0c-6.7-2-10.9-6.6-13.7-12.7c0-13.2,0-26.5,0-39.7c0.9-0.7,1.4-1.9,2.8-1.9
			C9.1,87.2,17.5,91.3,24,97.4L24,97.4z"/>
		<path class="st0" d="M54.8,3C47.2,8.5,43,17,36.7,23.7c-2.8,0.8-4.3,3.4-6.6,4.9c-3.2,2.4-6,5-7.1,9.1c-0.3,0.6-0.6,1.2-0.9,1.8
			c-7.2,3.2-13.1,8.1-17.8,14.3c0-12.2-0.1-24.4,0-36.6C4.3,9,10.4,3,18.7,3C30.8,2.9,42.8,3,54.8,3L54.8,3z"/>
		<path class="st4" d="M4.2,53.8C8.9,47.6,14.8,42.7,22,39.5c-0.1,0.5,0,1.1-0.3,1.5c-2.6,4-1.6,6.6,2.9,8.1c0.6,0.2,1.1,0.7,1.7,1
			c0.2,5.2-1.3,8.2-7.3,7.5c-3.2-0.4-3.1,2.3-3,4.5c0.1,2.1-0.9,5,2.7,5.3c2.3,0.2,5-0.7,5.3,3.3c0.4,4.1-1.9,5.1-5,5.9
			c-0.9,0.2-1.7,0.9-2.4,1.2c-0.4,1.9,1,3.1,1,4.5c0.1,4.8,1.8,5.9,6,3.2c2.5-1.6,4.5-0.3,5.6,2.1s1.3,4.9-2,6
			c-1.8,0.6-3.2,1.7-3.3,3.8C17.5,91.3,9.1,87.2,4.2,79.3C4.2,70.8,4.2,62.3,4.2,53.8L4.2,53.8z"/>
		<path class="st0" d="M131.9,87c0.1,9.6,0.3,19.1,0.1,28.7c-0.2,9.7-6.1,15-15.8,15.1c-9.2,0-18.5,0-27.7,0
			c5.1-7.4,10.1-14.8,17.8-20c4.2-2.8,7-7.2,10-11.4C120.1,93.8,126.4,90.8,131.9,87L131.9,87z"/>
		<path class="st4" d="M55.6,130.9c-6.5-4.9-11.9-10.7-15.6-18c1.4-0.1,2.4,0.9,3.6,1.4c2.8,1.3,5.3,0.9,6-2.6
			c0.6-3.2,2.1-3.8,5.2-3c3.3,0.8,4.6,2.4,3.7,5.6c-0.7,2.5-1.1,4.8,2.6,4.7c2.7-0.1,6.8,1.7,6.7-3.8c-0.1-2.1,0-4.2,2.9-4.1
			c2.7,0.1,6.1-1,6.8,3c1,6.3,5.4,3,8,2.5c3.3-0.6,2.2-3.3,0.9-5.5c-1.5-2.6,0-4,2-5.2c2.1-1.2,4.2-2.1,6.1,0.4
			c1.1,1.5,1.8,3.6,4.2,3.8c-2.8,3.7-5.6,7.4-8.4,11.1c-1.2,1.6-2.4,3.1-3.6,4.6c-2.4,3.1-5.5,5-9.6,5
			C69.7,130.8,62.7,130.8,55.6,130.9L55.6,130.9z"/>
		<path class="st4" d="M104.4,105.2c-0.2-3.1-3-4.6-4.5-6.8c3-6.2,3.7-6.4,9.6-3.8c1.2,0.5,2.6,0.4,3.8,0.6
			C110.5,98.6,109.7,104,104.4,105.2L104.4,105.2z"/>
		<path class="st1" d="M1.4,120.9c2.8,6.1,7.1,10.7,13.7,12.7c-4.4,0-8.9,0-13.7,0C1.4,133.6,1.4,120.9,1.4,120.9z"/>
		<path class="st4" d="M68.1,25.8c22.8-0.4,41,18.7,41.1,40.7c0.1,25.5-19.9,42-41.9,42.1c-20.6,0-40.5-17.6-40.4-42
			C27,44.8,45.3,25.1,68.1,25.8z M67.2,105.1c22.2,0.7,38.7-17.4,39.1-37.3c0.4-21.3-16.3-38.9-37.5-39c-23.2-0.2-38.3,17.2-39,37.4
			C28.9,87.9,49.5,106.7,67.2,105.1L67.2,105.1z"/>
		<path class="st4" d="M39.9,112.9c-4.7-2.1-9-4.8-11.2-9.8c1.8,0,3.5-0.1,4.8-1.8c2.1-3.1,4.5-2.5,7-0.4c2.8,2.2,2.4,4.3,0,6.5
			C38.8,109.1,39.4,111,39.9,112.9z"/>
		<path class="st4" d="M22.9,37.7c1.1-4,3.9-6.7,7.1-9.1c1.1,1.2,2.1,2.4,3.3,3.5c2.1,1.9,3.6,3.7,1.1,6.6c-2.2,2.5-4.4,3.9-7.3,1
			C26,38.6,24.7,37.5,22.9,37.7L22.9,37.7z"/>
		<path class="st5" d="M55.7,3c6.7,0,13.5,0,20.2,0c1.6,0,3.3-0.2,4.7,1c-6.7,0-13.5,0-20.2,0C58.8,4,57.1,4.2,55.7,3L55.7,3z"/>
		<path class="st3" d="M67.2,105.1c-17.7,1.7-38.2-17.1-37.5-38.9c0.8-20.2,15.9-37.6,39-37.4c21.2,0.1,38,17.8,37.5,39
			C105.9,87.7,89.3,105.8,67.2,105.1L67.2,105.1z M53.4,77.3c6.2,0,10.5-4.3,10.4-10.5c0-6.2-4.3-10.3-10.6-10.3
			c-6.4,0-10.4,4.1-10.4,10.5C42.9,73.2,47,77.3,53.4,77.3L53.4,77.3z M82.9,77.3c6.2,0.9,10.7-5.8,10.5-10
			c-0.4-7.8-5.7-11.1-10.7-10.9C76.5,56.7,71.9,61,72,67C72.1,72.9,76.6,77.3,82.9,77.3z"/>
		<path class="st7" d="M53.4,77.3c-6.4,0-10.5-4.1-10.6-10.3c0-6.4,4-10.5,10.4-10.5c6.3,0,10.6,4.2,10.6,10.3
			C63.9,73,59.6,77.3,53.4,77.3L53.4,77.3z M60.8,67.1c0.1-5-2.5-7.7-7.4-7.8c-4.7,0-7.4,2.5-7.6,7.1c-0.2,5,2.4,7.8,7.2,8
			C57.9,74.5,60.7,71.9,60.8,67.1L60.8,67.1z"/>
		<path class="st7" d="M82.9,77.3C76.6,77.3,72.1,73,72,67c-0.1-6,4.5-10.3,10.6-10.6c5.1-0.3,10.3,3.1,10.7,10.9
			C93.6,71.6,89,78.2,82.9,77.3z M83.2,59.4c-4.7-0.2-8.1,2.6-8.4,7.1c-0.3,4.3,3,7.8,7.6,8c4.3,0.2,7.8-2.7,8.1-6.8
			C90.8,63.1,87.7,59.6,83.2,59.4L83.2,59.4z"/>
		<path class="st2" d="M60.8,67.1c-0.1,4.8-2.9,7.4-7.9,7.3c-4.8-0.2-7.4-3-7.2-8c0.2-4.6,2.9-7.1,7.6-7.1
			C58.2,59.4,60.9,62.2,60.8,67.1L60.8,67.1z"/>
		<path class="st2" d="M83.2,59.4c4.5,0.2,7.6,3.7,7.2,8.2c-0.3,4.1-3.8,7.1-8.1,6.8c-4.6-0.2-8-3.7-7.6-8
			C75.1,62,78.5,59.1,83.2,59.4L83.2,59.4z"/>
	</g>
</g>
</svg>
