<?xml version="1.0" encoding="utf-8"?>
<!-- Generator: Adobe Illustrator 28.1.0, SVG Export Plug-In . SVG Version: 6.00 Build 0)  -->
<svg version="1.1" id="_Слой_2" xmlns="http://www.w3.org/2000/svg" xmlns:xlink="http://www.w3.org/1999/xlink" x="0px"
	 y="0px" viewBox="0 0 135 135" style="enable-background:new 0 0 135 135;" xml:space="preserve">
<style type="text/css">
	.st0{fill:#179BAD;}
	.st1{fill:#094C55;}
	.st2{fill:#FDFDFD;}
	.st3{fill:#1718B1;}
	.st4{fill:#0E0E73;}
	.st5{fill:#1E497B;}
	.st6{fill:#012355;}
	.st7{fill:#D1D1E4;}
</style>
<g id="_Слой_1-2">
	<g>
		<path class="st0" d="M135,10.9v45.6c-1-1-2-2.1-3-3.1c-6.2-6.7-14.2-11.4-20.7-17.7l0,0c-3.7-6-7.4-12-14.9-13.9l0,0.1
			c-0.4-0.4-0.7-0.8-1.1-1.1c0-0.2-0.1-0.5-0.2-0.7c-4-5.6-7.5-11.6-13-16c1.6-1.5,3.7-1.1,5.7-1.2c9.9-0.4,19.8,0.7,29.6-0.9
			c6.4-1,11.7,1,15,7C133,9.9,133.6,11,135,10.9L135,10.9z"/>
		<path class="st1" d="M135,10.9c-1.4,0.1-2.1-1-2.6-2c-3.3-6-8.6-8.1-15-7c-9.8,1.6-19.8,0.6-29.6,0.9c-1.9,0.1-4-0.4-5.7,1.2
			c-0.5,0-1.1,0-1.6-0.1c0-0.2,0-0.5-0.1-0.8C71.9,1,63.3,1.5,54.8,3C42.9,3,31,2.8,19.2,3c-9.3,0.1-15,6-15,15.3
			c0,11.9,0,23.7,0.1,35.6c0,8.7,0,17.4,0,26.1C4.2,90.2,4.1,100.3,4,110.5c0,2.4,0.4,5.1-2.6,6.3C1.4,77.8,1.3,38.9,1.2,0H135V10.9
			L135,10.9z"/>
		<path class="st1" d="M132,53.3l3,3.1v24.8c-1.2,1.5-2.5,3-3,5c-6.7,5.9-15.2,9.8-19.7,18.2c-2.1,4-5.8,6.7-9.5,9.1
			c-6.5,4.2-10.1,10.5-13.7,17c-2.2,0.3-3.9,1.7-5.6,3.1c-8.3,0-16.6,0-24.8,0c-1-0.9-2.1-1.8-3.1-2.7c6.2,0,12.5-0.5,18.7,0
			c6.7,0.5,11-2.8,14.3-7.7c2.3-3.6,5.1-6.8,8.1-9.8c1-1,1.7-2,1.7-3.3c1.7-0.9,3.6-1.3,4.8-3c2.5-0.8,4.3-2.5,5.7-4.5
			c4.7-6.4,10.2-11.9,16.9-16.3c4.3-2.8,6.6-7,6.3-12.6C131.8,66.9,132,60.1,132,53.3L132,53.3z"/>
		<path class="st0" d="M83.6,133.6c1.7-1.4,3.4-2.7,5.6-3.1c9,0.1,18.1,0.2,27.1,0.2c9.9,0,15.6-5.6,15.7-15.5
			c0.1-9.7,0-19.4,0-29.1c0.5-1.9,1.8-3.4,3-5v38.6c-0.6,0.3-1,0.7,0,1v2c-4.2,3.7-7.3,8.7-12.9,10.8
			C109.3,133.6,96.4,133.6,83.6,133.6L83.6,133.6z"/>
		<path class="st2" d="M83.6,133.6c12.9,0,25.7,0,38.6,0c4.3,0.1,8.6,0.1,12.9,0.1c-0.9,2-2.7,0.9-3.9,0.9
			c-43.5,0.1-87,0.1-130.8,0.1V78.1c0-24.7,0-49.4,0.1-74.2c0-1.3-1.1-3.1,0.9-4c0.1,38.9,0.1,77.8,0.2,116.8c0,0.8,0,1.5,0,2.3
			c-0.2,4.9-0.5,9.7,0.1,14.6h13.6c14.5,0,29.1,0,43.6,0C67,133.6,75.3,133.6,83.6,133.6L83.6,133.6z"/>
		<path class="st1" d="M135,133.8c-4.3-0.1-8.6-0.1-12.9-0.1c5.5-2.1,8.7-7.1,12.9-10.8V133.8z"/>
		<path class="st1" d="M135,120.9c-1-0.3-0.6-0.7,0-1V120.9z"/>
		<path class="st3" d="M103.2,107c-1.2,1.7-3.1,2.1-4.8,3c-2.4-0.2-3-2.3-4.1-3.9c-1.4-2-3.2-2.3-5.1-1c-1.8,1.2-4.9,2.3-3.3,5.1
			c3,5.5,0.4,6.9-4.5,7.1c-0.7,0-1.4,0.6-2,0.9c-1.4-1-1.7-2.3-1.9-3.6c-0.5-3.9-3.3-3.8-6.2-3.8c-3.3,0-3.8,1.8-3.6,4.5
			c0.2,2.4-0.9,3.4-3.4,3.7c-4.3,0.4-6.2-1.1-5.5-5.5c0.5-3.1-1.3-4.2-4.2-4.7c-2.8-0.5-4.6-0.2-5.2,2.7c-0.9,4-2.8,4.3-6,2.2
			c-0.9-0.6-2.2-0.5-3.3-0.7c-0.4-0.3-0.8-0.6-1.1-0.8c-0.1-2.4,1.4-3.9,2.9-5.5c1.5-1.7,1.3-3.6-0.3-4.7c-1.8-1.2-3.5-4.1-6.3-1.9
			c-1.9,1.5-3.5,3.3-5.3,5c-1.7-2.7-4.6-4.4-5.8-7.5c1-2,2.7-3.3,4.6-4.2c2.4-1.2,2.5-2.7,1.2-4.8c-1.3-2.1-1.9-4.7-5.4-3.6
			c-1.5,0.5-2.6,2.2-4.4,1.9c-4.2-5.9-3.9-8.8,1.2-10.6c2.4-0.8,4.2-1.8,3.5-4.8c-0.6-2.9-1.9-4.3-5-4.1c-3.8,0.3-4.6-1.7-4.2-5.3
			c0.4-3.9,2.3-5,5.9-4.5c3.6,0.5,4.4-2.3,5.2-4.8c0.9-2.8-1.3-3.3-3.2-4c-3.5-1.2-4.1-3.3-2.3-6.5c0.6-1.1,1.7-2.1,1-3.6
			c0.2-0.3,0.5-0.6,0.8-1c1.7,0.2,3.2,0.9,4.4,2c2,1.7,3.9,3.1,6.1,0.1c1.8-2.5,3.1-4.6,0-7.2c-1.4-1.1-2.4-2.7-3.5-4.1
			c2.4-1.4,3.9-4,6.7-4.9c1.9-0.1,3,0.9,4,2.4c1.4,2.1,2.5,4.5,6.2,2.5c3.3-1.8,4-3.3,2.6-7c-2.1-5.1,3.4-4.2,5.5-5.4
			c2.5-1.4,3.9,0.7,3.7,3.3C58.3,23.8,61,24,64,23.7c3.2-0.3,5-1.9,4.2-5.2c-0.8-3.3,0.3-4.6,3.6-4.7c3.2-0.1,5.7,0.6,5.7,4.4
			c0,1.6-0.3,3.2-0.4,4.5c7.5,7.4,9-0.3,11.5-4.7c2.4,1.3,4.3,2.1,6.5,2c0.1,0.2,0.2,0.5,0.2,0.7c0.4,0.4,0.7,0.8,1.1,1.1l0-0.1
			c-0.2,1.1-0.1,2.4-0.6,3.3c-3.1,6.3-3.1,6.4,3.8,10.4c3.3-6.3,7-4.7,10.7-0.1c0.2,0.2,0.6,0.2,0.9,0.3l0,0c-0.2,1.7-0.7,3.3-2.5,4
			c-3.7,1.3-3.5,3.8-2,6.7c1.6,3.1,3.4,3.9,6.7,1.8c1.8-1.2,4.6-1.1,4.7,2.2c0,2.4,3.4,6.1-1.9,7.1c-2.2,0.4-5.1-0.1-4.5,3.5
			c0.4,2.8,0.4,5.7,5,5.7c5.4,0,3.3,4.7,3.5,7.6c0.2,3.6-2.4,3.3-4.8,2.6c-3-0.9-4.6,0-5.2,3.2c-0.6,2.9-0.5,4.9,3,5.3
			c1.9,0.2,3.1,1,2.9,3.2c-0.6,5.7-4.3,7.6-8.9,4.3c-0.7-0.5-1.2-1.2-2.2-0.8c-3.7,3-7.7,5.8-1.5,10.4
			C104.9,103.6,103.5,105.4,103.2,107L103.2,107z M55.1,104.4C40.9,96.8,31,86.2,29.8,69.5c-1.1-15.2,6.8-30.2,21.7-37.2
			c20.8-9.8,44-0.5,52.4,20.9c4,10.4,3.8,21-1.7,31c-10,18.2-26.3,22.9-46.9,20.1c7.2,6,28.4,4.2,40.4-7.1c13.6-12.8,17.3-34.6,8-51
			c-9.9-17.4-31.5-25.5-50.2-18c-17.7,7-29.2,23.3-26.3,44.8C29.1,87.9,41.2,103.1,55.1,104.4L55.1,104.4z M52.1,70.9
			c-5.5,0-10.9,4.8-10.9,9.8c0.1,6.5,5.2,12.6,10.5,12.4c5.4-0.2,10.9-5.9,11-11.5C62.7,75.8,58,71,52.1,70.9z M68.2,62.8
			c6-0.1,10.4-4.7,10.3-10.8S74,41.5,67.8,41.6c-6.1,0.1-10.5,4.6-10.4,10.8C57.5,58.3,62.2,62.9,68.2,62.8L68.2,62.8z M94.4,81.3
			c0-6.2-4.4-10.5-10.5-10.4c-6,0.1-10.4,4.6-10.4,10.7c0,5.3,5.6,11.7,10.1,11.4C89.6,92.8,94.4,87.5,94.4,81.3L94.4,81.3z"/>
		<path class="st4" d="M103.2,107c0.2-1.6,1.7-3.4,0.1-4.6c-6.2-4.6-2.3-7.4,1.5-10.4c1-0.3,1.6,0.4,2.2,0.8
			c4.6,3.2,8.3,1.4,8.9-4.3c0.2-2.2-1-3-2.9-3.2c-3.5-0.4-3.6-2.4-3-5.3c0.7-3.2,2.2-4.2,5.2-3.2c2.4,0.7,5,1.1,4.8-2.6
			c-0.1-2.9,1.9-7.6-3.5-7.6c-4.6,0-4.6-2.9-5-5.7c-0.6-3.6,2.3-3.1,4.5-3.5c5.2-1,1.9-4.7,1.9-7.1c0-3.2-2.9-3.3-4.7-2.2
			c-3.2,2.1-5.1,1.3-6.7-1.8c-1.5-2.9-1.7-5.3,2-6.7c1.8-0.7,2.3-2.2,2.5-4c6.6,6.3,14.5,11,20.7,17.7c0,6.8-0.3,13.5,0.1,20.3
			c0.3,5.6-2,9.8-6.3,12.6c-6.7,4.4-12.2,9.8-16.9,16.3C107.5,104.5,105.7,106.3,103.2,107L103.2,107z"/>
		<path class="st4" d="M95.1,20c-2.2,0.2-4.1-0.7-6.5-2c-2.6,4.3-4.1,12.1-11.5,4.7c0.1-1.2,0.4-2.9,0.4-4.4c0-3.8-2.4-4.5-5.7-4.4
			c-3.3,0.1-4.4,1.3-3.6,4.7c0.8,3.3-1,4.9-4.2,5.2c-3.1,0.3-5.7,0.1-5.4-4.2c0.2-2.6-1.2-4.7-3.7-3.3c-2.1,1.2-7.6,0.3-5.5,5.4
			c1.5,3.6,0.7,5.1-2.6,6.9c-3.6,2-4.8-0.4-6.2-2.5c-1-1.5-2.1-2.5-4-2.4c3.7-4,6.7-8.4,10-12.7c2.2-2.9,4.7-5.5,8-7.2
			c0.3,0.1,0.6,0.1,0.9,0.1c8.3,0,16.7,0,25,0c0.5,0,1.1,0,1.6,0.1C87.6,8.4,91.1,14.4,95.1,20L95.1,20z"/>
		<path class="st4" d="M111.3,35.7c-0.3-0.1-0.8-0.1-0.9-0.3c-3.7-4.6-7.3-6.2-10.7,0.1c-7-4-7-4.1-3.8-10.4c0.5-1,0.4-2.2,0.6-3.3
			C103.9,23.7,107.6,29.6,111.3,35.7L111.3,35.7z"/>
		<path class="st4" d="M96.4,21.8c-0.4-0.4-0.7-0.8-1.1-1.1C95.7,21.1,96.1,21.4,96.4,21.8z"/>
		<path class="st0" d="M24,97.4c1.1,3.1,4.1,4.9,5.8,7.5c2.4,3.1,5,6.1,9.1,7.1c0.4,0.3,0.8,0.6,1.1,0.8c4.2,6.9,8.5,13.6,15.6,18
			c1,0.9,2.1,1.8,3.1,2.7c-14.5,0-29.1,0-43.6,0c-6.4-2.6-12-5.9-12.5-13.8c0-0.3-0.8-0.5-1.2-0.8c0-0.8,0-1.5,0-2.3
			c3-1.2,2.6-3.9,2.6-6.3c0.1-10.2,0.1-20.3,0.2-30.5C9.4,87.4,17.5,91.5,24,97.4L24,97.4z"/>
		<path class="st0" d="M54.7,3.8c-3.3,1.7-5.9,4.3-8,7.2c-3.2,4.3-6.3,8.8-10,12.7c-2.8,0.8-4.3,3.4-6.7,4.9c-3.1,2.4-6.1,5-7.1,9.1
			c-0.2,0.3-0.5,0.6-0.8,1C15.5,43,9,47.4,4.2,53.9c0-11.9-0.1-23.7-0.1-35.6C4.2,9,9.9,3.1,19.2,3C31,2.8,42.9,3,54.8,3
			C54.7,3.2,54.7,3.5,54.7,3.8L54.7,3.8z"/>
		<path class="st4" d="M4.2,53.9c4.8-6.5,11.3-11,18-15.2c0.7,1.5-0.4,2.5-1,3.6c-1.8,3.2-1.2,5.2,2.3,6.5c1.8,0.7,4.1,1.2,3.2,4
			c-0.8,2.5-1.6,5.3-5.2,4.8C17.9,57,16,58,15.6,62c-0.4,3.6,0.4,5.6,4.2,5.3c3.1-0.2,4.4,1.2,5,4.1c0.6,3.1-1.1,4-3.5,4.8
			c-5.1,1.8-5.4,4.7-1.2,10.6c1.8,0.2,2.8-1.4,4.4-1.9c3.5-1.1,4.1,1.5,5.4,3.6c1.3,2.1,1.2,3.6-1.2,4.8c-1.9,0.9-3.6,2.2-4.6,4.2
			c-6.5-5.9-14.6-10-19.8-17.3C4.2,71.3,4.2,62.6,4.2,53.9L4.2,53.9z"/>
		<path class="st5" d="M54.7,3.8c0-0.3,0.1-0.5,0.1-0.8c8.6-1.5,17.2-2,25.7,0.2c-8.3,0.2-16.7-1.3-24.9,0.8
			C55.3,3.9,55,3.9,54.7,3.8L54.7,3.8z"/>
		<path class="st6" d="M55.5,3.9c8.2-2,16.6-0.6,24.9-0.8c0,0.3,0,0.5,0.1,0.8C72.2,3.9,63.9,3.9,55.5,3.9L55.5,3.9z"/>
		<path class="st0" d="M132,86.2c0,9.7,0,19.4,0,29.1c-0.1,9.9-5.8,15.5-15.7,15.5c-9,0-18.1-0.1-27.1-0.2c3.5-6.5,7.1-12.9,13.7-17
			c3.7-2.4,7.4-5.1,9.5-9.1C116.9,96.1,125.4,92.1,132,86.2L132,86.2z"/>
		<path class="st4" d="M55.6,130.9c-7-4.4-11.4-11.1-15.6-18c1.1,0.2,2.4,0.2,3.3,0.7c3.1,2.1,5.1,1.8,6-2.2
			c0.6-2.8,2.5-3.2,5.2-2.7c3,0.5,4.7,1.6,4.2,4.7c-0.7,4.5,1.2,5.9,5.5,5.5c2.5-0.2,3.6-1.2,3.4-3.7c-0.2-2.6,0.3-4.5,3.6-4.5
			c2.9,0,5.7-0.1,6.2,3.8c0.2,1.3,0.4,2.6,1.9,3.6c0.6-0.3,1.3-0.8,2-0.9c4.9-0.2,7.5-1.6,4.5-7.1c-1.5-2.8,1.5-3.9,3.3-5.1
			c1.9-1.3,3.8-1,5.1,1c1.1,1.6,1.7,3.7,4.1,3.9c-0.1,1.4-0.7,2.3-1.7,3.3c-3,3-5.8,6.2-8.1,9.8c-3.2,5-7.6,8.2-14.3,7.7
			C68.1,130.4,61.8,130.9,55.6,130.9L55.6,130.9z"/>
		<path class="st1" d="M1.4,119c0.4,0.3,1.1,0.5,1.2,0.8c0.5,7.9,6.1,11.2,12.5,13.8c-4.4,0-8.9,0-13.6,0
			C0.9,128.8,1.2,123.9,1.4,119L1.4,119z"/>
		<path class="st4" d="M55.1,104.4C41.2,103,29.1,87.8,27.2,73c-2.9-21.5,8.6-37.8,26.3-44.8c18.8-7.4,40.3,0.6,50.2,18
			c9.3,16.4,5.6,38.2-8,51c-12,11.3-33.2,13-40.4,7.1c20.5,2.8,36.9-1.8,46.9-20.1c5.4-10,5.7-20.6,1.7-31
			c-8.3-21.5-31.6-30.7-52.4-20.9c-15,7-22.8,22-21.7,37.2C31,86.2,40.9,96.8,55.1,104.4L55.1,104.4z"/>
		<path class="st7" d="M52.1,70.9c5.9,0,10.6,4.8,10.6,10.7c-0.1,5.5-5.6,11.3-11,11.5c-5.3,0.2-10.5-5.9-10.5-12.4
			C41.1,75.8,46.5,70.9,52.1,70.9z M59.7,81.8c0-3.8-4-8.3-7.6-8.3c-3.9,0-8.2,4.1-8.2,7.8c0,4.4,3.7,8,8.3,7.9
			C56.5,89.2,59.7,86,59.7,81.8z"/>
		<path class="st7" d="M68.2,62.8c-6,0.1-10.7-4.5-10.8-10.4c-0.1-6.1,4.3-10.7,10.4-10.8C74,41.5,78.5,45.9,78.6,52
			S74.2,62.7,68.2,62.8L68.2,62.8z M75.6,52c0-4.5-3.3-7.6-7.9-7.5c-4.5,0.1-7.7,3.4-7.7,7.9c0,3.7,4.4,7.9,8.1,7.8
			C72.3,60.2,75.7,56.5,75.6,52L75.6,52z"/>
		<path class="st7" d="M94.4,81.3c0,6.1-4.8,11.4-10.8,11.8c-4.5,0.2-10.1-6.1-10.1-11.4c-0.1-6.1,4.3-10.7,10.4-10.7
			C90,70.8,94.3,75.1,94.4,81.3L94.4,81.3z M84,89.2c4.4,0,8.2-3.4,8.2-7.5c0-3.9-4.2-8.3-7.8-8.3c-4.2,0-7.8,3.6-7.9,7.9
			C76.3,85.8,79.5,89.2,84,89.2z"/>
		<path class="st4" d="M38.9,112.1c-4-1.1-6.6-4-9-7.1c1.8-1.7,3.4-3.5,5.3-5c2.8-2.3,4.5,0.6,6.3,1.9c1.7,1.1,1.9,3.1,0.3,4.7
			C40.3,108.1,38.8,109.7,38.9,112.1L38.9,112.1z"/>
		<path class="st4" d="M22.9,37.7c1-4.1,4-6.7,7.1-9.1c1.2,1.4,2.2,2.9,3.5,4.1c3,2.5,1.8,4.7,0,7.2c-2.2,3-4.1,1.6-6.1-0.1
			C26.1,38.6,24.6,37.9,22.9,37.7L22.9,37.7z"/>
		<path class="st2" d="M59.7,81.8c0,4.2-3.2,7.4-7.5,7.4c-4.6,0-8.3-3.5-8.3-7.9c0-3.7,4.3-7.8,8.2-7.8C55.7,73.5,59.8,78,59.7,81.8
			z"/>
		<path class="st2" d="M75.6,52c0,4.5-3.3,8.2-7.5,8.2c-3.8,0-8.1-4.2-8.1-7.8c0-4.5,3.2-7.8,7.7-7.9C72.3,44.4,75.6,47.6,75.6,52
			L75.6,52z"/>
		<path class="st2" d="M84,89.2c-4.5,0-7.7-3.4-7.5-8c0.1-4.3,3.7-7.9,7.9-7.9c3.6,0,7.8,4.5,7.8,8.3C92.2,85.9,88.4,89.3,84,89.2z"
			/>
	</g>
</g>
</svg>
