<?xml version="1.0" encoding="utf-8"?>
<!-- Generator: Adobe Illustrator 28.1.0, SVG Export Plug-In . SVG Version: 6.00 Build 0)  -->
<svg version="1.1" id="_Слой_2" xmlns="http://www.w3.org/2000/svg" xmlns:xlink="http://www.w3.org/1999/xlink" x="0px"
	 y="0px" viewBox="0 0 135 135" style="enable-background:new 0 0 135 135;" xml:space="preserve">
<style type="text/css">
	.st0{fill:#179BAD;}
	.st1{fill:#0A4952;}
	.st2{fill:#FCFCFC;}
	.st3{fill:#B01818;}
	.st4{fill:#6E0E0E;}
	.st5{fill:#44444B;}
	.st6{fill:#2B292F;}
	.st7{fill:#E2D1D1;}
</style>
<g id="_Слой_1-2">
	<g>
		<path class="st0" d="M135,12.1v45.6c-1.3-0.8-1.6-2.7-3.2-3.1c-5.6-7.3-14.2-11.3-20.5-17.9c-1.3-2.2-2.6-4.4-4.7-5.8
			c-2-3.9-5.1-6.5-9.3-7.8c-0.9-0.6-1.9-1.2-2.8-1.8c-3-6.7-7.4-12.3-13.6-16.3c-0.1-0.3-0.2-0.6-0.3-0.8c-0.6-0.3-1.1-0.9-1.7-0.9
			c-7.1-0.1-14.1-0.1-21.2-0.2c-1.4,0-2.6,0.4-3,2c-7.8,5-12,13.3-18,19.9c-2.4,0.7-3.7,3-5.7,4.2c-3.9,2.2-6.5,5.5-8,9.7l0,0
			c-6.5,4.7-13.4,9-18,15.8c-0.3-0.9-0.8-1.8-0.8-2.8c0-11.5,0-23.1,0-34.6c0-3.3,1.5-6,3.7-8.4c3.6-3.8,7.9-5.7,13.2-5.6
			c9.7,0.1,19.3,0,29,0c-7.7-1.1-15.5-1-23.2-1.2c-4.2-0.1-8.6,0.9-12.7-0.8c36,0,71.9,0,107.9,0c2.9,2.4,6.8,3.2,9,6.7
			C132.1,9.7,132.6,11.9,135,12.1L135,12.1z"/>
		<path class="st0" d="M58.7,135H12.1c-3.9-4-8.6-7.4-10.8-12.9c0-12.9,0-25.8,0-38.7c1.4-0.1,1.9-1.4,2.9-2.1
			C9.5,88.7,17.3,93,24.1,98.5c1.3,2.2,2.4,4.4,4.7,5.8c2.4,5.5,7.6,7.8,12.2,10.8v0c3,7.2,8.2,12.6,14.6,17
			C56.6,133.1,57.7,134,58.7,135L58.7,135z"/>
		<path class="st1" d="M58.7,135c-1-1-2.1-1.9-3.1-2.9c7.1,0,14.2,0,21.3-0.1c1.6,0,3.2,0.1,4.7-0.9c7.3-5.2,11.5-13,16.9-19.8
			c2.7-1.1,5.2-2.4,6.8-4.9c3.7-2.4,6.5-5.7,8.2-9.8l0,0c1.2-0.2,1.9-0.8,1.9-2.1l0,0c5.8-2.6,10.7-6.5,14.8-11.3
			c1.3-1.5,2-3.3,1.9-5.4c-0.1-7.7-0.2-15.4-0.2-23.1c1.6,0.5,2,2.3,3.2,3.1v24.8c-1.4,1.8-2.6,3.6-3.1,5.8c-6.7,4.6-14,8.6-18.4,16
			c-2.6,4.3-6.3,7.7-10.5,10.4c-6.5,4.2-10.3,10.5-13.8,17.1c-2.2,0.5-4,1.8-5.7,3.3L58.7,135L58.7,135z"/>
		<path class="st0" d="M83.5,135c1.7-1.5,3.4-2.8,5.7-3.3c9.4,0.1,18.8,0.3,28.1,0.3c8.4,0,14.5-5.7,14.6-14.1
			c0.2-9.9,0-19.8-0.1-29.6c0.5-2.2,1.8-4,3.1-5.8v41.6c-3.6,3.6-7.3,7.3-10.9,10.9H83.5z"/>
		<path class="st2" d="M1.4,83.4c0,12.9,0,25.8,0,38.7c0,4.3-0.1,8.6-0.1,12.9c-2-0.9-0.9-2.7-0.9-3.9C0.2,87.5,0.2,44,0.2,0.2h56.6
			c24.7,0,49.4,0,74.2,0.1c1.3,0,3.1-1.1,3.9,0.9c-4.3,0-8.6,0.1-12.9,0.1c-36,0-71.9,0-107.9,0c-4.2,0-8.4,0-12.8,0L1.4,83.4
			L1.4,83.4z"/>
		<path class="st1" d="M122.1,1.4c4.3,0,8.6-0.1,12.9-0.1v10.9c-2.4-0.3-3-2.4-3.9-4C128.9,4.6,125,3.7,122.1,1.4z"/>
		<path class="st1" d="M1.2,135c0-4.3,0.1-8.6,0.1-12.9c2.2,5.4,6.8,8.9,10.8,12.9H1.2z"/>
		<path class="st1" d="M124.1,135c3.6-3.6,7.3-7.3,10.9-10.9V135H124.1z"/>
		<path class="st3" d="M105.2,106.3c-1.6,2.5-4.1,3.8-6.8,4.9c-1.4-0.2-2.5-0.8-3.1-2.2c-1.3-3-2.8-4.6-6.4-2.6
			c-3.8,2.1-3.7,4.4-1.7,7.6c0.6,0.9,1.1,2.1,0.4,3.5c-2.9,0.7-6,1.5-9.3,2.3c-1.4-2.5-0.2-5.8-2.6-7.7c-4.2,0.1-9.2-1-8.2,6.1
			c0.2,1.3-1,2.1-2.3,2c-2.5-0.1-5.2,0.9-7.8-1.2c0.4-1.6,1-3.1,1.2-4.7c0.3-2.1-0.5-3.6-2.7-4c-1.9-0.3-4.8-2.3-5.5,0.8
			c-1.5,6.1-5.5,4.6-9.5,3.9v0c-0.5-2.2-3-4.4,0.2-6.8c2.8-2.1,1.4-4.1-0.7-6c-2-1.9-4-3-6.2-0.4c-1.5,1.7-3.2,2.7-5.5,2.4
			c-2.3-1.4-3.4-3.6-4.7-5.8c0.6-1.6,1.8-2.9,3.3-3.5c2.9-1.2,4.2-2.3,2.3-5.8c-1.9-3.3-3.7-4.3-6.9-2.2C22,87.5,21,87.7,20,88.1
			c-2.2-2.5-3.1-5.5-2.6-8.3c0.6-3.6,5.4-1.6,7.5-4.8c-1.6-1.9,1.1-6.7-4.6-6.5c-2.4,0.1-5.4,0.5-4.8-3.6c0.5-3.2,0.1-7.5,5.7-6.2
			c1,0.2,2.2,0.9,3.3,0.1c2.7-5.9,3-7.5,1.2-7.9c-8.9-2.1-5.8-6.8-2.7-11.6c0.1-0.1,0-0.3,0.1-0.5l0,0c1.7,0.2,3.2,0.9,4.4,2
			c2.3,2.2,4.2,2.6,6.5-0.3c2.2-2.7,2.7-4.7-0.5-6.9c-1.6-1-2.5-2.6-2.5-4.6c2-1.2,3.3-3.5,5.7-4.2c1.7,0.1,3.2,0.3,4.1,2.1
			c1,2.3,2,4.8,5.4,3c3-1.6,5.7-2.9,3.3-7.4c-2.1-3.9,2.1-4.6,4.3-5.5c2.5-0.9,5.2-0.5,4.9,3.3c-0.3,3.5,1.3,4.5,4.7,4.5
			c3.6-0.1,4.5-1.9,4.3-5c-0.1-2.5-0.4-5.5,3.6-4.7c3.1,0.6,7.5,0.2,6.3,5.8c-0.2,1.1-0.9,2.2,0,3.6c2.7,0.1,6.4,5.3,8.3-0.1
			c2-5.4,4.4-5.5,8.5-3.3c0.9,0.6,1.9,1.2,2.8,1.8c-0.3,0.9-0.4,2-0.9,2.8c-2.4,4.3-1.4,7.8,3,10.4c2.9-1.1,3.6-5.2,7.2-5.4
			c2.2,1.4,3.4,3.7,4.7,5.8c0.5,4.2-4,4.4-5.5,6.9c1.5,6.6,1.9,6.9,8.1,5.5c4.1-1,3.9,2.3,4.7,4.7c0.9,2.7,0.7,4.6-2.7,4.8
			c-2.2,0.1-4.8,0.2-4.1,3.3c0.6,2.7-0.7,7.3,4.9,6.6c1.5-0.2,3.3-0.1,3.5,1.9c0.2,2.4,1,5.1-0.6,7.2c-1.2,1.6-3.1,0.4-4.5-0.3
			c-2.4-1.1-4.1-0.4-4.4,2.1c-0.3,2.3-3.1,5.8,0.9,6.7c6,1.2,5.4,4.3,3.8,8.4l0,0c-1.4,0-1.9,0.8-1.9,2.1l0,0
			c-3.5,0.5-5.6-2.4-8.4-3.3c-4,3.4-4.3,7-1,10.6C104.6,104.4,104.8,105.4,105.2,106.3L105.2,106.3z M27,68.1
			c-0.3,23,18.5,41.1,41,41.1c22.6,0,40.9-17.4,41.1-40.7c0.2-23.6-18.5-41.7-41.7-41.6C46.5,26.9,26.1,45.6,27,68.1L27,68.1z"/>
		<path class="st4" d="M23,38.8c0,0.2,0,0.4-0.1,0.5c-3.1,4.8-6.2,9.4,2.7,11.6c1.8,0.4,1.5,2-1.2,7.9c-1.1,0.8-2.2,0.2-3.3-0.1
			c-5.6-1.3-5.1,3-5.7,6.2c-0.7,4.1,2.3,3.6,4.8,3.6c5.7-0.1,3,4.6,4.6,6.5c-2.1,3.2-6.9,1.2-7.5,4.8c-0.5,2.8,0.4,5.8,2.6,8.3
			c1-0.4,2-0.6,2.8-1.1c3.2-2.1,5-1.2,6.9,2.2c2,3.5,0.6,4.6-2.3,5.8c-1.5,0.6-2.7,1.9-3.3,3.5C17.3,93,9.5,88.7,4.3,81.3
			c0.2-8.9-1-17.8,0.7-26.7C9.6,47.8,16.5,43.5,23,38.8z"/>
		<path class="st4" d="M115.2,94.4c1.6-4.1,2.2-7.2-3.8-8.4c-4-0.8-1.2-4.4-0.9-6.7c0.3-2.4,2-3.2,4.4-2.1c1.4,0.7,3.3,1.9,4.5,0.3
			c1.6-2.1,0.8-4.8,0.6-7.2c-0.2-1.9-2-2.1-3.5-1.9c-5.6,0.7-4.3-3.9-4.9-6.6c-0.7-3.2,1.9-3.2,4.1-3.3c3.4-0.2,3.6-2.2,2.7-4.8
			c-0.8-2.4-0.5-5.7-4.7-4.7c-6.2,1.4-6.6,1.2-8.1-5.5c1.5-2.5,6-2.7,5.5-6.9c6.3,6.6,14.9,10.5,20.5,17.9
			c0.1,7.7,0.1,15.4,0.2,23.1c0,2.1-0.7,3.9-1.9,5.4C125.9,88,121,91.8,115.2,94.4L115.2,94.4z"/>
		<path class="st4" d="M94.3,21.4c-4.1-2.2-6.5-2.1-8.5,3.3c-2,5.3-5.6,0.2-8.3,0.1c-0.9-1.5-0.2-2.6,0-3.6c1.2-5.6-3.2-5.1-6.3-5.8
			c-4-0.8-3.7,2.2-3.6,4.7c0.1,3.1-0.7,5-4.3,5c-3.3,0.1-4.9-0.9-4.7-4.5c0.3-3.8-2.4-4.2-4.9-3.3c-2.3,0.8-6.4,1.6-4.3,5.5
			c2.4,4.5-0.3,5.8-3.3,7.4c-3.4,1.8-4.4-0.7-5.4-3c-0.8-1.9-2.4-2.1-4.1-2.1c6.1-6.5,10.3-14.8,18-19.9l0.5,0.1h0.5
			C64,5.1,72.4,5.1,80.8,5.1C86.9,9.1,91.3,14.7,94.3,21.4z"/>
		<path class="st1" d="M5,54.6c-1.7,8.9-0.5,17.8-0.7,26.7c-1,0.7-1.5,2-2.9,2.1c0-27.2,0-54.5,0-82.1c4.4,0,8.6,0,12.8,0
			c4.1,1.7,8.5,0.7,12.7,0.8c7.7,0.2,15.4,0,23.2,1.2c-9.7,0-19.3,0.1-29,0c-5.3-0.1-9.6,1.8-13.2,5.6c-2.2,2.3-3.7,5.1-3.7,8.4
			c-0.1,11.5-0.1,23.1,0,34.6C4.1,52.8,4.7,53.7,5,54.6L5,54.6z"/>
		<path class="st4" d="M31,29.2c0,2,0.9,3.5,2.5,4.6c3.2,2.1,2.6,4.2,0.5,6.9c-2.3,2.9-4.2,2.5-6.5,0.3c-1.2-1.2-2.7-1.8-4.4-2
			C24.5,34.7,27.1,31.4,31,29.2z"/>
		<path class="st4" d="M106.5,30.9c-3.6,0.2-4.2,4.4-7.2,5.4c-4.4-2.7-5.4-6.1-3-10.4c0.5-0.8,0.6-1.9,0.9-2.8
			C101.4,24.4,104.5,27,106.5,30.9L106.5,30.9z"/>
		<path class="st5" d="M55.6,5.2h-0.5l-0.5-0.1c0.4-1.6,1.5-2,3-2c7.1,0,14.1,0.1,21.2,0.2c0.6,0,1.1,0.6,1.7,0.9
			c-3.1,0-6.2-0.2-9.3,0C66,4.6,60.7,3.1,55.6,5.2L55.6,5.2z"/>
		<path class="st6" d="M55.6,5.2C60.7,3.1,66,4.6,71.1,4.2c3.1-0.2,6.2,0,9.3,0c0.1,0.3,0.2,0.6,0.3,0.8C72.4,5.1,64,5.1,55.6,5.2
			L55.6,5.2z"/>
		<path class="st4" d="M41,115.1c4,0.7,8,2.1,9.5-3.9c0.8-3.1,3.6-1.1,5.5-0.8c2.2,0.3,3,1.9,2.7,4c-0.2,1.6-0.8,3.1-1.2,4.7
			c2.5,2.1,5.2,1.1,7.8,1.2c1.3,0.1,2.5-0.7,2.3-2c-0.9-7.1,4-6,8.2-6.1c2.4,2,1.2,5.3,2.6,7.7c3.3-0.8,6.4-1.6,9.3-2.3
			c0.7-1.4,0.2-2.5-0.4-3.5c-2-3.1-2.1-5.5,1.7-7.6c3.6-1.9,5.1-0.3,6.4,2.6c0.6,1.3,1.7,1.9,3.1,2.2c-5.3,6.8-9.6,14.6-16.9,19.8
			c-1.5,1.1-3.1,0.9-4.7,0.9c-7.1,0.1-14.2,0.1-21.3,0.1C49.2,127.7,44,122.3,41,115.1L41,115.1z"/>
		<path class="st4" d="M28.7,104.3c2.3,0.3,4.1-0.7,5.6-2.4c2.2-2.6,4.2-1.5,6.2,0.4c2,1.9,3.5,3.9,0.7,6c-3.2,2.4-0.6,4.5-0.2,6.8
			C36.3,112.2,31.2,109.8,28.7,104.3L28.7,104.3z"/>
		<path class="st0" d="M131.9,88.3c0.1,9.9,0.3,19.8,0.1,29.6c-0.2,8.4-6.3,14.1-14.6,14.1c-9.4,0-18.8-0.2-28.1-0.3
			c3.5-6.6,7.4-12.8,13.8-17.1c4.2-2.7,7.9-6.1,10.5-10.4C117.9,96.9,125.1,92.9,131.9,88.3z"/>
		<path class="st4" d="M105.2,106.3c-0.4-0.9-0.6-1.9-1.2-2.6c-3.3-3.6-3-7.1,1-10.6c2.8,1,5,3.9,8.4,3.3
			C111.7,100.7,109,103.9,105.2,106.3z"/>
		<path class="st4" d="M113.3,96.5c0-1.3,0.5-2.1,1.9-2.1C115.2,95.7,114.6,96.4,113.3,96.5z"/>
		<path class="st4" d="M27,68.1c-0.9-22.5,19.5-41.2,40.4-41.2c23.2-0.1,41.9,18,41.7,41.6c-0.2,23.3-18.5,40.7-41.1,40.7
			C45.4,109.2,26.7,91.1,27,68.1L27,68.1z M68.1,106.3c20.5,0.9,38.9-17.7,38.2-38.1C105.6,46.4,90.2,30,67.7,29.9
			c-21.1-0.1-37.3,16.8-38,38C29.1,87.5,46.4,107.2,68.1,106.3z"/>
		<path class="st3" d="M68.1,106.3c-21.7,0.9-39-18.8-38.4-38.4c0.7-21.2,16.9-38.1,38-38c22.5,0.1,37.9,16.4,38.6,38.3
			C107,88.7,88.6,107.2,68.1,106.3z M78.6,53.6c0.1-6.2-4.2-10.7-10.3-10.8c-6.1-0.1-10.7,4.3-10.8,10.4c-0.1,6,4.5,10.8,10.4,10.9
			C73.8,64.2,78.5,59.6,78.6,53.6z M52.2,93.3c6-0.1,10.6-5,10.4-10.8c-0.2-5.9-4.9-10.4-11-10.3C45.8,72.3,41,77.3,41.1,83
			C41.3,88.9,46.2,93.5,52.2,93.3L52.2,93.3z M94.4,82.8c0-6.4-4.1-10.6-10.3-10.6c-6.1,0-10.5,4.3-10.6,10.5
			c0,6.1,4.4,10.6,10.5,10.6C90.2,93.4,94.4,89.2,94.4,82.8z"/>
		<path class="st7" d="M78.6,53.6c-0.1,6-4.8,10.6-10.7,10.5c-5.9-0.1-10.5-4.9-10.4-10.9c0.1-6.1,4.7-10.5,10.8-10.4
			C74.3,42.9,78.6,47.4,78.6,53.6z M60,53.7c0,3.7,4.5,7.9,8.2,7.8c4.2-0.1,7.5-3.8,7.4-8.3c-0.1-4.3-3.2-7.4-7.4-7.5
			C63.4,45.7,60,49,60,53.7z"/>
		<path class="st7" d="M52.2,93.3c-6,0.1-10.9-4.5-11-10.3c-0.2-5.7,4.7-10.7,10.5-10.8c6-0.1,10.8,4.4,11,10.3
			C62.8,88.4,58.2,93.2,52.2,93.3L52.2,93.3z M59.7,82.9c0.1-3.6-4-8.1-7.7-8.3c-3.6-0.2-8.1,4.2-8.1,8c0,4.5,3.2,7.7,7.8,7.9
			C56.1,90.6,59.6,87.4,59.7,82.9L59.7,82.9z"/>
		<path class="st7" d="M94.4,82.8c0,6.3-4.2,10.6-10.4,10.5c-6.1,0-10.5-4.5-10.5-10.6c0-6.2,4.4-10.6,10.6-10.5
			C90.3,72.3,94.4,76.5,94.4,82.8z M84.3,90.5c4.3-0.1,8-3.7,7.9-7.7c-0.1-4.2-4.3-8.2-8.4-8c-4.3,0.2-7.3,3.5-7.3,8.2
			C76.5,87.4,79.8,90.6,84.3,90.5L84.3,90.5z"/>
		<path class="st2" d="M60,53.7c0-4.7,3.4-8,8.2-8c4.2,0.1,7.4,3.2,7.4,7.5c0.1,4.5-3.3,8.2-7.4,8.3C64.5,61.6,60,57.4,60,53.7z"/>
		<path class="st2" d="M59.7,82.9c-0.2,4.5-3.6,7.7-8,7.6c-4.6-0.2-7.8-3.4-7.8-7.9c0-3.7,4.5-8.1,8.1-8
			C55.7,74.8,59.9,79.3,59.7,82.9L59.7,82.9z"/>
		<path class="st2" d="M84.3,90.5c-4.5,0.1-7.8-3.1-7.8-7.5c0-4.7,3-8.1,7.3-8.2c4.2-0.2,8.3,3.8,8.4,8
			C92.3,86.8,88.6,90.4,84.3,90.5L84.3,90.5z"/>
	</g>
</g>
</svg>
