<?xml version="1.0" encoding="utf-8"?>
<!-- Generator: Adobe Illustrator 28.1.0, SVG Export Plug-In . SVG Version: 6.00 Build 0)  -->
<svg version="1.1" id="_Слой_2" xmlns="http://www.w3.org/2000/svg" xmlns:xlink="http://www.w3.org/1999/xlink" x="0px"
	 y="0px" viewBox="0 0 135 135" style="enable-background:new 0 0 135 135;" xml:space="preserve">
<style type="text/css">
	.st0{fill:#179BAD;}
	.st1{fill:#0A4854;}
	.st2{fill:#FEFEFE;}
	.st3{fill:#AE16AF;}
	.st4{fill:#710E72;}
	.st5{fill:#E0D4E0;}
</style>
<g id="_Слой_1-2">
	<g>
		<path class="st0" d="M135,12.1v2c-0.7,0.3-0.6,0.7,0,1v42.6c-1-1.1-2.1-2.2-3.1-3.3l0.1-0.1c-0.2-1-0.9-1.5-1.8-1.9
			c-6.2-5.5-13.7-9.6-18.9-16.2c-1.3-1.4-2.6-2.8-3.9-4.3c-0.3-0.4-0.7-0.7-1-1l0.1,0c-2.8-3.3-5.1-7.2-10-7.6
			c-0.2-0.2-0.4-0.3-0.7-0.4c-2.7-8.2-8.9-13.5-15.2-18.8c0-0.9,0-1.8,0-2.8c13.6,0,27.1,0,40.7,0c4.1,1.7,8,3.6,10.6,7.5
			C132.6,10.2,132.9,12.1,135,12.1L135,12.1z"/>
		<path class="st0" d="M57.7,135H15.1c-6.2-2.6-11.4-6.3-13.7-12.9c0-12.9,0-25.8,0-38.7c1.4-0.2,2-1.5,3-2.2
			C9.5,88.7,18.2,92.4,24,99.1c1.7,2.1,3.3,4.1,5,6.2c2.4,3.8,5.6,6.6,9.9,7.9c0.6,0.4,1.2,0.8,1.8,1.2c0.4,1.4,0,3.1,1.2,4.2
			c5.1,4.5,8.3,11,14.7,14.2C57,133.5,57.4,134.3,57.7,135L57.7,135z"/>
		<path class="st1" d="M57.7,135c-0.4-0.7-0.7-1.4-1.1-2.2c5,0,9.9-0.3,14.8,0c7.4,0.4,13.2-2.2,17-8.6c3.6-6.1,8.3-10.9,14.2-14.8
			c4.3-2.9,8.2-6.6,9.8-11.9c0.5-0.7,1.1-1.4,1.6-2.2c1,0.1,1.7-0.1,1.6-1.3c0.1-0.2,0.2-0.4,0.3-0.6c11.2-4.8,15.9-11.6,15.9-23.2
			c0-5.3-0.1-10.5-0.1-15.8c1,1.1,2.1,2.2,3.1,3.3v25.8c-1.7,0.8-2.3,2.4-3,4c-2.4,1.9-4.9,3.8-7.3,5.8c-2.8,2.2-6.4,3.7-8.3,6.8
			c-3.1,5.4-7.1,10-12.1,13.4c-7.1,4.8-11.2,11.8-16,18.4c-1.2,1.1-3.3,1.1-3.9,3.1L57.7,135L57.7,135z"/>
		<path class="st2" d="M1.4,83.4c0,12.9,0,25.8,0,38.7c0,4.3-0.1,8.6-0.1,12.9c-2-0.9-0.9-2.7-0.9-3.9C0.2,87.5,0.2,44,0.2,0.2h56.6
			c24.7,0,49.4,0,74.2,0.1c1.3,0,3.1-1.1,3.9,0.9c-4.6,0-9.2,0.1-13.8,0.1c-13.6,0-27.1,0-40.7,0c-26.3,0-52.7,0-79.1,0L1.4,83.4
			L1.4,83.4z"/>
		<path class="st0" d="M84.5,135c0.5-2,2.6-2,3.9-3.1c9.4,0,18.8,0.1,28.2,0.1c9.3,0,15.4-6,15.5-15.4c0.1-9.7,0-19.4,0-29.2
			c0.7-1.6,1.3-3.2,3-4v40.6c-4.3,4-7.8,9.1-13.9,10.9L84.5,135L84.5,135z"/>
		<path class="st1" d="M1.2,135c0-4.3,0.1-8.6,0.1-12.9c2.4,6.6,7.6,10.3,13.7,12.9H1.2z"/>
		<path class="st1" d="M121.1,135c6.1-1.8,9.5-6.9,13.9-10.9V135H121.1z"/>
		<path class="st1" d="M121.2,1.4c4.6,0,9.2-0.1,13.8-0.1v10.9c-2.1-0.1-2.4-2-3.2-3.3C129.2,5,125.3,3,121.2,1.4z"/>
		<path class="st1" d="M135,15.1c-0.6-0.3-0.7-0.7,0-1V15.1z"/>
		<path class="st3" d="M114.1,95.3c-0.5,0.7-1.1,1.4-1.6,2.2c-1-0.5-2.1-0.9-3-1.6c-2-1.4-3.7-4.2-6.6-1c-2.7,2.9-3.6,5.4,0.1,8.2
			c1.8,1.3,1.6,2.8-0.1,4.1c-1.8,1.4-3.2,3.3-5.6,3.9c-3.1-1-2.9-7.9-9-4.1c-5.4,3.3,0.1,6.4-1.3,9.7c-0.6,1-2.2,0.6-3.3,1.3
			c-3.8,2.2-6.1,1.8-6.5-3.2c-0.2-2.9-2.2-3.6-5-3.1c-3.3,0.5-4.6,1.9-4.7,5.5c-0.1,5.3-4.5,2.9-7.1,3c-3,0.1-3.5-2.2-2.3-4.4
			c1.8-3.6-0.6-4.6-3.2-5.7c-2.8-1.3-4.4,0-5.3,2.5c-1.4,3.8-3.5,5-7.1,2.3c-0.4-0.3-1.2-0.2-1.9-0.3c-0.6-0.4-1.2-0.8-1.8-1.2
			c0-1.6,0.7-2.9,1.6-4c1.7-2.1,3.7-3.9,0.4-6.5c-2.9-2.2-5.3-3.3-7.7,0.5c-0.9,1.5-2.5,2-4.3,2.1c-1.7-2.1-3.3-4.1-5-6.2
			c0.5-2.1,2-3.3,3.9-4.2c2.7-1.4,3.1-3.1,1.5-5.9c-1.5-2.7-2.7-4.3-6-2.4c-3.3,2-4.8,0.2-5.5-3c-0.5-2.7-2.2-5.8,2.7-6
			c2.3-0.1,4.7-0.5,3.9-3.5c-0.6-2.6,0.7-7-4.6-6.4c-3.5,0.4-4.4-1.4-4-4.4c0.2-1.7-0.5-3.7,1.1-5c1.7-0.5,2.9,0.8,4.3,1
			c3.3,0.4,4-2,4.9-4.4c0.9-2.3,0.4-4.3-1.9-4.7c-5.6-0.9-5.3-4.2-3.9-8.3c0.4-1.4,1.6-2,2.6-2.8c1.1,0.3,2.3,0.5,3.3,1
			c5.8,3.2,6.9,2.9,10-3.6c-1.7-2.3-5-3.4-5.3-6.8c1.5-2.7,4.2-4.1,6.6-5.8c1.8,0.8,2.7,2.5,3.5,4c1.9,3.7,4.3,2.4,7,1.1
			c3.1-1.6,2.8-3.5,1-5.9c-1.1-1.5-2-3.2,0.2-4.7c4.4-2.9,8.8-0.9,9.5,4.2c0.1,0.6,0.5,1.2,0.9,2.2c2.8-2.3,8.9,2.1,8.7-5
			c-0.1-5,3.2-4,6-4c3.6,0,3.6,2.6,2.8,4.9c-1.5,4.1,1.4,4.9,4,5.8c3,1,4.9-0.5,5.2-3.5c0.3-3.5,2.4-3.5,4.9-2.5
			c1.5,0.6,2.9,1.5,4.3,2.2c0.3,0,0.5,0.1,0.7,0.4c0.1,1.7-0.1,3.2-1.2,4.6c-2.4,2.8-1.4,4.8,1.3,6.8c2.7,2,4.3,1.3,6-1.1
			c0.9-1.4,2.4-2.2,4-2.6l-0.1,0c0.3,0.4,0.7,0.7,1,1c1.3,1.4,2.6,2.8,3.9,4.3c0.1,1.9-0.4,3.6-2.3,4.5c-2.7,1.4-4.4,2.9-2.7,6.5
			c1.7,3.5,3.9,3.5,6.7,2.3c2.9-1.2,4.7-0.7,5.2,2.8c0.4,2.8,2.1,6-3,6.4c-2.2,0.2-4.4,0.9-3.8,4c0.5,2.5,0.4,5.6,4.5,5.1
			c3.2-0.4,4.3,1,4.4,4.2c0.1,4.1-0.8,6.5-5.5,5.5c-4.5-0.9-5.2,3.1-6.2,5.6c-1,2.7,2.2,3,3.8,3.4c4.1,1,3.8,3.9,3.6,6.9
			c-0.1,0.2-0.3,0.4-0.3,0.6C115.1,94.4,114.6,94.9,114.1,95.3L114.1,95.3z M68,109.2c22.8,0.4,41.2-18.5,41.2-40.5
			c-0.1-23.9-17.2-40.2-36.2-40.7c-28.3-0.8-45.6,15-46,39.7C26.5,90,45.1,109.7,68,109.2L68,109.2z"/>
		<path class="st4" d="M95.6,22.9c-1.4-0.8-2.8-1.7-4.3-2.2c-2.5-1-4.5-1-4.9,2.5c-0.3,3.1-2.2,4.5-5.2,3.5c-2.6-0.9-5.5-1.7-4-5.8
			c0.8-2.3,0.8-4.8-2.8-4.9c-2.8,0-6.2-1.1-6,4c0.2,7.1-5.9,2.7-8.7,5c-0.4-1.1-0.8-1.6-0.9-2.2c-0.7-5.2-5.1-7.2-9.5-4.2
			c-2.2,1.4-1.3,3.2-0.2,4.7c1.8,2.4,2.1,4.3-1,5.9c-2.7,1.3-5,2.6-7-1.1c-0.8-1.6-1.7-3.3-3.5-4.1c3-2.8,5-6.4,7.6-9.5
			c2.5-3.1,4.5-6.9,8.5-8.6c1.6-1.7,3.7-1.7,5.9-1.7c7,0,14-0.1,20.9-0.1C86.8,9.4,93,14.7,95.6,22.9L95.6,22.9z"/>
		<path class="st4" d="M116,93.4c0.2-3,0.5-5.9-3.6-6.9c-1.6-0.4-4.9-0.7-3.8-3.4c1-2.6,1.7-6.5,6.2-5.6c4.7,0.9,5.6-1.5,5.5-5.5
			c-0.1-3.2-1.2-4.6-4.4-4.2c-4,0.5-3.9-2.6-4.5-5.1c-0.6-3,1.5-3.8,3.8-4c5.1-0.3,3.4-3.5,3-6.4c-0.5-3.5-2.2-4-5.2-2.8
			c-2.8,1.2-5,1.2-6.7-2.3c-1.8-3.7-0.1-5.1,2.7-6.5c1.9-1,2.3-2.6,2.3-4.5c5.3,6.6,12.7,10.7,19,16.2c0,1.2,0.9,1.6,1.8,1.9
			c0,0-0.1,0.2-0.1,0.1c0,5.3,0.1,10.5,0.1,15.8C132,81.8,127.3,88.6,116,93.4L116,93.4z"/>
		<path class="st1" d="M80.5,4.2c-7,0-14,0.1-20.9,0.1c-2.2,0-4.2,0-5.9,1.7c-0.8-2.5-2.9-1.7-4.6-1.8C39,4.1,29,4.1,18.9,4.2
			c-8.8,0.1-14.7,6.1-14.8,15c-0.1,10.2-0.1,20.5,0,30.7c0,1.6-0.3,3.3,0.9,4.8c-1.6,8.8-0.6,17.7-0.6,26.5c-1,0.7-1.5,2.1-3,2.2
			v-82c26.4,0,52.7,0,79.1,0C80.5,2.3,80.5,3.2,80.5,4.2z"/>
		<path class="st4" d="M106.3,30.9c-1.6,0.4-3.1,1.2-4,2.6c-1.7,2.5-3.3,3.2-6,1.1c-2.7-2-3.7-4-1.3-6.8c1.2-1.4,1.3-2.9,1.2-4.6
			C101.3,23.7,103.5,27.6,106.3,30.9L106.3,30.9z"/>
		<path class="st1" d="M132,54.3c-0.9-0.3-1.8-0.7-1.8-1.9C131.1,52.7,131.7,53.3,132,54.3z"/>
		<path class="st4" d="M107.3,31.9c-0.3-0.4-0.7-0.7-1-1C106.6,31.2,107,31.6,107.3,31.9z"/>
		<path class="st4" d="M40.7,114.4c0.6,0.1,1.4-0.1,1.9,0.3c3.5,2.7,5.7,1.5,7.1-2.3c0.9-2.5,2.4-3.8,5.3-2.5c2.5,1.2,5,2.1,3.2,5.7
			c-1.1,2.3-0.7,4.5,2.3,4.4c2.6-0.1,7,2.3,7.1-3c0.1-3.6,1.3-5,4.7-5.5c2.8-0.4,4.7,0.2,5,3.1c0.4,5,2.7,5.4,6.5,3.2
			c1.1-0.6,2.7-0.2,3.3-1.3c1.4-3.3-4.1-6.4,1.3-9.7c6.1-3.7,5.9,3.1,9,4.1c2.4-0.6,3.8-2.5,5.6-3.9c1.6-1.3,1.8-2.7,0.1-4.1
			c-3.7-2.7-2.8-5.2-0.1-8.2c2.9-3.2,4.5-0.4,6.6,1c0.9,0.6,2,1,3,1.6c-1.6,5.3-5.5,9-9.8,11.9c-5.9,3.9-10.6,8.8-14.2,14.8
			c-3.8,6.4-9.6,9-17,8.6c-4.9-0.3-9.9,0-14.8,0c-6.3-3.3-9.6-9.7-14.7-14.2C40.7,117.5,41,115.8,40.7,114.4L40.7,114.4z"/>
		<path class="st4" d="M4.4,81.2c0-8.8-1-17.7,0.6-26.5c3.9-5.8,9.1-10,15.5-12.8c-1.4,4-1.7,7.3,3.9,8.3c2.3,0.4,2.8,2.4,1.9,4.7
			c-0.9,2.4-1.6,4.8-4.9,4.4c-1.4-0.2-2.6-1.6-4.3-1c-1.6,1.4-0.9,3.3-1.1,5c-0.3,3,0.6,4.8,4,4.4c5.3-0.6,3.9,3.8,4.6,6.4
			c0.7,3.1-1.6,3.4-3.9,3.5c-4.9,0.2-3.2,3.3-2.7,6c0.6,3.2,2.2,5,5.5,3c3.3-2,4.5-0.3,6,2.4c1.6,2.8,1.2,4.5-1.5,5.9
			c-1.8,0.9-3.4,2.1-3.9,4.2C18.2,92.4,9.5,88.7,4.4,81.2L4.4,81.2z"/>
		<path class="st4" d="M29,105.3c1.7-0.1,3.3-0.6,4.3-2.1c2.4-3.8,4.8-2.7,7.7-0.5c3.4,2.5,1.3,4.4-0.4,6.5c-0.9,1.2-1.6,2.5-1.6,4
			C34.6,111.8,31.4,109,29,105.3L29,105.3z"/>
		<path class="st0" d="M132,87.4c0,9.7,0,19.4,0,29.2c-0.1,9.4-6.1,15.4-15.5,15.4c-9.4,0-18.8-0.1-28.2-0.1
			c4.8-6.6,8.9-13.6,16-18.4c5-3.4,9-8,12.1-13.4c1.8-3.2,5.5-4.6,8.3-6.8C127.1,91.3,129.6,89.4,132,87.4L132,87.4z"/>
		<path class="st4" d="M114.1,95.3c0.5-0.4,1.1-0.8,1.6-1.3C115.8,95.2,115,95.4,114.1,95.3z"/>
		<path class="st0" d="M20.5,41.9c-6.3,2.8-11.6,7-15.5,12.8c-1.2-1.4-0.9-3.1-0.9-4.8c0-10.2,0-20.5,0-30.7c0.1-9,5.9-15,14.8-15
			c10.1-0.1,20.1-0.1,30.2,0c1.7,0,3.8-0.8,4.6,1.8c-4,1.7-6,5.4-8.5,8.6c-2.5,3.2-4.6,6.7-7.6,9.5c-2.4,1.7-5.1,3.1-6.6,5.8
			c-4,1.9-6.7,5-7.9,9.3C22,39.9,20.8,40.5,20.5,41.9L20.5,41.9z"/>
		<path class="st4" d="M68,109.2C45.1,109.7,26.5,90,26.9,67.8c0.5-24.7,17.8-40.5,46.1-39.7c19,0.5,36.1,16.8,36.2,40.7
			C109.2,90.8,90.8,109.6,68,109.2L68,109.2z M29.8,68.5c-1,23.5,20.1,38.1,38.8,37.9c20.6-0.2,37.8-17.6,37.8-37.9
			C106.3,45.5,87,28.2,65,29.8C47.8,31.1,29.1,46.7,29.8,68.5z"/>
		<path class="st4" d="M23.1,39.1c1.2-4.3,3.9-7.4,7.9-9.3c0.3,3.4,3.6,4.5,5.3,6.8c-3.1,6.5-4.2,6.8-10,3.6
			C25.4,39.6,24.2,39.4,23.1,39.1z"/>
		<path class="st3" d="M29.8,68.5c-0.7-21.9,18-37.4,35.2-38.7c22-1.6,41.3,15.7,41.4,38.7c0.1,20.4-17.2,37.7-37.8,37.9
			C49.9,106.6,28.7,92.1,29.8,68.5z M57.7,67.8c0,6.6,3.8,10.7,10,10.7c6.5,0,10.8-3.9,10.9-10.1c0.1-6.3-4-10.7-10.2-10.8
			C61.8,57.6,57.7,61.5,57.7,67.8z"/>
		<path class="st5" d="M57.7,67.8c0-6.3,4.1-10.2,10.6-10.1c6.2,0.1,10.4,4.4,10.2,10.7c-0.1,6.2-4.4,10.1-10.9,10.1
			C61.5,78.5,57.7,74.4,57.7,67.8z M75.6,68.2c0-4.9-2.7-7.6-7.7-7.5c-4.4,0-7.9,3.2-7.9,7.2c0,4.4,3.3,7.7,7.8,7.8
			C72.8,75.7,75.6,73.1,75.6,68.2L75.6,68.2z"/>
		<path class="st2" d="M75.6,68.2c0,4.9-2.8,7.6-7.7,7.4c-4.5-0.1-7.8-3.4-7.8-7.8c0-4,3.5-7.1,7.9-7.2
			C72.9,60.6,75.6,63.3,75.6,68.2L75.6,68.2z"/>
	</g>
</g>
</svg>
