<?xml version="1.0" encoding="utf-8"?>
<!-- Generator: Adobe Illustrator 28.1.0, SVG Export Plug-In . SVG Version: 6.00 Build 0)  -->
<svg version="1.1" id="_Слой_2" xmlns="http://www.w3.org/2000/svg" xmlns:xlink="http://www.w3.org/1999/xlink" x="0px"
	 y="0px" viewBox="0 0 135 135" style="enable-background:new 0 0 135 135;" xml:space="preserve">
<style type="text/css">
	.st0{fill:#179BAD;}
	.st1{fill:#084B53;}
	.st2{fill:#FCFDFC;}
	.st3{fill:#AE1717;}
	.st4{fill:#710F0F;}
	.st5{fill:#46444A;}
	.st6{fill:#2B292E;}
	.st7{fill:#E3D1D1;}
</style>
<g id="_Слой_1-2">
	<g>
		<path class="st0" d="M135,14.1v43.6c-1.3-1.4-2.6-2.8-3.9-4.2l-0.1-0.4c-0.5-0.5-1-1-1.5-1.5c-6.2-4.8-12.6-9.4-18.3-14.8
			c-1-2.4-3-4-4.6-6c-2-3.9-5.4-6.1-9.3-7.7c-0.2-0.2-0.4-0.2-0.6-0.2c-1.4-2-2.4-4.4-4.2-6c-4.1-3.8-5.8-10-11.7-12
			c-0.1-0.3-0.2-0.6-0.3-0.8c-1.4-1.5-3.3-1-5.1-1c-6.2-0.1-12.4-0.1-18.5-0.1c-1.7-1-3.5-0.7-5.3-0.7c-10.4,0-20.7,0-31.1-0.1
			c-2.1,0-4.3,0.4-6.2-0.8c35.9,0,71.9,0,107.8,0C127.5,4.6,132.1,8.5,135,14.1L135,14.1z"/>
		<path class="st0" d="M58.7,135H12.1c-3.9-4-8.6-7.5-10.8-12.9c0-13.2,0-26.4,0-39.7c0.8-0.8,1.4-1.9,2.8-1.9
			c4.9,7.9,13.1,12.2,19.9,18c0.8,2.6,3,4,4.6,5.9c1.4,3.8,4.8,5.6,7.7,7.9c1.8,1.4,3.8,2.4,5.1,4.4c3.8,6,8.2,11.4,14.1,15.4
			C56.6,133.1,57.7,134,58.7,135L58.7,135z"/>
		<path class="st1" d="M58.7,135c-1-1-2.1-1.9-3.2-2.9c6.9,0,13.8-0.2,20.6,0c4.4,0.1,7.5-1.8,10.1-4.9c4.1-4.9,7.5-10.6,12.2-15
			c2.2-2,4.4-4,6.6-6.1c4.4-1.8,6.8-5.4,8.3-9.8c1.9-0.2,1.5-2.3,2.6-3.1c4.3-2,7.6-5.6,11.6-8c3.1-1.9,4.4-4.8,4.3-8.3
			c-0.1-7.9,0.6-15.7-0.8-23.6c1.3,1.4,2.6,2.8,3.9,4.2v25.8c-1.9,1-2.5,2.9-3.2,4.8c-6.7,4.7-13.9,8.6-18.3,15.9
			c-1.9,3.2-4.5,6.2-7.7,8.2c-7.8,4.8-12.5,12.3-17.4,19.6c-2,0.5-3.5,1.7-4.9,3L58.7,135L58.7,135z"/>
		<path class="st0" d="M83.5,135c1.5-1.3,3-2.5,4.9-3c9.6,0,19.2,0.1,28.7,0c8.4,0,14.6-5.8,14.8-14.1c0.2-9.9-0.1-19.8-0.1-29.7
			c0.6-1.9,1.2-3.8,3.2-4.8v38.6c-2.5,3.1-3.7,7.2-7.3,9.5c-1.4,0.9-3.6,1.1-3.6,3.4L83.5,135L83.5,135z"/>
		<path class="st2" d="M1.4,82.4c0,13.2,0,26.4,0,39.7c0,4.3-0.1,8.6-0.1,12.9c-2-0.9-0.9-2.7-0.9-3.9C0.2,87.5,0.2,44,0.2,0.2h56.6
			c24.7,0,49.4,0,74.2,0.1c1.3,0,3.1-1.1,3.9,0.9c-4.3,0-8.6,0.1-12.9,0.1c-35.9,0-71.9,0-107.8,0c-4.2,0-8.4,0-12.9,0L1.4,82.4
			L1.4,82.4z"/>
		<path class="st1" d="M122.1,1.4c4.3,0,8.6-0.1,12.9-0.1v12.9C132.1,8.5,127.4,4.6,122.1,1.4z"/>
		<path class="st1" d="M1.2,135c0-4.3,0.1-8.6,0.1-12.9c2.2,5.4,6.8,8.9,10.8,12.9H1.2z"/>
		<path class="st1" d="M124.1,135c0-2.4,2.2-2.5,3.6-3.4c3.6-2.3,4.8-6.4,7.3-9.5V135H124.1z"/>
		<path class="st3" d="M116,93.3c-1.1,0.9-0.7,2.9-2.6,3.1c-1.3-0.2-2.7-0.1-3.8-0.6c-6.2-2.6-6.4-2.6-9.7,3.6
			c1.2,2.7,4.6,3.7,5.2,6.8c-2.2,2-4.4,4-6.6,6.1c-1.5-0.8-2.6-2-3.4-3.5c-1.5-2.7-3.6-3.6-6.5-2c-2.9,1.6-3.4,3.5-1.8,6.4
			c0.9,1.7,1.5,4.6-1.2,4.6c-2.6,0-6.7,3.8-8-2c-0.5-2.1-0.4-4.9-4.1-4.1c-3,0.6-6.1,0.3-5.9,5.2c0.3,5.1-4.1,3-6.6,3.2
			c-3.2,0.3-3.3-1.8-2.6-4.3c0.8-2.6,0.6-4.7-2.7-5.7c-3.4-1-5.3-0.4-6.1,3.2c-0.4,1.6-1.3,3.5-3.4,2.2c-2.3-1.3-5.4-1.7-6.8-4.5
			c4.5-6.8,4.1-8.3-3.2-11.1c-1.9,2.3-3.7,5.1-7.4,4.4c-1.6-1.9-3.8-3.3-4.6-5.9c0.7-1.8,2.2-2.9,3.9-3.6c3.4-1.3,2.8-3.6,1.6-6
			c-1.2-2.3-2.6-4.2-5.7-2.5c-5.3,2.9-5.4-1.6-6.7-4.7c-1.7-4,1-4,3.5-4.4c3.3-0.5,3.4-2.9,3.4-5.6c0-3.1-1.9-3.3-4.3-3.3
			c-1.7,0-3.2-0.1-3.7-2.3c-1.3-5.5,0.3-7.7,5.9-7.5c1,0,2,0.5,2.9-0.4c1.7-3.8,4-7.7-2.7-9.2c-2-0.5-2.3-2.2-1.6-4
			c0.5-1.5,1-3.1,1.6-4.7c0-0.7,0.1-1.4,0.9-1.7c1.7,0.1,3.1,0.6,4.4,1.8c2,2.1,3.9,3.2,6.4,0.2c2.3-2.7,3-5-0.1-7.3
			c-1.5-1.1-2.6-2.4-2.6-4.4c1.9-1.4,3.3-3.5,5.6-4.3c2.3-0.1,3.6,1.3,4.6,3.1c1.3,2.3,2.6,3.7,5.4,1.8c2.4-1.6,5.2-2.5,2.9-6.3
			c-2.1-3.5,0.5-4.4,3.2-5.4c2.9-1,5.2-1.3,5.8,2.6c0.4,2.8,1.4,4.7,4.8,4.2c3.1-0.5,4.6-2,4.3-5.3c-0.2-2.6,0.6-4.9,3.8-4.1
			c2.7,0.6,6.9,0,6,5.1c-0.2,1.3-0.3,2.5-0.5,4.2c3.3,0.2,6.3,5.5,9.2-0.4c2.8-5.7,2.7-5.7,7.8-2.5c0.8,0.5,1.6,1.2,2.6,1.2
			c0.2,0,0.4,0,0.6,0.2c-0.4,1.1-0.6,2.2-1.1,3.2c-3.6,6-3.3,6.8,3.1,9.9c2.7-1.4,4-4.9,7.4-5.3c1.6,1.9,3.7,3.5,4.6,5.9
			c0.2,2.3-1.1,3.7-3,4.6c-3.1,1.6-2.8,3.5-1.4,6.4c1.6,3.1,3.1,3.2,5.8,1.8c4.3-2.2,5,1.1,5.9,4c0.9,3,0.3,5-3.2,5
			c-2.8,0.1-4.7,1.1-4.1,4.1c0.5,2.5,0.1,6.2,4.4,5.8c5.1-0.5,4.6,2.9,4.3,6.1c-0.4,4.1-2.9,4.2-6.1,2.9c-0.7-0.3-1.6-0.2-2.7-0.4
			c-0.3,3.3-5.2,7,0.8,9C116.3,87.6,117.3,89.5,116,93.3L116,93.3z M68.4,27c-22.6-0.5-41.7,18.8-41.5,40.8
			c0.2,22.9,18.3,41.2,40.8,41.5c23.1,0.3,41.5-19.6,41.6-40.9C109.3,46.5,90.7,26.5,68.4,27L68.4,27z"/>
		<path class="st4" d="M116,93.3c1.2-3.8,0.3-5.7-4-7.1c-5.9-2-1.1-5.7-0.8-9c1.2,0.2,2,0.1,2.7,0.4c3.2,1.3,5.6,1.1,6.1-2.9
			c0.3-3.2,0.8-6.6-4.3-6.1c-4.3,0.4-3.9-3.2-4.4-5.8c-0.6-3,1.3-4.1,4.1-4.1c3.5-0.1,4.1-2.1,3.2-5c-0.9-2.9-1.6-6.2-5.9-4
			c-2.7,1.4-4.2,1.3-5.8-1.8c-1.5-2.9-1.7-4.8,1.4-6.4c1.9-1,3.2-2.3,3-4.6c5.7,5.4,12.1,10,18.3,14.8c-0.1,1.1,0.7,1.3,1.5,1.5
			l0.1,0.4c1.4,7.8,0.7,15.7,0.8,23.6c0.1,3.5-1.2,6.4-4.3,8.3C123.6,87.7,120.4,91.3,116,93.3L116,93.3z"/>
		<path class="st4" d="M96.7,23c-1.1,0.1-1.8-0.6-2.6-1.2c-5.1-3.2-5-3.2-7.8,2.5c-2.9,5.9-5.9,0.6-9.2,0.4c0.2-1.6,0.3-2.9,0.5-4.2
			c0.9-5.1-3.2-4.5-6-5.1c-3.2-0.7-4.1,1.5-3.8,4.1c0.3,3.3-1.2,4.8-4.3,5.3c-3.4,0.5-4.4-1.5-4.8-4.2c-0.6-3.9-2.9-3.6-5.8-2.6
			c-2.7,1-5.3,1.9-3.2,5.4c2.2,3.8-0.6,4.7-2.9,6.3c-2.8,1.9-4.2,0.5-5.4-1.8c-1-1.8-2.3-3.2-4.6-3.1c1.2-2.9,4.2-4.2,5.8-7
			c3-5.1,6.8-9.8,12.2-12.8C63.3,5,72.1,5,80.8,5c5.9,2,7.6,8.2,11.7,12C94.2,18.6,95.3,20.9,96.7,23z"/>
		<path class="st1" d="M1.4,82.4V1.4c4.4,0,8.6,0,12.9,0c1.9,1.3,4.2,0.8,6.3,0.8c10.4,0.1,20.7,0.1,31.1,0.1c1.8,0,3.6-0.3,5.3,0.7
			c-0.7,0.1-1.5,0.2-2.2,0.2c-11.4,0-22.7,0-34.1,0.1C10.7,3.5,4.2,10,4.2,19.8c0,9.7-0.1,19.4,0,29.1c0,1.7-0.8,3.8,1.6,4.7
			c-1.3,2-1.6,4.1-1.5,6.4c0.1,6.8,0,13.7,0,20.5C2.8,80.5,2.2,81.7,1.4,82.4L1.4,82.4z"/>
		<path class="st4" d="M106.6,30.8c-3.4,0.5-4.7,3.9-7.4,5.3c-6.5-3.1-6.7-3.8-3.1-9.9c0.6-1,0.8-2.1,1.1-3.2
			C101.2,24.7,104.6,26.9,106.6,30.8L106.6,30.8z"/>
		<path class="st5" d="M54.7,3.3c0.7-0.1,1.5-0.2,2.2-0.2c6.2,0,12.4,0,18.5,0.1c1.7,0,3.6-0.5,5.1,1c-8.6,0-17.2,0-25.8,0
			C54.7,3.9,54.7,3.6,54.7,3.3z"/>
		<path class="st6" d="M54.8,4.2c8.6,0,17.2,0,25.8,0c0.1,0.3,0.2,0.5,0.3,0.8c-8.7,0-17.5,0.1-26.2,0.1C54.7,4.8,54.7,4.5,54.8,4.2
			L54.8,4.2z"/>
		<path class="st1" d="M131,53.1c-0.8-0.2-1.6-0.5-1.5-1.5C130,52.1,130.5,52.6,131,53.1z"/>
		<path class="st4" d="M28.6,104.4c3.7,0.7,5.6-2.1,7.4-4.4c7.3,2.8,7.7,4.3,3.2,11.1c1.4,2.8,4.4,3.2,6.8,4.5
			c2.1,1.2,3.1-0.7,3.4-2.2c0.8-3.7,2.7-4.2,6.1-3.2c3.3,1,3.5,3.1,2.7,5.7c-0.7,2.5-0.6,4.5,2.6,4.3c2.5-0.2,6.9,1.9,6.6-3.2
			c-0.3-4.8,2.8-4.6,5.9-5.2c3.7-0.8,3.6,2.1,4.1,4.1c1.4,5.8,5.5,2,8,2c2.8,0,2.2-2.9,1.2-4.6c-1.6-2.9-1.1-4.8,1.8-6.4
			c3-1.6,5-0.7,6.5,2c0.8,1.5,1.9,2.7,3.4,3.5c-4.8,4.4-8.1,10-12.2,15c-2.6,3.1-5.7,5-10.1,4.9c-6.9-0.2-13.7,0-20.6,0
			c-6-4-10.4-9.4-14.1-15.4c-1.3-2.1-3.3-3.1-5.1-4.4C33.5,110,30,108.2,28.6,104.4L28.6,104.4z"/>
		<path class="st4" d="M4.2,80.5c0-6.8,0.1-13.7,0-20.5c0-2.3,0.2-4.5,1.5-6.4c4.3-5.7,9.8-10.1,16.3-13.1c-0.5,1.5-1,3.1-1.6,4.7
			c-0.6,1.8-0.3,3.5,1.6,4c6.7,1.5,4.4,5.5,2.7,9.2c-0.9,0.9-1.9,0.4-2.9,0.4c-5.6-0.2-7.2,2-5.9,7.5c0.5,2.2,2.1,2.3,3.7,2.3
			c2.4,0,4.2,0.2,4.3,3.3c0,2.7-0.1,5.1-3.4,5.6c-2.5,0.4-5.3,0.4-3.5,4.4c1.3,3,1.4,7.6,6.7,4.7c3.2-1.8,4.5,0.1,5.7,2.5
			c1.2,2.4,1.8,4.7-1.6,6c-1.7,0.7-3.2,1.8-3.9,3.6C17.2,92.7,9.1,88.4,4.2,80.5L4.2,80.5z"/>
		<path class="st0" d="M131.8,88.2c0.1,9.9,0.3,19.8,0.1,29.7c-0.2,8.3-6.4,14-14.8,14.1c-9.6,0-19.2,0-28.7,0
			c4.9-7.3,9.6-14.8,17.4-19.6c3.2-2,5.8-5,7.7-8.2C118,96.8,125.2,92.9,131.8,88.2L131.8,88.2z"/>
		<path class="st4" d="M105.1,106.2c-0.7-3.1-4.1-4.1-5.2-6.8c3.3-6.1,3.5-6.2,9.7-3.6c1.2,0.5,2.5,0.4,3.8,0.6
			C111.9,100.8,109.6,104.4,105.1,106.2L105.1,106.2z"/>
		<path class="st0" d="M22,40.5c-6.5,3-12,7.3-16.3,13.1c-2.4-0.9-1.6-3-1.6-4.7c-0.1-9.7,0-19.4,0-29.1c0-9.8,6.5-16.3,16.5-16.4
			C32,3.3,43.3,3.3,54.7,3.3c0,0.3,0,0.6,0.1,0.9c-0.1,0.3-0.1,0.6-0.2,0.9c-5.4,3-9.2,7.7-12.2,12.8c-1.6,2.8-4.6,4.1-5.8,7
			c-2.4,0.8-3.7,2.9-5.6,4.3c-3.8,2.3-6.4,5.6-8,9.7C22.1,39.2,22,39.8,22,40.5L22,40.5z"/>
		<path class="st4" d="M68.4,27c22.3-0.5,41,19.5,40.9,41.4c0,21.2-18.5,41.2-41.6,40.9C45.2,109,27.1,90.7,26.9,67.8
			C26.7,45.8,45.8,26.5,68.4,27L68.4,27z M67.9,106.3c19.5,1.2,38.6-16.3,38.5-37.9c-0.1-21.3-16.9-38.1-38-38.6
			c-19.2-0.5-38.8,16.5-38.8,38.3C29.6,87,46.7,107.3,67.9,106.3z"/>
		<path class="st4" d="M22.9,38.8c1.7-4.1,4.3-7.3,8.1-9.7c0,2,1.1,3.3,2.6,4.4c3.2,2.4,2.4,4.6,0.1,7.3c-2.5,3-4.4,1.9-6.4-0.2
			C26.1,39.4,24.6,38.9,22.9,38.8L22.9,38.8z"/>
		<path class="st3" d="M67.9,106.3c-21.2,1-38.2-19.3-38.3-38.2c0-21.8,19.6-38.8,38.7-38.3c21.1,0.5,37.9,17.3,38,38.6
			C106.4,90,87.3,107.6,67.9,106.3z M83,78.5c6.1-0.1,10.6-4.6,10.4-10.7c-0.1-6-4.7-10.3-10.9-10.2c-6.1,0.1-10.7,4.8-10.5,10.7
			C72.1,74.3,76.8,78.6,83,78.5z M53.3,78.5c6.3,0,10.5-4.2,10.5-10.4c0-6.2-4.2-10.4-10.5-10.4c-6.4,0-10.5,4.1-10.5,10.4
			C42.9,74.4,47,78.5,53.3,78.5L53.3,78.5z"/>
		<path class="st7" d="M83,78.5c-6.2,0.1-10.8-4.2-11-10.2c-0.2-5.9,4.4-10.6,10.5-10.7c6.2-0.1,10.8,4.2,10.9,10.2
			C93.5,73.9,89,78.5,83,78.5z M82.1,75.7c4.7,0.2,8.1-2.7,8.4-7c0.3-4.8-2.6-7.9-7.2-8.1c-4.9-0.2-8.4,2.9-8.6,7.5
			C74.5,71.8,78.2,75.5,82.1,75.7L82.1,75.7z"/>
		<path class="st7" d="M53.3,78.5c-6.3,0-10.5-4.1-10.5-10.4c0-6.3,4.1-10.4,10.5-10.4c6.3,0,10.5,4.2,10.5,10.4
			C63.8,74.3,59.6,78.5,53.3,78.5L53.3,78.5z M53.7,60.6c-5.1,0-7.8,2.5-8,7.3c-0.1,4.9,2.5,7.8,7.4,7.8c4.6,0.1,8.2-3.1,8.4-7.3
			C61.6,64.3,57.9,60.6,53.7,60.6L53.7,60.6z"/>
		<path class="st2" d="M82.1,75.7c-3.9-0.1-7.6-3.9-7.4-7.6c0.2-4.6,3.7-7.7,8.6-7.5c4.6,0.2,7.4,3.3,7.2,8.1
			C90.2,73,86.8,75.8,82.1,75.7L82.1,75.7z"/>
		<path class="st2" d="M53.7,60.6c4.2,0,8,3.8,7.8,7.8c-0.2,4.2-3.8,7.4-8.4,7.3c-4.8-0.1-7.5-2.9-7.4-7.8
			C45.9,63,48.6,60.5,53.7,60.6L53.7,60.6z"/>
	</g>
</g>
</svg>
