<?xml version="1.0" encoding="utf-8"?>
<!-- Generator: Adobe Illustrator 28.1.0, SVG Export Plug-In . SVG Version: 6.00 Build 0)  -->
<svg version="1.1" id="_Слой_2" xmlns="http://www.w3.org/2000/svg" xmlns:xlink="http://www.w3.org/1999/xlink" x="0px"
	 y="0px" viewBox="0 0 135 135" style="enable-background:new 0 0 135 135;" xml:space="preserve">
<style type="text/css">
	.st0{fill:#179BAD;}
	.st1{fill:#084B51;}
	.st2{fill:#FDFDFC;}
	.st3{fill:#18B118;}
	.st4{fill:#0D700E;}
	.st5{fill:#CEDFCE;}
</style>
<g id="_Слой_1-2">
	<g>
		<path class="st0" d="M135,12.1v3c-0.1,0.1-0.3,0.2-0.3,0.3c0.1,0.2,0.2,0.5,0.3,0.7v41.6c-2.1-1.6-2.5-4.7-5.1-5.9
			c-5.9-4.7-11.8-9.3-17.8-13.9c-1.2-2.9-3.7-4.7-5.7-6.9c-1.9-4-5.1-6.5-9.2-7.9l-2.1-1.8c-4.1-5.8-7.5-12.1-13.7-16.2
			c0-1.2,0-2.5,0-3.7c13.2,0,26.5,0,39.7,0c4.2,2.1,8.7,3.8,11.1,8.3C132.8,10.8,133.3,12.2,135,12.1L135,12.1z"/>
		<path class="st0" d="M58.7,135H15.1c-6.5-2.2-10.7-7-13.7-12.9c0-13.2,0-26.4,0-39.7c1-0.4,2-0.8,3-1.3
			C9.5,88.7,17.9,92.6,24,99.1c1.7,2,3.5,4.1,5.2,6.1c2,4.1,5.4,6.6,9.7,7.9c0.6,0.7,1.2,1.3,1.8,1.9c3.8,7.3,8.8,13.5,15.9,17.8
			C57.3,133.6,58,134.3,58.7,135z"/>
		<path class="st1" d="M58.7,135c-0.7-0.7-1.3-1.4-2-2.1c5.9,0,11.8-0.2,17.7,0c3.5,0.1,6.5-0.7,9-2.9c6.2-5.5,10.1-12.9,15.9-18.8
			c2.5-1.5,5-2.9,6.1-5.8c4.3-1.1,5.8-4.9,7.8-8.2c1-1.2,1.9-2.5,2.9-3.7c1.6-0.8,3.4-1.3,4.8-2.4c4.2-3.3,10.3-6,10.7-11.6
			c0.6-9.2,2.2-18.7-1.7-27.7c2.6,1.2,2.9,4.3,5.1,5.9v25.8c-1.6,0.8-2.5,2.2-3,3.9c-2.7,2.1-5.4,4.2-8.1,6.4
			c-2.8,2.3-6.1,3.8-8.1,7.1c-2.6,4.4-5.7,8.5-10,11.3c-7.6,5-12.6,12.3-17.5,19.7c-1.6,1-3.2,2.1-4.8,3.1H58.7L58.7,135z"/>
		<path class="st0" d="M83.5,135c1.6-1,3.2-2.1,4.8-3.1c9.2,0,18.4,0.1,27.7,0.1c10,0,16-6,16-15.9c0-9.6,0-19.1,0-28.6
			c0.5-1.7,1.3-3.1,3-3.9v41.6c-4.7,2.8-7.7,7.8-12.9,9.9L83.5,135L83.5,135z"/>
		<path class="st2" d="M1.4,82.4c0,13.2,0,26.4,0,39.7c0,4.3-0.1,8.6-0.1,12.9c-2-0.9-0.9-2.7-0.9-3.9C0.2,87.5,0.2,44,0.2,0.2h56.6
			c24.7,0,49.4,0,74.2,0.1c1.3,0,3.1-1.1,3.9,0.9c-4.6,0-9.2,0.1-13.8,0.1c-13.2,0-26.5,0-39.7,0H1.4C1.4,1.4,1.4,82.5,1.4,82.4z"/>
		<path class="st1" d="M1.2,135c0-4.3,0.1-8.6,0.1-12.9c3.1,5.9,7.2,10.7,13.7,12.9H1.2z"/>
		<path class="st1" d="M121.2,1.4c4.6,0,9.2-0.1,13.8-0.1v10.9c-1.6,0-2.2-1.3-2.8-2.4C129.9,5.1,125.4,3.5,121.2,1.4L121.2,1.4z"/>
		<path class="st1" d="M122.1,135c5.2-2.1,8.2-7.1,12.9-9.9v9.9H122.1z"/>
		<path class="st1" d="M135,16.1c-0.1-0.2-0.2-0.5-0.3-0.7c0-0.1,0.2-0.2,0.3-0.3V16.1z"/>
		<path class="st3" d="M105.4,105.5c-1.1,2.9-3.6,4.3-6.1,5.8c-2.6,0.3-3.9-1.5-4.9-3.4c-1.7-3.2-3.6-2-6.1-0.9
			c-2.8,1.3-3.5,2.8-2,5.3c2.7,4.6-1.1,5.2-3.9,6.3c-3.3,1.4-4.8,0.2-5.2-3.4c-0.3-3.2-2-4.2-5.5-3.5c-3.3,0.7-4.3,2-4.3,5.2
			c0,5.1-4.1,2.9-6.7,3.2c-3.2,0.3-3.4-1.8-2.5-4.3c1.3-3.7-0.9-4.9-3.9-5.9c-3.6-1.3-4.4,1.2-5.2,3.5c-1.1,3.1-2.4,4.7-5.7,2.4
			c-0.7-0.5-1.9-0.4-2.8-0.6c-0.6-0.7-1.2-1.3-1.8-1.9c-0.3-2.2,1.2-3.6,2.4-5.2c2.9-3.7-0.6-5.2-2.5-7.1c-2.4-2.4-3.7-0.5-5,1.4
			c-1.2,1.7-2.5,3.1-4.7,2.9c-1.7-2-3.5-4.1-5.2-6.1c0.6-3.8,5.2-3.8,6.7-7.1c-1.7-3.4-1.9-8.2-8.4-5.1c-4.1,2-3.8-2.7-4.7-5.1
			c-1-2.5-0.5-4.2,2.6-4.3c1.8-0.1,3.8-0.1,4.2-2.5c0.9-4.7-1.1-7.2-6-7.4c-1,0-2,0.1-2.9-1.3c1-2.3-0.3-5.2,1.5-8
			c2.4,0.2,4.8,0.5,7.1,0.7c3.3-6.6,3.4-6.7-2.8-10.2c-2.2-1.2-2.7-2.7-1.3-4.8c0.6-0.9,0.6-2.2,0.9-3.3l0,0c0.3-0.3,0.6-0.6,1-0.9
			c0.3-0.3,0.7-0.7,1-1c1.7,0.1,3.2,0.8,4.4,1.9c2.8,2.5,4.8,1.6,7-1c2.4-2.9,1.1-4.7-1.3-6.5c-1.2-0.9-2.1-2.1-2.2-3.6
			c1.9-2.4,4.2-4.2,6.7-5.8c0.9,0.7,1.9,1.3,2.6,2.2c4,5.4,4,5.4,10.3,0.8c-0.4-1.3-0.7-2.8-1.3-4.1c-1.4-2.9-0.5-4.6,2.5-4.8
			c2.4-0.1,6.2-3.2,6.9,2.2c0.3,2.4,0.4,4.9,3.8,4.4c3.1-0.4,5.9-1,5.4-5.3c-0.3-2.5,1.1-3.4,3.5-3.5c5.8-0.3,6.6,0.2,5.9,6.2
			c-0.4,3.4,1.9,3.3,3.7,4c1.9,0.8,4.4,1.4,4.9-1.2c1.3-6.2,5.3-5,9.4-3.8c0.7,0.6,1.4,1.2,2.1,1.8c-0.4,1.1-0.7,2.2-1.2,3.2
			c-2.2,4.2-1.2,7.6,3.2,10c2.7-1.4,3.8-4.9,7.2-5.3c2,2.2,4.5,4.1,5.7,6.9c-0.8,1.8-2.6,2.6-4.1,3.4c-2.9,1.6-3,3.4-1.6,6.1
			c1.3,2.5,2.6,4.1,5.7,2.5c2.6-1.4,5.3-2,5.9,2.1c0.4,2.8,3.1,6.8-3.1,6.9c-2.1,0-4.2,1.1-3.4,3.7c0.7,2.3-0.5,6.4,4.1,6
			c5.5-0.5,4.7,3.2,4.6,6.4c-0.2,4.8-3.4,2.6-5.8,2.4c-0.9-0.1-1.9-0.7-3.1,0.3c-0.3,2.8-5,6.6,1,8.5c4.3,1.4,4.7,3.8,3.9,7.3
			c-1,1.2-1.9,2.5-2.9,3.7c-1.9-0.1-3.5-1-4.8-2.2c-3.5-3.2-5.3-0.4-7.4,1.9c-2.7,3-0.1,4.2,1.6,5.8
			C103.5,103.7,104.5,104.6,105.4,105.5L105.4,105.5z M27,68.4c-0.7,21.5,18.8,41.1,40.9,40.9c23-0.2,41.4-18.6,41.3-41.7
			c-0.1-21.5-18.6-40.8-41.3-40.7C46,27,26.3,45.6,27,68.4L27,68.4z"/>
		<path class="st4" d="M95.2,21.2c-4.1-1.2-8-2.5-9.4,3.8c-0.6,2.6-3,2-4.9,1.2c-1.9-0.7-4.2-0.7-3.7-4c0.7-6-0.1-6.5-5.9-6.2
			c-2.4,0.1-3.9,1-3.5,3.5c0.6,4.3-2.3,4.9-5.4,5.3c-3.4,0.4-3.5-2-3.8-4.4c-0.7-5.4-4.4-2.3-6.9-2.2c-3,0.2-3.9,1.9-2.5,4.8
			c0.6,1.3,0.9,2.8,1.3,4.1c-6.3,4.5-6.2,4.5-10.3-0.8c-0.7-0.9-1.7-1.5-2.6-2.2c2.8-3.1,5-6.9,7.7-10c2.4-2.9,4.3-6.7,8.3-8
			c9.2-3.3,18.5-1.7,27.9-0.9C87.7,9.1,91.1,15.5,95.2,21.2L95.2,21.2z"/>
		<path class="st4" d="M116.2,93.5c0.8-3.6,0.4-5.9-3.9-7.3c-6-1.9-1.3-5.7-1-8.5c1.2-1,2.2-0.4,3.1-0.3c2.3,0.2,5.5,2.4,5.8-2.4
			c0.2-3.3,0.9-6.9-4.6-6.4c-4.5,0.4-3.4-3.7-4.1-6c-0.8-2.6,1.4-3.7,3.4-3.7c6.2,0,3.5-4,3.1-6.9c-0.6-4.1-3.3-3.5-5.9-2.1
			c-3.1,1.6-4.4,0-5.7-2.5c-1.4-2.7-1.3-4.5,1.6-6.1c1.5-0.8,3.3-1.6,4.1-3.4c5.9,4.7,11.8,9.3,17.8,13.9c3.9,9,2.2,18.5,1.7,27.7
			c-0.4,5.6-6.5,8.3-10.7,11.6C119.5,92.2,117.8,92.7,116.2,93.5L116.2,93.5z"/>
		<path class="st1" d="M81.5,5.1C72.2,4.2,62.8,2.6,53.6,6c-0.5-2.3-2.5-1.8-4-1.8C39.1,4.1,28.5,4.1,18,4.2
			C12.1,4.3,5.8,8,5.1,13.8c-1.7,13.3-2,26.8,0.1,40.1c-2,9-0.7,18.2-0.8,27.2c-1,0.4-2,0.8-3,1.3c0-26.9,0-53.8,0-81.1h80.1
			C81.5,2.6,81.5,3.9,81.5,5.1L81.5,5.1z"/>
		<path class="st4" d="M106.4,30.9c-3.4,0.4-4.6,3.9-7.2,5.3c-4.3-2.4-5.4-5.8-3.2-10c0.5-1,0.8-2.1,1.2-3.2
			C101.3,24.5,104.6,26.9,106.4,30.9z"/>
		<path class="st4" d="M40.8,115.1c1,0.2,2.1,0.1,2.8,0.6c3.3,2.3,4.6,0.7,5.7-2.4c0.8-2.3,1.5-4.8,5.2-3.5c3,1.1,5.2,2.3,3.9,5.9
			c-0.8,2.4-0.7,4.5,2.5,4.3c2.5-0.2,6.6,1.9,6.7-3.2c0-3.2,0.9-4.5,4.3-5.2c3.5-0.7,5.2,0.2,5.5,3.5c0.3,3.5,1.8,4.8,5.2,3.4
			c2.8-1.2,6.6-1.7,3.9-6.3c-1.5-2.6-0.8-4.1,2-5.3c2.5-1.2,4.4-2.3,6.1,0.9c1,1.9,2.2,3.7,4.9,3.4c-5.8,5.8-9.7,13.3-15.9,18.8
			c-2.6,2.3-5.6,3.1-9,2.9c-5.9-0.2-11.8,0-17.7,0C49.6,128.6,44.6,122.4,40.8,115.1L40.8,115.1z"/>
		<path class="st4" d="M4.4,81.2C4.5,72.1,3.2,63,5.2,53.9c4.3-5.6,10.1-9.3,15.9-13c-0.3,1.1-0.3,2.3-0.9,3.3
			c-1.4,2.2-0.9,3.6,1.3,4.8c6.1,3.5,6.1,3.5,2.8,10.2c-2.4-0.2-4.8-0.5-7.1-0.7c-1.8,2.8-0.6,5.7-1.5,8c0.9,1.3,2,1.2,2.9,1.3
			c4.9,0.2,6.9,2.6,6,7.4c-0.5,2.4-2.5,2.4-4.2,2.5c-3.1,0.2-3.6,1.8-2.6,4.3c0.9,2.4,0.6,7,4.7,5.1c6.5-3.1,6.6,1.8,8.4,5.1
			c-1.5,3.2-6.1,3.3-6.7,7.1C17.9,92.6,9.5,88.7,4.4,81.2L4.4,81.2z"/>
		<path class="st4" d="M29.2,105.2c2.3,0.1,3.6-1.2,4.7-2.9c1.2-1.8,2.6-3.8,5-1.4c1.9,1.9,5.4,3.4,2.5,7.1
			c-1.2,1.5-2.7,2.9-2.4,5.2C34.6,111.8,31.3,109.3,29.2,105.2L29.2,105.2z"/>
		<path class="st0" d="M132,87.4c0,9.6,0,19.1,0,28.6c0,10-6,15.9-16,15.9c-9.2,0-18.4-0.1-27.7-0.1c4.9-7.4,9.9-14.6,17.5-19.7
			c4.3-2.9,7.4-6.9,10-11.3c1.9-3.3,5.3-4.8,8.1-7.1C126.6,91.7,129.3,89.6,132,87.4L132,87.4z"/>
		<path class="st4" d="M105.4,105.5c-1-0.9-1.9-1.7-2.9-2.6c-1.7-1.6-4.3-2.8-1.6-5.8c2.2-2.3,3.9-5.1,7.4-1.9
			c1.3,1.2,2.9,2,4.8,2.2C111.3,100.6,109.8,104.4,105.4,105.5z"/>
		<path class="st0" d="M21.1,40.9c-5.8,3.8-11.6,7.4-15.9,13C3.1,40.6,3.4,27.1,5.1,13.8C5.8,8,12.1,4.3,18,4.2
			c10.5-0.1,21.1-0.1,31.6-0.1c1.5,0,3.5-0.5,4,1.8c-4,1.3-5.9,5.1-8.3,8c-2.7,3.2-4.8,6.9-7.7,10c-2.5,1.6-4.9,3.4-6.7,5.8
			c-4.3,1.6-6.5,5.1-7.9,9.2c-0.3,0.3-0.7,0.7-1,1C21.7,40.3,21.4,40.6,21.1,40.9L21.1,40.9L21.1,40.9z"/>
		<path class="st4" d="M27,68.4C26.3,45.6,46,27,67.9,26.9c22.8-0.1,41.2,19.1,41.3,40.7c0.1,23.1-18.4,41.5-41.3,41.7
			C45.7,109.5,26.2,89.9,27,68.4L27,68.4z M29.9,68.3c0,21.7,16.6,38.1,38.3,38c21.5,0,38.2-16.8,38.1-38.4
			c0-20.7-16.9-37.3-37-38.2C47.4,28.8,28.4,48.3,29.9,68.3L29.9,68.3z"/>
		<path class="st4" d="M23,39c1.4-4.1,3.6-7.6,7.9-9.2c0.2,1.6,1,2.7,2.3,3.7c2.3,1.8,3.7,3.6,1.3,6.5c-2.2,2.6-4.2,3.4-7,1
			C26.2,39.8,24.7,39.1,23,39z"/>
		<path class="st4" d="M21.1,40.9c0.3-0.3,0.6-0.6,1-0.9C21.7,40.3,21.4,40.6,21.1,40.9z"/>
		<path class="st3" d="M29.9,68.3c-1.4-20,17.5-39.5,39.4-38.5c20.1,0.9,37,17.4,37,38.2c0,21.6-16.6,38.4-38.1,38.4
			C46.4,106.4,29.9,90,29.9,68.3L29.9,68.3z M52.1,93.4c5.9-0.1,10.6-4.8,10.6-10.6C62.7,77,57.8,72,52.1,72
			C46.3,71.9,41,77.3,41.1,83C41.3,88.8,46.2,93.4,52.1,93.4z M94.4,83.1c0.1-6.3-4.1-10.9-10-11.2c-5.8-0.2-10.7,4.5-10.9,10.4
			c-0.2,6.2,4.2,10.8,10.2,11C90,93.5,94.3,89.4,94.4,83.1L94.4,83.1z M67.8,63.9c6.3,0,10.6-4.2,10.7-10.3
			c0.1-6.2-4.2-10.6-10.4-10.8c-6.1-0.1-10.8,4.4-10.8,10.4C57.3,59.3,61.8,63.9,67.8,63.9z"/>
		<path class="st5" d="M52.1,93.4c-5.8,0.1-10.8-4.6-10.9-10.4c-0.1-5.7,5.2-11.1,10.9-11.1C57.8,72,62.7,77,62.7,82.8
			C62.7,88.6,58,93.3,52.1,93.4z M59.8,82.4c-0.1-3.7-4.7-7.9-8.2-7.7c-3.5,0.2-7.6,4.5-7.6,8c0,4.5,3.8,8,8.4,7.9
			C56.6,90.4,59.9,86.9,59.8,82.4L59.8,82.4z"/>
		<path class="st5" d="M94.4,83.1c-0.1,6.2-4.4,10.4-10.7,10.2c-6.1-0.1-10.4-4.8-10.2-11c0.2-6,5.1-10.7,10.9-10.4
			C90.4,72.2,94.5,76.8,94.4,83.1L94.4,83.1z M83.8,90.5c4.6,0.1,8.5-3.4,8.4-7.8c-0.1-4-3.9-7.9-7.9-8.1c-4.1-0.2-7.7,3.5-7.9,7.8
			C76.3,87,79.4,90.4,83.8,90.5z"/>
		<path class="st5" d="M67.8,63.9c-6.1,0-10.5-4.6-10.5-10.7c0.1-6,4.8-10.5,10.8-10.4c6.2,0.1,10.4,4.5,10.4,10.8
			C78.5,59.8,74.1,64,67.8,63.9z M68,45.7c-4.4,0-8.2,3.6-8.1,7.7c0.1,3.7,4.4,8.1,8,8.1c4.2,0.1,7.7-3.5,7.8-8
			C75.7,49,72.5,45.7,68,45.7L68,45.7z"/>
		<path class="st2" d="M59.8,82.4c0.1,4.5-3.1,8.1-7.4,8.2c-4.6,0.1-8.4-3.4-8.4-7.9c0-3.5,4.1-7.8,7.6-8
			C55.1,74.4,59.6,78.7,59.8,82.4L59.8,82.4z"/>
		<path class="st2" d="M83.8,90.5c-4.4-0.1-7.5-3.5-7.4-8c0.2-4.3,3.8-8,7.9-7.8c4,0.2,7.9,4.1,7.9,8.1
			C92.3,87.1,88.5,90.6,83.8,90.5z"/>
		<path class="st2" d="M68,45.7c4.5,0,7.8,3.2,7.7,7.8c-0.1,4.5-3.6,8.1-7.8,8c-3.7-0.1-8-4.4-8-8.1C59.8,49.3,63.6,45.8,68,45.7
			L68,45.7z"/>
	</g>
</g>
</svg>
