<?xml version="1.0" encoding="UTF-8"?>
<svg id="_Слой_2" data-name="Слой 2" xmlns="http://www.w3.org/2000/svg" viewBox="0 0 135 135">
  <defs>
    <style>
      .cls-1 {
        fill: #108090;
      }

      .cls-1, .cls-2, .cls-3, .cls-4, .cls-5, .cls-6, .cls-7, .cls-8, .cls-9, .cls-10, .cls-11 {
        stroke-width: 0px;
      }

      .cls-2 {
        fill: #0c5e68;
      }

      .cls-3 {
        fill: #23909f;
      }

      .cls-4 {
        fill: #2399a9;
      }

      .cls-5 {
        fill: #1297a9;
      }

      .cls-6 {
        fill: #035360;
      }

      .cls-7 {
        fill: #024545;
      }

      .cls-8 {
        fill: #074c54;
      }

      .cls-9 {
        fill: #096d7b;
      }

      .cls-10 {
        fill: #207b89;
      }

      .cls-11 {
        fill: #228695;
      }
    </style>
  </defs>
  <g id="_Слой_1-2" data-name="Слой 1">
    <g>
      <path class="cls-1" d="M135,15v41c-3.43,1.72-2.89,4.95-2.91,7.88-.09,16.48.12,32.96-.24,49.43-.3,13.94-5.32,18.64-18.9,18.68-16.31.06-32.62.05-48.94.1-2.47,0-5.06-.27-6.98,1.88-4.04.02-8.07.04-12.11.06-2.14,0-4.28-.12-6.41,0-7.84.43-15.76-1.12-23.52.97h-4c-2.8-3.92-7.88-5.88-9.35-10.94,1.3-1.91-.17-3.92.21-5.84,2.29-11.72.83-23.54,1-35.32-.04-11-.08-22-.12-33,.09-4.29.18-8.58.27-12.86,0-.36,0-.72,0-1.09-.1-4.99-.21-9.99-.31-14.98-.09-7.88,2.24-14.32,10.35-17.29,4.98-.2,9.96-.53,14.95-.56,22.29-.15,44.58-.21,66.87-.31,8.53.11,17.05.21,25.58.35,1.37.02,2.62-.15,3.57-1.24,5.99,2.4,8.96,7.34,10.99,13.07ZM67.18,30.99c-21.64,1.47-35.23,14.63-36.02,36.87-.7,19.6,16.42,36.45,36.32,36.06,20.23-.39,35.76-15.33,36.38-35.66.62-20.08-15.51-37.4-36.68-37.27Z"/>
      <path class="cls-5" d="M57.04,133.97c1.92-2.15,4.51-1.87,6.98-1.88,16.31-.05,32.62-.04,48.94-.1,13.57-.05,18.6-4.74,18.9-18.68.36-16.47.15-32.95.24-49.43.02-2.93-.52-6.16,2.91-7.88v65c-2.16,4.67-4.46,9.22-9.22,11.89-.73.41-1.15,1.17-.78,2.11h-6c-8.28-2.07-16.69-.55-25.04-.98-8.31,0-16.62-.01-24.93-.02-4-.01-8-.02-12-.03Z"/>
      <path class="cls-2" d="M94.86,2.82c-22.29.09-44.58.16-66.87.31-4.98.03-9.96.37-14.95.57,4.45-2.56,9.36-1.38,14.08-1.69,2.75-.18,5.71.47,7.87-2.01h60c-.05.94-.09,1.88-.14,2.82Z"/>
      <path class="cls-8" d="M35,0c-2.16,2.48-5.12,1.83-7.87,2.01-4.72.3-9.63-.88-14.08,1.69C4.93,6.66,2.61,13.1,2.7,20.98c-.9,0-1.8.01-2.7.02v-10C3.11,7.13,7.56,4.48,10,0h25Z"/>
      <path class="cls-9" d="M2.86,82.91c-.18,11.78,1.28,23.6-1,35.32-.37,1.91,1.09,3.93-.21,5.84-.55-.02-1.1-.04-1.65-.06,0-13.67,0-27.33,0-41,.95-.03,1.91-.06,2.86-.09Z"/>
      <path class="cls-2" d="M2.86,82.91c-.95.03-1.91.06-2.86.09,0-11,0-22,0-33,.91-.03,1.83-.06,2.74-.09.04,11,.08,22,.12,33Z"/>
      <path class="cls-9" d="M94.86,2.82c.05-.94.09-1.88.14-2.82h29c0,.64,0,1.29.01,1.93-.95,1.1-2.2,1.27-3.57,1.24-8.53-.14-17.05-.24-25.58-.35Z"/>
      <path class="cls-6" d="M2.74,49.91c-.91.03-1.83.06-2.74.09v-29c.9,0,1.8-.02,2.7-.02.1,4.99.21,9.99.31,14.98,0,.36,0,.72,0,1.09l-.27,12.86Z"/>
      <path class="cls-7" d="M124.01,1.93c0-.64,0-1.29-.01-1.93h11v15c-2.03-5.73-5-10.67-10.99-13.07Z"/>
      <path class="cls-7" d="M125,135c-.37-.94.05-1.69.78-2.11,4.75-2.68,7.06-7.22,9.22-11.89v14h-10Z"/>
      <path class="cls-7" d="M0,124c.55.02,1.1.04,1.65.06,1.46,5.06,6.55,7.02,9.35,10.94H0C0,131.33,0,127.67,0,124Z"/>
      <path class="cls-7" d="M10,0C7.56,4.48,3.11,7.13,0,11V0h10Z"/>
      <path class="cls-10" d="M15,135c7.77-2.09,15.69-.54,23.52-.97,2.13-.12,4.27,0,6.41,0,.03.32.05.64.07.97H15Z"/>
      <path class="cls-3" d="M69.03,134c8.31,0,16.62.01,24.93.02.01.33.03.65.04.98h-25c0-.33.02-.67.03-1Z"/>
      <path class="cls-4" d="M94,135c0-.33-.02-.65-.04-.98,8.34.43,16.76-1.09,25.04.98h-25Z"/>
      <path class="cls-11" d="M69.03,134c-.01.33-.02.67-.03,1h-24c-.02-.32-.04-.64-.07-.97,4.04-.02,8.07-.04,12.11-.06,4,.01,8,.02,12,.03Z"/>
      <path class="cls-5" d="M67.18,30.99c21.17-.13,37.3,17.18,36.68,37.27-.63,20.33-16.15,35.27-36.38,35.66-19.91.39-37.02-16.46-36.32-36.06.79-22.24,14.39-35.39,36.02-36.87Z"/>
      <path class="cls-2" d="M3.01,37.04c0-.36,0-.72,0-1.09,0,.36,0,.72,0,1.09Z"/>
    </g>
  </g>
</svg>