<?xml version="1.0" encoding="utf-8"?>
<!-- Generator: Adobe Illustrator 28.1.0, SVG Export Plug-In . SVG Version: 6.00 Build 0)  -->
<svg version="1.1" id="_Слой_2" xmlns="http://www.w3.org/2000/svg" xmlns:xlink="http://www.w3.org/1999/xlink" x="0px"
	 y="0px" viewBox="0 0 135 135" style="enable-background:new 0 0 135 135;" xml:space="preserve">
<style type="text/css">
	.st0{fill:#179BAD;}
	.st1{fill:#084B52;}
	.st2{fill:#FEFEFE;}
	.st3{fill:#17B117;}
	.st4{fill:#0D720E;}
	.st5{fill:#058905;}
	.st6{fill:#CEE1CE;}
</style>
<g id="_Слой_1-2">
	<g>
		<path class="st0" d="M135,12.1v2c-0.9,0.3-0.7,0.7,0,1v42.6c-2.2-1.5-2.4-4.7-5-5.9c-5.9-4.7-11.9-9.3-17.8-13.9
			c-1.2-2.9-3.8-4.7-5.8-6.9c-1.8-4.7-5.7-7-10-8.8c-0.4-0.3-0.7-0.7-1.1-1C91.2,16,88.5,9.6,82.5,6c0.6-2.7,2.8-1.8,4.4-1.8
			c8.5-0.1,17-0.1,25.5,0c3.1,0,6.1,0,8.7-2c2.2-0.1,3.9,1.4,5.8,2.1C130.8,5.9,131.3,10.6,135,12.1L135,12.1z"/>
		<path class="st0" d="M57.7,135H14.1c-4-3.3-9.8-4.7-11-10.9c1.7-1.4,1-3.4,1-5.1c0.1-12.5,0.1-25.1,0.1-37.6
			C9.5,88.8,17.9,92.7,24,99.2c1.7,2,3.4,4.1,5.1,6.1c2.4,3.8,4.9,7.3,9.8,7.9c0.6,0.7,1.3,1.3,1.9,1.9c3.4,7.6,8.8,13.4,15.8,17.8
			C57,133.6,57.4,134.3,57.7,135L57.7,135z"/>
		<path class="st1" d="M57.7,135c-0.3-0.7-0.7-1.4-1-2c5.9,0,11.9-0.2,17.8,0.1c3.7,0.2,6.7-0.9,9.3-3.3c5.9-5.5,9.7-12.9,15.6-18.4
			c1.6-1.4,3.2-2.7,4.9-4.1c4.3-1.9,6.8-5.3,8.1-9.8c1.1-0.9,1.2-2.6,2.7-3.1c2.4-0.3,4.1-2.2,5.9-3.3c4.5-2.8,10.2-6.4,10.6-11.4
			c0.8-9.2,2.3-18.7-1.6-27.8c2.6,1.2,2.9,4.4,5,5.9v25.8c-1.6,0.8-2.6,2.2-3,4c-10.1,6.2-16.6,16.1-25.2,23.7
			c-7.1,6.3-13.4,12.9-18.5,20.8c-1.9,0.5-3.5,1.6-4.9,3L57.7,135L57.7,135z"/>
		<path class="st0" d="M132,87.4c0.3-1.8,1.3-3.2,3-4v40.6c-4.1,3.9-7.5,8.5-12.9,10.9H83.5c1.4-1.4,3-2.5,4.9-3
			c9.4,0,18.8,0.1,28.2,0c9.4,0,15.4-6,15.5-15.4C132.1,106.9,132,97.2,132,87.4L132,87.4z"/>
		<path class="st2" d="M1.2,135c-2-0.9-0.9-2.7-0.9-3.9C0.2,87.5,0.2,44,0.2,0.2h56.6c24.7,0,49.4,0,74.2,0.1c1.3,0,3.1-1.1,3.9,0.9
			c-4.6,0-9.2,0.1-13.8,0.1c-12.9,0-25.8,0-38.7,0c-27,0-54,0-81,0v63.2c0,19.5,0,39,0,58.5C1.3,127.1,1.3,131,1.2,135z"/>
		<path class="st1" d="M121.2,1.4c4.6,0,9.2-0.1,13.8-0.1v10.9c-3.7-1.5-4.2-6.2-8.1-7.8c-1.9-0.8-3.5-2.2-5.8-2.1
			C121.1,1.9,121.1,1.6,121.2,1.4z"/>
		<path class="st1" d="M1.2,135c0-4,0.1-7.9,0.1-11.9c0.6,0.3,1.2,0.7,1.8,1c1.1,6.2,7,7.6,11,10.9H1.2z"/>
		<path class="st1" d="M122.1,135c5.4-2.4,8.8-7,12.9-10.9V135H122.1z"/>
		<path class="st1" d="M135,15.1c-0.7-0.3-0.9-0.7,0-1V15.1z"/>
		<path class="st3" d="M104.2,107.2c-1.6,1.4-3.2,2.7-4.9,4.1c-4.6,0.7-4.2-5-7.5-5.9c-4.2,1.7-8.6,3.1-4.7,8.9
			c0.6,0.9,0.5,2.4-1,2.8c-2.6,0.7-5,2.6-7.9,1.8c-2.7-9.1-1-8.3-10.3-5.8c-0.1,0.4-0.4,0.9-0.3,1.4c0.7,4.8-1.3,6.3-6.1,5.9
			c-4.8-0.5-4-3-3.1-6.2c0.8-3-1.9-3.2-3.8-4c-1.8-0.7-3.9-1.4-4.3,1.2c-1.2,6.5-4.8,6.2-9.5,3.9c-0.6-0.7-1.3-1.3-1.9-1.9
			c0.2-0.9,0.1-2.1,0.6-2.8c3.9-6.7,4-6.7-2.9-10.7c-3,1.2-3.1,6.2-7.5,5.6c-1.7-2-3.4-4.1-5.1-6.1c0.5-3.9,5.1-3.9,6.6-6.8
			c-1.7-4.3-4.5-6-8.4-5.2c-1.7,0.4-3.1,0.1-3.6-1.7c-0.6-2.4-2.2-4.8-1.2-7.4c9.3-1.9,7.6-0.8,5.9-9.9c-2.1-1.4-5,0.4-7.3-1.6
			c0.2-2.6-0.8-5.3,0.8-8.2c2.5,0.3,5,0.6,7.1,0.8c6.4-7.4,0-9.4-4.9-11.6c0.7-2.6,2.3-4.4,2-6.6h0c0.3-0.3,0.6-0.6,1-1
			c0.3-0.3,0.7-0.7,1-1c1.5,0,3,0.6,4,1.7c3,3.5,5.2,1.9,7.5-0.8c2.5-2.9,0.8-4.7-1.5-6.4c-1.2-0.9-2.1-2.1-2.2-3.7
			c2.1-1.9,3.9-4.2,6.8-4.8c2.2,0.1,3.1,1.7,3.8,3.4c1.1,2.8,2.8,2.8,5,1.4c1.4-0.9,3.1-1.2,4-2.6c0.4-1.5-0.6-2.6-1.1-3.8
			c-0.6-1.4-1.3-2.9,0.2-4c2-1.5,4.6-1.9,7-2c1.8,0,2.1,1.8,2.1,3.4c-0.1,3.5,1.3,4.8,4.9,3.9c3.2-0.7,6.5-1,4.6-5.7
			c-0.3-0.8-0.4-1.6,0.2-2.3c9.2-1.8,9.8-1.3,8.6,7.9c2.9,0.8,6.8,5.1,8.6,0.7c2.4-5.7,5.4-5.5,9.8-4c0.4,0.3,0.7,0.7,1.1,1
			c-0.1,1.5,0.3,3.5-0.5,4.3c-5.3,5.4-0.8,7.5,3.1,9.9c2.9-1.3,3.9-5.1,7.4-5.4c2,2.2,4.6,3.9,5.8,6.9c-0.6,1.8-2.3,2.4-3.7,3.1
			c-3.2,1.7-3.6,3.5-1.9,6.7c1.6,3.1,3.4,3.4,6.3,1.9c5.1-2.7,4.7,2.4,5.8,4.6c1.3,2.7-0.1,4.3-3.2,4.5c-2.5,0.2-4.8,0.9-4.2,4.1
			c0.5,2.9,0.4,6.6,5.3,5.8c1.4-0.2,2.9-0.3,3.5,1.7c1.7,5.5-0.6,8.1-6,7c-0.8-0.2-1.5-0.4-2.1-0.5c-7.4,7.8,0.6,9.3,4.9,11.8
			c-0.6,2.3-2.3,3.6-2,5.6c-1.5,0.5-1.7,2.2-2.7,3.1c-3-0.4-4.7-3.4-8-4.1c-1.6,2-3.8,3.7-4.8,6.1
			C100.8,102.4,105.3,103.1,104.2,107.2L104.2,107.2z M76.6,28c-5.6-1.6-11.2-1.6-16.9,0C38,32.1,23.3,53,27.3,75.4
			c4.2,23.3,28.3,39.7,52.5,32c16.6-5.2,28.9-20.8,29.4-38.1C109.7,51,97.3,32.2,76.6,28L76.6,28z"/>
		<path class="st4" d="M95.2,21.2c-4.4-1.5-7.4-1.7-9.8,4c-1.8,4.4-5.7,0.1-8.6-0.7c1.3-9.2,0.7-9.7-8.6-7.9
			c-0.6,0.7-0.5,1.5-0.2,2.3c1.9,4.7-1.4,4.9-4.6,5.7c-3.6,0.8-4.9-0.5-4.9-3.9c0-1.5-0.2-3.4-2.1-3.4c-2.4,0.1-5,0.4-7,2
			c-1.5,1.1-0.7,2.6-0.2,4c0.5,1.2,1.5,2.2,1.1,3.8c-1,1.4-2.7,1.7-4,2.6c-2.2,1.4-3.9,1.4-5-1.4c-0.7-1.7-1.6-3.3-3.8-3.4
			c1.9-4.5,5.5-7.9,8.4-11.6c2-2.7,3.5-6.4,7.6-7.2c1.5-1.4,3.2-1.8,5.3-1.8c7.2,0.1,14.3,0.1,21.5,0.1c0.5,0.9,1.1,1.6,2.2,1.7
			C88.5,9.6,91.2,16,95.2,21.2L95.2,21.2z"/>
		<path class="st4" d="M115.1,94.3c-0.3-2,1.3-3.3,2-5.6c-4.3-2.5-12.3-4-4.9-11.8c0.5,0.1,1.3,0.3,2.1,0.5c5.4,1.1,7.6-1.5,6-7
			c-0.6-2-2.1-2-3.5-1.7c-4.8,0.8-4.7-2.9-5.3-5.8c-0.6-3.2,1.7-4,4.2-4.1c3.1-0.2,4.5-1.8,3.2-4.5c-1.1-2.3-0.7-7.4-5.8-4.6
			c-2.9,1.5-4.6,1.2-6.3-1.9c-1.7-3.2-1.3-5,1.9-6.7c1.4-0.7,3.1-1.3,3.7-3.1c5.9,4.7,11.9,9.3,17.8,13.9c3.9,9,2.3,18.6,1.6,27.8
			c-0.4,5.1-6.1,8.6-10.6,11.4C119.1,92.1,117.4,94,115.1,94.3L115.1,94.3z"/>
		<path class="st0" d="M82.5,6c-1.1-0.1-1.7-0.9-2.2-1.7c0.5-1.1,2.1-1.4,2.1-2.9c12.9,0,25.8,0,38.7,0c0,0.3,0,0.6,0,0.8
			c-2.6,2.1-5.6,2-8.7,2c-8.5-0.1-17-0.1-25.5,0C85.3,4.3,83.1,3.3,82.5,6z"/>
		<path class="st4" d="M106.4,31c-3.6,0.3-4.5,4.2-7.4,5.4c-3.8-2.4-8.4-4.5-3.1-9.9c0.8-0.8,0.3-2.8,0.5-4.3
			C100.7,24,104.5,26.3,106.4,31L106.4,31z"/>
		<path class="st4" d="M40.9,115.1c4.7,2.3,8.3,2.6,9.5-3.9c0.5-2.5,2.5-1.9,4.3-1.2c1.9,0.8,4.7,1,3.8,4c-0.8,3.2-1.8,5.7,3.1,6.2
			c4.7,0.5,6.8-1.1,6.1-5.9c-0.1-0.4,0.2-0.9,0.3-1.4c9.3-2.6,7.6-3.3,10.3,5.8c2.9,0.9,5.3-1.1,7.9-1.8c1.5-0.4,1.6-1.9,1-2.8
			c-4-5.8,0.5-7.2,4.7-8.9c3.3,0.9,2.9,6.6,7.5,5.9c-5.9,5.5-9.6,12.9-15.6,18.4c-2.6,2.4-5.6,3.5-9.3,3.3
			c-5.9-0.3-11.8-0.1-17.8-0.1C49.7,128.5,44.3,122.7,40.9,115.1L40.9,115.1z"/>
		<path class="st4" d="M21.1,40.9c0.3,2.3-1.3,4-2,6.6c4.9,2.2,11.3,4.3,4.9,11.6c-2-0.2-4.6-0.5-7.1-0.8c-1.6,2.9-0.6,5.7-0.8,8.2
			c2.3,2.1,5.1,0.2,7.3,1.6c1.7,9.1,3.4,8.1-5.9,9.9c-1,2.6,0.6,5,1.2,7.4c0.4,1.8,1.9,2,3.6,1.7c3.9-0.9,6.7,0.9,8.4,5.2
			c-1.6,2.8-6.1,2.9-6.6,6.8C17.9,92.7,9.6,88.8,4.3,81.4l0-0.1c0.3-8.9-1.1-17.8,0.8-26.6C8.6,47.9,15,44.6,21.1,40.9L21.1,40.9z"
			/>
		<path class="st0" d="M3.2,124.1c-0.6-0.3-1.2-0.7-1.8-1c0-19.5,0-39,0-58.5c1.7,4.1,0.4,8.4,0.9,12.6c0.2,1.6-1,3.9,2,4.1l0,0.1
			c0,12.5,0,25.1-0.1,37.6C4.2,120.7,4.9,122.7,3.2,124.1L3.2,124.1z"/>
		<path class="st4" d="M29.1,105.2c4.3,0.6,4.5-4.4,7.5-5.6c6.9,4,6.9,4,2.9,10.7c-0.5,0.8-0.4,1.9-0.6,2.8
			C34.1,112.5,31.5,109,29.1,105.2z"/>
		<path class="st0" d="M132,87.4c0,9.7,0,19.4,0,29.2c-0.1,9.4-6.1,15.4-15.5,15.4c-9.4,0-18.8,0-28.2,0c5-7.9,11.4-14.5,18.4-20.8
			C115.4,103.5,122,93.6,132,87.4L132,87.4z"/>
		<path class="st4" d="M104.2,107.2c1-4.1-3.5-4.7-4.7-7.7c1-2.4,3.2-4.1,4.8-6.1c3.2,0.6,4.9,3.7,8,4.1
			C111,101.8,108.5,105.2,104.2,107.2L104.2,107.2z"/>
		<path class="st1" d="M4.3,81.3c-3-0.2-1.8-2.5-2-4.1C1.8,73,3.2,68.7,1.4,64.6c0-20.9,0-41.9,0-63.2c27,0,54,0,81,0
			c0.1,1.5-1.5,1.8-2.1,2.9c-7.2,0-14.3,0-21.5-0.1c-2.1,0-3.8,0.4-5.3,1.8c-0.2-2.3-2-1.8-3.3-1.8c-11,0-22.1-0.1-33.1,0.1
			c-6.6,0.1-12.9,6.5-13,13.2C4.1,28.8,4.2,40.1,4.2,51.5c0,1.1-0.2,2.3,1,3.2C3.2,63.5,4.6,72.4,4.3,81.3L4.3,81.3z"/>
		<path class="st0" d="M5.1,54.7c-1.1-0.8-1-2-1-3.2c0-11.4-0.1-22.7,0.1-34.1c0.1-6.7,6.3-13.1,13-13.2c11-0.2,22.1-0.1,33.1-0.1
			c1.4,0,3.2-0.4,3.3,1.8c-4,0.8-5.5,4.5-7.6,7.2c-2.9,3.8-6.5,7.2-8.4,11.6c-3,0.6-4.8,2.9-6.8,4.9c-4.3,1.6-6.4,5.1-7.8,9.2
			c-0.3,0.3-0.7,0.7-1,1c-0.3,0.3-0.6,0.6-1,1h0C15,44.6,8.5,47.9,5.1,54.7L5.1,54.7z"/>
		<path class="st4" d="M76.6,28c20.7,4.2,33.2,23,32.7,41.4c-0.4,17.3-12.8,32.9-29.4,38.1c-24.3,7.7-48.3-8.7-52.5-32
			C23.3,53,38,32.1,59.7,28C65.3,29.8,70.9,28,76.6,28L76.6,28z M29.9,67.3c-1.3,20.5,16.8,38.8,37.2,39.2
			c20.8,0.5,38.7-17.3,39.3-36.8c0.6-22.1-16.5-39-38.2-39.8C47.7,29,29.1,47.8,29.9,67.3L29.9,67.3z"/>
		<path class="st4" d="M23,39c1.4-4.1,3.5-7.6,7.8-9.2c0.1,1.6,1,2.8,2.2,3.7c2.3,1.7,4,3.5,1.5,6.4c-2.3,2.7-4.5,4.3-7.5,0.8
			C26.1,39.6,24.6,39,23,39L23,39z"/>
		<path class="st5" d="M76.6,28c-5.6,0.1-11.2,1.8-16.9,0C65.3,26.4,70.9,26.4,76.6,28z"/>
		<path class="st4" d="M21.1,40.9c0.3-0.3,0.6-0.6,1-1C21.7,40.3,21.4,40.6,21.1,40.9z"/>
		<path class="st3" d="M29.9,67.3C29.1,47.8,47.7,29,68.2,29.8c21.7,0.9,38.8,17.7,38.2,39.8C105.9,89.2,88,107,67.1,106.5
			C46.7,106,28.6,87.7,29.9,67.3L29.9,67.3z M57.7,67.9c0,6.6,3.8,10.7,10.2,10.8c6.2,0.1,10.6-4.2,10.7-10.4
			c0-6.4-4-10.5-10.3-10.6C61.7,57.6,57.7,61.5,57.7,67.9z"/>
		<path class="st6" d="M57.7,67.9c0-6.4,4-10.3,10.6-10.2c6.3,0,10.4,4.2,10.3,10.6c0,6.2-4.4,10.5-10.7,10.4
			C61.5,78.6,57.6,74.6,57.7,67.9z M68.1,60.6c-4.5,0-8.2,3.4-8.3,7.5c0,4,3.7,7.5,8.2,7.6c5.1,0.1,7.7-2.5,7.7-7.5
			S73,60.6,68.1,60.6L68.1,60.6z"/>
		<path class="st2" d="M68.1,60.6c5,0,7.6,2.6,7.6,7.6c0,5-2.6,7.5-7.7,7.5c-4.4-0.1-8.2-3.6-8.2-7.6C59.8,64,63.6,60.6,68.1,60.6
			L68.1,60.6z"/>
	</g>
</g>
</svg>
