<?xml version="1.0" encoding="utf-8"?>
<!-- Generator: Adobe Illustrator 28.1.0, SVG Export Plug-In . SVG Version: 6.00 Build 0)  -->
<svg version="1.1" id="_Слой_2" xmlns="http://www.w3.org/2000/svg" xmlns:xlink="http://www.w3.org/1999/xlink" x="0px"
	 y="0px" viewBox="0 0 135 135" style="enable-background:new 0 0 135 135;" xml:space="preserve">
<style type="text/css">
	.st0{fill:#179BAD;}
	.st1{fill:#0B515E;}
	.st2{fill:#FDFDFC;}
	.st3{fill:#1616B1;}
	.st4{fill:#0E0F71;}
	.st5{fill:#1E497B;}
</style>
<g id="_Слой_1-2">
	<g>
		<path class="st0" d="M135,10.9v43.6c-1-0.4-2-0.8-3-1.2c-0.6-1.8-2.3-2.8-3.6-3.9c-5.3-4.4-10.8-8.7-16.1-13
			c-1.7-2.4-3.4-4.8-5.7-6.7c-2.1-4.3-5.7-6.9-10.2-8.2c-0.3-0.5-0.7-1-1.1-1.5c-4.6-5.4-7.4-12.2-13.8-16c0.9-0.9,2-1,3.2-1
			c12.8-0.4,25.7,0.8,38.5-0.6c0.8-0.1,1.8,0.8,2.7,1C130.6,3.9,131,9.4,135,10.9L135,10.9z"/>
		<path class="st1" d="M135,10.9c-3.9-1.5-4.4-7-9.1-7.7c-0.9-0.1-1.8-1-2.7-1c-12.8,1.4-25.6,0.2-38.5,0.6c-1.2,0-2.3,0.1-3.2,1
			c-0.4-0.2-0.8-0.5-1.1-0.7C71.9,1.1,63.3,1.4,54.7,3C42.9,3,31,2.9,19.2,3c-9.2,0.1-15,6.1-15,15.3c0,11.8,0,23.7,0,35.5
			c0.4,9.1-1.1,18.2,1,27.3c-1.6,1.6-1,3.7-1.1,5.6C3.7,96.9,4.8,107,3.2,117.1c-1.2,7.1,1.9,12,8.5,14.9c0.9,0.4,1.6,1,2.5,1.6H1.2
			V0H135V10.9z"/>
		<path class="st1" d="M132,53.3c1,0.4,2,0.8,3,1.2v27.7c-1.6,0.9-2.2,2.5-2.9,4c-6.7,5.9-15.1,10-19.6,18.2c-2.2,4-5.8,6.7-9.5,9.1
			c-6.4,4.3-10.3,10.4-13.7,17c-1.9,1-3.8,2-5.7,3.1c-8.3,0-16.6,0-24.9,0c-1-0.9-2.1-1.8-3.1-2.7c7.1,0,14.1-0.1,21.2-0.1
			c2,0,3.8-0.2,5.5-1.6c6.8-5.3,11.1-12.6,16.1-19.3c2.3-1.2,5-1.9,6-4.8c5.2-1.3,7.1-5.7,8.8-10.1l0,0c5.2-2.8,9.6-6.7,14.2-10.3
			c3.5-2.7,4.8-6.4,4.7-10.8C131.9,67.2,132,60.2,132,53.3L132,53.3z"/>
		<path class="st0" d="M132.1,86.2c0.7-1.5,1.4-3.1,2.9-4v40.6c-4.3,3.6-7.3,8.7-12.9,10.8c-12.8,0-25.7,0-38.6,0c1.9-1,3.8-2,5.7-3
			c8.9,0.1,17.8,0.2,26.7,0.2c10.3,0,16-5.7,16.1-15.8C132.1,105.4,132,95.8,132.1,86.2L132.1,86.2z"/>
		<path class="st2" d="M83.6,133.6c12.8,0,25.7,0,38.6,0c4.3,0.1,8.6,0.1,12.9,0.1c-0.9,2-2.7,0.9-3.9,0.9
			c-43.5,0.1-87,0.1-130.8,0.1V78.1c0-24.7,0-49.4,0-74.2c0-1.3-1.1-3.1,0.9-4v133.6c4.4,0,8.7,0,12.9,0c14.9,0,29.7,0,44.6,0
			C67,133.6,75.3,133.6,83.6,133.6L83.6,133.6z"/>
		<path class="st1" d="M135,133.8c-4.3-0.1-8.6-0.1-12.9-0.1c5.6-2.1,8.6-7.1,12.9-10.8V133.8z"/>
		<path class="st3" d="M104.4,105.2c-1,2.8-3.7,3.6-6,4.8c-1.2-0.1-2.3-0.6-2.8-1.7c-1.3-2.9-3.1-4.5-6.6-3
			c-3.8,1.6-3.3,4.3-2.3,7.3c0.5,1.6,1.3,3.4-1,4.1c-2.4,0.8-4.9,1.2-7.5,1.9c-0.5-1.7-1.2-3.1-1.4-4.5c-0.4-3.7-3.1-3.1-5.6-3.2
			c-2.8-0.1-3.9,1.3-3.6,4c0.4,3.9-2.1,4.1-5,4.1c-3.4,0.1-4.2-1.6-4-4.6c0.2-2.6,0.1-4.8-3.4-5.5c-3.1-0.6-5.1-0.2-6,3
			s-2.9,3.7-5.6,2.2c-1.2-0.7-2.3-1.2-3.7-1.2c-0.4-0.3-0.7-0.6-1.1-0.8c0-1.8,0.7-3.1,1.8-4.4c1.7-2,2.9-4.1,0.1-6.3
			c-2.6-2.1-5-3-7.5,0.3c-0.9,1.1-2.3,1.8-3.5,2.6c-2.2-1.7-4.1-3.7-5.5-6.2c0.9-1.9,2-3.8,4.1-4.7c2.2-1,3.1-2.3,1.6-4.6
			c-1.4-2.1-2-5.2-5.7-3.7c-1.5,0.6-3,1.2-4.3,1.7c-2.1-1.7-1.9-4-2.5-6c-0.8-2.6,0.2-4.1,3-4.4c2.4-0.2,4.6-0.6,4.1-4.1
			c-0.5-3-1-5.4-5-5c-3.5,0.4-4.6-1.8-4.2-5c0.4-3.4,1.8-5.5,5.8-4.8c3.5,0.7,4.5-1.8,5.5-4.4c1.1-3.1-1.3-3.6-3.2-4.4
			c-3.2-1.2-4-3.2-2.3-6.1c0.7-1.3,1.3-2.7,1.9-4l-0.1,0c1.7,0,3.3,0.5,4.6,1.5c2.3,1.8,4.2,2.2,6.2-0.6c1.7-2.5,2.5-4.5-0.2-6.8
			c-1.4-1.1-2.4-2.7-3.5-4.1c2.2-1.6,4.5-3.2,6.7-4.9c1.7,0,3.2,0.4,4,2.2c1.3,2.7,2.7,4.5,6.5,2.5c3.3-1.8,3.8-3.3,2.3-6.5
			c-2.3-4.7,2.5-4.6,4.6-5.7c2.4-1.2,4.5-0.4,4.6,3c0,4.5,3.1,4.6,6.5,4.5c3.9-0.1,3.5-2.8,3.3-5.2c-0.3-3.8,1.4-5.1,4.9-4.6
			c3.6,0.5,5.5,2,4.1,5.9c-0.4,1-0.9,2.1-0.2,3.3c4.3,2.5,7.5,1.7,9.5-2.5c0.9-1.8,1.9-3,4.2-1.5c1.1,0.7,2.8,0.5,4.3,0.8
			c0.3,0.5,0.7,1,1.1,1.6c-0.2,1.3,0,2.7-0.5,3.8c-2.9,6.5-2.9,6.6,3.8,9.7c2.6-1.3,3.7-4.7,6.9-5.3c2.3,1.9,4,4.3,5.7,6.7
			c-0.8,1.5-1.9,2.6-3.5,3.4c-2.8,1.4-3.8,3.1-2,6.2c1.6,2.7,2.6,4.1,6,2.1c3.1-1.8,4.8,0.3,5.4,3.4c0.5,2.5,2.1,5.5-2.4,5.8
			c-2.9,0.2-5,1-4.4,4.4c0.5,2.8,0.5,6.2,5,5.7c2.7-0.3,3.7,1.1,3.8,3.8c0.2,5.6-0.2,6.1-5.9,5.3c-1.9-0.2-3.8-0.4-4.1,2.2
			c-0.2,2.2-2,5.5,1,6c7.2,1.4,5.8,4.5,2.5,8.6c-0.4,0.5-0.4,1.2-0.5,1.9l0,0c-3.5,0.7-5.5-2.4-8.2-3.4c-3.9,3.2-4.5,6.8-1.7,10.8
			C104,103.3,104.1,104.3,104.4,105.2L104.4,105.2z M104.9,80.5c-6.6,10.8-13.7,19.2-25.3,22.8c-11.6,3.6-22.4,2.3-32.5-4.3
			c-14.5-9.4-21.1-27.7-15.7-43.2c6.8-19.3,21.2-27.4,38.5-26.9c9.7,0.3,18.5,3.8,25.2,10.9c9.8,10.4,12.9,23.1,10.4,38.1
			c6.2-6.3,3.7-26.8-6.3-37.9c-12.8-14.2-34-19.9-52.6-8.1C27.9,43.6,22,62.3,29.6,82c7.9,20.3,26.1,29.6,49.1,24.8
			C92.6,103.9,106.2,88.5,104.9,80.5L104.9,80.5z M68.1,56.6c-6.2,0-10.2,3.9-10.3,10c-0.1,6.5,3.8,10.6,10.1,10.6
			c6.1,0,10.3-4,10.5-10C78.6,60.9,74.4,56.6,68.1,56.6L68.1,56.6z"/>
		<path class="st4" d="M95.3,19.9c-1.4-0.2-3.1,0-4.3-0.8c-2.3-1.4-3.3-0.3-4.2,1.5c-2,4.1-5.2,5-9.5,2.5c-0.7-1.1-0.1-2.3,0.2-3.3
			c1.4-3.9-0.5-5.5-4.1-5.9c-3.6-0.5-5.3,0.8-4.9,4.6c0.2,2.4,0.5,5.1-3.3,5.2c-3.4,0.1-6.5,0-6.5-4.5c0-3.3-2.2-4.2-4.6-3
			c-2.1,1.1-6.9,1-4.6,5.7c1.5,3.2,1.1,4.7-2.3,6.5c-3.8,2-5.1,0.2-6.5-2.5c-0.9-1.8-2.3-2.2-4-2.2c4.1-4,7-9,10.5-13.5
			c2-2.6,4.3-4.9,7.4-6.4c8.5-1.7,17.2-0.6,25.8-0.7c0.4,0.2,0.8,0.5,1.1,0.7C88,7.7,90.7,14.6,95.3,19.9L95.3,19.9z"/>
		<path class="st4" d="M113.2,95.2c0.2-0.6,0.2-1.4,0.5-1.9c3.4-4.1,4.7-7.2-2.5-8.6c-3-0.6-1.2-3.9-1-6c0.3-2.6,2.2-2.4,4.1-2.2
			c5.7,0.7,6.1,0.3,5.9-5.3c-0.1-2.7-1.1-4.1-3.8-3.8c-4.5,0.6-4.5-2.9-5-5.7c-0.6-3.3,1.5-4.2,4.4-4.4c4.5-0.3,2.9-3.3,2.4-5.8
			c-0.6-3.2-2.4-5.2-5.4-3.4c-3.4,2-4.4,0.6-6-2.1c-1.8-3.1-0.8-4.8,2-6.2c1.5-0.8,2.6-1.9,3.5-3.4c5.4,4.3,10.8,8.6,16.1,13
			c1.4,1.1,3,2.1,3.6,3.9c0,6.9-0.2,13.8,0.1,20.7c0.1,4.5-1.2,8.2-4.7,10.8C122.8,88.5,118.4,92.4,113.2,95.2L113.2,95.2z"/>
		<path class="st4" d="M106.6,29.7c-3.2,0.6-4.3,3.9-6.9,5.3c-6.7-3.1-6.7-3.2-3.8-9.7c0.5-1.1,0.4-2.5,0.5-3.8
			C100.9,22.8,104.4,25.4,106.6,29.7z"/>
		<path class="st0" d="M38.9,112c0.4,0.3,0.7,0.6,1.1,0.8c4.3,6.7,8.5,13.6,15.6,18c1,0.9,2.1,1.8,3.1,2.7c-14.9,0-29.7,0-44.6,0
			c-0.8-0.5-1.6-1.2-2.5-1.6c-6.5-2.9-9.6-7.8-8.5-14.9C4.8,107,3.7,96.9,4.1,86.7c0.1-1.9-0.5-4,1.1-5.6
			c5.2,6.9,13.3,10.6,19.1,16.9c1.4,2.5,3.3,4.4,5.5,6.2C31.6,108.2,34.7,110.7,38.9,112L38.9,112z"/>
		<path class="st0" d="M54.7,3.8c-3,1.5-5.4,3.8-7.4,6.4c-3.5,4.5-6.5,9.4-10.5,13.5c-2.2,1.6-4.5,3.2-6.7,4.9
			c-3.2,2.8-6.8,5.2-7.1,10l0.1,0c-7.4,3.7-13.7,8.8-18.8,15.3c0-11.9-0.1-23.7,0-35.5C4.2,9.1,10,3.1,19.2,3C31,2.9,42.9,3,54.7,3
			C54.7,3.3,54.7,3.5,54.7,3.8L54.7,3.8z"/>
		<path class="st4" d="M4.2,53.8C9.3,47.3,15.6,42.2,23,38.6c-0.6,1.3-1.2,2.7-1.9,4c-1.7,3-0.9,5,2.3,6.1c2,0.7,4.3,1.3,3.2,4.4
			c-0.9,2.6-2,5.1-5.5,4.4c-3.9-0.7-5.4,1.3-5.8,4.8c-0.4,3.2,0.6,5.4,4.2,5c4-0.4,4.5,2,5,5c0.5,3.4-1.7,3.8-4.1,4.1
			c-2.8,0.3-3.8,1.8-3,4.4c0.6,2,0.4,4.3,2.5,6c1.4-0.5,2.9-1.1,4.3-1.7c3.7-1.5,4.4,1.6,5.7,3.7c1.5,2.3,0.6,3.6-1.6,4.6
			c-2.1,0.9-3.2,2.8-4.1,4.7c-5.8-6.3-13.9-9.9-19.1-16.9C3.1,72.1,4.6,62.9,4.2,53.8L4.2,53.8z"/>
		<path class="st5" d="M54.7,3.8c0-0.3,0.1-0.5,0.1-0.8c8.6-1.6,17.1-2,25.7,0.1C71.8,3.3,63.2,2.1,54.7,3.8z"/>
		<path class="st0" d="M132.1,86.2c0,9.6,0,19.2-0.1,28.7c-0.1,10.2-5.8,15.9-16.1,15.8c-8.9,0-17.8-0.1-26.7-0.2
			c3.4-6.6,7.3-12.7,13.7-17c3.7-2.5,7.3-5.2,9.5-9.1C117,96.2,125.3,92.1,132.1,86.2L132.1,86.2z"/>
		<path class="st4" d="M55.5,130.9c-7.1-4.4-11.2-11.3-15.6-18c1.4,0,2.5,0.5,3.7,1.2c2.7,1.5,4.7,1.1,5.6-2.2c0.9-3.3,3-3.6,6-3
			c3.5,0.7,3.6,2.9,3.4,5.5c-0.3,3,0.5,4.7,4,4.6c2.9-0.1,5.4-0.2,5-4.1c-0.3-2.6,0.8-4,3.6-4c2.5,0.1,5.1-0.5,5.6,3.2
			c0.2,1.4,0.8,2.8,1.4,4.5c2.6-0.6,5.1-1.1,7.5-1.9c2.3-0.7,1.6-2.6,1-4.1c-1-3-1.5-5.7,2.3-7.3c3.5-1.5,5.2,0.1,6.6,3
			c0.5,1.1,1.6,1.6,2.8,1.7c-5.1,6.7-9.4,14-16.1,19.3c-1.7,1.3-3.5,1.6-5.5,1.6C69.7,130.8,62.7,130.9,55.5,130.9L55.5,130.9z"/>
		<path class="st4" d="M104.4,105.2c-0.3-0.9-0.5-1.9-1-2.7c-2.8-3.9-2.2-7.5,1.7-10.8c2.7,1,4.7,4.1,8.2,3.4
			C111.5,99.5,109.7,103.9,104.4,105.2L104.4,105.2z"/>
		<path class="st4" d="M104.9,80.5c1.3,8.1-12.2,23.4-26.1,26.3c-23,4.8-41.2-4.5-49.1-24.8c-7.7-19.6-1.7-38.3,17-50.2
			c18.5-11.7,39.8-6,52.6,8.1c10,11.1,12.5,31.6,6.3,37.9c2.6-15-0.6-27.7-10.4-38.1c-6.7-7.1-15.5-10.7-25.2-10.9
			c-17.4-0.5-31.7,7.6-38.5,26.9C25.9,71.3,32.6,89.5,47.1,99c10.1,6.5,20.9,7.8,32.5,4.3C91.2,99.7,98.3,91.3,104.9,80.5
			L104.9,80.5z"/>
		<path class="st2" d="M68.1,56.6c6.3,0,10.5,4.3,10.3,10.6c-0.1,6-4.4,10-10.5,10c-6.3,0-10.2-4.1-10.1-10.6
			C57.9,60.5,61.9,56.6,68.1,56.6L68.1,56.6z"/>
		<path class="st4" d="M23,38.6c0.3-4.8,3.9-7.3,7.1-10c1.2,1.4,2.2,3,3.5,4.1c2.8,2.3,2,4.3,0.2,6.8c-2,2.8-3.9,2.3-6.2,0.6
			C26.2,39,24.6,38.6,23,38.6z"/>
		<path class="st4" d="M38.9,112c-4.1-1.3-7.3-3.8-9.1-7.9c1.2-0.9,2.7-1.5,3.5-2.6c2.5-3.3,4.9-2.3,7.5-0.3
			c2.8,2.2,1.6,4.3-0.1,6.3C39.6,108.9,38.9,110.3,38.9,112z"/>
	</g>
</g>
</svg>
