<?xml version="1.0" encoding="UTF-8"?>
<svg id="_Слой_2" data-name="Слой 2" xmlns="http://www.w3.org/2000/svg" viewBox="0 0 135 135">
  <defs>
    <style>
      .cls-1 {
        fill: #fefefe;
      }

      .cls-1, .cls-2, .cls-3, .cls-4, .cls-5, .cls-6, .cls-7, .cls-8, .cls-9, .cls-10 {
        stroke-width: 0px;
      }

      .cls-2 {
        fill: #1296a8;
      }

      .cls-3 {
        fill: #23909f;
      }

      .cls-4 {
        fill: #0a555f;
      }

      .cls-5 {
        fill: #2399a9;
      }

      .cls-6 {
        fill: #10808f;
      }

      .cls-7 {
        fill: #024545;
      }

      .cls-8 {
        fill: #0b6e7b;
      }

      .cls-9 {
        fill: #207b89;
      }

      .cls-10 {
        fill: #228695;
      }
    </style>
  </defs>
  <g id="_Слой_1-2" data-name="Слой 1">
    <g>
      <path class="cls-6" d="M135,16.09v41.62c-3.48-.24-2.95,2.26-2.95,4.36-.02,17.82.01,35.64-.04,53.46-.03,10.7-5.87,16.49-16.49,16.5-17.65.01-35.31-.02-52.96.07-1.73,0-4.19-1.12-4.84,1.91-3.97,0-7.94,0-11.91.01-7.71,0-15.42-.08-23.13.04-2.19.03-4.61-.91-6.58.94h-3.96c.06-1.96-1.71-2.17-2.86-2.95-2.92-1.97-5.36-4.31-6.16-7.92,1.5-1.06,1.08-2.65,1.08-4.08,0-12.54-.03-25.09-.05-37.63.02-21.27.03-42.53.08-63.8.01-6.19,3.99-12.18,9.12-13.25,3.18-.66,6.4-1.23,9.75-1.22,23.74.09,47.48,0,71.22-.02,9.94-.36,19.93,1.18,29.81-.94,6.09,2.22,8.71,7.37,10.88,12.9ZM68.13,32.93c-22.09,1.27-34.95,14.1-34.94,36.67.01,19.52,14.14,32.84,34.05,33.44,20.89.63,34.9-14.55,36.05-33.99,1.09-18.42-16.2-37.31-35.16-36.13Z"/>
      <path class="cls-2" d="M57.72,134c.65-3.03,3.11-1.9,4.84-1.91,17.65-.08,35.31-.05,52.96-.07,10.62,0,16.46-5.79,16.49-16.5.05-17.82.02-35.64.04-53.46,0-2.1-.53-4.6,2.95-4.36v63.42c-2.15,4.82-4.63,9.37-9.47,12.12-.36.21-.3,1.15-.44,1.75h-5.95c-1.28-1.51-3.04-.96-4.61-.97-6.72-.05-13.45-.02-20.17-.02-8.25,0-16.51,0-24.76,0h-11.89Z"/>
      <path class="cls-1" d="M1.23,135c-2.04-.89-.93-2.67-.93-3.95C.23,87.53.24,44.01.24.24h56.62c24.73,0,49.45-.02,74.18.06,1.28,0,3.07-1.11,3.95.93-4.6.06-9.19.11-13.79.17-8.96,0-17.91.01-26.87.02-27.73-.01-55.47-.03-83.2-.04H1.37v10.76c.01,23.44.02,46.89.03,70.33,0,13.23-.01,26.46-.02,39.69-.05,4.28-.1,8.56-.15,12.84Z"/>
      <path class="cls-7" d="M121.21,1.4c4.6-.06,9.19-.11,13.79-.17v14.86c-2.17-5.53-4.79-10.67-10.88-12.9-.97-.6-1.94-1.2-2.91-1.8Z"/>
      <path class="cls-7" d="M1.23,135c.05-4.28.1-8.56.15-12.84.57.66,1.15,1.32,1.72,1.98.81,3.61,3.24,5.95,6.16,7.92,1.16.78,2.92.99,2.86,2.95H1.23Z"/>
      <path class="cls-7" d="M125.09,135c.14-.6.08-1.54.44-1.75,4.83-2.75,7.32-7.3,9.47-12.12v13.87h-9.91Z"/>
      <path class="cls-9" d="M16.1,135c1.96-1.85,4.38-.91,6.58-.94,7.71-.12,15.42-.04,23.13-.04,0,.33.01.66.01.98h-29.73Z"/>
      <path class="cls-3" d="M69.61,134.01c8.25,0,16.51,0,24.76,0,0,.33,0,.66,0,.99h-24.77c0-.33,0-.66,0-.99Z"/>
      <path class="cls-5" d="M94.37,135c0-.33,0-.66,0-.99,6.72,0,13.45-.04,20.17.02,1.57.01,3.33-.54,4.61.97h-24.77Z"/>
      <path class="cls-10" d="M69.61,134.01c0,.33,0,.66,0,.99h-23.78c0-.33,0-.66-.01-.98,3.97,0,7.94,0,11.91-.01,3.96,0,7.93,0,11.89,0Z"/>
      <path class="cls-2" d="M68.13,32.93c18.96-1.18,36.24,17.71,35.16,36.13-1.15,19.44-15.16,34.62-36.05,33.99-19.91-.6-34.04-13.93-34.05-33.44-.01-22.57,12.85-35.41,34.94-36.67Z"/>
      <path class="cls-4" d="M11.14,1.37c27.73.01,55.47.03,83.2.04-.01.91-.02,1.81-.04,2.72-23.74.03-47.48.11-71.22.02-3.35-.01-6.57.55-9.75,1.22-5.13,1.07-9.1,7.05-9.12,13.25-.05,21.27-.06,42.53-.08,63.8-.91.02-1.83.03-2.74.05-.01-23.44-.02-46.89-.03-70.33,3.04-2.06,4.08-6.13,7.78-7.6,1.18-.47,1.99-1.69,1.99-3.17Z"/>
      <path class="cls-8" d="M1.4,82.47c.91-.02,1.83-.03,2.74-.05.02,12.54.05,25.09.05,37.63,0,1.43.42,3.03-1.08,4.08-.57-.66-1.15-1.32-1.72-1.98,0-13.23.01-26.46.02-39.69Z"/>
      <path class="cls-8" d="M94.3,4.13c.01-.91.02-1.81.04-2.72,8.96,0,17.91-.01,26.87-.02.97.6,1.94,1.2,2.91,1.8-9.88,2.12-19.88.58-29.81.94Z"/>
      <path class="cls-7" d="M11.14,1.37c0,1.48-.81,2.7-1.99,3.17-3.7,1.47-4.74,5.54-7.78,7.6,0-3.44,0-6.88,0-10.76h9.77Z"/>
    </g>
  </g>
</svg>