<?xml version="1.0" encoding="utf-8"?>
<!-- Generator: Adobe Illustrator 28.1.0, SVG Export Plug-In . SVG Version: 6.00 Build 0)  -->
<svg version="1.1" id="_Слой_2" xmlns="http://www.w3.org/2000/svg" xmlns:xlink="http://www.w3.org/1999/xlink" x="0px"
	 y="0px" viewBox="0 0 135 135" style="enable-background:new 0 0 135 135;" xml:space="preserve">
<style type="text/css">
	.st0{fill:#179BAD;}
	.st1{fill:#084B4C;}
	.st2{fill:#FCFCFC;}
	.st3{fill:#17AD17;}
	.st4{fill:#0D720E;}
	.st5{fill:#CDE0CD;}
</style>
<g id="_Слой_1-2">
	<g>
		<path class="st0" d="M135,15.1v42.6c-2.1-1.6-2.2-5-5.2-5.9c-5.9-4.7-11.8-9.3-17.7-14c-0.9-2.6-3.1-4.2-4.9-6
			c-1.9-4.5-5.6-7.1-10-8.9c-1-1.3-3.1-1-3.8-2.8c-2.5-6.8-7.2-11.9-13-16l0-2.8c0.7,0,1.4,0,2.1,0c0.3,0,0.6,0,0.8,0
			c12.6,0,25.2,0,37.8,0c4.7,2,9.1,4.4,11.6,9.2c0.4,0.9,1.1,1.6,2.3,1.6v2c-0.1,0.1-0.4,0.2-0.4,0.2
			C134.7,14.6,134.9,14.9,135,15.1L135,15.1z"/>
		<path class="st0" d="M57.7,135H15.1c-6.6-2.6-11.3-7.1-13.7-13.8c0-13.6,0-27.1,0-40.7c0.9,0,1.9,0,2.8,0.1
			c1.9,1.6,2.2,4.3,4.4,5.8c5.5,3.8,10.6,8.1,15.4,12.8c2,1.9,3.2,4.8,5.7,6.3c2,3.9,5,6.6,9.2,7.8c0.6,0.7,1.2,1.3,1.8,2
			c3.4,7.6,9,13.4,15.9,17.8C57,133.6,57.4,134.3,57.7,135L57.7,135z"/>
		<path class="st1" d="M57.7,135c-0.3-0.7-0.7-1.4-1-2.1c5.3,0,10.6-0.4,15.8,0c6.4,0.5,11.2-2.1,14.8-7.1
			c3.6-4.9,7.6-9.4,11.8-13.9c2.2-2.1,4.9-3.7,6.3-6.6c4.4-1.1,5.9-4.8,7.6-8.3c0.3-0.6,0.7-1.2,1.1-1.8c1.3,0,1.9-0.8,2-2h0
			c2.1,0.4,3.5-1.1,4.8-2.2c3.8-3.4,10.3-5.5,10.6-11c0.6-9.4,2.4-19.1-1.7-28.3c2.9,0.9,3,4.3,5.2,5.9v25.8l-3,4
			c-6.9,5.9-15.3,10.3-20,18.6c-1.7,3.1-4.3,5.4-7.3,7.2c-7.4,4.6-11.7,11.8-16.4,18.7c-1.9,0.6-3.6,1.5-4.9,3L57.7,135L57.7,135z"
			/>
		<path class="st0" d="M132,87.4l3-4v39.6c-3.4,4.6-7.2,8.7-11.9,11.9H83.5c1.3-1.5,3-2.4,4.9-3c9.4,0,18.8,0.1,28.1,0
			c9.4-0.1,15.4-6,15.5-15.4C132.1,106.8,132,97.1,132,87.4L132,87.4z"/>
		<path class="st2" d="M1.4,80.5c0,13.6,0,27.1,0,40.7c0,4.6-0.1,9.2-0.2,13.8c-2-0.9-0.9-2.7-0.9-3.9C0.2,87.5,0.2,44,0.2,0.2h56.6
			c24.7,0,49.4,0,74.2,0.1c1.3,0,3.1-1.1,3.9,0.9c-4.6,0-9.2,0.1-13.8,0.1c-12.6,0-25.2,0-37.8,0c-0.3-0.1-0.6-0.1-0.8,0
			c-0.7,0-1.4,0-2.1,0H1.4V80.5z"/>
		<path class="st1" d="M1.2,135c0-4.6,0.1-9.2,0.2-13.8c2.4,6.8,7.1,11.2,13.7,13.8H1.2z"/>
		<path class="st1" d="M121.2,1.4c4.6,0,9.2-0.1,13.8-0.1v10.9c-1.1,0.1-1.8-0.6-2.3-1.6C130.3,5.7,125.8,3.4,121.2,1.4z"/>
		<path class="st1" d="M123.1,135c4.7-3.2,8.5-7.3,11.9-11.9V135H123.1z"/>
		<path class="st1" d="M135,15.1c-0.1-0.2-0.3-0.5-0.4-0.7c0,0,0.2-0.2,0.4-0.2V15.1z"/>
		<path class="st3" d="M105.4,105.4c-1.4,2.9-4.1,4.5-6.3,6.6c-2.6-0.1-3.5-2.2-4.5-4.1c-1.7-3.1-3.4-2.4-6-1.1
			c-2.6,1.3-3.7,2.5-2.2,5.3c1.8,3.2,1.1,5.2-2.7,6.1c-3.1,0.7-6.3,2.3-6.3-3.3c0-2.1-1.1-4.2-3.7-3.4c-2.3,0.7-6.3-0.5-6,4
			c0.5,5.9-3.7,4.8-6.9,4.5c-4.5-0.5-2.5-3.5-1.9-5.9c0.2-0.8,0.6-1.6,0-2.3c-6.3-2.9-6.4-3-10,3.1c-1.1,1.9-2.4,2.7-4.4,1.3
			c-1.1-0.8-2.4-1.1-3.7-1.1c-0.6-0.7-1.2-1.3-1.8-2c0.5-1.3,0.8-3,1.7-4c3.5-3.8,1-6-1.8-8.3c-3.3-2.8-4,0.7-5.5,2.3
			c-1,1.2-2.1,2-3.7,2.2c-2.5-1.5-3.7-4.3-5.7-6.2c0.6-3.8,5.2-3.8,6.7-7c-1.7-3.4-2.2-8.6-8.3-5c-1.7,1-3-0.1-3.9-1.9
			c-2.4-5.1-1.5-6.8,4-7.8c0.6-0.1,1.1-0.6,1.5-0.8c0-2.2,0-4.2,0-6.2c0-1.5-0.6-2.4-2.2-2.7c-2-0.4-5.1,1.2-5.6-2.4
			c-0.3-2.3-0.8-4.9,0.9-7.3c2.4,0.4,4.7,0.8,7,1.2c2.2-4.5,1.3-7.9-2.7-10.2c-1.8-1.1-2.8-2.3-1.5-4.4c0.7-1.1,1.2-2.3,1.1-3.7l0,0
			c0.3-0.3,0.7-0.6,1-0.9c0.2-0.4,0.4-0.7,0.6-1.1c1.9,0.1,3.5,0.8,4.9,2c2.7,2.4,4.7,1.5,6.9-1c2.4-2.7,1-4.3-1-6.1
			c-1.2-1.1-2.4-2.2-2.5-4c1.9-2.4,4.1-4.4,6.8-5.8c0.9,0.7,1.9,1.4,2.6,2.2c4,5.4,4.1,5.4,10.1,0.7c-0.3-1-0.6-2.1-0.9-3.2
			c-0.6-2.3-2.3-5.1,1.9-5.6c3-0.4,7.3-3,7.3,3.4c0,2.4,1.4,3.8,3.8,3.2c2.2-0.5,5.5-0.1,5.1-3.9C67,15.5,70.5,16,73.9,16
			c4.6,0,4,3.2,3.4,5.8c-1,4,2.2,3.7,4.2,4.6c2.6,1.1,4.3,0.1,4.8-2.5c0.9-4.5,3.6-4.9,7.2-3.7c0.7,1.8,2.8,1.5,3.8,2.8
			c-0.8,1.8-1.2,3.7-2.6,5.2c-2.2,2.4-1.3,4.2,1.1,6c2.1,1.5,3.9,3.2,6,0c1.3-2,3.2-2.6,5.5-2.4c1.8,1.8,3.9,3.4,4.9,6
			c-0.8,1.5-2.1,2.5-3.6,3.3c-2.2,1.1-4.3,2.2-2.3,5.2c1.6,2.5,2.5,5.6,6.6,3.2c4.1-2.4,4.5,1.3,5.4,3.8c1,2.7,1.2,4.9-2.6,5.2
			c-2.8,0.2-4.9,1.2-4.2,4.6c0.5,2.7,0.7,5.7,4.9,5.3c5.5-0.4,3.8,3.8,3.8,6.6c0,3.8-2.7,3-4.9,2.3c-2.8-0.9-4.2,0-5,2.8
			c-0.7,2.6-1.5,5.1,1.9,6c3.9,1.1,4.7,3.6,4.2,7.1h0c-1.2,0.1-1.8,0.9-2,2c-0.3,0.6-0.7,1.2-1.1,1.8c-1.9,0-3.5-1-4.8-2.2
			c-3.8-3.3-5.4,0.2-7.4,2.4c-2.6,2.8,0.2,3.9,1.7,5.5C103.5,103.7,104.5,104.5,105.4,105.4L105.4,105.4z M68.4,109.2
			c22.2,0.2,40.8-19,40.8-40.6c0-23-18.3-41.6-40.8-41.7c-24.4-0.1-42.2,19.5-42.1,41.6C26.5,89.9,44.6,109.7,68.4,109.2z"/>
		<path class="st4" d="M116.1,93.3c0.5-3.5-0.2-6-4.2-7.1c-3.4-0.9-2.6-3.4-1.9-6c0.8-2.8,2.2-3.7,5-2.8c2.2,0.7,4.9,1.5,4.9-2.3
			c0-2.8,1.7-7-3.8-6.6c-4.2,0.3-4.4-2.6-4.9-5.3c-0.7-3.4,1.5-4.4,4.2-4.6c3.8-0.3,3.7-2.5,2.6-5.2c-1-2.5-1.3-6.2-5.4-3.8
			c-4.1,2.4-5-0.8-6.6-3.2c-2-3,0.2-4.1,2.3-5.2c1.5-0.8,2.8-1.7,3.6-3.3c5.9,4.7,11.8,9.3,17.7,14c4,9.2,2.3,18.9,1.7,28.3
			c-0.4,5.5-6.8,7.6-10.6,11C119.6,92.3,118.2,93.8,116.1,93.3L116.1,93.3z"/>
		<path class="st4" d="M93.5,20.2c-3.7-1.2-6.3-0.7-7.2,3.7c-0.5,2.5-2.2,3.6-4.8,2.5c-2.1-0.9-5.2-0.6-4.2-4.6
			c0.6-2.6,1.3-5.8-3.4-5.8c-3.4,0-6.9-0.5-6.2,4.8c0.4,3.8-2.9,3.4-5.1,3.9c-2.5,0.6-3.8-0.8-3.8-3.2c0-6.4-4.3-3.8-7.3-3.4
			c-4.2,0.5-2.5,3.3-1.9,5.6c0.3,1.1,0.6,2.2,0.9,3.2c-6,4.7-6.2,4.6-10.1-0.7c-0.7-0.9-1.7-1.5-2.6-2.2c1-2.6,3.3-4.3,4.9-6.5
			c3-4.3,6.1-8.8,11-11.6c1.7-1.5,3.7-1.8,5.9-1.8c7,0.1,14,0,21,0C86.3,8.4,91,13.5,93.5,20.2L93.5,20.2z"/>
		<path class="st1" d="M80.5,4.2c-7,0-14,0.1-21,0c-2.2,0-4.2,0.3-5.9,1.8c-0.3-2.1-2-1.9-3.5-1.9C39.1,4.1,28,4,17,4.3
			C11.1,4.4,4.6,9.8,4.4,15.7C3.9,27.9,4.3,40.1,4.3,52.3c0,0.6,0.6,1.2,0.9,1.7c-2.1,8.8-0.4,17.7-1,26.5c-0.9,0-1.8,0-2.8-0.1V1.4
			h79.1C80.5,2.3,80.5,3.3,80.5,4.2L80.5,4.2z"/>
		<path class="st4" d="M107.3,31.9c-2.3-0.2-4.2,0.3-5.5,2.4c-2,3.2-3.8,1.5-6,0c-2.5-1.8-3.3-3.6-1.1-6c1.4-1.5,1.8-3.4,2.6-5.2
			C101.7,24.8,105.3,27.4,107.3,31.9L107.3,31.9z"/>
		<path class="st1" d="M82.5,1.4c0.3-0.1,0.6-0.1,0.8,0C83.1,1.4,82.8,1.4,82.5,1.4z"/>
		<path class="st4" d="M40.8,115.1c1.4-0.1,2.6,0.3,3.7,1.1c2,1.3,3.3,0.6,4.4-1.3c3.6-6.1,3.6-6,10-3.1c0.6,0.8,0.2,1.6,0,2.3
			c-0.6,2.4-2.6,5.5,1.9,5.9c3.2,0.3,7.4,1.4,6.9-4.5c-0.4-4.5,3.7-3.4,6-4c2.6-0.8,3.7,1.3,3.7,3.4c0,5.5,3.2,3.9,6.3,3.3
			c3.8-0.8,4.4-2.9,2.7-6.1c-1.5-2.7-0.3-4,2.2-5.3c2.6-1.3,4.4-2,6,1.1c1,1.8,1.9,4,4.5,4.1c-4.1,4.4-8.2,8.9-11.8,13.9
			c-3.6,5-8.4,7.6-14.8,7.1c-5.2-0.4-10.6-0.1-15.8,0C49.7,128.5,44.2,122.7,40.8,115.1L40.8,115.1z"/>
		<path class="st4" d="M4.2,80.5c0.7-8.8-1.1-17.8,1-26.5c4.3-5.6,10.1-9.4,15.9-13.1c0.1,1.4-0.4,2.6-1.1,3.7
			c-1.3,2-0.4,3.3,1.5,4.4c4,2.3,4.9,5.8,2.7,10.2c-2.3-0.4-4.7-0.8-7-1.2c-1.7,2.4-1.2,5-0.9,7.3c0.4,3.5,3.6,2,5.6,2.4
			C23.4,68,24,69,24,70.5c0,2,0,3.9,0,6.2c-0.4,0.2-0.9,0.6-1.5,0.8c-5.5,1-6.4,2.7-4,7.8c0.8,1.8,2.2,2.9,3.9,1.9
			c6.2-3.6,6.6,1.5,8.3,5c-1.5,3.2-6,3.3-6.7,7c-4.8-4.7-9.9-9-15.4-12.8C6.4,84.8,6,82.2,4.2,80.5L4.2,80.5z"/>
		<path class="st4" d="M29.7,105.3c1.5-0.2,2.7-1.1,3.7-2.2c1.4-1.6,2.2-5.1,5.5-2.3c2.8,2.3,5.3,4.5,1.8,8.3c-0.9,1-1.2,2.6-1.7,4
			C34.7,111.9,31.7,109.2,29.7,105.3L29.7,105.3z"/>
		<path class="st0" d="M132,87.4c0,9.7,0.1,19.4,0,29.1c-0.1,9.4-6,15.4-15.5,15.4c-9.4,0.1-18.8,0-28.1,0c4.7-6.9,9-14.2,16.4-18.7
			c3-1.8,5.6-4.2,7.3-7.2C116.8,97.7,125.1,93.3,132,87.4z"/>
		<path class="st4" d="M105.4,105.4c-1-0.9-2-1.7-2.9-2.6c-1.5-1.5-4.3-2.7-1.7-5.5c2-2.2,3.6-5.7,7.4-2.4c1.4,1.2,2.9,2.2,4.8,2.2
			C111.4,100.7,109.8,104.4,105.4,105.4L105.4,105.4z"/>
		<path class="st4" d="M114.1,95.3c0.2-1.1,0.8-1.9,2-2C116.1,94.6,115.5,95.3,114.1,95.3z"/>
		<path class="st0" d="M21.1,40.9C15.3,44.6,9.5,48.4,5.2,54c-0.3-0.6-0.9-1.1-0.9-1.7C4.3,40.1,4,27.9,4.4,15.7
			C4.7,9.8,11.1,4.4,17,4.2c11-0.2,22.1-0.1,33.2-0.1c1.4,0,3.1-0.3,3.5,1.9c-4.8,2.7-8,7.3-11,11.6c-1.6,2.2-3.9,3.9-4.9,6.5
			c-2.7,1.4-4.9,3.5-6.8,5.8c-4.6,1.4-6.2,5.4-8.3,9c-0.2,0.4-0.4,0.7-0.6,1.1C21.7,40.3,21.4,40.6,21.1,40.9L21.1,40.9L21.1,40.9z"
			/>
		<path class="st4" d="M68.4,109.2c-23.8,0.5-41.9-19.3-42.1-40.6C26.2,46.5,44.1,26.9,68.4,27c22.5,0.1,40.8,18.7,40.8,41.7
			C109.2,90.2,90.6,109.5,68.4,109.2z M29.9,68.1c-1,20.6,17.4,38.7,38.1,38.3c21.6-0.4,38.3-16.7,38.3-38.3
			c0-21.3-16.9-37.8-38.3-38.4C48.6,29.2,28.8,47.1,29.9,68.1z"/>
		<path class="st4" d="M22.6,38.9c2.1-3.6,3.7-7.7,8.3-9c0.2,1.8,1.3,2.9,2.5,4c2,1.8,3.3,3.4,1,6.1c-2.2,2.5-4.2,3.4-6.9,1
			C26.1,39.8,24.5,39,22.6,38.9L22.6,38.9z"/>
		<path class="st4" d="M21.1,40.9c0.3-0.3,0.7-0.6,1-0.9C21.7,40.3,21.4,40.6,21.1,40.9z"/>
		<path class="st3" d="M29.9,68.1c-1.1-21,18.8-38.9,38.2-38.3c21.3,0.6,38.3,17.1,38.3,38.4c0,21.5-16.7,37.9-38.3,38.3
			C47.3,106.8,28.9,88.6,29.9,68.1z M82.8,57.7c-6.1,0-10.8,4.4-10.9,10.3c-0.1,5.8,4.6,10.5,10.7,10.6c6.2,0.1,10.8-4.3,10.8-10.3
			C93.4,62.2,89,57.7,82.8,57.7L82.8,57.7z M53.4,57.7c-6.4,0-10.5,4-10.6,10.3c0,6.4,4.1,10.5,10.5,10.5c6.4,0,10.6-4.1,10.6-10.4
			C63.8,61.9,59.6,57.7,53.4,57.7z"/>
		<path class="st5" d="M82.8,57.7c6.2,0,10.6,4.5,10.6,10.5c-0.1,6.1-4.6,10.4-10.8,10.3c-6.1-0.1-10.8-4.8-10.7-10.6
			C72,62.1,76.7,57.6,82.8,57.7L82.8,57.7z M90.5,68c0-4.4-3.3-7.5-7.9-7.5c-4.4,0-8.1,3.8-8,8.2c0.1,3.8,3.8,6.9,8.1,7
			C87.2,75.8,90.5,72.5,90.5,68L90.5,68z"/>
		<path class="st5" d="M53.4,57.7c6.3,0,10.5,4.2,10.5,10.5c0,6.3-4.2,10.4-10.6,10.4c-6.4,0-10.5-4.2-10.5-10.5
			C42.8,61.7,47,57.7,53.4,57.7z M53.6,60.5c-5.1,0-7.8,2.5-7.9,7.4c-0.1,4.9,2.6,7.7,7.5,7.8c4.9,0,7.7-2.7,7.6-7.7
			C60.8,63.1,58.3,60.6,53.6,60.5z"/>
		<path class="st2" d="M90.5,68c0,4.5-3.2,7.7-7.8,7.6c-4.4-0.1-8-3.2-8.1-7c-0.2-4.3,3.6-8.2,8-8.2C87.2,60.5,90.5,63.6,90.5,68
			L90.5,68z"/>
		<path class="st2" d="M53.6,60.5c4.7,0,7.2,2.6,7.2,7.5c0,4.9-2.7,7.7-7.6,7.7c-4.9,0-7.6-2.8-7.5-7.8C45.8,63,48.5,60.5,53.6,60.5
			z"/>
	</g>
</g>
</svg>
