<?xml version="1.0" encoding="utf-8"?>
<!-- Generator: Adobe Illustrator 28.1.0, SVG Export Plug-In . SVG Version: 6.00 Build 0)  -->
<svg version="1.1" id="_Слой_2" xmlns="http://www.w3.org/2000/svg" xmlns:xlink="http://www.w3.org/1999/xlink" x="0px"
	 y="0px" viewBox="0 0 135 135" style="enable-background:new 0 0 135 135;" xml:space="preserve">
<style type="text/css">
	.st0{fill:#179BAD;}
	.st1{fill:#074C55;}
	.st2{fill:#FCFCFC;}
	.st3{fill:#AD16AE;}
	.st4{fill:#720E72;}
	.st5{fill:#E2D3E2;}
</style>
<g id="_Слой_1-2">
	<g>
		<path class="st0" d="M135,12.1v2c-0.1,0.1-0.4,0.2-0.4,0.2c0.1,0.3,0.2,0.5,0.4,0.7v42.6c-2.1-1.7-2.3-5.1-5.4-5.9
			c-6.1-4.7-12.2-9.3-18.2-14c-0.8-2.3-1.9-4.5-4.1-5.9c-2.6-5-6.7-8.1-11.9-9.9l0.1,0c-3.9-6.9-8.5-13.2-15-17.9c0-0.9,0-1.8,0-2.7
			c13.5,0,27.1,0,40.6,0c4.1,1.6,8,3.6,10.6,7.5C132.6,10.1,132.9,12.1,135,12.1L135,12.1z"/>
		<path class="st0" d="M58.7,135H15.1c-6.7-2.5-11.5-6.9-13.7-13.8c0-13.2,0-26.4,0-39.7c1-0.1,1.9-0.2,2.9-0.2
			c1.5,2.3,3.5,4.2,5.4,6.1c4.2,4.3,10.1,6.3,13.9,11c1.9,2.5,3.3,5.3,6.1,7c2,4,5.2,6.4,9.4,7.8c0.6,0.7,1.2,1.3,1.8,1.9
			c3.4,6,7.9,11.1,12.8,16C54.7,133.1,57.4,133.2,58.7,135L58.7,135z"/>
		<path class="st1" d="M58.7,135c-1.3-1.8-4-1.9-5.1-4c8.1,0.1,16.2,0.1,24.2,0.2c3.2,0.1,5.8-1.2,7.8-3.5c4.7-5.4,9.2-11,13.8-16.5
			c1.9-1.4,3.7-2.8,5.6-4.2c2.8-3.2,6.3-5.8,8.1-9.8c0.6-1,1.3-1.9,1.9-2.9l1.1-0.9l0,0c4.5-1,7.3-4.7,10.9-7.1
			c2.1-1.4,4.1-3.3,4.3-5.8c0.4-9.6,2.5-19.3-1.7-28.7c3.1,0.8,3.2,4.3,5.4,5.9v25.8c-1.8,0.7-2.2,2.5-3,4
			c-6.5,5.7-14.7,9.4-19,17.5c-1.6,2.9-4,5.2-6.8,7c-7.8,5.1-13,12.4-17.9,20c-1.6,1-3.3,2-4.9,3.1L58.7,135L58.7,135z"/>
		<path class="st2" d="M1.4,81.5c0,13.2,0,26.5,0,39.7c0,4.6-0.1,9.2-0.1,13.8c-2-0.9-0.9-2.7-0.9-3.9C0.2,87.5,0.2,44,0.2,0.2h56.6
			c24.7,0,49.4,0,74.2,0.1c1.3,0,3.1-1.1,3.9,0.9c-4.6,0-9.2,0.1-13.9,0.1c-13.5,0-27.1,0-40.6,0c-26.3,0-52.7,0-79.1,0L1.4,81.5
			L1.4,81.5z"/>
		<path class="st0" d="M132,87.4c0.8-1.5,1.2-3.2,3-4v39.6c-4,4.7-7.5,9.9-13.9,11.9H83.5c1.6-1,3.3-2,4.9-3.1
			c9.1,0,18.1,0.1,27.1,0.1c10.7,0,16.4-5.7,16.5-16.4C132.1,106.2,132,96.8,132,87.4z"/>
		<path class="st1" d="M121.1,135c6.3-2,9.9-7.2,13.9-11.9V135H121.1z"/>
		<path class="st1" d="M1.2,135c0-4.6,0.1-9.2,0.1-13.8c2.2,6.9,7,11.3,13.7,13.8H1.2z"/>
		<path class="st1" d="M121.1,1.4c4.6,0,9.2-0.1,13.9-0.1v10.9c-2.1-0.1-2.4-2-3.3-3.3C129.2,5,125.3,3,121.1,1.4L121.1,1.4z"/>
		<path class="st1" d="M135,15.1c-0.1-0.2-0.3-0.5-0.4-0.7c0,0,0.2-0.2,0.4-0.2V15.1z"/>
		<path class="st3" d="M105,107.1c-1.9,1.4-3.7,2.8-5.6,4.2c-2.2,0.1-4.1-0.8-4.8-2.8c-1-2.8-2.2-3.8-5.1-2.2
			c-2.5,1.4-5.4,2.2-3.3,6.1c0.8,1.5,2.1,3.6-0.3,4.6c-2.4,1.1-4.9,2.7-7.8,1.7c-1.6-2.6,0.6-7.4-4.8-7.4c-6.4-0.1-5.9,4.6-6,8.7
			c-6,0.5-8.9-2.2-8.6-8.2c-6.3-3.1-6.4-3.1-10,3.1c-1.3,2.2-2.7,2.5-4.9,1.1c-0.9-0.6-2.2-0.6-3.3-0.9c-0.6-0.7-1.2-1.3-1.8-1.9
			c0.3-1.1,0.3-2.3,0.9-3.2c3.3-6.1,3.4-6.1-3.1-10c-2.9,1.1-3.6,5.2-7.1,5.5c-2.7-1.7-4.2-4.5-6.1-7c1.4-1.1,2.7-2.4,4.2-3.3
			c2.6-1.5,3.2-3.2,1.6-6c-1.5-2.6-2.6-4.5-5.9-2.5c-2.8,1.7-4.8,0.7-5.4-2.4c-0.5-2.6-2.9-6.1,2.5-6.6c4.3-0.3,3.4-3.5,3.5-6.2
			c0.2-3.2-1.7-3.9-4.4-3.7c-3.2,0.3-4-1.5-3.8-4.2c0.2-1.7-0.5-3.6,1.1-5.4c0.6,0.1,1.4,0.1,2.2,0.3c2.6,0.7,5.4,2.5,6.6-1.9
			c1-3.6,1.4-6.3-3.6-7c-2.5-0.3-3.4-2.2-2.1-4.8c0.6-1.1,0.7-2.5,1.1-3.7l0.9-1c3.8-1.2,6,2.6,9.1,3.2c3.4-3.5,3.6-7.1,0.8-10.8
			c-0.6-0.7-0.7-1.8-1.1-2.7c1.7-2.5,4.1-4.3,6.8-5.7c0.9,0.7,1.9,1.4,2.6,2.2c4.1,5.5,4.4,5.6,10,0.9c0.7-3.1-2.8-5.3-1.7-8.7
			c2.8-0.6,5.8-0.7,8.2-2c1.3,1.1,1.7,2.4,1.8,3.7c0.2,2.3,0.2,5,3.8,4.2c2.6-0.5,6-0.1,5.4-4.5c-0.6-4.5,2.6-3.9,5.4-4.1
			c3.5-0.2,4.9,1.3,4.3,4.7c-0.5,3,0.5,4.7,3.8,5.7c3.6,1,4.3-0.8,5.2-3.3c1.1-2.9,2.9-3.9,5.7-2.1c1,0.7,2,1.1,3.2,1l-0.1,0
			c0.7,2.1,1.1,4.1-0.6,6c-2,2.3-1.9,4.2,0.7,6.1c2.4,1.7,4.4,3,6.6-0.2c1.3-1.9,3.2-2.1,5.2-2c2.2,1.3,3.3,3.5,4.1,5.8
			c-0.2,1.6-1.2,2.9-2.6,3.4c-3,1.2-4.2,2.6-2.5,5.9c1.6,3.1,3.3,4.3,6.6,2.5c2.8-1.5,4.5-0.8,5.4,2.5c1.1,3.7,1.3,6.4-3.8,6.8
			c-3.8,0.3-3.6,3.2-3,5.9c0.5,2.5,1.3,4.6,4.5,3.4c2.6-1,4.4-0.3,4.1,2.8c-0.2,2.6,1.6,7-3.4,6.4c-6.1-0.7-6.9,3.2-8.1,7.3
			c5.4,2.4,7.9,5.3,7.6,8.6c-0.5,5,0,0,0,0c-0.4,0.3-0.8,0.6-1.1,0.9c-0.6,1-1.3,1.9-1.9,2.9c-2.6,0.3-4.1-1.8-6-3
			c-4.1-2.5-4.9,1.9-6.9,3.5c-1.9,1.5-0.4,3.2,1.2,4.3C103.3,103.3,105,104.6,105,107.1L105,107.1z M49.4,33.9
			c-2.5-2.6-4.3-0.2-5.8,1C28.8,46.8,22.5,63.4,29.4,82.4c7.3,20.2,27,30.2,46.1,26.3c24.9-5,39.4-29.2,31.7-53.7
			c-6.1-19.4-29.7-32.7-49-26.9c-1.7,0.5-3.5,1-3.5,3.8c10.7-3.3,21-3.1,30.8,2.1c9.8,5.2,16.6,12.8,19.5,23.7
			c5.3,19.2-5.8,39.4-22.4,45.9c-16.5,6.5-37.1,0.7-46-13.7C23.9,69.8,27.6,53.4,49.4,33.9L49.4,33.9z M93.4,68.2
			c0.1-5.9-4.5-10.5-10.6-10.5c-6-0.1-10.8,4.5-10.8,10.3c0,4.5,4.8,10.9,8.3,11C87.9,79.3,93.3,74.9,93.4,68.2L93.4,68.2z
			 M52.9,57.7c-6.1,0-10.2,4.3-10,10.7c0.1,6.4,3.7,10.1,9.9,10.1c6.7,0,11-4,11.1-10.3C63.9,61.8,59.6,57.7,52.9,57.7L52.9,57.7z"
			/>
		<path class="st4" d="M116.2,93.4c0.3-3.4-2.2-6.2-7.6-8.6c1.2-4.1,2-8,8.1-7.3c5.1,0.6,3.2-3.9,3.4-6.4c0.3-3-1.5-3.7-4.1-2.8
			c-3.3,1.2-4.1-0.9-4.5-3.4c-0.5-2.8-0.8-5.7,3-6c5.1-0.4,4.8-3,3.8-6.8c-0.9-3.3-2.7-4-5.4-2.5c-3.3,1.8-4.9,0.7-6.6-2.5
			c-1.7-3.4-0.4-4.8,2.5-5.9c1.4-0.5,2.3-1.8,2.6-3.4c6.1,4.7,12.2,9.4,18.2,14c4.2,9.3,2.1,19.1,1.7,28.7c-0.1,2.5-2.2,4.5-4.2,5.8
			C123.4,88.7,120.6,92.4,116.2,93.4L116.2,93.4z"/>
		<path class="st4" d="M95.4,22c-1.2,0.1-2.2-0.4-3.2-1c-2.8-1.9-4.6-0.9-5.7,2.1c-0.9,2.5-1.7,4.3-5.2,3.3c-3.3-1-4.3-2.7-3.8-5.7
			c0.6-3.4-0.8-4.9-4.3-4.7c-2.8,0.1-6-0.4-5.4,4.1c0.6,4.4-2.8,4-5.4,4.6c-3.6,0.7-3.5-1.9-3.8-4.2c-0.1-1.3-0.4-2.6-1.8-3.7
			c-2.5,1.2-5.4,1.4-8.2,2c-1.1,3.4,2.3,5.6,1.7,8.7c-5.5,4.6-5.9,4.6-10-0.9c-0.7-0.9-1.7-1.5-2.6-2.2c2.9-3.7,5.6-7.6,8.7-11
			c2.3-2.5,3.7-5.9,7.2-7.2c1.6-1.7,3.7-1.7,5.9-1.7c7,0,14-0.1,20.9-0.1C87,8.8,91.5,15.2,95.4,22L95.4,22z"/>
		<path class="st1" d="M80.5,4.1c-7,0-14,0.1-20.9,0.1c-2.2,0-4.2,0-5.9,1.7c-0.8-2.5-2.9-1.7-4.6-1.7C39.1,4.1,29,4.1,19,4.2
			c-8.8,0.1-14.8,6-14.8,14.9c-0.1,9.9-0.1,19.8,0,29.6c0,1.8-0.3,3.7,1,5.2c-1.9,9-0.4,18.2-0.8,27.3c-1,0.1-1.9,0.2-2.9,0.2
			c0-26.6,0-53.1,0-80.1c26.4,0,52.8,0,79.1,0C80.5,2.3,80.5,3.2,80.5,4.1L80.5,4.1z"/>
		<path class="st4" d="M107.3,31.9c-2-0.1-3.9,0.1-5.2,2c-2.1,3.2-4.2,1.8-6.6,0.2c-2.7-1.9-2.7-3.9-0.7-6.1c1.7-1.9,1.2-3.9,0.6-6
			C100.6,23.8,104.7,26.9,107.3,31.9L107.3,31.9z"/>
		<path class="st4" d="M4.3,81.2c0.4-9.1-1-18.2,0.8-27.3c4.4-5.5,10.2-9.4,16.2-13c-0.4,1.2-0.5,2.6-1.1,3.7
			c-1.3,2.6-0.4,4.5,2.1,4.8c5,0.7,4.5,3.4,3.6,7c-1.2,4.5-4,2.6-6.6,1.9c-0.8-0.2-1.5-0.2-2.2-0.3c-1.6,1.8-1,3.7-1.1,5.4
			c-0.3,2.8,0.6,4.5,3.8,4.2c2.7-0.3,4.5,0.4,4.4,3.7c-0.1,2.7,0.8,5.9-3.5,6.2c-5.4,0.4-2.9,4-2.5,6.6c0.6,3.2,2.6,4.2,5.4,2.4
			c3.3-2.1,4.5-0.1,6,2.5c1.6,2.8,1,4.4-1.6,6c-1.5,0.9-2.8,2.2-4.2,3.3c-3.8-4.7-9.7-6.7-13.9-11C7.8,85.4,5.7,83.6,4.3,81.2
			L4.3,81.2z"/>
		<path class="st4" d="M40.8,115.1c1.1,0.3,2.4,0.3,3.3,0.9c2.1,1.4,3.6,1.1,4.9-1.1c3.6-6.2,3.6-6.1,10-3.1c-0.3,6,2.5,8.7,8.6,8.2
			c0.1-4.1-0.4-8.8,6-8.7c5.4,0.1,3.2,4.8,4.8,7.4c2.9,1,5.4-0.6,7.8-1.7c2.4-1.1,1.1-3.1,0.3-4.6c-2.2-3.9,0.8-4.7,3.3-6.1
			c2.9-1.7,4.1-0.7,5.1,2.2c0.7,2.1,2.6,2.9,4.8,2.8c-4.6,5.5-9.1,11.1-13.8,16.5c-2,2.2-4.6,3.6-7.8,3.5
			c-8.1-0.2-16.2-0.2-24.2-0.2C48.7,126.2,44.2,121.1,40.8,115.1z"/>
		<path class="st4" d="M29.7,105.3c3.5-0.3,4.3-4.4,7.1-5.5c6.5,3.9,6.4,3.9,3.1,10c-0.5,1-0.6,2.2-0.9,3.2
			C34.9,111.7,31.6,109.3,29.7,105.3z"/>
		<path class="st0" d="M132,87.4c0,9.4,0,18.8-0.1,28.1c-0.1,10.8-5.8,16.4-16.5,16.4c-9,0-18.1,0-27.1-0.1
			c4.9-7.6,10.1-14.9,17.9-20c2.8-1.8,5.2-4.1,6.8-7C117.4,96.9,125.6,93.1,132,87.4z"/>
		<path class="st4" d="M105,107.1c-0.1-2.4-1.7-3.7-3.5-5c-1.6-1.1-3.2-2.8-1.2-4.3c1.9-1.6,2.8-6,6.9-3.5c1.9,1.2,3.3,3.3,6,3
			C111.4,101.3,107.9,103.9,105,107.1z"/>
		<path class="st4" d="M115.1,94.3c0.4-0.3,0.8-0.6,1.1-0.9C115.8,93.7,115.4,94,115.1,94.3z"/>
		<path class="st0" d="M21.3,40.9c-5.9,3.7-11.7,7.5-16.2,13c-1.2-1.6-1-3.4-1-5.2c0-9.9,0-19.8,0-29.6c0.1-8.9,6-14.8,14.8-14.9
			c10-0.1,20.1-0.1,30.1,0c1.7,0,3.8-0.8,4.6,1.7c-3.5,1.3-5,4.7-7.2,7.2c-3.1,3.5-5.8,7.3-8.7,11c-2.7,1.4-5,3.2-6.8,5.7
			c-4.7,1.8-6.8,6-8.8,10.2C22.1,40,21.3,40.9,21.3,40.9z"/>
		<path class="st4" d="M49.4,33.9c-21.7,19.5-25.4,35.8-12.8,56c9,14.4,29.5,20.2,46,13.7c16.6-6.5,27.6-26.7,22.4-45.9
			c-3-10.9-9.8-18.5-19.5-23.7c-9.8-5.2-20.1-5.4-30.8-2.1c0.1-2.9,1.8-3.3,3.5-3.8c19.3-5.8,42.9,7.4,49,26.9
			c7.8,24.6-6.8,48.8-31.7,53.7c-19.2,3.8-38.8-6.1-46.1-26.3c-6.8-19-0.6-35.5,14.3-47.4C45.1,33.7,46.9,31.3,49.4,33.9L49.4,33.9z
			"/>
		<path class="st5" d="M93.4,68.2c-0.1,6.6-5.5,11.1-13.1,10.8c-3.5-0.1-8.3-6.6-8.3-11c0-5.9,4.8-10.4,10.8-10.3
			C88.9,57.8,93.4,62.3,93.4,68.2L93.4,68.2z M90.4,68.3c0.1-4.5-3.1-7.6-7.7-7.7c-4.5-0.1-8,3.2-8,7.5c0.1,4.2,3.7,7.5,8.2,7.5
			C87.1,75.6,90.3,72.5,90.4,68.3L90.4,68.3z"/>
		<path class="st5" d="M52.9,57.7c6.7,0,11,4.1,10.9,10.5c0,6.3-4.3,10.3-11.1,10.3c-6.2,0-9.8-3.7-9.9-10.1
			C42.7,62,46.8,57.7,52.9,57.7L52.9,57.7z M60.8,68.4c0.1-4.8-2.4-7.5-7-7.7c-5-0.2-7.9,2.4-8,7.3c-0.1,5,2.6,7.7,7.5,7.7
			C58,75.6,60.7,73.1,60.8,68.4L60.8,68.4z"/>
		<path class="st4" d="M22.2,40c2-4.2,4.1-8.3,8.8-10.2c0.4,0.9,0.5,1.9,1.1,2.7c2.8,3.7,2.6,7.2-0.8,10.8
			C28.1,42.6,26,38.8,22.2,40L22.2,40z"/>
		<path class="st2" d="M90.4,68.3c-0.1,4.2-3.3,7.3-7.5,7.3c-4.4,0-8.1-3.4-8.2-7.5c-0.1-4.2,3.4-7.5,8-7.5
			C87.3,60.7,90.5,63.8,90.4,68.3L90.4,68.3z"/>
		<path class="st2" d="M60.8,68.4c-0.1,4.7-2.7,7.3-7.5,7.3c-4.9,0-7.6-2.8-7.5-7.7c0.1-4.9,3-7.5,8-7.2
			C58.4,60.8,60.9,63.6,60.8,68.4L60.8,68.4z"/>
	</g>
</g>
</svg>
