<?xml version="1.0" encoding="utf-8"?>
<!-- Generator: Adobe Illustrator 28.1.0, SVG Export Plug-In . SVG Version: 6.00 Build 0)  -->
<svg version="1.1" id="_Слой_2" xmlns="http://www.w3.org/2000/svg" xmlns:xlink="http://www.w3.org/1999/xlink" x="0px"
	 y="0px" viewBox="0 0 135 135" style="enable-background:new 0 0 135 135;" xml:space="preserve">
<style type="text/css">
	.st0{fill:#179BAD;}
	.st1{fill:#0A4954;}
	.st2{fill:#FDFDFD;}
	.st3{fill:#AD16AD;}
	.st4{fill:#700E71;}
	.st5{fill:#E2D0E2;}
</style>
<g id="_Слой_1-2">
	<g>
		<path class="st0" d="M135,12.1v45.6c-1-1.1-2.1-2.2-3.1-3.3l0.1-0.1c-0.2-1-0.9-1.5-1.8-1.9c-6.1-4.8-12.1-9.7-18.2-14.6
			c-0.1-0.3-0.2-0.7-0.3-1l0-0.4l-0.4-0.2c-1.3-1.4-2.7-2.9-4.1-4.3c-0.3-0.3-0.7-0.7-1-1l0.1,0c-4-5.8-10.8-8.8-14.8-14.7
			C88.5,11.7,85.4,7,80.5,4.2c0-0.9,0-1.8,0-2.8c13.6,0,27.1,0,40.7,0c4.2,2.1,8.7,3.8,11.1,8.4C132.8,10.8,133.4,12.2,135,12.1
			L135,12.1z"/>
		<path class="st0" d="M57.7,135H12.1c-3.7-4.2-8.9-7.2-10.8-12.9l0-39.7c1-0.4,2-0.9,2.9-1.3c5.2,7.5,13.7,11.4,19.7,18
			c1.7,2,3.4,4.1,5.1,6.1c0.5,2.3,2.4,3.4,4.1,4.6c4.3,3.2,8.1,6.8,11.3,11.2c3.3,4.5,6.6,9.3,12,11.9C57,133.6,57.3,134.3,57.7,135
			L57.7,135z"/>
		<path class="st1" d="M57.7,135c-0.4-0.7-0.7-1.4-1.1-2.1c6,0,11.9-0.3,17.8,0c4.6,0.3,8.1-1.6,10.9-4.7
			c4.9-5.5,9.4-11.2,14.1-16.8c2.2-1.8,4.5-3.4,6.2-5.8c3.9-1.5,6.3-4.4,7.4-8.4c0.1-2,2-2.5,3.2-3.6c1.7-0.8,3.6-1.5,5.2-2.6
			c6.8-4.6,12.1-9.8,10.8-19.3c-0.8-5.7-0.2-11.5-0.2-17.3c1,1.1,2.1,2.2,3.1,3.3v25.8c-1.9,1-2.6,2.8-3.2,4.7
			c-6.8,4.7-14.1,8.9-18.6,16.4c-1.9,3.2-4.5,6.1-7.8,8.1c-5.8,3.7-10,8.9-13.8,14.5c-1.2,1.7-2.8,3.2-4.2,4.8c-1.3,1-2.6,2-3.9,3
			L57.7,135L57.7,135z"/>
		<path class="st0" d="M131.8,88.2c0.6-1.9,1.3-3.7,3.2-4.7v40.6c-4.1,3.8-7.5,8.5-12.9,10.9H83.5c1.3-1,2.6-2,3.9-3
			c9.9,0,19.8,0.1,29.7,0c8.4-0.1,14.7-6,14.9-14.1C132.1,108,131.9,98.1,131.8,88.2L131.8,88.2z"/>
		<path class="st2" d="M1.4,82.4c0,13.2,0,26.4,0,39.7c0,4.3-0.1,8.6-0.1,12.9c-2-0.9-0.9-2.7-0.9-3.9C0.2,87.5,0.2,44,0.2,0.2h56.6
			c24.7,0,49.4,0,74.2,0.1c1.3,0,3.1-1.1,3.9,0.9c-4.6,0-9.2,0.1-13.8,0.1c-13.6,0-27.1,0-40.7,0c-26.3,0-52.7,0-79.1,0L1.4,82.4
			L1.4,82.4z"/>
		<path class="st1" d="M121.2,1.4c4.6,0,9.2-0.1,13.8-0.1v10.9c-1.7,0-2.2-1.3-2.8-2.4C129.9,5.2,125.3,3.5,121.2,1.4z"/>
		<path class="st1" d="M122.1,135c5.3-2.4,8.7-7.1,12.9-10.9V135H122.1z"/>
		<path class="st1" d="M1.2,135c0-4.3,0.1-8.6,0.1-12.9c1.9,5.7,7.1,8.7,10.8,12.9H1.2z"/>
		<path class="st3" d="M116.1,93.5c-1.2,1.1-3,1.6-3.2,3.6c-2.1,0.4-3.5-0.8-4.8-2c-2.4-2-4-2-6.1,0.7c-2,2.6-2.3,4.5,0.3,6.7
			c1.1,0.9,2.2,2,3.2,3c-1.7,2.4-4,4-6.2,5.8c-2.2,0.1-3.8-0.9-4.8-2.9c-1.1-2.2-2.1-3.9-5.2-2.1c-2.8,1.6-4.9,2.7-3.1,6.3
			c0.6,1.1,1.3,2.4,0.6,4c-1.5,0.6-3.2,1.2-4.8,1.9c-2.8,1.2-4.3,0.7-4.7-2.6c-0.3-2.4-0.6-5.1-4.4-4.4c-3.2,0.6-6.1,1-5.5,5.6
			c0.7,5.4-3.6,4.1-6.4,3.9c-3.2-0.2-4.5-2.3-3.1-5.2c1.8-3.9-0.6-4.9-3.3-6.1c-3.4-1.4-4.3,1-5.3,3.3c-0.6,1.3-0.5,3-2.3,3.5
			c-7.4-3-8.6-4.5-5.7-8.3c3.2-4.2-0.4-5.4-2.5-7.4c-2.8-2.7-4-0.1-5.2,1.7c-1.1,1.6-2.5,2.6-4.5,2.5c-1.7-2-3.4-4.1-5.1-6.1
			c0.4-2.2,2-3.3,3.8-4.2c3.2-1.6,2.9-3.6,1.3-6.4c-1.5-2.6-2.8-4-5.7-2.1c-1.3,0.9-3,1.6-4,0.2c-1.4-2-2.3-4.4-2.2-6.9
			c0.1-1.9,1.8-2.1,3.4-2.1c2.3-0.1,4.6-0.5,3.9-3.6c-0.6-2.6,0.6-7-4.6-6.3c-3,0.4-3.9-1.1-4.1-4c-0.3-4.4,1.8-5.5,5.6-5
			c3.3,0.4,4.1-1.8,4.9-4.3c0.7-2.2,0-3.9-2-4.2c-5.6-0.9-5.3-4.2-3.9-8.2c0.9-0.9,1.7-1.9,2.6-2.8c1.7,0.2,3,1,4.3,2.1
			c2.7,2.2,4.9,1.4,7.1-1.2c2.1-2.6,1.5-4.5-1-6.2c-1.4-1-2.4-2.2-2.5-4c1.8-2.5,4.2-4.1,6.7-5.8c0.8,0.8,1.7,1.5,2.4,2.4
			c4.1,5.5,5.2,5.6,10.4,0.3c-0.4-2.7-2.8-4.9-1.9-8.1c2.6-0.9,5.4-0.6,7.7-2.1c1.7,1.3,2.3,2.9,2.4,4.5c0.2,2.5,1,4.1,4,3.4
			c2.6-0.6,6.4,0.6,5.9-4.4c-0.5-5,3.2-4,6-3.9c3.6,0,3.5,2.5,2.8,4.9c-1.1,3.2,0.2,4.5,3.2,5.2c2.8,0.7,5.1,1.2,6.1-2.5
			c0.6-2.5,1.7-5.2,5-2.9c2.4,1.7,6.8,2.8,3.4,7.3c-2.1,2.8-1.3,4.6,1.3,6.6c2.6,2,4.4,1.6,6.1-0.9c1-1.4,2.3-2.3,4-2.7l-0.1,0
			c0.3,0.3,0.7,0.7,1,1c1.3,1.4,2.7,2.9,4.1,4.3c0,0.3,0.2,0.5,0.4,0.6c0.1,0.3,0.2,0.7,0.3,1c-0.9,1.4-1.9,2.7-3.5,3.3
			c-3.2,1.2-3.5,3.1-2.1,6.2c1.5,3.2,3.4,3.5,6.2,2.2c1.1-0.5,2.2-1.6,3.7-0.9c4.2,6.9,4,7.8-2.7,10.3c-1.8,0.7-2.9,1.8-2.3,3.7
			c0.7,2.1,0.3,5.4,4.1,5c3.2-0.3,4.9,0.5,4.9,4.2c0,4-0.8,6.5-5.5,5.6c-3.6-0.7-4.3,1.7-5.1,4.5c-0.9,3,0.8,4,3,4.5
			C117,87.4,116,90.7,116.1,93.5L116.1,93.5z M82.1,32.1c11,5.3,18.8,13,22.4,24.5c3.7,11.8,1.3,22.7-4.7,32.9
			c-7.9,13.3-26.1,20.3-43,15.4C41.9,100.6,29.4,87.2,30,69.6C31,38.5,50.2,28.1,79.4,30.1c-11.7-7.3-32.7-1.2-43.4,12
			c-13.2,16.2-12.1,39.7,2.5,55c13.9,14.6,38,16.2,54.5,3.6c16.8-12.8,20.9-35.6,9.8-54.6C97.9,37.7,87.2,29.9,82.1,32.1L82.1,32.1z
			 M94.4,82.5c-0.1-6.1-4.6-10.6-10.6-10.5c-6.2,0.2-10.2,4.4-10.2,10.7c0,6.1,4.3,10.6,10.2,10.6C90.3,93.4,94.5,89.2,94.4,82.5
			L94.4,82.5z M51.7,93.4c6,0.1,10.8-4.5,11-10.4c0.1-5.9-4.6-10.8-10.5-10.9c-5.8-0.1-10.9,4.7-11,10.5
			C41,88.3,45.8,93.3,51.7,93.4L51.7,93.4z M78.5,53.7c0.1-6.2-4.2-10.7-10.3-10.8c-6.3-0.1-10.6,4.1-10.8,10.3
			c-0.1,6,4.5,11.1,10.2,11C73.9,64.1,78.4,59.7,78.5,53.7L78.5,53.7z"/>
		<path class="st4" d="M106.3,30.9c-1.7,0.4-3,1.3-4,2.7c-1.7,2.5-3.5,3-6.1,0.9c-2.5-2-3.4-3.8-1.3-6.6c3.4-4.5-1-5.6-3.4-7.3
			c-3.3-2.3-4.4,0.4-5,2.9c-0.9,3.8-3.2,3.2-6.1,2.5c-3-0.7-4.3-1.9-3.2-5.2c0.8-2.3,0.8-4.8-2.8-4.9c-2.8,0-6.5-1.1-6,3.9
			c0.5,5-3.2,3.8-5.9,4.4c-3,0.7-3.8-0.8-4-3.4c-0.2-1.6-0.7-3.2-2.4-4.5c-2.2,1.5-5.1,1.2-7.7,2.1c-0.9,3.2,1.5,5.4,1.9,8.1
			c-5.2,5.3-6.3,5.2-10.4-0.3c-0.7-0.9-1.6-1.6-2.4-2.4c0.7-2,2.5-3.5,3.8-4.7c4.4-4.2,6.4-10.6,12.2-13.4c1.6-1.7,3.7-1.7,5.8-1.7
			c7,0,14,0,21-0.1c4.9,2.9,8,7.5,11.1,12.1C95.5,22.1,102.3,25.1,106.3,30.9L106.3,30.9z"/>
		<path class="st4" d="M116.1,93.5c-0.1-2.8,0.8-6.1-3.4-7c-2.2-0.5-3.9-1.4-3-4.5c0.8-2.8,1.5-5.2,5.1-4.5c4.7,0.9,5.5-1.5,5.5-5.6
			c0-3.7-1.7-4.5-4.9-4.2c-3.8,0.4-3.4-2.9-4.1-5c-0.6-1.9,0.4-3,2.3-3.7c6.6-2.5,6.8-3.5,2.7-10.3c-1.4-0.7-2.5,0.4-3.7,0.9
			c-2.9,1.3-4.7,0.9-6.2-2.2c-1.4-3.1-1.1-4.9,2.1-6.2c1.6-0.6,2.6-2,3.5-3.3c6.1,4.8,12.1,9.7,18.2,14.6c0,1.2,0.8,1.6,1.8,1.9
			c0,0-0.1,0.1-0.1,0.1c0,5.8-0.6,11.6,0.2,17.3c1.3,9.4-4,14.7-10.8,19.3C119.7,92,117.9,92.6,116.1,93.5L116.1,93.5z"/>
		<path class="st1" d="M80.5,4.2c-7,0-14,0.1-21,0.1c-2.2,0-4.2,0-5.8,1.7c-0.7-2.5-2.9-1.8-4.5-1.8C39.1,4.1,29,4.1,19,4.2
			c-8.8,0.1-14.8,6-14.8,14.9c-0.1,9.9-0.1,19.8,0,29.6c0,1.8-0.3,3.7,1,5.2c-1.9,9-0.7,18.1-0.8,27.2c-1,0.4-2,0.9-3,1.3v-81
			c26.4,0,52.7,0,79.1,0C80.5,2.3,80.5,3.2,80.5,4.2L80.5,4.2z"/>
		<path class="st1" d="M132,54.3c-0.9-0.3-1.7-0.8-1.8-1.9C131.1,52.8,131.8,53.3,132,54.3z"/>
		<path class="st4" d="M107.3,31.9c-0.3-0.3-0.7-0.7-1-1C106.6,31.2,107,31.5,107.3,31.9z"/>
		<path class="st4" d="M111.8,36.8c-0.2-0.1-0.4-0.3-0.4-0.6l0.4,0.2C111.7,36.4,111.8,36.8,111.8,36.8z"/>
		<path class="st4" d="M29.2,105.2c2,0.1,3.4-0.9,4.5-2.5c1.3-1.8,2.5-4.5,5.2-1.7c2,2,5.7,3.2,2.5,7.4c-3,3.8-1.8,5.3,5.7,8.3
			c1.8-0.5,1.7-2.2,2.3-3.5c1-2.3,1.9-4.8,5.3-3.3c2.7,1.2,5.2,2.2,3.3,6.1c-1.3,2.8,0,5,3.1,5.2c2.8,0.1,7.1,1.5,6.4-3.9
			c-0.6-4.6,2.3-5,5.5-5.6c3.8-0.7,4.1,2,4.4,4.4c0.4,3.3,1.9,3.8,4.7,2.6c1.6-0.7,3.3-1.3,4.8-1.9c0.7-1.6-0.1-2.9-0.6-4
			c-1.8-3.6,0.3-4.7,3.1-6.3c3.1-1.8,4.1-0.1,5.2,2.1c1,1.9,2.6,2.9,4.8,2.9c-4.7,5.6-9.2,11.4-14.1,16.8c-2.8,3.1-6.3,4.9-10.9,4.7
			c-5.9-0.3-11.9,0-17.8,0c-5.4-2.5-8.7-7.4-12-11.9c-3.2-4.4-7-8-11.3-11.2C31.6,108.6,29.7,107.5,29.2,105.2L29.2,105.2z"/>
		<path class="st4" d="M4.3,81.2C4.4,72.1,3.3,63,5.1,54c4.2-5.2,9.5-9,15.3-12.1c-1.5,4-1.8,7.4,3.9,8.2c2,0.3,2.7,2.1,2,4.2
			c-0.8,2.5-1.6,4.8-4.9,4.3c-3.8-0.5-5.9,0.5-5.6,5c0.2,2.9,1.1,4.3,4.1,4c5.3-0.6,4,3.7,4.6,6.3c0.7,3.1-1.6,3.5-3.9,3.6
			c-1.5,0.1-3.3,0.2-3.4,2.1c-0.1,2.5,0.8,4.9,2.2,6.9c1,1.5,2.7,0.7,4-0.2c2.9-2,4.3-0.5,5.7,2.1c1.6,2.8,1.9,4.8-1.3,6.4
			c-1.8,0.9-3.4,2-3.8,4.2C18,92.6,9.6,88.7,4.3,81.2L4.3,81.2z"/>
		<path class="st0" d="M131.8,88.2c0.1,9.9,0.3,19.8,0.1,29.7c-0.1,8.1-6.5,14-14.8,14.1c-9.9,0.1-19.8,0-29.7,0
			c1.4-1.6,3-3.1,4.2-4.8c3.8-5.6,8-10.8,13.8-14.5c3.3-2.1,5.9-4.9,7.8-8.1C117.7,97.1,124.9,92.9,131.8,88.2L131.8,88.2z"/>
		<path class="st4" d="M105.6,105.5c-1.1-1-2.1-2.1-3.2-3c-2.6-2.2-2.3-4.1-0.3-6.7c2.1-2.6,3.7-2.7,6.1-0.7c1.3,1.1,2.8,2.4,4.8,2
			C111.9,101.1,109.5,104,105.6,105.5z"/>
		<path class="st0" d="M20.5,41.9C14.7,45,9.3,48.8,5.1,54c-1.3-1.5-1-3.4-1-5.2c0-9.9,0-19.8,0-29.6c0.1-8.9,6-14.9,14.8-14.9
			c10-0.1,20.1-0.1,30.1,0c1.7,0,3.8-0.8,4.5,1.8c-5.9,2.8-7.8,9.2-12.2,13.3c-1.3,1.2-3.1,2.7-3.8,4.7c-2.5,1.6-4.9,3.3-6.7,5.8
			c-3.8,2.1-7.3,4.4-7.9,9.3C22.2,40,21.3,40.9,20.5,41.9L20.5,41.9z"/>
		<path class="st4" d="M82.1,32.1c5.1-2.3,15.8,5.5,20.8,14.1c11.1,19,6.9,41.8-9.8,54.6c-16.5,12.6-40.6,11-54.5-3.6
			c-14.6-15.3-15.7-38.8-2.5-55c10.7-13.2,31.7-19.4,43.4-12C50.2,28.1,31,38.4,30,69.6c-0.6,17.5,11.9,30.9,26.8,35.3
			c16.9,4.9,35.2-2,43-15.4c6.1-10.2,8.5-21.1,4.7-32.9C100.9,45.2,93.1,37.5,82.1,32.1L82.1,32.1z"/>
		<path class="st5" d="M94.4,82.5c0.1,6.6-4.1,10.8-10.7,10.8c-5.9,0-10.2-4.4-10.2-10.6c0-6.3,4-10.6,10.2-10.7
			C89.8,71.9,94.4,76.4,94.4,82.5L94.4,82.5z M83.8,90.5c3.8,0.1,8.4-4,8.4-7.5c0-3.7-4.3-8.1-8-8.2c-4.2-0.1-7.7,3.6-7.7,8
			C76.4,87.1,79.5,90.4,83.8,90.5L83.8,90.5z"/>
		<path class="st5" d="M51.7,93.4c-5.9-0.1-10.7-5-10.6-10.8c0.2-5.7,5.3-10.6,11-10.5C58,72.2,62.8,77.1,62.7,83
			S57.7,93.5,51.7,93.4L51.7,93.4z M59.7,83.2c0.1-3.8-3.9-8.3-7.4-8.5c-3.8-0.1-8.2,3.9-8.3,7.7c-0.1,4.6,3.3,8,8.1,8
			C56.4,90.5,59.6,87.4,59.7,83.2z"/>
		<path class="st5" d="M78.5,53.7c-0.1,6-4.7,10.4-10.8,10.5c-5.7,0-10.3-5-10.2-11c0.1-6.2,4.5-10.4,10.8-10.3
			C74.3,43,78.6,47.5,78.5,53.7L78.5,53.7z M75.6,53.4c0-4.3-3-7.5-7.2-7.7c-4.2-0.1-8.3,3.3-8.5,7.2c-0.2,3.8,4.3,8.4,8.1,8.5
			C72.1,61.5,75.6,57.8,75.6,53.4L75.6,53.4z"/>
		<path class="st4" d="M23.1,39c0.6-4.8,4.1-7.2,7.9-9.3c0.1,1.8,1.1,3,2.5,4c2.4,1.7,3.1,3.5,1,6.2c-2.1,2.7-4.4,3.5-7.1,1.2
			C26.1,40.1,24.8,39.2,23.1,39L23.1,39z"/>
		<path class="st2" d="M83.8,90.5c-4.2-0.1-7.3-3.4-7.3-7.7c0.1-4.4,3.6-8.1,7.7-8c3.7,0.1,8,4.4,8,8.2
			C92.2,86.4,87.6,90.5,83.8,90.5L83.8,90.5z"/>
		<path class="st2" d="M59.7,83.2c-0.1,4.2-3.3,7.3-7.6,7.3c-4.8,0-8.3-3.4-8.1-8c0.1-3.8,4.5-7.8,8.3-7.7
			C55.8,74.8,59.8,79.4,59.7,83.2z"/>
		<path class="st2" d="M75.6,53.4c0,4.4-3.5,8.1-7.6,8c-3.8,0-8.3-4.7-8.1-8.5c0.2-3.9,4.2-7.4,8.5-7.2
			C72.6,45.9,75.6,49.2,75.6,53.4L75.6,53.4z"/>
	</g>
</g>
</svg>
